<svg xmlns="http://www.w3.org/2000/svg" xmlns:xlink="http://www.w3.org/1999/xlink" width="700" height="500">
<defs>
<style type="text/css"><![CDATA[
  .borderLine {
	   stroke: none;
	   fill-opacity:  0.4 ;
  }
  .outLine {
	   stroke-width:  1 ;
	   fill: none;
  }
  .circle {
	   stroke: #888888;
	   stroke-width: 0.5;
	   fill: none;
    pointer-events: all;
  }
  .nLabel {
	   font-family: Arial;
    pointer-events: none;
	   font-size: 10px;
	   text-anchor: middle;
	   alignment-baseline: central;
  }
  .belong {
	   font-family: Arial;
    pointer-events: none;
	   font-size: 5px;
	   text-anchor: middle;
	   alignment-baseline: central;
  }
  .legend {
    font-family: Arial;
    font-size: 15px;
  }
  #legendBox {
    display:  inline ;
  }
  .p0{
    stroke: none;
    fill: #e6194b;
  }
  .q0{
    fill: none;
    stroke: #e6194b;
  }
  .p1{
    stroke: none;
    fill: #3cb44b;
  }
  .q1{
    fill: none;
    stroke: #3cb44b;
  }
  .p2{
    stroke: none;
    fill: #ffe119;
  }
  .q2{
    fill: none;
    stroke: #ffe119;
  }
  .p3{
    stroke: none;
    fill: #0082c8;
  }
  .q3{
    fill: none;
    stroke: #0082c8;
  }
]]>
</style>
<symbol id="bl0">
<path d="M 176.51 345.66 L 176.33 347.68 L 176.11 349.65 L 175.85 351.55 L 175.55 353.40 L 175.21 355.22 L 174.84 357.01 L 174.44 358.79 L 174.02 360.56 L 173.56 362.34 L 173.07 364.12 L 172.55 365.93 L 172.00 367.76 L 171.44 369.62 L 170.87 371.50 L 170.31 373.38 L 169.76 375.27 L 169.21 377.15 L 168.66 379.01 L 168.10 380.84 L 167.51 382.64 L 166.88 384.38 L 166.18 386.09 L 165.39 387.77 L 164.48 389.41 L 163.46 391.02 L 162.33 392.57 L 161.08 394.02 L 159.75 395.35 L 158.33 396.55 L 156.82 397.60 L 155.22 398.51 L 153.52 399.28 L 151.72 399.91 L 149.87 400.40 L 147.97 400.76 L 146.08 400.97 L 144.22 401.04 L 142.41 400.97 L 140.66 400.76 L 138.97 400.40 L 137.33 399.90 L 135.76 399.27 L 134.23 398.50 L 132.74 397.59 L 131.28 396.52 L 129.85 395.29 L 128.45 393.88 L 127.09 392.29 L 125.80 390.54 L 124.61 388.64 L 123.53 386.64 L 122.59 384.57 L 121.76 382.48 L 121.05 380.38 L 120.42 378.32 L 119.85 376.31 L 119.32 374.34 L 118.81 372.42 L 118.29 370.54 L 117.77 368.66 L 117.23 366.78 L 116.69 364.88 L 116.16 362.96 L 115.64 361.00 L 115.14 359.01 L 114.64 356.97 L 114.14 354.89 L 113.64 352.79 L 113.16 350.70 L 112.72 348.65 L 112.35 346.67 L 112.07 344.77 L 111.92 342.94 L 111.88 341.17 L 111.98 339.43 L 112.18 337.72 L 112.48 336.02 L 112.86 334.31 L 113.29 332.58 L 113.76 330.82 L 114.27 329.02 L 114.81 327.18 L 115.39 325.30 L 116.03 323.38 L 116.71 321.46 L 117.43 319.53 L 118.16 317.60 L 118.88 315.68 L 119.59 313.77 L 120.30 311.88 L 121.00 310.02 L 121.73 308.21 L 122.48 306.45 L 123.28 304.72 L 124.14 303.01 L 125.08 301.31 L 126.12 299.60 L 127.27 297.90 L 128.53 296.24 L 129.89 294.64 L 131.32 293.13 L 132.78 291.72 L 134.24 290.41 L 135.69 289.16 L 137.10 287.95 L 138.48 286.77 L 139.83 285.60 L 141.15 284.42 L 142.46 283.25 L 143.78 282.07 L 145.10 280.89 L 146.44 279.70 L 147.80 278.51 L 149.17 277.32 L 150.55 276.15 L 151.93 274.99 L 153.29 273.84 L 154.65 272.71 L 156.00 271.58 L 157.35 270.46 L 158.71 269.34 L 160.09 268.22 L 161.48 267.11 L 162.88 266.03 L 164.30 264.99 L 165.73 264.00 L 167.19 263.08 L 168.67 262.24 L 170.19 261.47 L 171.75 260.77 L 173.34 260.10 L 174.96 259.47 L 176.60 258.84 L 178.24 258.21 L 179.88 257.58 L 181.52 256.94 L 183.16 256.31 L 184.79 255.69 L 186.42 255.06 L 188.06 254.44 L 189.69 253.82 L 191.33 253.21 L 192.97 252.60 L 194.62 252.01 L 196.27 251.42 L 197.94 250.86 L 199.62 250.34 L 201.33 249.86 L 203.05 249.47 L 204.78 249.18 L 206.52 249.02 L 208.26 248.99 L 209.99 249.12 L 211.68 249.41 L 213.33 249.85 L 214.92 250.45 L 216.44 251.20 L 217.86 252.09 L 219.18 253.12 L 220.39 254.29 L 221.49 255.58 L 222.45 257.00 L 223.28 258.53 L 223.96 260.15 L 224.49 261.86 L 224.86 263.62 L 225.05 265.41 L 225.07 267.21 L 224.90 268.99 L 224.55 270.75 L 224.01 272.45 L 223.29 274.10 L 222.38 275.67 L 221.31 277.14 L 220.08 278.49 L 218.69 279.72 L 217.17 280.80 L 215.54 281.74 L 213.80 282.54 L 211.97 283.21 L 210.09 283.77 L 208.18 284.25 L 206.25 284.69 L 204.33 285.12 L 202.43 285.58 L 200.58 286.07 L 198.78 286.63 L 197.04 287.25 L 195.36 287.94 L 193.75 288.70 L 192.20 289.54 L 190.70 290.45 L 189.26 291.43 L 187.87 292.48 L 186.53 293.61 L 185.24 294.83 L 183.99 296.12 L 182.78 297.52 L 181.62 299.01 L 180.51 300.59 L 179.46 302.26 L 178.47 304.01 L 177.57 305.80 L 176.76 307.63 L 176.05 309.49 L 175.46 311.35 L 174.97 313.21 L 174.60 315.07 L 174.34 316.93 L 174.19 318.80 L 174.15 320.66 L 174.21 322.53 L 174.38 324.38 L 174.62 326.21 L 174.94 328.02 L 175.31 329.82 L 175.69 331.63 L 176.05 333.47 L 176.35 335.36 L 176.56 337.33 L 176.68 339.38 L 176.70 341.47 L 176.64 343.57 Z" />
</symbol>
<symbol id="bl1">
<path d="M 187.96 274.49 L 186.94 277.64 L 185.83 280.74 L 184.63 283.80 L 183.34 286.82 L 181.99 289.81 L 180.60 292.78 L 179.18 295.74 L 177.73 298.70 L 176.27 301.65 L 174.79 304.60 L 173.29 307.52 L 171.77 310.43 L 170.21 313.31 L 168.62 316.18 L 167.02 319.04 L 165.44 321.89 L 163.90 324.75 L 162.45 327.63 L 161.10 330.51 L 159.82 333.39 L 158.55 336.22 L 157.25 338.99 L 155.85 341.65 L 154.31 344.17 L 152.58 346.54 L 150.66 348.71 L 148.51 350.68 L 146.13 352.46 L 143.55 354.08 L 140.80 355.61 L 137.94 357.11 L 135.03 358.63 L 132.11 360.21 L 129.24 361.87 L 126.42 363.61 L 123.68 365.41 L 121.01 367.26 L 118.40 369.13 L 115.85 371.01 L 113.35 372.90 L 110.90 374.79 L 108.47 376.69 L 106.06 378.60 L 103.65 380.51 L 101.25 382.41 L 98.83 384.28 L 96.39 386.11 L 93.91 387.86 L 91.36 389.53 L 88.73 391.08 L 86.00 392.51 L 83.17 393.78 L 80.23 394.89 L 77.21 395.82 L 74.12 396.56 L 70.98 397.09 L 67.82 397.42 L 64.64 397.52 L 61.47 397.41 L 58.32 397.07 L 55.20 396.52 L 52.14 395.76 L 49.14 394.80 L 46.24 393.65 L 43.44 392.31 L 40.75 390.81 L 38.18 389.14 L 35.74 387.31 L 33.44 385.33 L 31.27 383.19 L 29.24 380.90 L 27.35 378.46 L 25.61 375.89 L 24.04 373.19 L 22.64 370.39 L 21.42 367.49 L 20.37 364.53 L 19.49 361.52 L 18.77 358.48 L 18.18 355.41 L 17.71 352.34 L 17.33 349.26 L 17.02 346.17 L 16.75 343.05 L 16.52 339.92 L 16.31 336.77 L 16.11 333.59 L 15.91 330.40 L 15.71 327.20 L 15.50 324.01 L 15.28 320.82 L 15.05 317.63 L 14.82 314.45 L 14.60 311.26 L 14.39 308.06 L 14.20 304.85 L 14.03 301.63 L 13.88 298.41 L 13.74 295.19 L 13.62 291.98 L 13.48 288.78 L 13.32 285.58 L 13.15 282.38 L 12.94 279.19 L 12.70 276.00 L 12.44 272.81 L 12.15 269.64 L 11.86 266.47 L 11.57 263.32 L 11.29 260.18 L 11.04 257.05 L 10.80 253.93 L 10.59 250.82 L 10.41 247.70 L 10.25 244.58 L 10.13 241.44 L 10.04 238.29 L 10.00 235.12 L 10.02 231.95 L 10.12 228.77 L 10.31 225.61 L 10.60 222.45 L 11.00 219.32 L 11.52 216.21 L 12.16 213.13 L 12.93 210.07 L 13.83 207.04 L 14.86 204.03 L 16.02 201.06 L 17.30 198.12 L 18.70 195.23 L 20.22 192.39 L 21.84 189.63 L 23.57 186.95 L 25.38 184.37 L 27.28 181.89 L 29.27 179.51 L 31.33 177.24 L 33.47 175.07 L 35.69 172.99 L 38.00 171.00 L 40.39 169.10 L 42.86 167.30 L 45.40 165.59 L 48.03 163.99 L 50.72 162.49 L 53.47 161.09 L 56.29 159.81 L 59.17 158.64 L 62.09 157.58 L 65.07 156.63 L 68.08 155.80 L 71.14 155.09 L 74.22 154.49 L 77.33 154.00 L 80.47 153.62 L 83.62 153.33 L 86.79 153.10 L 89.95 152.93 L 93.13 152.78 L 96.30 152.66 L 99.46 152.54 L 102.63 152.43 L 105.79 152.32 L 108.96 152.22 L 112.14 152.12 L 115.32 152.03 L 118.52 151.94 L 121.72 151.84 L 124.92 151.73 L 128.13 151.62 L 131.34 151.49 L 134.54 151.36 L 137.72 151.22 L 140.88 151.08 L 144.02 150.94 L 147.14 150.81 L 150.23 150.69 L 153.32 150.59 L 156.40 150.50 L 159.49 150.43 L 162.59 150.40 L 165.72 150.43 L 168.86 150.54 L 172.00 150.78 L 175.11 151.21 L 178.18 151.89 L 181.14 152.85 L 183.98 154.12 L 186.66 155.69 L 189.20 157.54 L 191.61 159.61 L 193.92 161.83 L 196.17 164.16 L 198.39 166.56 L 200.60 169.00 L 202.81 171.46 L 205.03 173.95 L 207.24 176.45 L 209.43 178.98 L 211.56 181.54 L 213.62 184.14 L 215.56 186.81 L 217.33 189.56 L 218.90 192.40 L 220.23 195.32 L 221.28 198.32 L 222.04 201.39 L 222.50 204.50 L 222.65 207.62 L 222.50 210.73 L 222.04 213.79 L 221.29 216.79 L 220.28 219.69 L 219.01 222.51 L 217.52 225.23 L 215.86 227.88 L 214.04 230.45 L 212.13 232.98 L 210.14 235.48 L 208.12 237.97 L 206.09 240.44 L 204.06 242.92 L 202.05 245.42 L 200.08 247.96 L 198.18 250.55 L 196.39 253.23 L 194.74 256.01 L 193.27 258.91 L 191.99 261.91 L 190.87 265.00 L 189.86 268.15 L 188.92 271.32 Z" />
</symbol>
<symbol id="bl2">
<path d="M 442.48 335.38 L 438.37 338.71 L 434.12 341.88 L 429.75 344.88 L 425.26 347.70 L 420.65 350.34 L 415.94 352.80 L 411.13 355.08 L 406.23 357.16 L 401.26 359.05 L 396.22 360.73 L 391.13 362.21 L 385.99 363.49 L 380.81 364.56 L 375.59 365.42 L 370.34 366.09 L 365.07 366.56 L 359.77 366.84 L 354.46 366.95 L 349.14 366.91 L 343.81 366.75 L 338.48 366.50 L 333.14 366.18 L 327.79 365.81 L 322.44 365.43 L 317.09 365.04 L 311.74 364.65 L 306.40 364.27 L 301.06 363.88 L 295.73 363.49 L 290.40 363.10 L 285.08 362.70 L 279.75 362.30 L 274.41 361.90 L 269.06 361.50 L 263.70 361.11 L 258.33 360.72 L 252.96 360.33 L 247.57 359.94 L 242.16 359.55 L 236.75 359.14 L 231.31 358.69 L 225.85 358.18 L 220.36 357.57 L 214.82 356.80 L 209.25 355.86 L 203.63 354.70 L 198.00 353.34 L 192.38 351.80 L 186.82 350.09 L 181.35 348.24 L 176.00 346.25 L 170.75 344.12 L 165.58 341.89 L 160.41 339.55 L 155.19 337.15 L 149.89 334.72 L 144.50 332.29 L 139.05 329.86 L 133.51 327.47 L 127.89 325.12 L 122.15 322.81 L 116.30 320.53 L 110.36 318.29 L 104.38 316.08 L 98.41 313.91 L 92.50 311.81 L 86.67 309.78 L 80.91 307.83 L 75.19 305.91 L 69.48 303.91 L 63.74 301.72 L 57.97 299.20 L 52.23 296.25 L 46.59 292.82 L 41.15 288.88 L 36.01 284.46 L 31.24 279.59 L 26.93 274.32 L 23.12 268.70 L 19.86 262.80 L 17.15 256.65 L 15.03 250.30 L 13.50 243.78 L 12.57 237.14 L 12.25 230.41 L 12.55 223.66 L 13.45 216.93 L 14.97 210.29 L 17.09 203.79 L 19.78 197.51 L 23.03 191.51 L 26.80 185.84 L 31.06 180.56 L 35.77 175.69 L 40.91 171.29 L 46.45 167.37 L 52.34 163.97 L 58.54 161.11 L 65.01 158.82 L 71.69 157.12 L 78.50 156.03 L 85.38 155.55 L 92.28 155.66 L 99.15 156.35 L 105.96 157.57 L 112.68 159.23 L 119.32 161.26 L 125.88 163.56 L 132.38 166.04 L 138.83 168.60 L 145.22 171.12 L 151.54 173.46 L 157.75 175.45 L 163.81 176.93 L 169.68 177.79 L 175.37 178.13 L 180.88 177.50 L 186.00 175.88 L 191.01 174.00 L 195.88 171.81 L 200.65 169.39 L 205.33 166.81 L 209.96 164.14 L 214.55 161.41 L 219.13 158.66 L 223.70 155.90 L 228.27 153.13 L 232.83 150.37 L 237.38 147.60 L 241.94 144.84 L 246.48 142.07 L 251.02 139.30 L 255.55 136.53 L 260.07 133.76 L 264.60 130.99 L 269.12 128.23 L 273.66 125.48 L 278.22 122.76 L 282.81 120.10 L 287.46 117.50 L 292.16 115.01 L 296.94 112.65 L 301.78 110.44 L 306.70 108.40 L 311.68 106.54 L 316.73 104.87 L 321.83 103.41 L 326.99 102.15 L 332.18 101.09 L 337.41 100.25 L 342.66 99.61 L 347.94 99.18 L 353.23 98.96 L 358.54 98.96 L 363.84 99.16 L 369.15 99.58 L 374.44 100.21 L 379.72 101.05 L 384.95 102.10 L 390.15 103.36 L 395.29 104.83 L 400.36 106.49 L 405.36 108.36 L 410.28 110.42 L 415.11 112.67 L 419.84 115.12 L 424.46 117.74 L 428.98 120.55 L 433.37 123.53 L 437.64 126.67 L 441.77 129.98 L 445.77 133.46 L 449.63 137.08 L 453.34 140.86 L 456.91 144.78 L 460.31 148.84 L 463.55 153.03 L 466.63 157.34 L 469.53 161.78 L 472.25 166.33 L 474.80 170.99 L 477.16 175.75 L 479.33 180.61 L 481.32 185.55 L 483.10 190.58 L 484.69 195.68 L 486.07 200.84 L 487.25 206.06 L 488.22 211.32 L 488.98 216.61 L 489.53 221.93 L 489.87 227.26 L 490.00 232.60 L 489.91 237.93 L 489.62 243.24 L 489.11 248.53 L 488.39 253.79 L 487.47 259.01 L 486.33 264.21 L 484.99 269.35 L 483.45 274.45 L 481.70 279.49 L 479.75 284.45 L 477.61 289.33 L 475.28 294.12 L 472.76 298.81 L 470.06 303.38 L 467.19 307.85 L 464.14 312.19 L 460.92 316.41 L 457.53 320.50 L 453.99 324.44 L 450.30 328.24 L 446.46 331.89 Z" />
</symbol>
<symbol id="bl3">
<path d="M 211.77 284.48 L 214.37 285.02 L 216.96 285.63 L 219.51 286.33 L 222.00 287.16 L 224.42 288.15 L 226.78 289.31 L 229.07 290.67 L 231.31 292.24 L 233.47 294.03 L 235.53 296.02 L 237.46 298.18 L 239.22 300.47 L 240.79 302.86 L 242.15 305.32 L 243.30 307.83 L 244.23 310.38 L 244.94 312.98 L 245.44 315.66 L 245.71 318.43 L 245.74 321.32 L 245.52 324.32 L 245.05 327.41 L 244.33 330.57 L 243.39 333.74 L 242.27 336.88 L 241.02 339.95 L 239.69 342.92 L 238.32 345.79 L 236.93 348.57 L 235.53 351.28 L 234.12 353.95 L 232.69 356.58 L 231.26 359.21 L 229.83 361.84 L 228.39 364.49 L 226.94 367.16 L 225.48 369.88 L 223.99 372.63 L 222.50 375.37 L 221.01 378.09 L 219.52 380.73 L 218.00 383.30 L 216.43 385.76 L 214.79 388.10 L 213.04 390.29 L 211.18 392.28 L 209.19 394.05 L 207.06 395.58 L 204.79 396.84 L 202.38 397.84 L 199.85 398.57 L 197.23 399.02 L 194.57 399.17 L 191.92 399.02 L 189.33 398.57 L 186.81 397.81 L 184.39 396.73 L 182.05 395.33 L 179.81 393.60 L 177.70 391.55 L 175.73 389.23 L 173.93 386.68 L 172.30 383.97 L 170.81 381.17 L 169.42 378.36 L 168.08 375.58 L 166.73 372.87 L 165.29 370.24 L 163.75 367.72 L 162.06 365.32 L 160.25 363.06 L 158.33 360.93 L 156.34 358.91 L 154.35 356.96 L 152.42 355.04 L 150.64 353.12 L 149.09 351.13 L 147.85 349.06 L 146.97 346.90 L 146.47 344.68 L 146.33 342.43 L 146.60 340.23 L 147.27 338.15 L 148.36 336.21 L 149.87 334.43 L 151.72 332.76 L 153.83 331.14 L 156.07 329.49 L 158.32 327.71 L 160.47 325.78 L 162.43 323.68 L 164.13 321.42 L 165.53 319.03 L 166.62 316.54 L 167.39 313.97 L 167.86 311.33 L 168.04 308.65 L 167.97 305.93 L 167.68 303.21 L 167.20 300.48 L 166.59 297.76 L 165.88 295.02 L 165.12 292.27 L 164.36 289.50 L 163.62 286.71 L 162.97 283.92 L 162.41 281.14 L 161.99 278.38 L 161.71 275.64 L 161.57 272.91 L 161.54 270.18 L 161.60 267.44 L 161.72 264.67 L 161.87 261.87 L 162.05 259.02 L 162.24 256.11 L 162.42 253.14 L 162.61 250.14 L 162.79 247.13 L 162.96 244.14 L 163.11 241.16 L 163.22 238.21 L 163.29 235.25 L 163.29 232.27 L 163.21 229.27 L 163.05 226.26 L 162.80 223.26 L 162.47 220.27 L 162.10 217.33 L 161.71 214.45 L 161.34 211.62 L 161.03 208.84 L 160.78 206.11 L 160.60 203.43 L 160.47 200.79 L 160.39 198.19 L 160.33 195.61 L 160.28 193.04 L 160.23 190.48 L 160.18 187.91 L 160.13 185.34 L 160.09 182.74 L 160.06 180.12 L 160.05 177.47 L 160.11 174.76 L 160.25 172.01 L 160.52 169.23 L 160.99 166.47 L 161.69 163.79 L 162.64 161.26 L 163.88 158.96 L 165.39 156.94 L 167.14 155.22 L 169.10 153.82 L 171.23 152.77 L 173.47 152.07 L 175.79 151.72 L 178.14 151.73 L 180.46 152.09 L 182.74 152.78 L 184.94 153.77 L 187.04 155.02 L 189.05 156.48 L 190.98 158.11 L 192.84 159.87 L 194.65 161.71 L 196.44 163.62 L 198.21 165.58 L 199.97 167.57 L 201.75 169.60 L 203.54 171.67 L 205.36 173.79 L 207.22 175.96 L 209.08 178.15 L 210.92 180.34 L 212.71 182.51 L 214.41 184.65 L 215.99 186.78 L 217.45 188.92 L 218.76 191.10 L 219.93 193.33 L 220.93 195.64 L 221.74 198.04 L 222.37 200.51 L 222.80 203.06 L 223.03 205.66 L 223.04 208.29 L 222.86 210.92 L 222.48 213.52 L 221.90 216.06 L 221.14 218.52 L 220.22 220.90 L 219.14 223.19 L 217.91 225.41 L 216.55 227.58 L 215.07 229.73 L 213.46 231.88 L 211.75 234.05 L 209.94 236.25 L 208.08 238.47 L 206.19 240.69 L 204.31 242.88 L 202.48 245.03 L 200.70 247.14 L 199.00 249.23 L 197.39 251.33 L 195.89 253.45 L 194.55 255.61 L 193.40 257.82 L 192.48 260.09 L 191.83 262.40 L 191.48 264.75 L 191.45 267.11 L 191.73 269.43 L 192.34 271.68 L 193.25 273.83 L 194.46 275.82 L 195.94 277.63 L 197.68 279.22 L 199.65 280.58 L 201.82 281.71 L 204.15 282.61 L 206.62 283.34 L 209.17 283.94 Z" />
</symbol>
</defs>
<!-- isDone: 0 -->
<rect width="700" height="500" style="fill:#fff;stroke-width:0" />
<use class="p0 borderLine" xlink:href="#bl0"/>
<use class="p1 borderLine" xlink:href="#bl1"/>
<use class="p2 borderLine" xlink:href="#bl2"/>
<use class="p3 borderLine" xlink:href="#bl3"/>
<use class="q0 outLine" xlink:href="#bl0"/>
<use class="q1 outLine" xlink:href="#bl1"/>
<use class="q2 outLine" xlink:href="#bl2"/>
<use class="q3 outLine" xlink:href="#bl3"/>
<circle onclick="fromCircle(8)" class="circle" cx="144.6635" cy="378.7572" r="16.9171" />
<text class="nLabel" x="144.66" y="373.76">72</text>
<text class="belong" x="144.66" y="383.76">(1)</text>
<circle onclick="fromCircle(12)" class="circle" cx="128.7799" cy="342.4629" r="11.4530" />
<text class="nLabel" x="128.78" y="337.46">33</text>
<text class="belong" x="128.78" y="347.46">(1, 2)</text>
<circle onclick="fromCircle(14)" class="circle" cx="146.4938" cy="309.4993" r="16.9171" />
<text class="nLabel" x="146.49" y="304.50">72</text>
<text class="belong" x="146.49" y="314.50">(1, 2, 3)</text>
<circle onclick="fromCircle(15)" class="circle" cx="174.6846" cy="274.3304" r="7.9748" />
<text class="nLabel" x="174.68" y="269.33">16</text>
<text class="belong" x="174.68" y="279.33">(1, 2, 3, 4)</text>
<circle onclick="fromCircle(4)" class="circle" cx="64.5019" cy="351.3102" r="41.3423" />
<text class="nLabel" x="64.50" y="346.31">430</text>
<text class="belong" x="64.50" y="356.31">(2)</text>
<circle onclick="fromCircle(6)" class="circle" cx="86.4518" cy="229.7321" r="71.1336" />
<text class="nLabel" x="86.45" y="224.73">1273</text>
<text class="belong" x="86.45" y="234.73">(2, 3)</text>
<circle onclick="fromCircle(7)" class="circle" cx="192.1203" cy="207.1613" r="25.9947" />
<text class="nLabel" x="192.12" y="202.16">170</text>
<text class="belong" x="192.12" y="212.16">(2, 3, 4)</text>
<circle onclick="fromCircle(5)" class="circle" cx="176.8187" cy="166.7798" r="11.1005" />
<text class="nLabel" x="176.82" y="161.78">31</text>
<text class="belong" x="176.82" y="171.78">(2, 4)</text>
<circle onclick="fromCircle(2)" class="circle" cx="357.4041" cy="232.4548" r="129.3452" />
<text class="nLabel" x="357.40" y="227.45">4209</text>
<text class="belong" x="357.40" y="237.45">(3)</text>
<circle onclick="fromCircle(10)" class="circle" cx="208.0039" cy="266.2786" r="11.9622" />
<text class="nLabel" x="208.00" y="261.28">36</text>
<text class="belong" x="208.00" y="271.28">(1, 3)</text>
<circle onclick="fromCircle(11)" class="circle" cx="167.3765" cy="335.2842" r="3.9874" />
<text class="nLabel" x="167.38" y="330.28">4</text>
<text class="belong" x="167.38" y="340.28">(1, 3, 4)</text>
<circle onclick="fromCircle(3)" class="circle" cx="210.3320" cy="320.9139" r="30.4326" />
<text class="nLabel" x="210.33" y="315.91">233</text>
<text class="belong" x="210.33" y="325.91">(3, 4)</text>
<circle onclick="fromCircle(1)" class="circle" cx="194.6555" cy="376.4548" r="18.1635" />
<text class="nLabel" x="194.66" y="371.45">83</text>
<text class="belong" x="194.66" y="381.45">(4)</text>
<circle onclick="fromCircle(9)" class="circle" cx="165.7597" cy="353.9875" r="3.4532" />
<text class="nLabel" x="165.76" y="348.99">3</text>
<text class="belong" x="165.76" y="358.99">(1, 4)</text>
<circle onclick="fromCircle(13)" class="circle" cx="149.9021" cy="342.5793" r="3.0208" />
<text class="nLabel" x="149.90" y="337.58">2</text>
<text class="belong" x="149.90" y="347.58">(1, 2, 4)</text>
<g id="legendBox">
<rect class="p0 borderLine" x="500.00" y="50.00" width="30.00" height="15.00" />
<rect class="q0" x="500.00" y="50.00" width="30.00" height="15.00" />
<text class="legend" x="540.00" y="65.00">Dux regulated</text>
<rect class="p1 borderLine" x="500.00" y="90.00" width="30.00" height="15.00" />
<rect class="q1" x="500.00" y="90.00" width="30.00" height="15.00" />
<text class="legend" x="540.00" y="105.00">Obox regulated</text>
<rect class="p2 borderLine" x="500.00" y="130.00" width="30.00" height="15.00" />
<rect class="q2" x="500.00" y="130.00" width="30.00" height="15.00" />
<text class="legend" x="540.00" y="145.00">NRs regulated</text>
<rect class="p3 borderLine" x="500.00" y="170.00" width="30.00" height="15.00" />
<rect class="q3" x="500.00" y="170.00" width="30.00" height="15.00" />
<text class="legend" x="540.00" y="185.00">ZGA genes</text>
</g>
</svg>
