<svg xmlns="http://www.w3.org/2000/svg" xmlns:xlink="http://www.w3.org/1999/xlink" width="700" height="500">
<defs>
<style type="text/css"><![CDATA[
  .borderLine {
	   stroke: none;
	   fill-opacity:  0.4 ;
  }
  .outLine {
	   stroke-width:  1 ;
	   fill: none;
  }
  .circle {
	   stroke: #888888;
	   stroke-width: 0.5;
	   fill: none;
    pointer-events: all;
  }
  .nLabel {
	   font-family: Arial;
    pointer-events: none;
	   font-size: 10px;
	   text-anchor: middle;
	   alignment-baseline: central;
  }
  .belong {
	   font-family: Arial;
    pointer-events: none;
	   font-size: 5px;
	   text-anchor: middle;
	   alignment-baseline: central;
  }
  .legend {
    font-family: Arial;
    font-size: 15px;
  }
  #legendBox {
    display:  inline ;
  }
  .p0{
    stroke: none;
    fill: #e6194b;
  }
  .q0{
    fill: none;
    stroke: #e6194b;
  }
  .p1{
    stroke: none;
    fill: #3cb44b;
  }
  .q1{
    fill: none;
    stroke: #3cb44b;
  }
  .p2{
    stroke: none;
    fill: #ffe119;
  }
  .q2{
    fill: none;
    stroke: #ffe119;
  }
  .p3{
    stroke: none;
    fill: #0082c8;
  }
  .q3{
    fill: none;
    stroke: #0082c8;
  }
]]>
</style>
<symbol id="bl0">
<path d="M 166.61 314.76 L 166.25 316.73 L 165.78 318.66 L 165.22 320.53 L 164.61 322.37 L 163.94 324.19 L 163.25 325.99 L 162.53 327.79 L 161.79 329.59 L 161.02 331.42 L 160.21 333.28 L 159.36 335.17 L 158.46 337.09 L 157.51 339.02 L 156.51 340.91 L 155.48 342.75 L 154.42 344.52 L 153.35 346.22 L 152.27 347.87 L 151.20 349.47 L 150.13 351.06 L 149.08 352.64 L 148.04 354.24 L 146.99 355.87 L 145.92 357.53 L 144.82 359.23 L 143.68 360.97 L 142.49 362.72 L 141.25 364.43 L 139.96 366.07 L 138.62 367.61 L 137.22 369.02 L 135.75 370.29 L 134.22 371.42 L 132.61 372.41 L 130.95 373.25 L 129.23 373.93 L 127.47 374.46 L 125.68 374.84 L 123.85 375.06 L 122.01 375.11 L 120.15 375.00 L 118.28 374.72 L 116.40 374.25 L 114.53 373.61 L 112.69 372.77 L 110.89 371.75 L 109.17 370.56 L 107.56 369.22 L 106.10 367.77 L 104.82 366.22 L 103.70 364.59 L 102.76 362.90 L 101.98 361.15 L 101.36 359.37 L 100.88 357.56 L 100.54 355.74 L 100.33 353.90 L 100.21 352.06 L 100.18 350.20 L 100.20 348.34 L 100.25 346.48 L 100.33 344.60 L 100.41 342.71 L 100.50 340.80 L 100.60 338.87 L 100.70 336.92 L 100.80 334.95 L 100.91 332.94 L 101.01 330.90 L 101.09 328.85 L 101.16 326.79 L 101.22 324.76 L 101.26 322.76 L 101.31 320.79 L 101.40 318.84 L 101.54 316.90 L 101.79 314.96 L 102.15 313.01 L 102.64 311.05 L 103.24 309.08 L 103.94 307.11 L 104.71 305.16 L 105.50 303.25 L 106.30 301.38 L 107.10 299.56 L 107.88 297.77 L 108.67 296.00 L 109.45 294.25 L 110.25 292.49 L 111.05 290.73 L 111.88 288.95 L 112.74 287.12 L 113.64 285.25 L 114.57 283.34 L 115.54 281.39 L 116.53 279.45 L 117.56 277.54 L 118.63 275.71 L 119.75 273.97 L 120.95 272.34 L 122.24 270.81 L 123.64 269.37 L 125.17 268.01 L 126.82 266.69 L 128.61 265.39 L 130.52 264.09 L 132.54 262.78 L 134.63 261.46 L 136.79 260.13 L 138.98 258.81 L 141.20 257.48 L 143.43 256.17 L 145.68 254.87 L 147.95 253.57 L 150.23 252.27 L 152.53 250.98 L 154.85 249.70 L 157.19 248.43 L 159.54 247.18 L 161.92 245.95 L 164.31 244.76 L 166.72 243.61 L 169.14 242.50 L 171.58 241.44 L 174.02 240.42 L 176.46 239.42 L 178.89 238.44 L 181.33 237.46 L 183.76 236.47 L 186.19 235.48 L 188.63 234.49 L 191.07 233.49 L 193.50 232.49 L 195.92 231.50 L 198.33 230.50 L 200.74 229.50 L 203.11 228.50 L 205.46 227.50 L 207.75 226.51 L 209.98 225.53 L 212.14 224.59 L 214.27 223.71 L 216.38 222.93 L 218.52 222.29 L 220.71 221.85 L 222.97 221.64 L 225.27 221.72 L 227.56 222.10 L 229.80 222.81 L 231.91 223.83 L 233.85 225.15 L 235.58 226.73 L 237.05 228.53 L 238.24 230.50 L 239.14 232.57 L 239.74 234.70 L 240.06 236.83 L 240.08 238.94 L 239.84 240.98 L 239.33 242.94 L 238.58 244.80 L 237.60 246.52 L 236.41 248.10 L 235.03 249.52 L 233.48 250.75 L 231.76 251.79 L 229.91 252.62 L 227.92 253.26 L 225.83 253.72 L 223.64 254.04 L 221.39 254.26 L 219.09 254.43 L 216.77 254.62 L 214.45 254.84 L 212.14 255.14 L 209.86 255.53 L 207.60 256.00 L 205.39 256.57 L 203.22 257.24 L 201.08 257.99 L 198.99 258.83 L 196.95 259.76 L 194.95 260.78 L 192.99 261.88 L 191.09 263.05 L 189.24 264.31 L 187.45 265.65 L 185.71 267.06 L 184.05 268.53 L 182.45 270.08 L 180.93 271.68 L 179.48 273.34 L 178.10 275.06 L 176.80 276.84 L 175.57 278.67 L 174.43 280.55 L 173.36 282.49 L 172.36 284.48 L 171.45 286.52 L 170.63 288.60 L 169.89 290.74 L 169.24 292.91 L 168.68 295.12 L 168.21 297.36 L 167.84 299.62 L 167.56 301.88 L 167.37 304.13 L 167.23 306.35 L 167.13 308.53 L 167.02 310.66 L 166.86 312.74 Z" />
</symbol>
<symbol id="bl1">
<path d="M 193.16 251.22 L 191.25 253.92 L 189.34 256.61 L 187.43 259.29 L 185.52 261.94 L 183.60 264.56 L 181.67 267.13 L 179.71 269.66 L 177.74 272.15 L 175.76 274.61 L 173.76 277.05 L 171.75 279.48 L 169.73 281.90 L 167.69 284.33 L 165.64 286.77 L 163.58 289.21 L 161.51 291.66 L 159.46 294.12 L 157.45 296.63 L 155.53 299.20 L 153.74 301.87 L 152.13 304.66 L 150.74 307.57 L 149.58 310.56 L 148.58 313.57 L 147.62 316.50 L 146.54 319.26 L 145.17 321.77 L 143.38 324.00 L 141.13 325.90 L 138.47 327.50 L 135.47 328.81 L 132.22 329.89 L 128.82 330.80 L 125.34 331.63 L 121.84 332.47 L 118.40 333.40 L 115.08 334.50 L 111.91 335.79 L 108.90 337.28 L 106.04 338.95 L 103.31 340.74 L 100.68 342.63 L 98.11 344.57 L 95.58 346.55 L 93.08 348.56 L 90.58 350.56 L 88.07 352.54 L 85.51 354.48 L 82.90 356.33 L 80.21 358.07 L 77.44 359.66 L 74.58 361.09 L 71.64 362.33 L 68.62 363.37 L 65.54 364.20 L 62.41 364.81 L 59.25 365.20 L 56.08 365.36 L 52.92 365.30 L 49.77 365.01 L 46.66 364.51 L 43.59 363.78 L 40.58 362.85 L 37.65 361.70 L 34.81 360.35 L 32.07 358.82 L 29.45 357.09 L 26.96 355.19 L 24.61 353.12 L 22.41 350.89 L 20.38 348.51 L 18.51 346.00 L 16.82 343.36 L 15.32 340.61 L 14.01 337.76 L 12.90 334.83 L 11.99 331.83 L 11.27 328.78 L 10.73 325.68 L 10.36 322.56 L 10.14 319.42 L 10.03 316.27 L 10.00 313.11 L 10.03 309.95 L 10.11 306.79 L 10.20 303.63 L 10.30 300.46 L 10.41 297.29 L 10.51 294.12 L 10.61 290.94 L 10.71 287.75 L 10.81 284.57 L 10.91 281.38 L 11.01 278.20 L 11.11 275.01 L 11.22 271.82 L 11.33 268.62 L 11.44 265.41 L 11.56 262.21 L 11.68 259.00 L 11.80 255.79 L 11.92 252.57 L 12.05 249.36 L 12.19 246.15 L 12.32 242.92 L 12.47 239.70 L 12.61 236.46 L 12.76 233.22 L 12.90 229.97 L 13.05 226.71 L 13.20 223.45 L 13.36 220.19 L 13.52 216.93 L 13.69 213.66 L 13.90 210.39 L 14.14 207.14 L 14.45 203.90 L 14.84 200.67 L 15.33 197.48 L 15.93 194.31 L 16.67 191.18 L 17.53 188.09 L 18.54 185.04 L 19.67 182.04 L 20.94 179.10 L 22.35 176.22 L 23.88 173.40 L 25.54 170.66 L 27.31 167.99 L 29.21 165.41 L 31.22 162.92 L 33.34 160.53 L 35.55 158.24 L 37.87 156.05 L 40.27 153.98 L 42.77 152.01 L 45.34 150.17 L 48.00 148.44 L 50.73 146.83 L 53.54 145.34 L 56.42 143.98 L 59.37 142.74 L 62.38 141.61 L 65.44 140.60 L 68.54 139.70 L 71.68 138.89 L 74.83 138.16 L 77.99 137.48 L 81.16 136.83 L 84.33 136.19 L 87.49 135.56 L 90.65 134.92 L 93.81 134.28 L 96.97 133.61 L 100.12 132.94 L 103.27 132.25 L 106.42 131.56 L 109.56 130.87 L 112.70 130.18 L 115.84 129.49 L 118.98 128.80 L 122.12 128.12 L 125.28 127.44 L 128.44 126.77 L 131.62 126.10 L 134.81 125.43 L 138.01 124.75 L 141.20 124.07 L 144.39 123.39 L 147.57 122.72 L 150.74 122.05 L 153.90 121.42 L 157.06 120.83 L 160.21 120.34 L 163.37 119.99 L 166.52 119.83 L 169.65 119.93 L 172.73 120.33 L 175.75 121.05 L 178.68 122.09 L 181.51 123.41 L 184.23 124.96 L 186.87 126.69 L 189.43 128.53 L 191.94 130.45 L 194.42 132.41 L 196.88 134.41 L 199.34 136.42 L 201.80 138.46 L 204.25 140.50 L 206.69 142.56 L 209.12 144.63 L 211.54 146.71 L 213.94 148.80 L 216.31 150.92 L 218.64 153.08 L 220.92 155.30 L 223.10 157.59 L 225.17 159.98 L 227.10 162.47 L 228.85 165.07 L 230.40 167.78 L 231.75 170.59 L 232.87 173.49 L 233.76 176.47 L 234.42 179.54 L 234.83 182.68 L 235.00 185.88 L 234.92 189.13 L 234.59 192.41 L 233.99 195.67 L 233.12 198.89 L 232.00 202.05 L 230.62 205.11 L 229.00 208.05 L 227.17 210.85 L 225.13 213.52 L 222.94 216.06 L 220.62 218.49 L 218.23 220.84 L 215.81 223.15 L 213.43 225.47 L 211.11 227.82 L 208.90 230.24 L 206.78 232.73 L 204.74 235.27 L 202.77 237.87 L 200.83 240.51 L 198.91 243.17 L 196.99 245.84 L 195.07 248.53 Z" />
</symbol>
<symbol id="bl2">
<path d="M 433.83 304.34 L 429.45 307.15 L 424.95 309.78 L 420.34 312.22 L 415.63 314.48 L 410.83 316.56 L 405.95 318.46 L 401.00 320.19 L 395.99 321.76 L 390.94 323.19 L 385.86 324.52 L 380.76 325.76 L 375.66 326.94 L 370.56 328.07 L 365.47 329.18 L 360.39 330.27 L 355.33 331.35 L 350.27 332.43 L 345.21 333.50 L 340.15 334.57 L 335.08 335.64 L 330.00 336.71 L 324.91 337.77 L 319.80 338.84 L 314.69 339.90 L 309.57 340.97 L 304.44 342.04 L 299.30 343.12 L 294.15 344.20 L 289.01 345.29 L 283.86 346.39 L 278.71 347.49 L 273.57 348.60 L 268.44 349.72 L 263.32 350.84 L 258.21 351.96 L 253.10 353.07 L 248.01 354.15 L 242.91 355.17 L 237.81 356.08 L 232.70 356.82 L 227.56 357.31 L 222.40 357.46 L 217.19 357.21 L 211.94 356.47 L 206.65 355.23 L 201.33 353.46 L 196.00 351.20 L 190.71 348.50 L 185.45 345.42 L 180.26 342.05 L 175.12 338.46 L 170.04 334.75 L 165.00 330.95 L 160.00 327.14 L 155.03 323.35 L 150.07 319.64 L 145.09 316.04 L 140.07 312.59 L 134.95 309.31 L 129.72 306.19 L 124.35 303.19 L 118.87 300.29 L 113.30 297.47 L 107.67 294.71 L 102.03 292.01 L 96.40 289.38 L 90.81 286.83 L 85.28 284.39 L 79.85 282.09 L 74.54 279.92 L 69.40 277.85 L 64.44 275.84 L 59.68 273.80 L 55.12 271.64 L 50.76 269.30 L 46.61 266.74 L 42.67 263.93 L 38.95 260.87 L 35.45 257.56 L 32.20 254.02 L 29.19 250.26 L 26.45 246.30 L 23.99 242.15 L 21.81 237.84 L 19.94 233.39 L 18.39 228.82 L 17.15 224.16 L 16.24 219.42 L 15.66 214.62 L 15.41 209.80 L 15.50 204.97 L 15.92 200.15 L 16.68 195.36 L 17.77 190.63 L 19.19 185.98 L 20.93 181.44 L 22.98 177.02 L 25.33 172.76 L 27.97 168.67 L 30.89 164.78 L 34.05 161.10 L 37.45 157.67 L 41.08 154.49 L 44.90 151.57 L 48.92 148.93 L 53.12 146.58 L 57.47 144.52 L 61.95 142.76 L 66.56 141.30 L 71.25 140.17 L 76.01 139.36 L 80.81 138.87 L 85.63 138.69 L 90.44 138.82 L 95.24 139.21 L 100.02 139.84 L 104.77 140.66 L 109.51 141.63 L 114.24 142.69 L 118.96 143.81 L 123.68 144.96 L 128.41 146.14 L 133.15 147.32 L 137.91 148.48 L 142.67 149.60 L 147.45 150.63 L 152.24 151.47 L 157.07 152.02 L 161.93 152.16 L 166.84 151.80 L 171.80 150.89 L 176.78 149.48 L 181.76 147.66 L 186.70 145.56 L 191.59 143.28 L 196.42 140.91 L 201.20 138.50 L 205.93 136.07 L 210.63 133.64 L 215.32 131.20 L 219.99 128.76 L 224.64 126.33 L 229.29 123.89 L 233.93 121.46 L 238.56 119.03 L 243.20 116.60 L 247.83 114.18 L 252.47 111.75 L 257.12 109.33 L 261.77 106.90 L 266.42 104.48 L 271.09 102.06 L 275.76 99.64 L 280.44 97.24 L 285.12 94.84 L 289.81 92.46 L 294.51 90.11 L 299.22 87.81 L 303.96 85.58 L 308.73 83.45 L 313.54 81.44 L 318.40 79.58 L 323.32 77.89 L 328.29 76.39 L 333.31 75.08 L 338.39 73.97 L 343.50 73.07 L 348.65 72.38 L 353.83 71.91 L 359.03 71.64 L 364.23 71.59 L 369.44 71.75 L 374.63 72.13 L 379.81 72.72 L 384.96 73.52 L 390.08 74.53 L 395.14 75.75 L 400.15 77.18 L 405.09 78.81 L 409.96 80.63 L 414.74 82.66 L 419.43 84.87 L 424.03 87.27 L 428.52 89.86 L 432.89 92.63 L 437.16 95.57 L 441.30 98.70 L 445.32 101.99 L 449.20 105.44 L 452.94 109.06 L 456.54 112.83 L 459.98 116.75 L 463.27 120.81 L 466.38 124.99 L 469.32 129.30 L 472.08 133.73 L 474.65 138.26 L 477.04 142.89 L 479.23 147.61 L 481.23 152.41 L 483.03 157.29 L 484.62 162.24 L 486.02 167.25 L 487.21 172.32 L 488.19 177.44 L 488.96 182.60 L 489.52 187.79 L 489.87 193.00 L 490.00 198.23 L 489.92 203.46 L 489.62 208.69 L 489.11 213.91 L 488.39 219.09 L 487.46 224.24 L 486.31 229.34 L 484.96 234.38 L 483.41 239.35 L 481.65 244.26 L 479.70 249.07 L 477.56 253.80 L 475.22 258.44 L 472.69 262.98 L 469.98 267.42 L 467.08 271.74 L 464.01 275.94 L 460.77 280.01 L 457.36 283.95 L 453.80 287.75 L 450.08 291.39 L 446.22 294.88 L 442.22 298.20 L 438.09 301.36 Z" />
</symbol>
<symbol id="bl3">
<path d="M 251.10 265.85 L 253.65 267.94 L 256.03 270.19 L 258.27 272.59 L 260.38 275.12 L 262.33 277.78 L 264.11 280.53 L 265.72 283.36 L 267.13 286.26 L 268.35 289.23 L 269.36 292.25 L 270.18 295.34 L 270.80 298.47 L 271.23 301.63 L 271.46 304.81 L 271.50 308.00 L 271.33 311.19 L 270.97 314.36 L 270.42 317.51 L 269.69 320.62 L 268.77 323.67 L 267.70 326.66 L 266.47 329.59 L 265.12 332.44 L 263.67 335.24 L 262.13 337.98 L 260.52 340.69 L 258.87 343.38 L 257.19 346.06 L 255.49 348.73 L 253.78 351.40 L 252.06 354.07 L 250.35 356.73 L 248.65 359.39 L 246.94 362.06 L 245.24 364.73 L 243.53 367.40 L 241.83 370.08 L 240.14 372.77 L 238.45 375.45 L 236.77 378.12 L 235.09 380.79 L 233.41 383.46 L 231.73 386.14 L 230.04 388.82 L 228.34 391.52 L 226.62 394.23 L 224.89 396.95 L 223.15 399.67 L 221.38 402.39 L 219.58 405.09 L 217.73 407.75 L 215.81 410.35 L 213.79 412.88 L 211.66 415.29 L 209.40 417.55 L 207.00 419.65 L 204.45 421.56 L 201.77 423.26 L 198.93 424.74 L 195.95 425.99 L 192.80 426.99 L 189.51 427.74 L 186.08 428.21 L 182.58 428.41 L 179.07 428.32 L 175.63 427.94 L 172.28 427.27 L 169.07 426.34 L 166.00 425.14 L 163.07 423.70 L 160.29 422.03 L 157.67 420.15 L 155.24 418.09 L 153.01 415.86 L 150.98 413.48 L 149.17 410.96 L 147.57 408.32 L 146.20 405.55 L 145.04 402.68 L 144.11 399.72 L 143.40 396.68 L 142.90 393.59 L 142.60 390.46 L 142.46 387.33 L 142.46 384.19 L 142.55 381.04 L 142.70 377.89 L 142.89 374.74 L 143.08 371.57 L 143.27 368.39 L 143.43 365.20 L 143.53 362.01 L 143.53 358.83 L 143.38 355.65 L 143.05 352.50 L 142.50 349.38 L 141.72 346.32 L 140.73 343.31 L 139.59 340.36 L 138.35 337.45 L 137.11 334.55 L 136.00 331.63 L 135.15 328.67 L 134.68 325.66 L 134.70 322.62 L 135.28 319.58 L 136.47 316.60 L 138.23 313.73 L 140.51 310.97 L 143.14 308.33 L 145.95 305.75 L 148.74 303.15 L 151.34 300.44 L 153.64 297.58 L 155.56 294.50 L 157.08 291.23 L 158.19 287.81 L 158.93 284.30 L 159.36 280.77 L 159.53 277.25 L 159.53 273.78 L 159.41 270.36 L 159.22 267.00 L 159.01 263.68 L 158.79 260.37 L 158.59 257.07 L 158.40 253.73 L 158.22 250.34 L 158.06 246.90 L 157.90 243.42 L 157.74 239.94 L 157.59 236.48 L 157.45 233.04 L 157.31 229.60 L 157.16 226.10 L 157.00 222.49 L 156.80 218.74 L 156.56 214.85 L 156.25 210.85 L 155.88 206.81 L 155.45 202.80 L 154.96 198.87 L 154.46 195.06 L 153.97 191.39 L 153.53 187.85 L 153.16 184.44 L 152.85 181.12 L 152.61 177.87 L 152.41 174.65 L 152.25 171.46 L 152.10 168.27 L 151.96 165.08 L 151.83 161.89 L 151.70 158.70 L 151.58 155.51 L 151.48 152.32 L 151.42 149.13 L 151.43 145.94 L 151.56 142.76 L 151.87 139.61 L 152.42 136.50 L 153.27 133.50 L 154.47 130.66 L 156.03 128.04 L 157.96 125.72 L 160.23 123.77 L 162.77 122.24 L 165.52 121.19 L 168.42 120.63 L 171.39 120.57 L 174.37 120.99 L 177.30 121.85 L 180.16 123.09 L 182.94 124.64 L 185.64 126.41 L 188.30 128.33 L 190.93 130.35 L 193.55 132.42 L 196.17 134.52 L 198.79 136.63 L 201.41 138.75 L 204.02 140.87 L 206.61 142.99 L 209.19 145.11 L 211.75 147.24 L 214.29 149.39 L 216.79 151.58 L 219.23 153.82 L 221.60 156.15 L 223.85 158.56 L 225.95 161.10 L 227.87 163.75 L 229.60 166.52 L 231.10 169.41 L 232.37 172.39 L 233.40 175.46 L 234.18 178.61 L 234.71 181.80 L 234.97 185.03 L 234.99 188.28 L 234.74 191.53 L 234.23 194.75 L 233.46 197.94 L 232.42 201.07 L 231.13 204.12 L 229.60 207.07 L 227.83 209.91 L 225.86 212.63 L 223.72 215.21 L 221.47 217.69 L 219.18 220.09 L 216.93 222.47 L 214.82 224.89 L 212.96 227.41 L 211.46 230.07 L 210.40 232.87 L 209.85 235.77 L 209.85 238.71 L 210.43 241.59 L 211.56 244.32 L 213.23 246.81 L 215.38 248.99 L 217.97 250.86 L 220.93 252.43 L 224.21 253.78 L 227.72 255.02 L 231.39 256.24 L 235.08 257.52 L 238.71 258.92 L 242.16 260.45 L 245.38 262.11 L 248.36 263.91 Z" />
</symbol>
</defs>
<!-- isDone: 0 -->
<rect width="700" height="500" style="fill:#fff;stroke-width:0" />
<use class="p0 borderLine" xlink:href="#bl0"/>
<use class="p1 borderLine" xlink:href="#bl1"/>
<use class="p2 borderLine" xlink:href="#bl2"/>
<use class="p3 borderLine" xlink:href="#bl3"/>
<use class="q0 outLine" xlink:href="#bl0"/>
<use class="q1 outLine" xlink:href="#bl1"/>
<use class="q2 outLine" xlink:href="#bl2"/>
<use class="q3 outLine" xlink:href="#bl3"/>
<circle onclick="fromCircle(8)" class="circle" cx="122.0335" cy="353.7307" r="16.5145" />
<text class="nLabel" x="122.03" y="348.73">70</text>
<text class="belong" x="122.03" y="358.73">(1)</text>
<circle onclick="fromCircle(12)" class="circle" cx="117.6961" cy="316.7523" r="10.9900" />
<text class="nLabel" x="117.70" y="311.75">31</text>
<text class="belong" x="117.70" y="321.75">(1, 2)</text>
<circle onclick="fromCircle(14)" class="circle" cx="138.1236" cy="285.1926" r="16.3961" />
<text class="nLabel" x="138.12" y="280.19">69</text>
<text class="belong" x="138.12" y="290.19">(1, 2, 3)</text>
<circle onclick="fromCircle(15)" class="circle" cx="172.8041" cy="256.1579" r="8.6039" />
<text class="nLabel" x="172.80" y="251.16">19</text>
<text class="belong" x="172.80" y="261.16">(1, 2, 3, 4)</text>
<circle onclick="fromCircle(4)" class="circle" cx="55.0621" cy="320.6658" r="40.1622" />
<text class="nLabel" x="55.06" y="315.67">414</text>
<text class="belong" x="55.06" y="325.67">(2)</text>
<circle onclick="fromCircle(6)" class="circle" cx="84.9138" cy="208.3177" r="65.7329" />
<text class="nLabel" x="84.91" y="203.32">1109</text>
<text class="belong" x="84.91" y="213.32">(2, 3)</text>
<circle onclick="fromCircle(7)" class="circle" cx="194.5341" cy="186.5693" r="36.0737" />
<text class="nLabel" x="194.53" y="181.57">334</text>
<text class="belong" x="194.53" y="191.57">(2, 3, 4)</text>
<circle onclick="fromCircle(5)" class="circle" cx="170.0457" cy="136.8615" r="13.5321" />
<text class="nLabel" x="170.05" y="131.86">47</text>
<text class="belong" x="170.05" y="141.86">(2, 4)</text>
<circle onclick="fromCircle(2)" class="circle" cx="364.3678" cy="198.1685" r="122.8720" />
<text class="nLabel" x="364.37" y="193.17">3875</text>
<text class="belong" x="364.37" y="203.17">(3)</text>
<circle onclick="fromCircle(10)" class="circle" cx="224.2690" cy="237.4568" r="11.5095" />
<text class="nLabel" x="224.27" y="232.46">34</text>
<text class="belong" x="224.27" y="242.46">(1, 3)</text>
<circle onclick="fromCircle(11)" class="circle" cx="157.4635" cy="311.8804" r="4.8350" />
<text class="nLabel" x="157.46" y="306.88">6</text>
<text class="belong" x="157.46" y="316.88">(1, 3, 4)</text>
<circle onclick="fromCircle(3)" class="circle" cx="219.7842" cy="307.0147" r="47.0426" />
<text class="nLabel" x="219.78" y="302.01">568</text>
<text class="belong" x="219.78" y="312.01">(3, 4)</text>
<circle onclick="fromCircle(1)" class="circle" cx="182.0257" cy="389.8611" r="34.5849" />
<text class="nLabel" x="182.03" y="384.86">307</text>
<text class="belong" x="182.03" y="394.86">(4)</text>
<circle onclick="fromCircle(9)" class="circle" cx="148.5247" cy="335.3244" r="4.4137" />
<text class="nLabel" x="148.52" y="330.32">5</text>
<text class="belong" x="148.52" y="340.32">(1, 4)</text>
<circle onclick="fromCircle(13)" class="circle" cx="139.6287" cy="321.1512" r="3.9477" />
<text class="nLabel" x="139.63" y="316.15">4</text>
<text class="belong" x="139.63" y="326.15">(1, 2, 4)</text>
<g id="legendBox">
<rect class="p0 borderLine" x="500.00" y="50.00" width="30.00" height="15.00" />
<rect class="q0" x="500.00" y="50.00" width="30.00" height="15.00" />
<text class="legend" x="540.00" y="65.00">Dux regulated</text>
<rect class="p1 borderLine" x="500.00" y="90.00" width="30.00" height="15.00" />
<rect class="q1" x="500.00" y="90.00" width="30.00" height="15.00" />
<text class="legend" x="540.00" y="105.00">Obox regulated</text>
<rect class="p2 borderLine" x="500.00" y="130.00" width="30.00" height="15.00" />
<rect class="q2" x="500.00" y="130.00" width="30.00" height="15.00" />
<text class="legend" x="540.00" y="145.00">NRs regulated</text>
<rect class="p3 borderLine" x="500.00" y="170.00" width="30.00" height="15.00" />
<rect class="q3" x="500.00" y="170.00" width="30.00" height="15.00" />
<text class="legend" x="540.00" y="185.00">ZGA genes</text>
</g>
</svg>
