<svg xmlns="http://www.w3.org/2000/svg" xmlns:xlink="http://www.w3.org/1999/xlink" width="700" height="500">
<defs>
<style type="text/css"><![CDATA[
  .borderLine {
	   stroke: none;
	   fill-opacity:  0.4 ;
  }
  .outLine {
	   stroke-width:  1 ;
	   fill: none;
  }
  .circle {
	   stroke: #888888;
	   stroke-width: 0.5;
	   fill: none;
    pointer-events: all;
  }
  .nLabel {
	   font-family: Arial;
    pointer-events: none;
	   font-size: 10px;
	   text-anchor: middle;
	   alignment-baseline: central;
  }
  .belong {
	   font-family: Arial;
    pointer-events: none;
	   font-size: 5px;
	   text-anchor: middle;
	   alignment-baseline: central;
  }
  .legend {
    font-family: Arial;
    font-size: 15px;
  }
  #legendBox {
    display:  inline ;
  }
  .p0{
    stroke: none;
    fill: #e6194b;
  }
  .q0{
    fill: none;
    stroke: #e6194b;
  }
  .p1{
    stroke: none;
    fill: #3cb44b;
  }
  .q1{
    fill: none;
    stroke: #3cb44b;
  }
  .p2{
    stroke: none;
    fill: #ffe119;
  }
  .q2{
    fill: none;
    stroke: #ffe119;
  }
  .p3{
    stroke: none;
    fill: #0082c8;
  }
  .q3{
    fill: none;
    stroke: #0082c8;
  }
]]>
</style>
<symbol id="bl0">
<path d="M 182.62 346.50 L 182.58 348.21 L 182.51 349.93 L 182.40 351.65 L 182.28 353.37 L 182.15 355.09 L 182.00 356.81 L 181.84 358.52 L 181.66 360.23 L 181.45 361.93 L 181.21 363.62 L 180.94 365.30 L 180.65 366.98 L 180.35 368.65 L 180.03 370.32 L 179.71 371.99 L 179.38 373.66 L 179.06 375.33 L 178.73 377.00 L 178.41 378.66 L 178.08 380.33 L 177.76 381.99 L 177.43 383.66 L 177.08 385.32 L 176.73 386.97 L 176.34 388.62 L 175.91 390.25 L 175.41 391.86 L 174.84 393.44 L 174.19 394.97 L 173.43 396.46 L 172.58 397.89 L 171.63 399.26 L 170.58 400.55 L 169.44 401.76 L 168.22 402.89 L 166.91 403.92 L 165.54 404.86 L 164.09 405.69 L 162.59 406.42 L 161.03 407.03 L 159.44 407.52 L 157.81 407.90 L 156.17 408.16 L 154.50 408.29 L 152.83 408.30 L 151.17 408.19 L 149.51 407.95 L 147.89 407.60 L 146.29 407.12 L 144.73 406.53 L 143.22 405.83 L 141.77 405.02 L 140.38 404.10 L 139.06 403.09 L 137.82 401.98 L 136.66 400.78 L 135.59 399.50 L 134.61 398.14 L 133.72 396.72 L 132.92 395.25 L 132.19 393.73 L 131.52 392.18 L 130.89 390.60 L 130.30 389.01 L 129.72 387.41 L 129.16 385.80 L 128.60 384.20 L 128.04 382.59 L 127.48 380.99 L 126.92 379.38 L 126.36 377.77 L 125.80 376.16 L 125.23 374.55 L 124.67 372.95 L 124.11 371.34 L 123.55 369.73 L 122.99 368.13 L 122.43 366.52 L 121.88 364.90 L 121.33 363.29 L 120.80 361.66 L 120.30 360.00 L 119.83 358.31 L 119.43 356.57 L 119.13 354.74 L 118.93 352.82 L 118.87 350.80 L 118.97 348.67 L 119.21 346.46 L 119.58 344.19 L 120.07 341.87 L 120.64 339.53 L 121.26 337.18 L 121.91 334.83 L 122.57 332.47 L 123.25 330.11 L 123.93 327.75 L 124.61 325.40 L 125.29 323.04 L 125.98 320.69 L 126.68 318.34 L 127.41 316.01 L 128.18 313.70 L 129.02 311.42 L 129.96 309.21 L 131.01 307.08 L 132.18 305.06 L 133.47 303.16 L 134.86 301.40 L 136.30 299.77 L 137.76 298.24 L 139.21 296.81 L 140.64 295.43 L 142.03 294.08 L 143.39 292.75 L 144.72 291.43 L 146.02 290.11 L 147.32 288.78 L 148.61 287.46 L 149.89 286.14 L 151.18 284.81 L 152.46 283.48 L 153.74 282.15 L 155.02 280.82 L 156.31 279.50 L 157.59 278.17 L 158.88 276.85 L 160.17 275.53 L 161.47 274.22 L 162.79 272.92 L 164.13 271.65 L 165.50 270.42 L 166.91 269.23 L 168.36 268.09 L 169.87 267.02 L 171.41 266.00 L 172.99 265.02 L 174.59 264.08 L 176.20 263.17 L 177.83 262.27 L 179.46 261.38 L 181.09 260.50 L 182.72 259.61 L 184.35 258.73 L 185.99 257.85 L 187.62 256.97 L 189.25 256.09 L 190.89 255.22 L 192.52 254.35 L 194.16 253.49 L 195.81 252.65 L 197.48 251.85 L 199.16 251.10 L 200.87 250.44 L 202.61 249.88 L 204.38 249.46 L 206.16 249.18 L 207.96 249.07 L 209.76 249.13 L 211.54 249.37 L 213.28 249.79 L 214.97 250.39 L 216.59 251.16 L 218.12 252.10 L 219.54 253.20 L 220.85 254.46 L 222.02 255.86 L 223.04 257.41 L 223.91 259.08 L 224.61 260.85 L 225.13 262.69 L 225.46 264.57 L 225.60 266.44 L 225.53 268.29 L 225.27 270.10 L 224.82 271.85 L 224.18 273.53 L 223.37 275.13 L 222.40 276.63 L 221.28 278.02 L 220.01 279.29 L 218.63 280.42 L 217.13 281.43 L 215.54 282.29 L 213.88 283.03 L 212.17 283.66 L 210.41 284.21 L 208.63 284.71 L 206.85 285.19 L 205.07 285.68 L 203.31 286.22 L 201.57 286.82 L 199.86 287.49 L 198.18 288.23 L 196.54 289.06 L 194.94 289.97 L 193.40 290.96 L 191.91 292.02 L 190.47 293.16 L 189.09 294.37 L 187.77 295.65 L 186.52 296.99 L 185.34 298.40 L 184.23 299.86 L 183.19 301.38 L 182.24 302.94 L 181.36 304.55 L 180.57 306.21 L 179.87 307.90 L 179.24 309.63 L 178.71 311.39 L 178.27 313.17 L 177.91 314.97 L 177.65 316.78 L 177.48 318.61 L 177.41 320.45 L 177.43 322.29 L 177.54 324.12 L 177.75 325.94 L 178.06 327.75 L 178.46 329.54 L 178.94 331.30 L 179.50 333.02 L 180.10 334.73 L 180.70 336.41 L 181.28 338.07 L 181.78 339.74 L 182.17 341.41 L 182.44 343.09 L 182.58 344.79 Z" />
</symbol>
<symbol id="bl1">
<path d="M 180.67 305.16 L 179.40 308.25 L 178.13 311.33 L 176.84 314.41 L 175.52 317.49 L 174.16 320.57 L 172.74 323.65 L 171.30 326.74 L 169.85 329.87 L 168.45 333.04 L 167.16 336.24 L 166.02 339.46 L 165.01 342.64 L 164.07 345.73 L 163.05 348.67 L 161.81 351.39 L 160.24 353.88 L 158.30 356.13 L 156.02 358.16 L 153.47 360.02 L 150.72 361.78 L 147.85 363.49 L 144.93 365.22 L 142.02 366.99 L 139.16 368.83 L 136.38 370.76 L 133.69 372.75 L 131.09 374.80 L 128.55 376.88 L 126.05 378.98 L 123.57 381.09 L 121.10 383.21 L 118.63 385.33 L 116.17 387.45 L 113.71 389.57 L 111.24 391.67 L 108.75 393.75 L 106.23 395.80 L 103.68 397.78 L 101.06 399.68 L 98.38 401.46 L 95.62 403.11 L 92.78 404.60 L 89.85 405.91 L 86.86 407.03 L 83.79 407.94 L 80.67 408.65 L 77.51 409.14 L 74.33 409.41 L 71.13 409.47 L 67.94 409.30 L 64.76 408.92 L 61.62 408.32 L 58.53 407.50 L 55.50 406.48 L 52.54 405.25 L 49.68 403.81 L 46.93 402.19 L 44.29 400.38 L 41.78 398.40 L 39.41 396.25 L 37.20 393.94 L 35.15 391.49 L 33.27 388.90 L 31.57 386.20 L 30.06 383.38 L 28.73 380.47 L 27.58 377.48 L 26.60 374.42 L 25.78 371.31 L 25.09 368.15 L 24.51 364.97 L 24.00 361.77 L 23.54 358.56 L 23.12 355.34 L 22.70 352.11 L 22.30 348.89 L 21.90 345.66 L 21.50 342.44 L 21.10 339.21 L 20.70 335.98 L 20.30 332.76 L 19.91 329.53 L 19.51 326.31 L 19.11 323.09 L 18.71 319.87 L 18.32 316.65 L 17.92 313.42 L 17.52 310.20 L 17.13 306.98 L 16.73 303.75 L 16.34 300.52 L 15.94 297.30 L 15.54 294.07 L 15.15 290.85 L 14.75 287.62 L 14.35 284.40 L 13.95 281.17 L 13.56 277.94 L 13.16 274.71 L 12.77 271.49 L 12.37 268.26 L 11.99 265.04 L 11.60 261.81 L 11.23 258.58 L 10.88 255.36 L 10.56 252.13 L 10.29 248.90 L 10.10 245.66 L 10.00 242.43 L 10.01 239.19 L 10.13 235.96 L 10.38 232.75 L 10.76 229.54 L 11.27 226.35 L 11.91 223.19 L 12.69 220.05 L 13.59 216.95 L 14.63 213.89 L 15.79 210.88 L 17.08 207.92 L 18.49 205.02 L 20.02 202.17 L 21.67 199.40 L 23.44 196.69 L 25.31 194.06 L 27.30 191.52 L 29.39 189.05 L 31.58 186.68 L 33.88 184.40 L 36.26 182.22 L 38.74 180.15 L 41.29 178.18 L 43.93 176.32 L 46.65 174.57 L 49.44 172.93 L 52.29 171.42 L 55.20 170.02 L 58.17 168.75 L 61.18 167.60 L 64.25 166.57 L 67.34 165.65 L 70.48 164.84 L 73.64 164.13 L 76.82 163.49 L 80.01 162.92 L 83.21 162.40 L 86.42 161.91 L 89.63 161.44 L 92.84 160.97 L 96.05 160.52 L 99.27 160.07 L 102.48 159.61 L 105.70 159.16 L 108.92 158.70 L 112.13 158.25 L 115.35 157.80 L 118.57 157.34 L 121.79 156.89 L 125.01 156.43 L 128.22 155.98 L 131.44 155.53 L 134.66 155.07 L 137.88 154.62 L 141.10 154.17 L 144.32 153.72 L 147.53 153.27 L 150.75 152.84 L 153.97 152.41 L 157.19 152.02 L 160.40 151.70 L 163.60 151.48 L 166.77 151.42 L 169.89 151.60 L 172.95 152.07 L 175.91 152.86 L 178.75 153.99 L 181.46 155.41 L 184.06 157.09 L 186.54 158.95 L 188.94 160.95 L 191.28 163.03 L 193.59 165.16 L 195.87 167.32 L 198.14 169.49 L 200.41 171.67 L 202.66 173.87 L 204.90 176.08 L 207.10 178.32 L 209.24 180.60 L 211.29 182.95 L 213.22 185.39 L 214.99 187.92 L 216.55 190.57 L 217.88 193.34 L 218.94 196.21 L 219.72 199.18 L 220.21 202.24 L 220.39 205.35 L 220.26 208.49 L 219.83 211.63 L 219.11 214.75 L 218.11 217.82 L 216.87 220.82 L 215.43 223.75 L 213.82 226.61 L 212.10 229.41 L 210.30 232.17 L 208.44 234.91 L 206.56 237.62 L 204.67 240.34 L 202.78 243.05 L 200.92 245.79 L 199.11 248.55 L 197.39 251.35 L 195.80 254.23 L 194.39 257.19 L 193.19 260.25 L 192.21 263.38 L 191.44 266.59 L 190.83 269.86 L 190.31 273.16 L 189.79 276.48 L 189.21 279.80 L 188.51 283.10 L 187.67 286.36 L 186.69 289.57 L 185.59 292.74 L 184.42 295.88 L 183.19 298.98 L 181.93 302.07 Z" />
</symbol>
<symbol id="bl2">
<path d="M 448.24 322.80 L 444.31 326.39 L 440.24 329.82 L 436.04 333.09 L 431.71 336.19 L 427.27 339.11 L 422.70 341.86 L 418.04 344.42 L 413.27 346.79 L 408.42 348.98 L 403.48 350.97 L 398.46 352.76 L 393.38 354.35 L 388.24 355.74 L 383.04 356.93 L 377.80 357.91 L 372.52 358.69 L 367.22 359.28 L 361.89 359.70 L 356.55 359.96 L 351.20 360.09 L 345.85 360.13 L 340.49 360.11 L 335.13 360.04 L 329.76 359.95 L 324.40 359.85 L 319.04 359.74 L 313.67 359.63 L 308.30 359.52 L 302.93 359.41 L 297.56 359.29 L 292.19 359.18 L 286.82 359.06 L 281.45 358.95 L 276.08 358.83 L 270.70 358.72 L 265.32 358.61 L 259.95 358.49 L 254.56 358.38 L 249.18 358.25 L 243.78 358.11 L 238.37 357.95 L 232.93 357.74 L 227.45 357.46 L 221.90 357.07 L 216.30 356.57 L 210.64 355.92 L 204.96 355.14 L 199.31 354.24 L 193.71 353.20 L 188.20 352.02 L 182.78 350.67 L 177.45 349.13 L 172.16 347.40 L 166.85 345.53 L 161.48 343.55 L 156.04 341.52 L 150.55 339.48 L 145.01 337.43 L 139.42 335.39 L 133.75 333.35 L 127.96 331.32 L 122.05 329.31 L 116.03 327.32 L 109.94 325.38 L 103.84 323.50 L 97.78 321.71 L 91.79 320.02 L 85.88 318.42 L 80.03 316.86 L 74.20 315.24 L 68.36 313.45 L 62.49 311.34 L 56.61 308.81 L 50.82 305.81 L 45.18 302.30 L 39.81 298.30 L 34.77 293.82 L 30.13 288.90 L 25.95 283.57 L 22.27 277.88 L 19.11 271.89 L 16.51 265.63 L 14.49 259.16 L 13.06 252.53 L 12.24 245.80 L 12.02 239.02 L 12.42 232.25 L 13.43 225.55 L 15.05 218.96 L 17.25 212.55 L 20.02 206.36 L 23.34 200.45 L 27.18 194.87 L 31.51 189.65 L 36.30 184.85 L 41.50 180.50 L 47.07 176.64 L 52.96 173.29 L 59.14 170.49 L 65.54 168.26 L 72.12 166.61 L 78.83 165.55 L 85.62 165.05 L 92.45 165.11 L 99.28 165.67 L 106.09 166.66 L 112.87 168.00 L 119.62 169.59 L 126.33 171.34 L 132.99 173.13 L 139.60 174.88 L 146.10 176.43 L 152.47 177.65 L 158.63 178.38 L 164.55 178.51 L 170.20 178.04 L 175.61 176.84 L 180.70 174.98 L 185.62 172.78 L 190.40 170.30 L 195.06 167.62 L 199.66 164.82 L 204.20 161.96 L 208.72 159.06 L 213.22 156.14 L 217.72 153.21 L 222.21 150.28 L 226.70 147.35 L 231.19 144.42 L 235.68 141.49 L 240.17 138.56 L 244.66 135.63 L 249.14 132.71 L 253.63 129.78 L 258.11 126.85 L 262.61 123.94 L 267.11 121.04 L 271.62 118.17 L 276.16 115.34 L 280.73 112.58 L 285.35 109.90 L 290.04 107.33 L 294.78 104.91 L 299.61 102.64 L 304.50 100.54 L 309.47 98.63 L 314.51 96.91 L 319.62 95.39 L 324.77 94.07 L 329.98 92.96 L 335.22 92.05 L 340.50 91.36 L 345.81 90.87 L 351.12 90.60 L 356.44 90.53 L 361.76 90.68 L 367.07 91.04 L 372.37 91.61 L 377.63 92.38 L 382.87 93.37 L 388.05 94.56 L 393.19 95.96 L 398.27 97.56 L 403.28 99.35 L 408.22 101.35 L 413.07 103.54 L 417.84 105.92 L 422.50 108.48 L 427.06 111.23 L 431.51 114.16 L 435.84 117.26 L 440.05 120.53 L 444.12 123.97 L 448.06 127.56 L 451.85 131.30 L 455.48 135.20 L 458.97 139.23 L 462.29 143.40 L 465.44 147.69 L 468.42 152.11 L 471.22 156.64 L 473.84 161.28 L 476.28 166.01 L 478.53 170.84 L 480.58 175.76 L 482.44 180.75 L 484.10 185.81 L 485.56 190.93 L 486.82 196.11 L 487.87 201.33 L 488.72 206.59 L 489.35 211.88 L 489.78 217.19 L 489.99 222.51 L 490.00 227.84 L 489.80 233.16 L 489.38 238.47 L 488.76 243.76 L 487.92 249.02 L 486.88 254.25 L 485.64 259.43 L 484.19 264.55 L 482.54 269.62 L 480.68 274.61 L 478.64 279.53 L 476.40 284.36 L 473.97 289.10 L 471.36 293.73 L 468.56 298.26 L 465.59 302.68 L 462.44 306.97 L 459.13 311.14 L 455.65 315.17 L 452.02 319.06 Z" />
</symbol>
<symbol id="bl3">
<path d="M 213.31 284.52 L 215.88 284.89 L 218.44 285.32 L 220.98 285.85 L 223.48 286.52 L 225.94 287.34 L 228.33 288.32 L 230.64 289.48 L 232.87 290.80 L 235.01 292.30 L 237.04 293.98 L 238.96 295.82 L 240.77 297.82 L 242.45 299.97 L 243.98 302.23 L 245.35 304.59 L 246.54 307.01 L 247.53 309.48 L 248.32 311.98 L 248.92 314.52 L 249.32 317.07 L 249.53 319.64 L 249.56 322.22 L 249.41 324.79 L 249.08 327.35 L 248.61 329.89 L 248.00 332.41 L 247.27 334.90 L 246.45 337.37 L 245.56 339.82 L 244.63 342.25 L 243.68 344.67 L 242.70 347.09 L 241.72 349.51 L 240.74 351.93 L 239.75 354.34 L 238.76 356.75 L 237.77 359.17 L 236.78 361.59 L 235.79 364.00 L 234.80 366.42 L 233.82 368.83 L 232.83 371.25 L 231.84 373.66 L 230.84 376.07 L 229.82 378.47 L 228.77 380.86 L 227.67 383.22 L 226.51 385.55 L 225.24 387.81 L 223.86 389.98 L 222.33 392.03 L 220.64 393.93 L 218.79 395.65 L 216.78 397.17 L 214.63 398.47 L 212.35 399.53 L 209.97 400.34 L 207.52 400.88 L 205.03 401.16 L 202.52 401.17 L 200.02 400.90 L 197.57 400.37 L 195.18 399.57 L 192.90 398.53 L 190.72 397.25 L 188.68 395.75 L 186.78 394.07 L 185.01 392.23 L 183.37 390.25 L 181.83 388.18 L 180.38 386.03 L 178.98 383.85 L 177.61 381.64 L 176.23 379.44 L 174.81 377.26 L 173.31 375.12 L 171.71 373.04 L 169.96 371.02 L 168.04 369.06 L 165.94 367.14 L 163.68 365.23 L 161.36 363.28 L 159.09 361.27 L 157.02 359.18 L 155.28 357.00 L 153.95 354.74 L 153.07 352.43 L 152.63 350.12 L 152.62 347.87 L 153.03 345.74 L 153.85 343.78 L 155.06 342.00 L 156.60 340.39 L 158.40 338.89 L 160.34 337.43 L 162.33 335.94 L 164.29 334.36 L 166.14 332.65 L 167.83 330.78 L 169.32 328.76 L 170.59 326.58 L 171.61 324.28 L 172.36 321.88 L 172.84 319.40 L 173.06 316.87 L 173.02 314.32 L 172.75 311.78 L 172.28 309.24 L 171.66 306.72 L 170.91 304.22 L 170.09 301.74 L 169.22 299.27 L 168.33 296.81 L 167.43 294.34 L 166.56 291.86 L 165.75 289.37 L 165.01 286.85 L 164.38 284.30 L 163.87 281.71 L 163.50 279.10 L 163.26 276.46 L 163.13 273.82 L 163.09 271.18 L 163.12 268.54 L 163.19 265.90 L 163.29 263.26 L 163.41 260.63 L 163.52 257.99 L 163.64 255.36 L 163.75 252.73 L 163.85 250.10 L 163.93 247.46 L 163.98 244.83 L 163.99 242.20 L 163.96 239.57 L 163.85 236.94 L 163.66 234.31 L 163.38 231.69 L 163.01 229.06 L 162.54 226.42 L 161.98 223.77 L 161.35 221.10 L 160.66 218.41 L 159.97 215.71 L 159.30 213.02 L 158.68 210.33 L 158.14 207.67 L 157.68 205.03 L 157.29 202.41 L 156.94 199.81 L 156.63 197.23 L 156.33 194.64 L 156.05 192.06 L 155.76 189.48 L 155.48 186.90 L 155.21 184.32 L 154.94 181.74 L 154.69 179.16 L 154.47 176.58 L 154.32 174.00 L 154.25 171.43 L 154.32 168.88 L 154.58 166.37 L 155.08 163.93 L 155.84 161.60 L 156.90 159.40 L 158.25 157.40 L 159.88 155.63 L 161.75 154.13 L 163.82 152.94 L 166.06 152.08 L 168.41 151.57 L 170.81 151.42 L 173.22 151.63 L 175.60 152.19 L 177.91 153.06 L 180.13 154.20 L 182.27 155.56 L 184.34 157.09 L 186.35 158.73 L 188.31 160.44 L 190.25 162.19 L 192.17 163.96 L 194.08 165.74 L 195.99 167.53 L 197.89 169.32 L 199.79 171.11 L 201.69 172.91 L 203.58 174.71 L 205.46 176.52 L 207.32 178.35 L 209.14 180.20 L 210.91 182.11 L 212.61 184.07 L 214.19 186.11 L 215.65 188.24 L 216.96 190.45 L 218.10 192.76 L 219.05 195.15 L 219.81 197.61 L 220.36 200.14 L 220.70 202.72 L 220.83 205.34 L 220.74 207.98 L 220.45 210.61 L 219.95 213.20 L 219.26 215.73 L 218.38 218.20 L 217.34 220.59 L 216.16 222.91 L 214.87 225.17 L 213.50 227.38 L 212.07 229.57 L 210.61 231.74 L 209.13 233.91 L 207.65 236.07 L 206.16 238.23 L 204.67 240.39 L 203.18 242.55 L 201.69 244.72 L 200.22 246.88 L 198.76 249.06 L 197.35 251.26 L 196.00 253.48 L 194.76 255.74 L 193.69 258.05 L 192.82 260.42 L 192.23 262.83 L 191.94 265.27 L 191.98 267.71 L 192.36 270.12 L 193.09 272.43 L 194.14 274.62 L 195.50 276.63 L 197.14 278.43 L 199.02 279.98 L 201.11 281.28 L 203.37 282.31 L 205.75 283.10 L 208.22 283.69 L 210.74 284.14 Z" />
</symbol>
</defs>
<!-- isDone: 0 -->
<rect width="700" height="500" style="fill:#fff;stroke-width:0" />
<use class="p0 borderLine" xlink:href="#bl0"/>
<use class="p1 borderLine" xlink:href="#bl1"/>
<use class="p2 borderLine" xlink:href="#bl2"/>
<use class="p3 borderLine" xlink:href="#bl3"/>
<use class="q0 outLine" xlink:href="#bl0"/>
<use class="q1 outLine" xlink:href="#bl1"/>
<use class="q2 outLine" xlink:href="#bl2"/>
<use class="q3 outLine" xlink:href="#bl3"/>
<circle onclick="fromCircle(8)" class="circle" cx="153.4662" cy="385.9057" r="17.0007" />
<text class="nLabel" x="153.47" y="380.91">72</text>
<text class="belong" x="153.47" y="390.91">(1)</text>
<circle onclick="fromCircle(12)" class="circle" cx="135.5977" cy="350.9555" r="11.5095" />
<text class="nLabel" x="135.60" y="345.96">33</text>
<text class="belong" x="135.60" y="355.96">(1, 2)</text>
<circle onclick="fromCircle(14)" class="circle" cx="151.1587" cy="316.6422" r="17.0007" />
<text class="nLabel" x="151.16" y="311.64">72</text>
<text class="belong" x="151.16" y="321.64">(1, 2, 3)</text>
<circle onclick="fromCircle(15)" class="circle" cx="176.6450" cy="278.8970" r="8.0142" />
<text class="nLabel" x="176.64" y="273.90">16</text>
<text class="belong" x="176.64" y="283.90">(1, 2, 3, 4)</text>
<circle onclick="fromCircle(4)" class="circle" cx="71.5797" cy="363.0584" r="41.5464" />
<text class="nLabel" x="71.58" y="358.06">430</text>
<text class="belong" x="71.58" y="368.06">(2)</text>
<circle onclick="fromCircle(6)" class="circle" cx="86.5686" cy="239.7932" r="71.4848" />
<text class="nLabel" x="86.57" y="234.79">1273</text>
<text class="belong" x="86.57" y="244.79">(2, 3)</text>
<circle onclick="fromCircle(7)" class="circle" cx="189.7099" cy="205.5059" r="26.1230" />
<text class="nLabel" x="189.71" y="200.51">170</text>
<text class="belong" x="189.71" y="210.51">(2, 3, 4)</text>
<circle onclick="fromCircle(5)" class="circle" cx="170.5090" cy="166.4997" r="11.1553" />
<text class="nLabel" x="170.51" y="161.50">31</text>
<text class="belong" x="170.51" y="171.50">(2, 4)</text>
<circle onclick="fromCircle(2)" class="circle" cx="356.6743" cy="224.6483" r="129.9991" />
<text class="nLabel" x="356.67" y="219.65">4210</text>
<text class="belong" x="356.67" y="229.65">(3)</text>
<circle onclick="fromCircle(10)" class="circle" cx="208.4687" cy="266.3390" r="12.0213" />
<text class="nLabel" x="208.47" y="261.34">36</text>
<text class="belong" x="208.47" y="271.34">(1, 3)</text>
<circle onclick="fromCircle(11)" class="circle" cx="173.1091" cy="341.4005" r="4.0071" />
<text class="nLabel" x="173.11" y="336.40">4</text>
<text class="belong" x="173.11" y="346.40">(1, 3, 4)</text>
<circle onclick="fromCircle(3)" class="circle" cx="213.7793" cy="321.1011" r="30.5828" />
<text class="nLabel" x="213.78" y="316.10">233</text>
<text class="belong" x="213.78" y="326.10">(3, 4)</text>
<circle onclick="fromCircle(1)" class="circle" cx="203.7823" cy="378.2553" r="18.2532" />
<text class="nLabel" x="203.78" y="373.26">83</text>
<text class="belong" x="203.78" y="383.26">(4)</text>
<circle onclick="fromCircle(9)" class="circle" cx="172.3161" cy="359.5483" r="3.4702" />
<text class="nLabel" x="172.32" y="354.55">3</text>
<text class="belong" x="172.32" y="364.55">(1, 4)</text>
<circle onclick="fromCircle(13)" class="circle" cx="156.5016" cy="349.7725" r="3.1893" />
<text class="nLabel" x="156.50" y="344.77">2</text>
<text class="belong" x="156.50" y="354.77">(1, 2, 4)</text>
<g id="legendBox">
<rect class="p0 borderLine" x="500.00" y="50.00" width="30.00" height="15.00" />
<rect class="q0" x="500.00" y="50.00" width="30.00" height="15.00" />
<text class="legend" x="540.00" y="65.00">Dux regulated</text>
<rect class="p1 borderLine" x="500.00" y="90.00" width="30.00" height="15.00" />
<rect class="q1" x="500.00" y="90.00" width="30.00" height="15.00" />
<text class="legend" x="540.00" y="105.00">Obox regulated</text>
<rect class="p2 borderLine" x="500.00" y="130.00" width="30.00" height="15.00" />
<rect class="q2" x="500.00" y="130.00" width="30.00" height="15.00" />
<text class="legend" x="540.00" y="145.00">NRs regulated</text>
<rect class="p3 borderLine" x="500.00" y="170.00" width="30.00" height="15.00" />
<rect class="q3" x="500.00" y="170.00" width="30.00" height="15.00" />
<text class="legend" x="540.00" y="185.00">ZGA genes</text>
</g>
</svg>
