<svg xmlns="http://www.w3.org/2000/svg" xmlns:xlink="http://www.w3.org/1999/xlink" width="700" height="500">
<defs>
<style type="text/css"><![CDATA[
  .borderLine {
	   stroke: none;
	   fill-opacity:  0.4 ;
  }
  .outLine {
	   stroke-width:  1 ;
	   fill: none;
  }
  .circle {
	   stroke: #888888;
	   stroke-width: 0.5;
	   fill: none;
    pointer-events: all;
  }
  .nLabel {
	   font-family: Arial;
    pointer-events: none;
	   font-size: 10px;
	   text-anchor: middle;
	   alignment-baseline: central;
  }
  .belong {
	   font-family: Arial;
    pointer-events: none;
	   font-size: 5px;
	   text-anchor: middle;
	   alignment-baseline: central;
  }
  .legend {
    font-family: Arial;
    font-size: 15px;
  }
  #legendBox {
    display:  inline ;
  }
  .p0{
    stroke: none;
    fill: #e6194b;
  }
  .q0{
    fill: none;
    stroke: #e6194b;
  }
  .p1{
    stroke: none;
    fill: #3cb44b;
  }
  .q1{
    fill: none;
    stroke: #3cb44b;
  }
  .p2{
    stroke: none;
    fill: #ffe119;
  }
  .q2{
    fill: none;
    stroke: #ffe119;
  }
  .p3{
    stroke: none;
    fill: #0082c8;
  }
  .q3{
    fill: none;
    stroke: #0082c8;
  }
]]>
</style>
<symbol id="bl0">
<path d="M 277.49 216.36 L 274.00 219.14 L 270.69 222.08 L 267.61 225.21 L 264.78 228.54 L 262.23 232.06 L 259.96 235.77 L 257.96 239.63 L 256.21 243.63 L 254.68 247.73 L 253.35 251.91 L 252.16 256.14 L 251.09 260.41 L 250.08 264.70 L 249.10 269.00 L 248.14 273.29 L 247.16 277.58 L 246.13 281.84 L 244.99 286.04 L 243.68 290.15 L 242.13 294.11 L 240.24 297.87 L 237.96 301.37 L 235.25 304.60 L 232.10 307.57 L 228.54 310.33 L 224.60 312.99 L 220.33 315.66 L 215.81 318.44 L 211.10 321.38 L 206.26 324.48 L 201.35 327.71 L 196.37 330.98 L 191.31 334.19 L 186.17 337.23 L 180.90 339.99 L 175.48 342.33 L 169.91 344.18 L 164.19 345.47 L 158.35 346.17 L 152.43 346.39 L 146.44 346.20 L 140.43 345.71 L 134.41 345.03 L 128.38 344.24 L 122.34 343.38 L 116.31 342.49 L 110.28 341.59 L 104.25 340.69 L 98.22 339.77 L 92.19 338.85 L 86.17 337.91 L 80.16 336.92 L 74.17 335.86 L 68.22 334.67 L 62.32 333.29 L 56.52 331.66 L 50.86 329.69 L 45.38 327.33 L 40.14 324.54 L 35.18 321.31 L 30.56 317.63 L 26.32 313.52 L 22.50 309.02 L 19.15 304.17 L 16.29 299.02 L 13.95 293.60 L 12.15 287.98 L 10.90 282.20 L 10.19 276.31 L 10.00 270.37 L 10.29 264.40 L 10.98 258.42 L 12.01 252.47 L 13.28 246.53 L 14.72 240.62 L 16.28 234.72 L 17.89 228.83 L 19.54 222.95 L 21.20 217.09 L 22.89 211.26 L 24.59 205.49 L 26.33 199.83 L 28.14 194.34 L 30.07 189.09 L 32.18 184.12 L 34.57 179.46 L 37.30 175.06 L 40.44 170.88 L 43.99 166.84 L 47.92 162.88 L 52.13 158.97 L 56.51 155.11 L 60.96 151.31 L 65.36 147.62 L 69.63 144.08 L 73.73 140.75 L 77.64 137.68 L 81.41 134.89 L 85.10 132.41 L 88.78 130.27 L 92.51 128.48 L 96.35 127.09 L 100.30 126.12 L 104.38 125.60 L 108.55 125.54 L 112.81 125.96 L 117.11 126.84 L 121.42 128.17 L 125.69 129.91 L 129.92 132.03 L 134.09 134.46 L 138.22 137.12 L 142.31 139.94 L 146.40 142.83 L 150.49 145.75 L 154.60 148.63 L 158.76 151.42 L 162.98 154.04 L 167.26 156.43 L 171.59 158.52 L 175.97 160.25 L 180.39 161.57 L 184.83 162.46 L 189.27 162.89 L 193.70 162.87 L 198.09 162.37 L 202.40 161.41 L 206.59 159.98 L 210.60 158.09 L 214.38 155.77 L 217.89 153.04 L 221.08 149.94 L 223.92 146.52 L 226.38 142.80 L 228.43 138.84 L 230.05 134.68 L 231.26 130.37 L 232.06 125.94 L 232.48 121.44 L 232.58 116.90 L 232.43 112.34 L 232.10 107.77 L 231.70 103.22 L 231.33 98.67 L 231.11 94.13 L 231.11 89.63 L 231.43 85.16 L 232.12 80.77 L 233.21 76.47 L 234.72 72.32 L 236.64 68.35 L 238.95 64.60 L 241.64 61.11 L 244.67 57.91 L 248.02 55.05 L 251.65 52.55 L 255.51 50.45 L 259.58 48.75 L 263.80 47.48 L 268.13 46.66 L 272.52 46.29 L 276.92 46.38 L 281.30 46.92 L 285.59 47.91 L 289.76 49.34 L 293.76 51.19 L 297.55 53.45 L 301.08 56.09 L 304.33 59.07 L 307.24 62.38 L 309.80 65.97 L 311.98 69.80 L 313.75 73.84 L 315.08 78.05 L 315.98 82.37 L 316.44 86.78 L 316.46 91.22 L 316.07 95.67 L 315.32 100.10 L 314.29 104.49 L 313.08 108.82 L 311.79 113.11 L 310.53 117.35 L 309.37 121.56 L 308.36 125.75 L 307.52 129.95 L 306.87 134.15 L 306.41 138.37 L 306.13 142.60 L 306.01 146.84 L 306.03 151.08 L 306.16 155.32 L 306.34 159.57 L 306.51 163.81 L 306.59 168.04 L 306.52 172.25 L 306.21 176.42 L 305.61 180.54 L 304.67 184.58 L 303.38 188.50 L 301.71 192.28 L 299.67 195.88 L 297.28 199.28 L 294.54 202.48 L 291.49 205.48 L 288.17 208.31 L 284.67 211.01 L 281.08 213.67 Z" />
</symbol>
<symbol id="bl1">
<path d="M 235.09 222.63 L 235.72 226.36 L 236.33 230.10 L 236.92 233.84 L 237.51 237.58 L 238.10 241.32 L 238.69 245.06 L 239.27 248.80 L 239.86 252.54 L 240.44 256.28 L 241.02 260.02 L 241.59 263.76 L 242.14 267.50 L 242.66 271.24 L 243.10 274.99 L 243.44 278.73 L 243.60 282.45 L 243.52 286.14 L 243.12 289.76 L 242.36 293.28 L 241.17 296.65 L 239.56 299.82 L 237.52 302.73 L 235.09 305.33 L 232.31 307.58 L 229.26 309.42 L 226.03 310.83 L 222.70 311.79 L 219.35 312.30 L 216.04 312.34 L 212.83 311.94 L 209.75 311.12 L 206.82 309.89 L 204.07 308.28 L 201.51 306.32 L 199.13 304.04 L 196.93 301.50 L 194.84 298.76 L 192.81 295.93 L 190.77 293.08 L 188.63 290.32 L 186.35 287.71 L 183.91 285.29 L 181.28 283.11 L 178.49 281.15 L 175.54 279.41 L 172.47 277.86 L 169.32 276.47 L 166.10 275.18 L 162.86 273.93 L 159.64 272.65 L 156.45 271.31 L 153.32 269.84 L 150.26 268.24 L 147.31 266.47 L 144.46 264.54 L 141.72 262.45 L 139.10 260.21 L 136.61 257.83 L 134.22 255.33 L 131.93 252.74 L 129.72 250.06 L 127.57 247.34 L 125.45 244.59 L 123.34 241.84 L 121.19 239.10 L 119.00 236.42 L 116.73 233.80 L 114.37 231.27 L 111.91 228.85 L 109.34 226.56 L 106.65 224.40 L 103.85 222.38 L 100.95 220.53 L 97.95 218.84 L 94.86 217.33 L 91.70 215.99 L 88.46 214.83 L 85.16 213.85 L 81.81 213.06 L 78.42 212.45 L 75.00 212.03 L 71.56 211.76 L 68.11 211.63 L 64.66 211.59 L 61.23 211.55 L 57.82 211.42 L 54.48 211.11 L 51.22 210.54 L 48.08 209.62 L 45.12 208.35 L 42.36 206.70 L 39.87 204.69 L 37.68 202.37 L 35.81 199.75 L 34.30 196.90 L 33.13 193.87 L 32.30 190.69 L 31.76 187.42 L 31.46 184.09 L 31.34 180.72 L 31.36 177.34 L 31.46 173.95 L 31.62 170.56 L 31.81 167.18 L 32.01 163.79 L 32.22 160.40 L 32.43 157.02 L 32.64 153.63 L 32.85 150.24 L 33.07 146.85 L 33.28 143.47 L 33.50 140.08 L 33.71 136.69 L 33.94 133.31 L 34.17 129.92 L 34.43 126.54 L 34.73 123.17 L 35.10 119.81 L 35.58 116.47 L 36.23 113.18 L 37.08 109.95 L 38.18 106.82 L 39.56 103.82 L 41.24 100.99 L 43.21 98.36 L 45.45 95.93 L 47.92 93.70 L 50.58 91.67 L 53.38 89.78 L 56.28 88.02 L 59.24 86.34 L 62.23 84.71 L 65.25 83.12 L 68.28 81.54 L 71.32 79.98 L 74.35 78.42 L 77.39 76.86 L 80.42 75.30 L 83.46 73.74 L 86.50 72.18 L 89.54 70.63 L 92.58 69.07 L 95.62 67.51 L 98.66 65.96 L 101.69 64.40 L 104.73 62.85 L 107.77 61.29 L 110.81 59.73 L 113.85 58.18 L 116.89 56.63 L 119.93 55.07 L 122.97 53.52 L 126.01 51.96 L 129.05 50.41 L 132.09 48.86 L 135.13 47.30 L 138.17 45.75 L 141.22 44.20 L 144.26 42.65 L 147.31 41.11 L 150.36 39.58 L 153.43 38.08 L 156.51 36.63 L 159.63 35.26 L 162.78 34.01 L 165.98 32.93 L 169.22 32.09 L 172.50 31.53 L 175.79 31.30 L 179.07 31.43 L 182.30 31.95 L 185.43 32.85 L 188.43 34.13 L 191.26 35.77 L 193.89 37.73 L 196.30 39.98 L 198.49 42.48 L 200.48 45.18 L 202.31 48.02 L 204.01 50.97 L 205.62 53.99 L 207.18 57.05 L 208.72 60.13 L 210.23 63.22 L 211.75 66.31 L 213.26 69.41 L 214.77 72.50 L 216.28 75.60 L 217.79 78.70 L 219.30 81.80 L 220.80 84.90 L 222.31 88.00 L 223.80 91.11 L 225.27 94.22 L 226.71 97.35 L 228.08 100.50 L 229.35 103.68 L 230.48 106.89 L 231.44 110.16 L 232.19 113.47 L 232.72 116.81 L 233.00 120.19 L 233.04 123.57 L 232.84 126.95 L 232.43 130.33 L 231.82 133.68 L 231.05 137.01 L 230.16 140.32 L 229.18 143.61 L 228.16 146.89 L 227.12 150.16 L 226.10 153.44 L 225.14 156.73 L 224.27 160.04 L 223.54 163.38 L 222.99 166.73 L 222.65 170.11 L 222.56 173.50 L 222.73 176.89 L 223.17 180.28 L 223.87 183.66 L 224.81 187.05 L 225.93 190.43 L 227.17 193.83 L 228.45 197.26 L 229.70 200.75 L 230.87 204.28 L 231.92 207.88 L 232.85 211.52 L 233.68 215.20 L 234.41 218.90 Z" />
</symbol>
<symbol id="bl2">
<path d="M 396.98 262.56 L 393.02 265.46 L 389.07 268.35 L 385.11 271.25 L 381.15 274.15 L 377.20 277.05 L 373.24 279.95 L 369.27 282.85 L 365.31 285.75 L 361.34 288.64 L 357.37 291.53 L 353.38 294.39 L 349.37 297.21 L 345.31 299.96 L 341.19 302.59 L 336.98 305.06 L 332.67 307.32 L 328.25 309.30 L 323.71 310.95 L 319.07 312.24 L 314.35 313.14 L 309.57 313.61 L 304.77 313.66 L 299.98 313.27 L 295.24 312.45 L 290.60 311.23 L 286.11 309.64 L 281.79 307.70 L 277.68 305.46 L 273.78 302.95 L 270.07 300.24 L 266.52 297.34 L 263.10 294.32 L 259.77 291.20 L 256.49 288.03 L 253.22 284.84 L 249.95 281.65 L 246.64 278.52 L 243.26 275.48 L 239.78 272.61 L 236.16 270.01 L 232.39 267.78 L 228.46 266.05 L 224.41 264.90 L 220.26 264.41 L 216.07 264.57 L 211.84 265.31 L 207.56 266.52 L 203.18 268.02 L 198.62 269.61 L 193.81 271.09 L 188.73 272.32 L 183.39 273.14 L 177.85 273.46 L 172.20 273.22 L 166.53 272.39 L 160.95 270.97 L 155.52 268.96 L 150.30 266.40 L 145.34 263.33 L 140.65 259.80 L 136.23 255.88 L 132.06 251.65 L 128.09 247.20 L 124.26 242.58 L 120.53 237.87 L 116.84 233.12 L 113.17 228.36 L 109.50 223.59 L 105.83 218.84 L 102.15 214.10 L 98.49 209.37 L 94.88 204.66 L 91.35 199.99 L 87.95 195.36 L 84.77 190.78 L 81.86 186.25 L 79.29 181.74 L 77.13 177.21 L 75.43 172.58 L 74.26 167.81 L 73.68 162.88 L 73.74 157.82 L 74.46 152.68 L 75.78 147.50 L 77.61 142.34 L 79.79 137.17 L 82.12 131.97 L 84.41 126.69 L 86.52 121.30 L 88.38 115.80 L 90.04 110.21 L 91.59 104.59 L 93.20 99.01 L 95.03 93.57 L 97.21 88.33 L 99.67 83.29 L 102.78 78.69 L 106.66 74.84 L 111.26 71.88 L 116.31 69.85 L 121.71 68.88 L 127.27 69.00 L 132.81 69.72 L 138.34 70.87 L 143.83 72.43 L 149.26 74.24 L 154.61 76.09 L 159.87 77.80 L 165.02 79.17 L 170.04 80.09 L 174.91 80.49 L 179.64 80.37 L 184.27 79.79 L 188.82 78.81 L 193.32 77.50 L 197.79 75.92 L 202.26 74.13 L 206.72 72.18 L 211.17 70.13 L 215.63 68.02 L 220.09 65.87 L 224.55 63.71 L 229.01 61.54 L 233.47 59.38 L 237.94 57.24 L 242.42 55.14 L 246.92 53.13 L 251.46 51.24 L 256.05 49.54 L 260.71 48.10 L 265.42 46.94 L 270.20 46.11 L 275.03 45.57 L 279.90 45.31 L 284.78 45.26 L 289.67 45.37 L 294.56 45.58 L 299.46 45.85 L 304.35 46.16 L 309.25 46.48 L 314.15 46.81 L 319.04 47.14 L 323.93 47.48 L 328.82 47.81 L 333.72 48.15 L 338.60 48.48 L 343.49 48.82 L 348.38 49.16 L 353.27 49.49 L 358.15 49.83 L 363.04 50.17 L 367.92 50.50 L 372.80 50.84 L 377.68 51.19 L 382.56 51.54 L 387.44 51.90 L 392.31 52.30 L 397.17 52.75 L 402.02 53.28 L 406.86 53.93 L 411.66 54.72 L 416.43 55.68 L 421.14 56.85 L 425.80 58.23 L 430.37 59.84 L 434.86 61.68 L 439.25 63.74 L 443.52 66.04 L 447.66 68.56 L 451.67 71.29 L 455.53 74.23 L 459.23 77.37 L 462.76 80.69 L 466.11 84.21 L 469.27 87.89 L 472.24 91.73 L 475.00 95.73 L 477.54 99.87 L 479.87 104.13 L 481.96 108.51 L 483.83 113.00 L 485.45 117.57 L 486.83 122.23 L 487.97 126.96 L 488.86 131.73 L 489.49 136.55 L 489.87 141.39 L 490.00 146.25 L 489.87 151.11 L 489.49 155.95 L 488.85 160.76 L 487.96 165.54 L 486.82 170.26 L 485.43 174.91 L 483.80 179.49 L 481.93 183.97 L 479.83 188.34 L 477.51 192.60 L 474.96 196.73 L 472.20 200.72 L 469.24 204.57 L 466.09 208.27 L 462.77 211.81 L 459.29 215.21 L 455.68 218.48 L 451.96 221.63 L 448.15 224.69 L 444.29 227.68 L 440.39 230.63 L 436.47 233.55 L 432.53 236.46 L 428.59 239.36 L 424.64 242.26 L 420.69 245.16 L 416.74 248.06 L 412.79 250.96 L 408.84 253.86 L 404.89 256.76 L 400.93 259.66 Z" />
</symbol>
<symbol id="bl3">
<path d="M 353.28 314.55 L 352.33 320.50 L 351.37 326.44 L 350.42 332.39 L 349.47 338.33 L 348.51 344.27 L 347.55 350.21 L 346.60 356.15 L 345.64 362.09 L 344.67 368.03 L 343.69 373.96 L 342.69 379.89 L 341.64 385.80 L 340.52 391.69 L 339.27 397.55 L 337.85 403.35 L 336.19 409.08 L 334.26 414.69 L 332.00 420.17 L 329.40 425.48 L 326.44 430.59 L 323.12 435.48 L 319.47 440.11 L 315.49 444.47 L 311.20 448.53 L 306.64 452.27 L 301.81 455.67 L 296.74 458.71 L 291.47 461.37 L 286.01 463.64 L 280.40 465.49 L 274.67 466.94 L 268.85 467.95 L 262.97 468.54 L 257.07 468.70 L 251.17 468.43 L 245.31 467.74 L 239.51 466.62 L 233.82 465.09 L 228.25 463.14 L 222.84 460.80 L 217.61 458.07 L 212.60 454.96 L 207.82 451.50 L 203.30 447.72 L 199.03 443.63 L 195.02 439.27 L 191.25 434.68 L 187.69 429.90 L 184.31 424.98 L 181.05 419.95 L 177.89 414.86 L 174.78 409.73 L 171.70 404.58 L 168.64 399.41 L 165.58 394.24 L 162.53 389.06 L 159.47 383.88 L 156.42 378.70 L 153.37 373.52 L 150.32 368.33 L 147.27 363.15 L 144.23 357.95 L 141.22 352.75 L 138.27 347.52 L 135.42 342.26 L 132.76 336.94 L 130.40 331.54 L 128.44 326.03 L 127.01 320.41 L 126.18 314.67 L 125.94 308.83 L 126.23 302.91 L 126.89 296.91 L 127.72 290.86 L 128.50 284.76 L 129.04 278.62 L 129.23 272.45 L 129.02 266.28 L 128.42 260.10 L 127.51 253.95 L 126.40 247.81 L 125.25 241.68 L 124.20 235.56 L 123.41 229.44 L 123.01 223.36 L 123.11 217.34 L 123.75 211.45 L 124.94 205.76 L 126.64 200.34 L 128.76 195.23 L 131.16 190.43 L 133.69 185.89 L 136.19 181.52 L 138.49 177.20 L 140.50 172.87 L 142.13 168.45 L 143.40 163.93 L 144.36 159.32 L 145.07 154.65 L 145.62 149.94 L 146.07 145.21 L 146.47 140.47 L 146.88 135.73 L 147.33 130.98 L 147.87 126.24 L 148.55 121.49 L 149.36 116.75 L 150.26 112.02 L 151.18 107.31 L 151.98 102.64 L 152.57 98.02 L 152.87 93.46 L 152.89 88.96 L 152.67 84.49 L 152.31 80.05 L 151.91 75.63 L 151.57 71.20 L 151.40 66.76 L 151.49 62.34 L 151.92 57.96 L 152.75 53.67 L 153.94 49.51 L 155.64 45.53 L 157.96 41.89 L 160.88 38.75 L 164.34 36.19 L 168.19 34.30 L 172.31 33.12 L 176.59 32.73 L 180.88 33.07 L 185.04 34.25 L 188.94 36.13 L 192.50 38.64 L 195.77 41.50 L 198.81 44.62 L 201.58 48.02 L 204.10 51.63 L 206.43 55.39 L 208.62 59.24 L 210.73 63.15 L 212.79 67.08 L 214.83 71.03 L 216.87 74.99 L 218.89 78.95 L 220.93 82.91 L 222.97 86.86 L 225.02 90.81 L 227.12 94.74 L 229.27 98.64 L 231.50 102.49 L 233.86 106.27 L 236.37 109.93 L 239.08 113.44 L 242.00 116.75 L 245.17 119.80 L 248.59 122.56 L 252.27 125.00 L 256.20 127.13 L 260.37 128.98 L 264.75 130.64 L 269.33 132.26 L 274.04 134.00 L 278.84 136.07 L 283.61 138.62 L 288.24 141.75 L 292.61 145.50 L 296.58 149.85 L 300.14 154.70 L 303.31 159.95 L 306.17 165.47 L 308.84 171.15 L 311.46 176.89 L 314.15 182.58 L 317.03 188.15 L 320.12 193.54 L 323.45 198.68 L 326.96 203.54 L 330.60 208.10 L 334.29 212.39 L 337.96 216.50 L 341.54 220.55 L 344.98 224.69 L 348.20 229.06 L 351.13 233.72 L 353.68 238.71 L 355.79 243.99 L 357.39 249.51 L 358.48 255.22 L 359.07 261.04 L 359.21 266.94 L 358.99 272.88 L 358.49 278.83 L 357.80 284.79 L 356.98 290.75 L 356.09 296.70 L 355.17 302.65 L 354.23 308.60 Z" />
</symbol>
</defs>
<!-- isDone: 0 -->
<rect width="700" height="500" style="fill:#fff;stroke-width:0" />
<use class="p0 borderLine" xlink:href="#bl0"/>
<use class="p1 borderLine" xlink:href="#bl1"/>
<use class="p2 borderLine" xlink:href="#bl2"/>
<use class="p3 borderLine" xlink:href="#bl3"/>
<use class="q0 outLine" xlink:href="#bl0"/>
<use class="q1 outLine" xlink:href="#bl1"/>
<use class="q2 outLine" xlink:href="#bl2"/>
<use class="q3 outLine" xlink:href="#bl3"/>
<circle onclick="fromCircle(8)" class="circle" cx="68.9596" cy="273.2943" r="58.0333" />
<text class="nLabel" x="68.96" y="268.29">242</text>
<text class="belong" x="68.96" y="278.29">(1)</text>
<circle onclick="fromCircle(12)" class="circle" cx="54.6499" cy="187.9608" r="20.7707" />
<text class="nLabel" x="54.65" y="182.96">31</text>
<text class="belong" x="54.65" y="192.96">(1, 2)</text>
<circle onclick="fromCircle(14)" class="circle" cx="107.8482" cy="160.6240" r="33.7813" />
<text class="nLabel" x="107.85" y="155.62">82</text>
<text class="belong" x="107.85" y="165.62">(1, 2, 3)</text>
<circle onclick="fromCircle(15)" class="circle" cx="177.1141" cy="219.3964" r="52.7575" />
<text class="nLabel" x="177.11" y="214.40">200</text>
<text class="belong" x="177.11" y="224.40">(1, 2, 3, 4)</text>
<circle onclick="fromCircle(4)" class="circle" cx="61.8608" cy="114.6680" r="23.2971" />
<text class="nLabel" x="61.86" y="109.67">39</text>
<text class="belong" x="61.86" y="119.67">(2)</text>
<circle onclick="fromCircle(6)" class="circle" cx="123.8036" cy="96.0981" r="27.1586" />
<text class="nLabel" x="123.80" y="91.10">53</text>
<text class="belong" x="123.80" y="101.10">(2, 3)</text>
<circle onclick="fromCircle(7)" class="circle" cx="190.8722" cy="121.8116" r="39.3035" />
<text class="nLabel" x="190.87" y="116.81">111</text>
<text class="belong" x="190.87" y="126.81">(2, 3, 4)</text>
<circle onclick="fromCircle(5)" class="circle" cx="176.6836" cy="56.4158" r="23.5939" />
<text class="nLabel" x="176.68" y="51.42">40</text>
<text class="belong" x="176.68" y="61.42">(2, 4)</text>
<circle onclick="fromCircle(2)" class="circle" cx="399.7550" cy="145.7627" r="89.6878" />
<text class="nLabel" x="399.76" y="140.76">578</text>
<text class="belong" x="399.76" y="150.76">(3)</text>
<circle onclick="fromCircle(10)" class="circle" cx="274.3984" cy="88.2728" r="40.6952" />
<text class="nLabel" x="274.40" y="83.27">119</text>
<text class="belong" x="274.40" y="93.27">(1, 3)</text>
<circle onclick="fromCircle(11)" class="circle" cx="264.9498" cy="173.8081" r="39.3035" />
<text class="nLabel" x="264.95" y="168.81">111</text>
<text class="belong" x="264.95" y="178.81">(1, 3, 4)</text>
<circle onclick="fromCircle(3)" class="circle" cx="307.2331" cy="261.4645" r="50.7406" />
<text class="nLabel" x="307.23" y="256.46">185</text>
<text class="belong" x="307.23" y="266.46">(3, 4)</text>
<circle onclick="fromCircle(1)" class="circle" cx="258.3892" cy="389.5386" r="78.8721" />
<text class="nLabel" x="258.39" y="384.54">447</text>
<text class="belong" x="258.39" y="394.54">(4)</text>
<circle onclick="fromCircle(9)" class="circle" cx="159.7236" cy="312.2860" r="33.1576" />
<text class="nLabel" x="159.72" y="307.29">79</text>
<text class="belong" x="159.72" y="317.29">(1, 4)</text>
<circle onclick="fromCircle(13)" class="circle" cx="218.3794" cy="287.8910" r="22.9965" />
<text class="nLabel" x="218.38" y="282.89">38</text>
<text class="belong" x="218.38" y="292.89">(1, 2, 4)</text>
<g id="legendBox">
<rect class="p0 borderLine" x="500.00" y="50.00" width="30.00" height="15.00" />
<rect class="q0" x="500.00" y="50.00" width="30.00" height="15.00" />
<text class="legend" x="540.00" y="65.00">B6D2F1 pure (N=1)</text>
<rect class="p1 borderLine" x="500.00" y="90.00" width="30.00" height="15.00" />
<rect class="q1" x="500.00" y="90.00" width="30.00" height="15.00" />
<text class="legend" x="540.00" y="105.00">C57BL/6 x mix (N=3)</text>
<rect class="p2 borderLine" x="500.00" y="130.00" width="30.00" height="15.00" />
<rect class="q2" x="500.00" y="130.00" width="30.00" height="15.00" />
<text class="legend" x="540.00" y="145.00">C57BL/6 pure (N=3)</text>
<rect class="p3 borderLine" x="500.00" y="170.00" width="30.00" height="15.00" />
<rect class="q3" x="500.00" y="170.00" width="30.00" height="15.00" />
<text class="legend" x="540.00" y="185.00">CAST/EiJxC57BL/6J (N=1)</text>
</g>
</svg>
