<svg xmlns="http://www.w3.org/2000/svg" xmlns:xlink="http://www.w3.org/1999/xlink" width="700" height="500">
<defs>
<style type="text/css"><![CDATA[
  .borderLine {
	   stroke: none;
	   fill-opacity:  0.4 ;
  }
  .outLine {
	   stroke-width:  1 ;
	   fill: none;
  }
  .circle {
	   stroke: #888888;
	   stroke-width: 0.5;
	   fill: none;
    pointer-events: all;
  }
  .nLabel {
	   font-family: Arial;
    pointer-events: none;
	   font-size: 10px;
	   text-anchor: middle;
	   alignment-baseline: central;
  }
  .belong {
	   font-family: Arial;
    pointer-events: none;
	   font-size: 5px;
	   text-anchor: middle;
	   alignment-baseline: central;
  }
  .legend {
    font-family: Arial;
    font-size: 15px;
  }
  #legendBox {
    display:  inline ;
  }
  .p0{
    stroke: none;
    fill: #e6194b;
  }
  .q0{
    fill: none;
    stroke: #e6194b;
  }
  .p1{
    stroke: none;
    fill: #3cb44b;
  }
  .q1{
    fill: none;
    stroke: #3cb44b;
  }
  .p2{
    stroke: none;
    fill: #ffe119;
  }
  .q2{
    fill: none;
    stroke: #ffe119;
  }
  .p3{
    stroke: none;
    fill: #0082c8;
  }
  .q3{
    fill: none;
    stroke: #0082c8;
  }
]]>
</style>
<symbol id="bl0">
<path d="M 271.77 231.49 L 269.87 235.15 L 268.20 238.94 L 266.71 242.81 L 265.34 246.74 L 264.01 250.69 L 262.64 254.61 L 261.15 258.48 L 259.48 262.27 L 257.59 265.94 L 255.47 269.48 L 253.12 272.87 L 250.56 276.12 L 247.80 279.22 L 244.90 282.20 L 241.88 285.09 L 238.79 287.91 L 235.65 290.68 L 232.48 293.43 L 229.30 296.16 L 226.11 298.89 L 222.92 301.62 L 219.74 304.35 L 216.58 307.11 L 213.45 309.90 L 210.37 312.75 L 207.36 315.67 L 204.43 318.69 L 201.59 321.82 L 198.83 325.05 L 196.13 328.36 L 193.42 331.68 L 190.67 334.94 L 187.80 338.05 L 184.77 340.92 L 181.55 343.49 L 178.14 345.72 L 174.54 347.63 L 170.79 349.24 L 166.93 350.59 L 162.99 351.73 L 158.99 352.72 L 154.97 353.62 L 150.93 354.44 L 146.88 355.23 L 142.82 356.00 L 138.77 356.76 L 134.71 357.52 L 130.65 358.27 L 126.60 359.03 L 122.54 359.78 L 118.48 360.53 L 114.43 361.28 L 110.37 362.03 L 106.32 362.78 L 102.26 363.53 L 98.21 364.27 L 94.15 364.99 L 90.09 365.68 L 86.02 366.32 L 81.95 366.89 L 77.86 367.34 L 73.78 367.65 L 69.69 367.77 L 65.62 367.67 L 61.56 367.32 L 57.55 366.71 L 53.58 365.84 L 49.69 364.69 L 45.88 363.27 L 42.19 361.59 L 38.62 359.66 L 35.19 357.48 L 31.92 355.07 L 28.83 352.43 L 25.94 349.58 L 23.24 346.54 L 20.77 343.32 L 18.53 339.93 L 16.53 336.40 L 14.79 332.73 L 13.30 328.95 L 12.09 325.08 L 11.14 321.13 L 10.48 317.12 L 10.10 313.08 L 10.00 309.02 L 10.19 304.97 L 10.66 300.94 L 11.41 296.95 L 12.43 293.02 L 13.71 289.17 L 15.25 285.41 L 17.01 281.73 L 18.97 278.14 L 21.09 274.64 L 23.34 271.20 L 25.68 267.82 L 28.08 264.47 L 30.51 261.14 L 32.97 257.83 L 35.44 254.53 L 37.91 251.22 L 40.39 247.92 L 42.87 244.62 L 45.35 241.32 L 47.83 238.02 L 50.32 234.71 L 52.83 231.41 L 55.36 228.09 L 57.96 224.76 L 60.67 221.39 L 63.55 217.99 L 66.69 214.51 L 70.11 210.96 L 73.83 207.34 L 77.79 203.64 L 81.89 199.91 L 85.99 196.17 L 89.97 192.48 L 93.72 188.85 L 97.22 185.34 L 100.50 181.96 L 103.66 178.76 L 106.80 175.77 L 110.04 173.03 L 113.46 170.60 L 117.11 168.53 L 121.03 166.87 L 125.18 165.66 L 129.51 164.92 L 133.93 164.66 L 138.34 164.88 L 142.65 165.55 L 146.82 166.63 L 150.82 168.06 L 154.67 169.77 L 158.41 171.68 L 162.07 173.71 L 165.70 175.80 L 169.34 177.87 L 173.02 179.85 L 176.76 181.69 L 180.60 183.31 L 184.55 184.65 L 188.63 185.64 L 192.83 186.25 L 197.14 186.42 L 201.51 186.14 L 205.89 185.39 L 210.20 184.17 L 214.37 182.46 L 218.32 180.31 L 222.00 177.71 L 225.34 174.72 L 228.32 171.36 L 230.90 167.70 L 233.06 163.76 L 234.81 159.62 L 236.16 155.31 L 237.16 150.89 L 237.87 146.40 L 238.35 141.86 L 238.68 137.29 L 238.92 132.71 L 239.11 128.12 L 239.26 123.54 L 239.41 118.95 L 239.56 114.36 L 239.72 109.78 L 239.91 105.20 L 240.17 100.64 L 240.54 96.09 L 241.08 91.58 L 241.85 87.13 L 242.90 82.77 L 244.29 78.52 L 246.06 74.45 L 248.20 70.57 L 250.73 66.96 L 253.63 63.63 L 256.86 60.64 L 260.40 58.03 L 264.20 55.81 L 268.22 54.02 L 272.41 52.68 L 276.73 51.80 L 281.11 51.40 L 285.52 51.48 L 289.89 52.04 L 294.18 53.07 L 298.32 54.56 L 302.29 56.49 L 306.02 58.84 L 309.47 61.58 L 312.60 64.68 L 315.38 68.11 L 317.77 71.81 L 319.74 75.76 L 321.28 79.89 L 322.35 84.18 L 322.97 88.56 L 323.13 93.01 L 322.87 97.48 L 322.24 101.96 L 321.31 106.43 L 320.20 110.89 L 319.02 115.34 L 317.86 119.80 L 316.82 124.28 L 315.95 128.78 L 315.28 133.31 L 314.83 137.86 L 314.59 142.42 L 314.56 146.99 L 314.70 151.55 L 314.95 156.12 L 315.24 160.66 L 315.47 165.20 L 315.52 169.70 L 315.29 174.16 L 314.72 178.55 L 313.73 182.84 L 312.32 186.99 L 310.47 190.96 L 308.20 194.71 L 305.53 198.23 L 302.51 201.50 L 299.21 204.53 L 295.72 207.39 L 292.15 210.13 L 288.61 212.83 L 285.21 215.57 L 282.00 218.43 L 279.04 221.43 L 276.34 224.61 L 273.92 227.97 Z" />
</symbol>
<symbol id="bl1">
<path d="M 262.12 225.11 L 263.00 228.32 L 263.67 231.58 L 264.14 234.88 L 264.41 238.20 L 264.46 241.53 L 264.30 244.85 L 263.94 248.16 L 263.37 251.45 L 262.60 254.69 L 261.63 257.87 L 260.46 260.99 L 259.09 264.03 L 257.54 266.97 L 255.81 269.82 L 253.91 272.55 L 251.83 275.16 L 249.60 277.63 L 247.22 279.96 L 244.70 282.13 L 242.05 284.15 L 239.28 285.99 L 236.39 287.66 L 233.41 289.14 L 230.34 290.43 L 227.20 291.53 L 224.00 292.43 L 220.74 293.13 L 217.45 293.63 L 214.13 293.92 L 210.80 294.00 L 207.47 293.87 L 204.15 293.55 L 200.86 293.02 L 197.59 292.30 L 194.37 291.41 L 191.18 290.37 L 188.03 289.22 L 184.90 287.99 L 181.77 286.75 L 178.64 285.54 L 175.49 284.45 L 172.30 283.52 L 169.07 282.81 L 165.80 282.36 L 162.51 282.19 L 159.21 282.29 L 155.92 282.65 L 152.66 283.21 L 149.43 283.90 L 146.27 284.61 L 143.17 285.24 L 140.15 285.69 L 137.21 285.89 L 134.35 285.79 L 131.57 285.38 L 128.89 284.65 L 126.30 283.61 L 123.83 282.27 L 121.47 280.66 L 119.21 278.81 L 117.03 276.77 L 114.92 274.61 L 112.82 272.40 L 110.71 270.21 L 108.56 268.09 L 106.35 266.06 L 104.06 264.14 L 101.69 262.35 L 99.24 260.67 L 96.71 259.13 L 94.11 257.71 L 91.45 256.40 L 88.74 255.20 L 85.99 254.09 L 83.23 253.01 L 80.49 251.93 L 77.80 250.78 L 75.20 249.51 L 72.73 248.05 L 70.43 246.37 L 68.34 244.46 L 66.48 242.34 L 64.87 240.00 L 63.51 237.50 L 62.39 234.85 L 61.48 232.10 L 60.74 229.28 L 60.13 226.41 L 59.60 223.51 L 59.14 220.60 L 58.71 217.68 L 58.31 214.76 L 57.91 211.83 L 57.52 208.91 L 57.12 205.99 L 56.73 203.06 L 56.34 200.14 L 55.95 197.21 L 55.56 194.29 L 55.18 191.36 L 54.79 188.44 L 54.42 185.52 L 54.06 182.59 L 53.74 179.67 L 53.48 176.75 L 53.31 173.84 L 53.29 170.94 L 53.45 168.07 L 53.85 165.24 L 54.50 162.48 L 55.42 159.80 L 56.62 157.24 L 58.07 154.80 L 59.76 152.50 L 61.64 150.32 L 63.67 148.25 L 65.81 146.26 L 68.02 144.33 L 70.27 142.43 L 72.55 140.56 L 74.84 138.69 L 77.14 136.83 L 79.44 134.97 L 81.73 133.11 L 84.03 131.25 L 86.33 129.39 L 88.63 127.53 L 90.93 125.67 L 93.23 123.81 L 95.53 121.95 L 97.83 120.09 L 100.13 118.23 L 102.43 116.37 L 104.73 114.51 L 107.02 112.65 L 109.32 110.79 L 111.62 108.93 L 113.92 107.07 L 116.23 105.22 L 118.53 103.36 L 120.83 101.50 L 123.13 99.64 L 125.43 97.78 L 127.73 95.93 L 130.03 94.07 L 132.33 92.21 L 134.64 90.35 L 136.94 88.50 L 139.24 86.64 L 141.54 84.78 L 143.84 82.92 L 146.14 81.07 L 148.44 79.21 L 150.74 77.36 L 153.04 75.51 L 155.35 73.66 L 157.66 71.82 L 159.98 70.02 L 162.34 68.26 L 164.73 66.59 L 167.18 65.03 L 169.70 63.65 L 172.31 62.49 L 175.00 61.58 L 177.75 60.94 L 180.54 60.61 L 183.35 60.59 L 186.15 60.88 L 188.90 61.48 L 191.56 62.38 L 194.11 63.57 L 196.52 65.03 L 198.77 66.74 L 200.85 68.67 L 202.77 70.80 L 204.54 73.07 L 206.18 75.46 L 207.72 77.92 L 209.19 80.44 L 210.61 83.00 L 212.00 85.57 L 213.37 88.15 L 214.74 90.74 L 216.10 93.33 L 217.45 95.92 L 218.81 98.51 L 220.17 101.10 L 221.53 103.69 L 222.88 106.28 L 224.24 108.87 L 225.59 111.46 L 226.95 114.06 L 228.29 116.65 L 229.63 119.25 L 230.94 121.87 L 232.21 124.49 L 233.42 127.15 L 234.54 129.84 L 235.55 132.56 L 236.42 135.33 L 237.13 138.13 L 237.65 140.98 L 237.99 143.85 L 238.13 146.75 L 238.09 149.66 L 237.88 152.58 L 237.52 155.50 L 237.07 158.43 L 236.59 161.35 L 236.14 164.27 L 235.78 167.19 L 235.56 170.10 L 235.51 172.99 L 235.66 175.87 L 236.00 178.72 L 236.55 181.54 L 237.32 184.31 L 238.30 187.02 L 239.50 189.67 L 240.92 192.27 L 242.56 194.82 L 244.39 197.34 L 246.39 199.84 L 248.48 202.35 L 250.62 204.91 L 252.71 207.53 L 254.71 210.23 L 256.56 213.02 L 258.25 215.91 L 259.74 218.89 L 261.03 221.97 Z" />
</symbol>
<symbol id="bl2">
<path d="M 428.60 236.03 L 424.96 238.77 L 421.33 241.52 L 417.69 244.26 L 414.06 247.00 L 410.42 249.74 L 406.79 252.49 L 403.15 255.23 L 399.51 257.98 L 395.87 260.72 L 392.23 263.47 L 388.59 266.21 L 384.94 268.96 L 381.30 271.70 L 377.65 274.44 L 374.01 277.18 L 370.36 279.93 L 366.71 282.66 L 363.05 285.39 L 359.38 288.09 L 355.68 290.75 L 351.94 293.34 L 348.14 295.82 L 344.26 298.14 L 340.28 300.24 L 336.19 302.07 L 331.99 303.58 L 327.70 304.74 L 323.32 305.54 L 318.88 305.95 L 314.41 305.97 L 309.91 305.62 L 305.41 304.91 L 300.91 303.90 L 296.41 302.66 L 291.92 301.30 L 287.43 299.93 L 282.95 298.63 L 278.46 297.48 L 273.95 296.53 L 269.43 295.78 L 264.89 295.23 L 260.34 294.85 L 255.78 294.60 L 251.21 294.47 L 246.63 294.40 L 242.06 294.38 L 237.48 294.39 L 232.90 294.40 L 228.33 294.40 L 223.76 294.37 L 219.19 294.28 L 214.65 294.09 L 210.13 293.75 L 205.64 293.19 L 201.22 292.38 L 196.88 291.26 L 192.65 289.83 L 188.56 288.06 L 184.63 285.96 L 180.89 283.54 L 177.38 280.82 L 174.11 277.80 L 171.12 274.52 L 168.40 271.01 L 165.94 267.31 L 163.71 263.47 L 161.61 259.55 L 159.53 255.65 L 157.30 251.86 L 154.79 248.30 L 151.90 245.05 L 148.58 242.20 L 144.85 239.76 L 140.81 237.70 L 136.54 235.93 L 132.16 234.33 L 127.77 232.72 L 123.47 230.98 L 119.34 228.98 L 115.47 226.63 L 111.93 223.88 L 108.78 220.73 L 106.06 217.15 L 103.82 213.16 L 102.09 208.77 L 100.91 204.02 L 100.28 198.97 L 100.15 193.69 L 100.44 188.25 L 100.98 182.71 L 101.60 177.10 L 102.13 171.46 L 102.47 165.78 L 102.59 160.08 L 102.55 154.39 L 102.48 148.72 L 102.53 143.10 L 102.87 137.57 L 103.61 132.18 L 104.70 126.91 L 106.66 121.99 L 109.52 117.61 L 113.20 113.90 L 117.54 110.98 L 122.43 108.98 L 127.65 107.84 L 132.98 107.11 L 138.44 106.84 L 143.97 106.97 L 149.53 107.36 L 155.06 107.89 L 160.53 108.43 L 165.89 108.88 L 171.08 109.13 L 176.06 109.11 L 180.81 108.77 L 185.33 108.09 L 189.64 107.05 L 193.76 105.66 L 197.73 103.92 L 201.56 101.86 L 205.30 99.51 L 208.95 96.95 L 212.56 94.24 L 216.13 91.43 L 219.68 88.57 L 223.22 85.69 L 226.76 82.79 L 230.30 79.90 L 233.85 77.00 L 237.39 74.11 L 240.95 71.24 L 244.52 68.39 L 248.13 65.60 L 251.79 62.90 L 255.53 60.34 L 259.37 57.98 L 263.33 55.88 L 267.42 54.10 L 271.63 52.67 L 275.96 51.60 L 280.38 50.86 L 284.86 50.41 L 289.38 50.20 L 293.92 50.16 L 298.47 50.23 L 303.02 50.38 L 307.58 50.57 L 312.13 50.79 L 316.69 51.01 L 321.24 51.24 L 325.80 51.47 L 330.35 51.71 L 334.90 51.94 L 339.45 52.18 L 343.99 52.41 L 348.54 52.65 L 353.09 52.88 L 357.63 53.12 L 362.18 53.35 L 366.72 53.59 L 371.27 53.82 L 375.81 54.06 L 380.35 54.30 L 384.89 54.55 L 389.42 54.80 L 393.96 55.07 L 398.49 55.38 L 403.01 55.75 L 407.52 56.21 L 412.00 56.79 L 416.46 57.52 L 420.87 58.44 L 425.24 59.55 L 429.55 60.86 L 433.78 62.39 L 437.93 64.13 L 441.99 66.08 L 445.95 68.24 L 449.79 70.59 L 453.50 73.14 L 457.08 75.87 L 460.52 78.79 L 463.80 81.87 L 466.93 85.12 L 469.88 88.53 L 472.66 92.08 L 475.25 95.77 L 477.65 99.59 L 479.85 103.52 L 481.85 107.57 L 483.64 111.70 L 485.22 115.93 L 486.57 120.23 L 487.71 124.60 L 488.62 129.01 L 489.31 133.47 L 489.77 137.95 L 490.00 142.46 L 490.00 146.97 L 489.77 151.47 L 489.31 155.95 L 488.62 160.41 L 487.71 164.82 L 486.57 169.18 L 485.21 173.47 L 483.64 177.70 L 481.85 181.83 L 479.85 185.86 L 477.65 189.79 L 475.25 193.60 L 472.66 197.28 L 469.89 200.83 L 466.94 204.24 L 463.84 207.52 L 460.60 210.66 L 457.24 213.68 L 453.79 216.61 L 450.26 219.46 L 446.69 222.27 L 443.09 225.04 L 439.48 227.80 L 435.85 230.54 L 432.23 233.29 Z" />
</symbol>
<symbol id="bl3">
<path d="M 351.51 331.15 L 350.11 336.92 L 348.72 342.68 L 347.32 348.44 L 345.92 354.20 L 344.51 359.96 L 343.09 365.72 L 341.65 371.46 L 340.15 377.19 L 338.57 382.89 L 336.87 388.54 L 334.99 394.12 L 332.87 399.59 L 330.47 404.93 L 327.76 410.09 L 324.71 415.05 L 321.31 419.78 L 317.59 424.24 L 313.54 428.41 L 309.20 432.26 L 304.57 435.78 L 299.70 438.94 L 294.60 441.73 L 289.30 444.13 L 283.84 446.12 L 278.25 447.69 L 272.55 448.84 L 266.78 449.56 L 260.98 449.84 L 255.17 449.69 L 249.39 449.10 L 243.68 448.08 L 238.05 446.63 L 232.55 444.77 L 227.21 442.49 L 222.05 439.83 L 217.09 436.79 L 212.35 433.41 L 207.84 429.71 L 203.54 425.74 L 199.44 421.55 L 195.50 417.17 L 191.69 412.67 L 187.96 408.08 L 184.30 403.44 L 180.66 398.76 L 177.04 394.07 L 173.43 389.37 L 169.82 384.67 L 166.21 379.96 L 162.60 375.26 L 159.00 370.55 L 155.40 365.83 L 151.82 361.10 L 148.28 356.35 L 144.80 351.55 L 141.46 346.69 L 138.31 341.72 L 135.45 336.61 L 132.94 331.35 L 130.83 325.91 L 129.09 320.34 L 127.66 314.66 L 126.39 308.94 L 125.15 303.25 L 123.82 297.67 L 122.32 292.28 L 120.67 287.14 L 118.95 282.27 L 117.28 277.68 L 115.80 273.32 L 114.67 269.13 L 113.99 265.05 L 113.85 261.07 L 114.30 257.20 L 115.34 253.49 L 116.96 250.00 L 119.11 246.79 L 121.72 243.90 L 124.72 241.35 L 128.03 239.11 L 131.57 237.15 L 135.24 235.37 L 138.98 233.68 L 142.71 231.95 L 146.37 230.07 L 149.91 227.92 L 153.26 225.43 L 156.37 222.52 L 159.20 219.16 L 161.66 215.38 L 163.70 211.22 L 165.24 206.76 L 166.24 202.09 L 166.68 197.30 L 166.59 192.45 L 166.05 187.58 L 165.15 182.71 L 164.02 177.86 L 162.78 173.02 L 161.54 168.17 L 160.41 163.34 L 159.47 158.51 L 158.79 153.72 L 158.39 148.97 L 158.23 144.26 L 158.26 139.56 L 158.36 134.86 L 158.46 130.11 L 158.47 125.30 L 158.37 120.41 L 158.17 115.45 L 157.91 110.45 L 157.67 105.43 L 157.51 100.40 L 157.55 95.39 L 157.87 90.44 L 158.60 85.59 L 159.72 80.87 L 161.23 76.24 L 163.55 72.01 L 166.68 68.40 L 170.49 65.53 L 174.81 63.51 L 179.47 62.46 L 184.26 62.38 L 189.01 63.34 L 193.51 65.32 L 197.73 67.85 L 201.85 70.60 L 205.81 73.66 L 209.62 76.96 L 213.30 80.43 L 216.89 84.01 L 220.44 87.64 L 223.96 91.30 L 227.47 94.97 L 230.98 98.65 L 234.49 102.32 L 238.01 105.97 L 241.56 109.58 L 245.17 113.13 L 248.86 116.54 L 252.68 119.77 L 256.67 122.74 L 260.84 125.39 L 265.21 127.69 L 269.77 129.64 L 274.48 131.34 L 279.31 132.92 L 284.19 134.58 L 289.04 136.49 L 293.78 138.81 L 298.28 141.64 L 302.41 145.00 L 306.08 148.81 L 309.27 152.95 L 312.00 157.33 L 314.35 161.87 L 316.47 166.55 L 318.53 171.36 L 320.69 176.29 L 323.07 181.29 L 325.72 186.31 L 328.66 191.24 L 331.86 196.02 L 335.26 200.56 L 338.79 204.84 L 342.36 208.88 L 345.90 212.76 L 349.37 216.61 L 352.70 220.58 L 355.83 224.79 L 358.68 229.31 L 361.16 234.17 L 363.19 239.33 L 364.71 244.74 L 365.68 250.32 L 366.12 256.02 L 366.06 261.79 L 365.57 267.58 L 364.76 273.38 L 363.70 279.18 L 362.49 284.96 L 361.19 290.75 L 359.84 296.52 L 358.46 302.30 L 357.08 308.07 L 355.69 313.84 L 354.30 319.61 L 352.90 325.38 Z" />
</symbol>
</defs>
<!-- isDone: 0 -->
<rect width="700" height="500" style="fill:#fff;stroke-width:0" />
<use class="p0 borderLine" xlink:href="#bl0"/>
<use class="p1 borderLine" xlink:href="#bl1"/>
<use class="p2 borderLine" xlink:href="#bl2"/>
<use class="p3 borderLine" xlink:href="#bl3"/>
<use class="q0 outLine" xlink:href="#bl0"/>
<use class="q1 outLine" xlink:href="#bl1"/>
<use class="q2 outLine" xlink:href="#bl2"/>
<use class="q3 outLine" xlink:href="#bl3"/>
<circle onclick="fromCircle(8)" class="circle" cx="67.0110" cy="310.4388" r="55.4426" />
<text class="nLabel" x="67.01" y="305.44">242</text>
<text class="belong" x="67.01" y="315.44">(1)</text>
<circle onclick="fromCircle(12)" class="circle" cx="83.5266" cy="228.9789" r="19.8434" />
<text class="nLabel" x="83.53" y="223.98">31</text>
<text class="belong" x="83.53" y="233.98">(1, 2)</text>
<circle onclick="fromCircle(14)" class="circle" cx="133.1891" cy="198.0384" r="32.2733" />
<text class="nLabel" x="133.19" y="193.04">82</text>
<text class="belong" x="133.19" y="203.04">(1, 2, 3)</text>
<circle onclick="fromCircle(15)" class="circle" cx="211.2345" cy="240.8333" r="50.4024" />
<text class="nLabel" x="211.23" y="235.83">200</text>
<text class="belong" x="211.23" y="245.83">(1, 2, 3, 4)</text>
<circle onclick="fromCircle(4)" class="circle" cx="77.7515" cy="168.9444" r="22.2571" />
<text class="nLabel" x="77.75" y="163.94">39</text>
<text class="belong" x="77.75" y="173.94">(2)</text>
<circle onclick="fromCircle(6)" class="circle" cx="129.8089" cy="133.9982" r="25.9462" />
<text class="nLabel" x="129.81" y="129.00">53</text>
<text class="belong" x="129.81" y="139.00">(2, 3)</text>
<circle onclick="fromCircle(7)" class="circle" cx="197.6407" cy="147.0692" r="37.5489" />
<text class="nLabel" x="197.64" y="142.07">111</text>
<text class="belong" x="197.64" y="152.07">(2, 3, 4)</text>
<circle onclick="fromCircle(5)" class="circle" cx="182.1490" cy="84.9526" r="22.5406" />
<text class="nLabel" x="182.15" y="79.95">40</text>
<text class="belong" x="182.15" y="89.95">(2, 4)</text>
<circle onclick="fromCircle(2)" class="circle" cx="403.9037" cy="144.0103" r="85.6841" />
<text class="nLabel" x="403.90" y="139.01">578</text>
<text class="belong" x="403.90" y="149.01">(3)</text>
<circle onclick="fromCircle(10)" class="circle" cx="283.2092" cy="91.1304" r="38.8785" />
<text class="nLabel" x="283.21" y="86.13">119</text>
<text class="belong" x="283.21" y="96.13">(1, 3)</text>
<circle onclick="fromCircle(11)" class="circle" cx="276.3629" cy="172.3846" r="37.5489" />
<text class="nLabel" x="276.36" y="167.38">111</text>
<text class="belong" x="276.36" y="177.38">(1, 3, 4)</text>
<circle onclick="fromCircle(3)" class="circle" cx="317.0157" cy="255.8452" r="48.4755" />
<text class="nLabel" x="317.02" y="250.85">185</text>
<text class="belong" x="317.02" y="260.85">(3, 4)</text>
<circle onclick="fromCircle(1)" class="circle" cx="260.6913" cy="374.0121" r="75.3512" />
<text class="nLabel" x="260.69" y="369.01">447</text>
<text class="belong" x="260.69" y="379.01">(4)</text>
<circle onclick="fromCircle(9)" class="circle" cx="162.0176" cy="316.7966" r="31.6774" />
<text class="nLabel" x="162.02" y="311.80">79</text>
<text class="belong" x="162.02" y="321.80">(1, 4)</text>
<circle onclick="fromCircle(13)" class="circle" cx="136.4237" cy="261.7574" r="21.9699" />
<text class="nLabel" x="136.42" y="256.76">38</text>
<text class="belong" x="136.42" y="266.76">(1, 2, 4)</text>
<g id="legendBox">
<rect class="p0 borderLine" x="500.00" y="50.00" width="30.00" height="15.00" />
<rect class="q0" x="500.00" y="50.00" width="30.00" height="15.00" />
<text class="legend" x="540.00" y="65.00">B6D2F1 pure (N=1)</text>
<rect class="p1 borderLine" x="500.00" y="90.00" width="30.00" height="15.00" />
<rect class="q1" x="500.00" y="90.00" width="30.00" height="15.00" />
<text class="legend" x="540.00" y="105.00">C57BL/6 x mix (N=3)</text>
<rect class="p2 borderLine" x="500.00" y="130.00" width="30.00" height="15.00" />
<rect class="q2" x="500.00" y="130.00" width="30.00" height="15.00" />
<text class="legend" x="540.00" y="145.00">C57BL/6 pure (N=3)</text>
<rect class="p3 borderLine" x="500.00" y="170.00" width="30.00" height="15.00" />
<rect class="q3" x="500.00" y="170.00" width="30.00" height="15.00" />
<text class="legend" x="540.00" y="185.00">CAST/EiJxC57BL/6J (N=1)</text>
</g>
</svg>
