<?xml version="1.0" encoding="utf-8"?>
<!-- Generator: Adobe Illustrator 27.3.1, SVG Export Plug-In . SVG Version: 6.00 Build 0)  -->
<svg version="1.1" id="Layer_1" xmlns="http://www.w3.org/2000/svg" xmlns:xlink="http://www.w3.org/1999/xlink" x="0px" y="0px"
	 viewBox="0 0 320 210" style="enable-background:new 0 0 320 210;" xml:space="preserve">
<style type="text/css">
	.st0{fill:#808080;}
	.st1{fill:none;stroke:#000000;}
	.st2{font-family:'ArialMT';}
	.st3{font-size:8px;}
	.st4{font-size:7px;}
</style>
<polygon class="st0" points="50,100 50.1,100 50.2,100 50.2,100 50.3,100 50.4,100 50.5,100 50.5,100 50.6,100 50.7,100 50.8,100 
	50.8,100 50.9,100 51,100 51,100 51.1,100 51.2,100 51.3,100 51.3,100 51.4,100 51.5,100 51.6,100 51.7,100 51.7,100 51.8,100 
	51.9,100 52,100 52,100 52.1,100 52.2,100 52.2,100 52.3,100 52.4,100 52.5,100 52.5,100 52.6,100 52.7,100 52.8,100 52.8,100 
	52.9,100 53,100 53.1,100 53.2,100 53.2,100 53.3,100 53.4,100 53.5,100 53.5,100 53.6,100 53.7,100 53.8,100 53.8,100 53.9,100 
	54,100 54,100 54.1,100 54.2,100 54.3,100 54.3,100 54.4,100 54.5,100 54.6,100 54.7,100 54.7,100 54.8,100 54.9,100 55,100 55,100 
	55.1,100 55.2,100 55.2,100 55.3,100 55.4,100 55.5,100 55.5,100 55.6,100 55.7,100 55.8,100 55.8,100 55.9,100 56,100 56.1,100 
	56.2,100 56.2,100 56.3,100 56.4,100 56.5,100 56.5,100 56.6,100 56.7,100 56.8,100 56.8,100 56.9,100 57,100 57,100 57.1,100 
	57.2,100 57.3,100 57.3,100 57.4,100 57.5,100 57.6,100 57.7,100 57.7,100 57.8,100 57.9,100 58,100 58,100 58.1,100 58.2,100 
	58.2,100 58.3,100 58.4,100 58.5,100 58.5,100 58.6,100 58.7,100 58.8,100 58.8,100 58.9,100 59,100 59.1,100 59.2,100 59.2,100 
	59.3,100 59.4,100 59.5,100 59.5,100 59.6,100 59.7,100 59.8,100 59.8,100 59.9,100 60,100 60,100 60.1,100 60.2,100 60.3,100 
	60.3,100 60.4,100 60.5,100 60.6,100 60.7,100 60.7,100 60.8,100 60.9,100 61,100 61,100 61.1,100 61.2,100 61.2,100 61.3,100 
	61.4,100 61.5,100 61.5,100 61.6,100 61.7,100 61.8,100 61.8,100 61.9,100 62,100 62.1,100 62.2,100 62.2,100 62.3,100 62.4,100 
	62.5,100 62.5,100 62.6,100 62.7,100 62.8,100 62.8,100 62.9,100 63,100 63,100 63.1,100 63.2,100 63.3,100 63.3,100 63.4,100 
	63.5,100 63.6,100 63.7,100 63.7,100 63.8,100 63.9,100 64,100 64,100 64.1,100 64.2,100 64.2,100 64.3,100 64.4,100 64.5,100 
	64.6,100 64.6,100 64.7,100 64.8,100 64.8,100 64.9,100 65,100 65.1,100 65.2,100 65.2,100 65.3,100 65.4,98.5 65.4,96.8 65.5,96.8 
	65.6,96.8 65.7,97 65.8,100 65.8,100 65.9,100 66,100 66.1,100 66.1,100 66.2,98.9 66.3,96.8 66.3,96.8 66.4,96.8 66.5,93.7 
	66.6,93.6 66.7,93.6 66.7,93.6 66.8,94 66.9,96 66.9,96.8 67,96.8 67.1,96.8 67.2,99.6 67.2,100 67.3,98 67.4,96.8 67.5,91.9 
	67.6,90.4 67.6,91.2 67.7,93.6 67.8,95.9 67.8,100 67.9,100 68,100 68.1,100 68.2,100 68.2,100 68.3,100 68.4,98.8 68.4,96.8 
	68.5,96.8 68.6,96.8 68.7,96.8 68.8,99.9 68.8,97.2 68.9,96.8 69,96.8 69.1,93.7 69.1,95.5 69.2,96.8 69.3,96.8 69.3,98.6 69.4,100 
	69.5,100 69.6,100 69.7,100 69.7,100 69.8,100 69.9,100 69.9,100 70,100 70.1,100 70.2,100 70.2,100 70.3,100 70.4,100 70.5,100 
	70.6,100 70.6,100 70.7,99.6 70.8,96.8 70.8,96.8 70.9,96.8 71,96.8 71.1,97.8 71.2,91.3 71.2,90.4 71.3,89.2 71.4,94 71.4,96.8 
	71.5,96.8 71.6,98.1 71.7,100 71.8,100 71.8,100 71.9,100 72,100 72.1,98.7 72.1,96.8 72.2,96.8 72.3,96.8 72.3,96.8 72.4,100 
	72.5,100 72.6,100 72.7,100 72.7,100 72.8,100 72.9,100 72.9,100 73,100 73.1,100 73.2,100 73.2,100 73.3,99 73.4,96.8 73.5,96.8 
	73.6,96.8 73.6,96.8 73.7,99.8 73.8,100 73.8,100 73.9,100 74,100 74.1,100 74.2,100 74.2,100 74.3,98.8 74.4,96.8 74.4,95.3 
	74.5,93.6 74.6,93.6 74.7,96.5 74.8,93.9 74.8,96.8 74.9,96.8 75,96.8 75.1,98.8 75.1,99.8 75.2,96.8 75.3,96.8 75.3,96.8 
	75.4,96.8 75.5,99.1 75.6,100 75.7,100 75.7,100 75.8,100 75.9,100 75.9,100 76,100 76.1,100 76.2,100 76.2,100 76.3,100 76.4,100 
	76.5,100 76.6,100 76.6,100 76.7,100 76.8,100 76.8,100 76.9,100 77,100 77.1,100 77.2,100 77.2,100 77.3,100 77.4,100 77.4,100 
	77.5,100 77.6,100 77.7,100 77.8,100 77.8,100 77.9,100 78,100 78.1,100 78.1,100 78.2,100 78.3,100 78.3,100 78.4,100 78.5,100 
	78.6,100 78.7,100 78.7,100 78.8,100 78.9,100 78.9,100 79,100 79.1,100 79.2,100 79.2,100 79.3,100 79.4,100 79.5,100 79.6,100 
	79.6,100 79.7,100 79.8,100 79.8,100 79.9,100 80,100 80.1,100 80.2,100 80.2,100 80.3,100 80.4,100 80.4,100 80.5,100 80.6,100 
	80.7,100 80.8,100 80.8,100 80.9,100 81,100 81.1,100 81.1,100 81.2,100 81.3,100 81.3,100 81.4,100 81.5,100 81.6,98.2 81.7,96.8 
	81.7,96.8 81.8,96.8 81.9,95.8 81.9,96.8 82,96.8 82.1,96.8 82.2,97.6 82.2,100 82.3,100 82.4,100 82.5,100 82.6,96.3 82.6,88.4 
	82.7,84.1 82.8,84.1 82.8,85.7 82.9,92.4 83,99.5 83.1,97.6 83.2,94.5 83.2,93.6 83.3,93.4 83.4,92.1 83.4,94.6 83.5,96.8 
	83.6,96.8 83.7,98.9 83.8,100 83.8,97 83.9,96.8 84,95.1 84.1,93.6 84.1,95.3 84.2,96.8 84.3,97.2 84.3,100 84.4,100 84.5,97.1 
	84.6,93.6 84.7,93.6 84.7,93.6 84.8,95.1 84.9,100 84.9,100 85,100 85.1,100 85.2,100 85.2,100 85.3,100 85.4,100 85.5,100 
	85.6,100 85.6,100 85.7,100 85.8,100 85.8,100 85.9,100 86,100 86.1,98.5 86.2,96.8 86.2,96.8 86.3,96.8 86.4,97.2 86.4,100 
	86.5,100 86.6,100 86.7,100 86.8,100 86.8,100 86.9,100 87,100 87.1,100 87.1,100 87.2,100 87.3,100 87.3,100 87.4,100 87.5,100 
	87.6,100 87.7,100 87.7,97.7 87.8,96.8 87.9,96.8 87.9,96.8 88,97.8 88.1,100 88.2,100 88.2,100 88.3,100 88.4,100 88.5,100 
	88.6,100 88.6,100 88.7,100 88.8,100 88.8,100 88.9,100 89,100 89.1,100 89.2,100 89.2,100 89.3,100 89.4,100 89.4,100 89.5,100 
	89.6,100 89.7,100 89.8,100 89.8,100 89.9,100 90,100 90.1,100 90.1,100 90.2,100 90.3,100 90.3,100 90.4,100 90.5,100 90.6,100 
	90.7,100 90.7,100 90.8,100 90.9,100 90.9,100 91,100 91.1,100 91.2,100 91.2,100 91.3,100 91.4,100 91.5,100 91.6,100 91.6,100 
	91.7,100 91.8,100 91.8,100 91.9,100 92,100 92.1,100 92.2,100 92.2,100 92.3,100 92.4,100 92.4,100 92.5,100 92.6,100 92.7,100 
	92.8,100 92.8,100 92.9,100 93,100 93.1,100 93.1,100 93.2,100 93.3,100 93.3,100 93.4,100 93.5,100 93.6,100 93.7,100 93.7,100 
	93.8,100 93.9,100 93.9,100 94,100 94.1,100 94.2,100 94.2,100 94.3,100 94.4,100 94.5,100 94.6,100 94.6,100 94.7,100 94.8,100 
	94.8,100 94.9,100 95,100 95.1,100 95.2,100 95.2,100 95.3,100 95.4,100 95.4,100 95.5,100 95.6,100 95.7,100 95.8,100 95.8,100 
	95.9,100 96,100 96.1,100 96.1,100 96.2,100 96.3,100 96.3,100 96.4,100 96.5,100 96.6,100 96.7,100 96.7,100 96.8,100 96.9,100 
	96.9,100 97,100 97.1,100 97.2,100 97.2,100 97.3,100 97.4,100 97.5,100 97.6,100 97.6,100 97.7,100 97.8,100 97.8,100 97.9,100 
	98,100 98.1,100 98.2,100 98.2,97.2 98.3,96.8 98.4,96.8 98.4,96.8 98.5,98.3 98.6,100 98.7,98.7 98.8,96.8 98.8,96.8 98.9,96.8 
	99,96.8 99.1,100 99.1,100 99.2,100 99.3,100 99.3,100 99.4,100 99.5,100 99.6,100 99.7,100 99.7,100 99.8,100 99.9,100 99.9,100 
	100,100 100.1,100 100.2,100 100.2,100 100.3,100 100.4,100 100.5,100 100.6,100 100.6,100 100.7,100 100.8,100 100.8,100 
	100.9,100 101,100 101.1,100 101.2,100 101.2,100 101.3,100 101.4,100 101.4,100 101.5,100 101.6,100 101.7,100 101.8,100 
	101.8,100 101.9,100 102,100 102.1,100 102.1,100 102.2,100 102.3,100 102.3,100 102.4,100 102.5,97.6 102.6,96.8 102.7,96.8 
	102.7,96.8 102.8,97.9 102.9,99.6 102.9,96.8 103,96.8 103.1,96.8 103.2,97 103.2,98.9 103.3,100 103.4,100 103.5,100 103.6,100 
	103.6,99.1 103.7,96.8 103.8,96.8 103.8,96.8 103.9,96.8 104,95.2 104.1,93.6 104.2,93.6 104.2,93.6 104.3,92.4 104.4,90 
	104.4,87.3 104.5,84 104.6,73 104.7,77.6 104.8,84.1 104.8,89.2 104.9,98.9 105,100 105.1,100 105.1,100 105.2,100 105.3,100 
	105.3,98.8 105.4,94 105.5,93.6 105.6,93.6 105.7,92.6 105.7,95 105.8,95.4 105.9,93.6 105.9,93.6 106,96.5 106.1,95.1 106.2,96.8 
	106.2,96.8 106.3,96.8 106.4,97.7 106.5,100 106.6,100 106.6,100 106.7,100 106.8,100 106.8,100 106.9,98.2 107,94.1 107.1,93.6 
	107.2,93.6 107.2,94.1 107.3,98.2 107.4,100 107.4,100 107.5,100 107.6,100 107.7,100 107.8,100 107.8,100 107.9,100 108,100 
	108.1,100 108.1,100 108.2,100 108.3,100 108.3,100 108.4,100 108.5,100 108.6,100 108.7,100 108.7,100 108.8,100 108.9,100 
	108.9,98.8 109,96.8 109.1,96.8 109.2,96.8 109.2,96.8 109.3,99.9 109.4,100 109.5,100 109.6,100 109.6,100 109.7,100 109.8,100 
	109.8,100 109.9,100 110,100 110.1,100 110.2,100 110.2,100 110.3,100 110.4,100 110.4,100 110.5,100 110.6,100 110.7,100 
	110.8,100 110.8,100 110.9,100 111,100 111.1,100 111.1,100 111.2,99.7 111.3,96.8 111.3,96.8 111.4,96.8 111.5,96.8 111.6,99 
	111.7,100 111.7,100 111.8,100 111.9,100 111.9,100 112,100 112.1,100 112.2,100 112.2,100 112.3,100 112.4,100 112.5,100 
	112.6,100 112.6,100 112.7,100 112.8,97.9 112.8,96.8 112.9,96.8 113,96.8 113.1,97.6 113.2,100 113.2,100 113.3,100 113.4,100 
	113.4,100 113.5,100 113.6,100 113.7,100 113.8,100 113.8,100 113.9,100 114,100 114.1,100 114.1,100 114.2,100 114.3,100 
	114.3,100 114.4,100 114.5,100 114.6,100 114.7,100 114.7,100 114.8,100 114.9,100 114.9,100 115,100 115.1,100 115.2,100 
	115.2,100 115.3,100 115.4,100 115.5,100 115.6,100 115.6,100 115.7,100 115.8,100 115.8,100 115.9,100 116,100 116.1,100 
	116.2,100 116.2,100 116.3,100 116.4,100 116.4,100 116.5,100 116.6,100 116.7,100 116.8,100 116.8,100 116.9,100 117,100 
	117.1,100 117.1,100 117.2,100 117.3,100 117.3,100 117.4,100 117.5,100 117.6,100 117.7,100 117.7,100 117.8,100 117.9,100 
	117.9,100 118,100 118.1,100 118.2,100 118.2,100 118.3,100 118.4,100 118.5,100 118.6,100 118.6,100 118.7,100 118.8,100 
	118.8,100 118.9,100 119,100 119.1,100 119.2,100 119.2,100 119.3,100 119.4,100 119.4,100 119.5,100 119.6,100 119.7,100 
	119.8,100 119.8,100 119.9,100 120,100 120.1,100 120.1,100 120.2,100 120.3,100 120.3,100 120.4,100 120.5,100 120.6,100 
	120.7,100 120.7,100 120.8,100 120.9,100 120.9,100 121,100 121.1,100 121.2,100 121.2,100 121.3,100 121.4,100 121.5,100 
	121.6,100 121.6,100 121.7,100 121.8,100 121.8,100 121.9,100 122,100 122.1,100 122.2,100 122.2,100 122.3,100 122.4,100 
	122.4,100 122.5,100 122.6,100 122.7,100 122.8,100 122.8,100 122.9,100 123,100 123.1,100 123.1,100 123.2,100 123.3,100 
	123.3,100 123.4,100 123.5,100 123.6,100 123.7,100 123.7,100 123.8,100 123.9,100 123.9,100 124,100 124.1,100 124.2,100 
	124.2,100 124.3,100 124.4,100 124.5,100 124.6,100 124.6,100 124.7,100 124.8,100 124.8,100 124.9,100 125,100 125.1,100 
	125.2,100 125.2,100 125.3,100 125.4,100 125.4,100 125.5,100 125.6,100 125.7,100 125.8,100 125.8,100 125.9,100 126,100 
	126.1,100 126.1,100 126.2,100 126.3,100 126.3,100 126.4,100 126.5,100 126.6,100 126.7,100 126.7,100 126.8,100 126.9,100 
	126.9,100 127,100 127.1,100 127.2,100 127.2,100 127.3,100 127.4,100 127.5,100 127.6,100 127.6,100 127.7,100 127.8,100 
	127.8,100 127.9,100 128,100 128.1,100 128.1,100 128.2,100 128.3,100 128.4,100 128.4,100 128.5,100 128.6,100 128.7,100 
	128.8,100 128.8,100 128.9,100 129,100 129.1,100 129.1,100 129.2,100 129.3,100 129.4,100 129.4,100 129.5,100 129.6,100 
	129.6,100 129.7,100 129.8,100 129.9,100 129.9,100 130,100 130.1,100 130.2,100 130.2,100 130.3,100 130.4,100 130.5,100 
	130.6,100 130.6,100 130.7,100 130.8,100 130.9,100 130.9,100 131,100 131.1,100 131.1,100 131.2,100 131.3,100 131.4,100 
	131.4,100 131.5,100 131.6,100 131.7,100 131.8,100 131.8,100 131.9,100 132,100 132.1,100 132.1,100 132.2,100 132.3,100 
	132.4,100 132.4,100 132.5,100 132.6,100 132.6,100 132.7,100 132.8,100 132.9,100 132.9,100 133,100 133.1,100 133.2,100 
	133.2,100 133.3,100 133.4,100 133.5,100 133.6,100 133.6,99.7 133.7,96.8 133.8,96.8 133.9,96.8 133.9,96.8 134,99.5 134.1,100 
	134.1,100 134.2,100 134.3,100 134.4,100 134.4,100 134.5,99.5 134.6,96.8 134.7,96.8 134.8,96.8 134.8,96.8 134.9,99.2 135,100 
	135.1,100 135.1,100 135.2,100 135.3,100 135.4,100 135.4,100 135.5,100 135.6,100 135.6,100 135.7,100 135.8,100 135.9,100 
	135.9,100 136,100 136.1,100 136.2,100 136.2,100 136.3,100 136.4,100 136.5,100 136.6,100 136.6,100 136.7,100 136.8,100 
	136.9,100 136.9,100 137,100 137.1,100 137.1,100 137.2,100 137.3,100 137.4,100 137.4,100 137.5,100 137.6,100 137.7,100 
	137.8,100 137.8,100 137.9,100 138,100 138.1,100 138.1,100 138.2,100 138.3,100 138.4,100 138.4,100 138.5,100 138.6,100 
	138.6,100 138.7,100 138.8,100 138.9,100 138.9,100 139,100 139.1,100 139.2,100 139.2,100 139.3,100 139.4,100 139.5,100 
	139.6,100 139.6,100 139.7,100 139.8,100 139.9,100 139.9,100 140,100 140.1,100 140.1,100 140.2,100 140.3,100 140.4,100 
	140.4,100 140.5,100 140.6,100 140.7,100 140.8,100 140.8,100 140.9,100 141,100 141.1,100 141.1,100 141.2,100 141.3,100 
	141.4,100 141.4,100 141.5,100 141.6,100 141.6,100 141.7,100 141.8,100 141.9,100 141.9,100 142,100 142.1,100 142.2,100 
	142.2,100 142.3,100 142.4,100 142.5,100 142.6,100 142.6,100 142.7,100 142.8,100 142.9,100 142.9,100 143,100 143.1,100 
	143.1,100 143.2,100 143.3,100 143.4,100 143.4,100 143.5,100 143.6,100 143.7,100 143.8,100 143.8,100 143.9,100 144,100 
	144.1,100 144.1,100 144.2,100 144.3,100 144.4,100 144.4,100 144.5,100 144.6,100 144.6,100 144.7,100 144.8,100 144.9,100 
	144.9,100 145,100 145.1,100 145.2,100 145.2,100 145.3,100 145.4,100 145.5,100 145.6,100 145.6,100 145.7,100 145.8,100 
	145.9,100 145.9,100 146,100 146.1,100 146.1,100 146.2,100 146.3,100 146.4,100 146.4,100 146.5,100 146.6,100 146.7,100 
	146.8,100 146.8,100 146.9,100 147,100 147.1,100 147.1,100 147.2,100 147.3,100 147.4,100 147.4,100 147.5,100 147.6,100 
	147.6,100 147.7,100 147.8,100 147.9,100 147.9,100 148,100 148.1,100 148.2,100 148.2,100 148.3,100 148.4,100 148.5,100 
	148.6,100 148.6,100 148.7,100 148.8,100 148.9,100 148.9,100 149,100 149.1,100 149.1,100 149.2,100 149.3,100 149.4,100 
	149.4,100 149.5,100 149.6,100 149.7,100 149.8,100 149.8,100 149.9,100 150,100 150.1,100 150.1,100 150.2,100 150.3,100 
	150.4,100 150.4,96.7 150.5,93.6 150.6,93.6 150.6,93.6 150.7,98.2 150.8,100 150.9,100 150.9,100 151,100 151.1,100 151.2,100 
	151.2,100 151.3,100 151.4,100 151.5,100 151.6,100 151.6,100 151.7,100 151.8,100 151.9,100 151.9,100 152,100 152.1,100 
	152.1,100 152.2,100 152.3,100 152.4,100 152.4,100 152.5,100 152.6,100 152.7,100 152.8,100 152.8,100 152.9,100 153,100 
	153.1,100 153.1,100 153.2,100 153.3,100 153.4,100 153.4,100 153.5,100 153.6,100 153.6,100 153.7,100 153.8,100 153.9,100 
	153.9,100 154,100 154.1,100 154.2,100 154.2,100 154.3,100 154.4,100 154.5,100 154.6,100 154.6,100 154.7,100 154.8,100 
	154.9,100 154.9,100 155,100 155.1,100 155.1,100 155.2,100 155.3,100 155.4,100 155.4,100 155.5,100 155.6,100 155.7,100 
	155.8,100 155.8,100 155.9,100 156,100 156.1,100 156.1,100 156.2,100 156.3,100 156.4,100 156.4,100 156.5,100 156.6,100 
	156.6,100 156.7,100 156.8,100 156.9,100 156.9,100 157,100 157.1,100 157.2,100 157.2,100 157.3,100 157.4,100 157.5,100 
	157.6,100 157.6,100 157.7,100 157.8,100 157.9,100 157.9,100 158,100 158.1,100 158.1,100 158.2,100 158.3,100 158.4,100 
	158.4,100 158.5,100 158.6,100 158.7,100 158.8,100 158.8,100 158.9,100 159,100 159.1,100 159.1,100 159.2,100 159.3,100 
	159.4,100 159.4,100 159.5,100 159.6,100 159.6,100 159.7,100 159.8,100 159.9,100 159.9,100 160,100 160.1,100 160.2,93.8 
	160.2,93.6 160.3,93.6 160.4,94.3 160.5,100 160.6,100 160.6,100 160.7,100 160.8,100 160.9,100 160.9,100 161,100 161.1,100 
	161.1,100 161.2,100 161.3,100 161.4,100 161.4,100 161.5,100 161.6,100 161.7,100 161.8,100 161.8,100 161.9,100 162,100 
	162.1,100 162.1,100 162.2,100 162.3,100 162.4,100 162.4,100 162.5,100 162.6,100 162.6,100 162.7,100 162.8,98.5 162.9,96.8 
	162.9,96.8 163,96.8 163.1,97 163.2,100 163.2,100 163.3,100 163.4,100 163.5,100 163.6,100 163.6,100 163.7,100 163.8,100 
	163.9,100 163.9,100 164,100 164.1,100 164.1,100 164.2,100 164.3,99.5 164.4,96.8 164.4,96.8 164.5,96.8 164.6,96.8 164.7,99.2 
	164.8,100 164.8,100 164.9,100 165,100 165.1,100 165.1,100 165.2,100 165.3,100 165.4,100 165.4,100 165.5,100 165.6,100 
	165.6,100 165.7,100 165.8,100 165.9,100 165.9,100 166,100 166.1,100 166.2,100 166.2,100 166.3,100 166.4,100 166.5,100 
	166.6,100 166.6,100 166.7,100 166.8,100 166.9,100 166.9,100 167,100 167.1,100 167.1,100 167.2,100 167.3,100 167.4,100 
	167.4,100 167.5,100 167.6,100 167.7,100 167.8,100 167.8,100 167.9,100 168,100 168.1,100 168.1,100 168.2,100 168.3,100 
	168.4,100 168.4,100 168.5,100 168.6,100 168.6,100 168.7,100 168.8,100 168.9,100 168.9,100 169,100 169.1,100 169.2,100 
	169.2,100 169.3,100 169.4,100 169.5,100 169.6,100 169.6,100 169.7,100 169.8,100 169.9,100 169.9,100 170,100 170.1,100 
	170.1,100 170.2,100 170.3,100 170.4,100 170.4,100 170.5,100 170.6,100 170.7,100 170.8,100 170.8,100 170.9,100 171,100 
	171.1,100 171.1,100 171.2,100 171.3,100 171.4,100 171.4,100 171.5,100 171.6,100 171.6,100 171.7,100 171.8,100 171.9,100 
	171.9,100 172,100 172.1,100 172.2,100 172.2,100 172.3,100 172.4,100 172.5,100 172.6,100 172.6,100 172.7,100 172.8,100 
	172.9,100 172.9,100 173,100 173.1,100 173.1,100 173.2,100 173.3,100 173.4,100 173.4,100 173.5,100 173.6,100 173.7,100 
	173.8,100 173.8,100 173.9,100 174,100 174.1,100 174.1,100 174.2,100 174.3,100 174.4,100 174.4,100 174.5,100 174.6,100 
	174.6,100 174.7,100 174.8,100 174.9,100 174.9,100 175,100 175.1,100 175.2,100 175.2,100 175.3,100 175.4,100 175.5,100 
	175.6,100 175.6,100 175.7,100 175.8,100 175.9,100 175.9,100 176,100 176.1,100 176.1,100 176.2,100 176.3,100 176.4,100 
	176.4,100 176.5,100 176.6,100 176.7,100 176.8,100 176.8,100 176.9,100 177,100 177.1,100 177.1,100 177.2,100 177.3,100 
	177.4,100 177.4,100 177.5,100 177.6,100 177.6,100 177.7,100 177.8,100 177.9,100 177.9,100 178,100 178.1,100 178.2,100 
	178.2,100 178.3,100 178.4,100 178.5,100 178.6,100 178.6,100 178.7,100 178.8,100 178.9,100 178.9,100 179,100 179.1,100 
	179.1,100 179.2,100 179.3,100 179.4,100 179.4,100 179.5,100 179.6,100 179.7,100 179.8,100 179.8,100 179.9,100 180,100 
	180.1,100 180.1,100 180.2,100 180.3,100 180.4,100 180.4,100 180.5,100 180.6,100 180.6,100 180.7,100 180.8,100 180.9,100 
	180.9,100 181,100 181.1,100 181.2,100 181.2,100 181.3,100 181.4,100 181.5,100 181.6,100 181.6,100 181.7,100 181.8,100 
	181.9,100 181.9,100 182,100 182.1,100 182.1,100 182.2,100 182.3,100 182.4,100 182.4,100 182.5,100 182.6,100 182.7,100 
	182.8,100 182.8,100 182.9,100 183,100 183.1,100 183.1,100 183.2,100 183.3,100 183.4,100 183.4,100 183.5,100 183.6,100 
	183.6,100 183.7,100 183.8,100 183.9,100 183.9,100 184,100 184.1,100 184.2,100 184.2,100 184.3,100 184.4,100 184.5,100 
	184.6,100 184.6,100 184.7,100 184.8,100 184.9,100 184.9,100 185,100 185.1,100 185.1,100 185.2,100 185.3,100 185.4,100 
	185.4,100 185.5,100 185.6,100 185.7,100 185.8,100 185.8,100 185.9,100 186,100 186.1,100 186.1,100 186.2,100 186.3,100 
	186.4,100 186.4,100 186.5,100 186.6,100 186.6,100 186.7,100 186.8,100 186.9,100 186.9,100 187,100 187.1,100 187.2,100 
	187.2,100 187.3,100 187.4,100 187.5,100 187.6,100 187.6,100 187.7,100 187.8,100 187.9,100 187.9,100 188,100 188.1,100 
	188.1,100 188.2,100 188.3,100 188.4,100 188.4,100 188.5,100 188.6,100 188.7,100 188.8,100 188.8,100 188.9,100 189,100 
	189.1,100 189.1,100 189.2,100 189.3,100 189.4,100 189.4,100 189.5,100 189.6,100 189.6,100 189.7,100 189.8,100 189.9,100 
	189.9,100 190,100 190.1,100 190.2,100 190.2,100 190.3,100 190.4,100 190.5,100 190.6,100 190.6,100 190.7,100 190.8,100 
	190.9,100 190.9,100 191,100 191.1,100 191.1,100 191.2,100 191.3,100 191.4,100 191.4,100 191.5,100 191.6,100 191.7,100 
	191.8,100 191.8,100 191.9,100 192,100 192.1,100 192.1,100 192.2,100 192.3,100 192.4,100 192.4,100 192.5,100 192.6,100 
	192.6,100 192.7,100 192.8,100 192.9,100 192.9,100 193,100 193.1,100 193.2,100 193.2,100 193.3,100 193.4,100 193.5,100 
	193.6,100 193.6,100 193.7,100 193.8,100 193.9,100 193.9,100 194,100 194.1,100 194.1,100 194.2,100 194.3,100 194.4,100 
	194.4,100 194.5,100 194.6,100 194.7,99.2 194.8,96.8 194.8,96.8 194.9,96.8 195,96.8 195.1,99.5 195.1,100 195.2,100 195.3,100 
	195.4,100 195.4,100 195.5,100 195.6,100 195.6,100 195.7,100 195.8,100 195.9,100 195.9,100 196,100 196.1,100 196.2,100 
	196.2,96.8 196.3,96.8 196.4,96.8 196.5,96.8 196.6,98.7 196.6,100 196.7,100 196.8,100 196.9,100 196.9,100 197,100 197.1,100 
	197.1,100 197.2,100 197.3,100 197.4,100 197.4,100 197.5,100 197.6,100 197.7,100 197.8,100 197.8,100 197.9,100 198,100 
	198.1,100 198.1,100 198.2,100 198.3,100 198.4,100 198.4,100 198.5,100 198.6,100 198.6,100 198.7,100 198.8,100 198.9,100 
	198.9,100 199,100 199.1,100 199.2,100 199.2,100 199.3,100 199.4,100 199.5,100 199.6,100 199.6,100 199.7,100 199.8,100 
	199.9,100 "/>
<line class="st1" x1="40" y1="100" x2="40" y2="70"/>
<line class="st1" x1="39.5" y1="100" x2="43.5" y2="100"/>
<line class="st1" x1="39.5" y1="70" x2="43.5" y2="70"/>
<text transform="matrix(1 0 0 1 31.5508 103.9999)" class="st2 st3">0</text>
<text transform="matrix(1 0 0 1 24.8789 73.9999)" class="st2 st3">7.7</text>
<rect x="177.3" y="77" width="22.7" height="1"/>
<text transform="matrix(1 0 0 1 182.0494 73.9999)" class="st2 st4">5 kb</text>
<text transform="matrix(1 0 0 1 215 87.401)" class="st2 st3">Nr5a2 CUT&amp;Tag</text>
<text transform="matrix(1 0 0 1 18.2789 87.4013)" class="st2 st3">TPM</text>
<text transform="matrix(1 0 0 1 39.5 65.9999)" class="st2 st4">Chr6: 122,683,218-122,716,301</text>
<rect x="50.1" y="108.7" class="st0" width="0.4" height="2"/>
<rect x="68.6" y="108.7" class="st0" width="0.7" height="2"/>
<rect x="73.4" y="108.7" class="st0" width="0.6" height="2"/>
<rect x="74.3" y="108.7" class="st0" width="0.6" height="2"/>
<rect x="76.6" y="108.7" class="st0" width="0.4" height="2"/>
<rect x="82.9" y="108.7" class="st0" width="0.6" height="2"/>
<rect x="84.5" y="108.7" class="st0" width="0.6" height="2"/>
<rect x="85.1" y="108.7" class="st0" width="0.6" height="2"/>
<rect x="86.1" y="108.7" class="st0" width="0.7" height="2"/>
<rect x="100.7" y="108.7" class="st0" width="0.5" height="2"/>
<rect x="101.8" y="108.7" class="st0" width="0.4" height="2"/>
<rect x="104.5" y="108.7" class="st0" width="0.4" height="2"/>
<rect x="106" y="108.7" class="st0" width="0.5" height="2"/>
<rect x="112.2" y="108.7" class="st0" width="0.4" height="2"/>
<rect x="113.2" y="108.7" class="st0" width="0.6" height="2"/>
<rect x="116.1" y="108.7" class="st0" width="0.5" height="2"/>
<rect x="116.9" y="108.7" class="st0" width="0.6" height="2"/>
<rect x="118.1" y="108.7" class="st0" width="0.5" height="2"/>
<rect x="123.2" y="108.7" class="st0" width="0.5" height="2"/>
<rect x="124.6" y="108.7" class="st0" width="0.5" height="2"/>
<rect x="127.5" y="108.7" class="st0" width="0.6" height="2"/>
<rect x="136.3" y="108.7" class="st0" width="0.7" height="2"/>
<rect x="144.1" y="108.7" class="st0" width="0.5" height="2"/>
<rect x="146.2" y="108.7" class="st0" width="0.6" height="2"/>
<rect x="148.8" y="108.7" class="st0" width="0.6" height="2"/>
<rect x="150.6" y="108.7" class="st0" width="0.6" height="2"/>
<rect x="154.3" y="108.7" class="st0" width="0.7" height="2"/>
<rect x="156.9" y="108.7" class="st0" width="0.4" height="2"/>
<rect x="157.5" y="108.7" class="st0" width="0.3" height="2"/>
<rect x="165.8" y="108.7" class="st0" width="0.5" height="2"/>
<rect x="175.4" y="108.7" class="st0" width="0.6" height="2"/>
<rect x="176.6" y="108.7" class="st0" width="0.3" height="2"/>
<rect x="177.8" y="108.7" class="st0" width="0.4" height="2"/>
<rect x="181.4" y="108.7" class="st0" width="0.4" height="2"/>
<rect x="184.9" y="108.7" class="st0" width="0.5" height="2"/>
<rect x="188.8" y="108.7" class="st0" width="0.7" height="2"/>
<text transform="matrix(1 0 0 1 215 112.9999)" class="st2 st3">SINE B1/Alu</text>
<text transform="matrix(1 0 0 1 215 132.9999)" class="st2 st3">Nanog</text>
<rect x="160" y="129.2" class="st0" width="32.4" height="1"/>
<rect x="160" y="128.2" class="st0" width="0.1" height="3"/>
<rect x="161.5" y="128.2" class="st0" width="0.5" height="3"/>
<rect x="161.7" y="126.7" class="st0" width="0.3" height="6"/>
<polygon points="161.7,126 161.7,122 166.6,122 166.6,121 167.9,122.3 166.6,123.7 166.6,122.7 162.4,122.7 162.4,126 "/>
<rect x="178.4" y="128.2" class="st0" width="1.2" height="3"/>
<rect x="178.4" y="126.7" class="st0" width="1.2" height="6"/>
<rect x="183.4" y="128.2" class="st0" width="0.4" height="3"/>
<rect x="183.4" y="126.7" class="st0" width="0.4" height="6"/>
<rect x="185.7" y="128.2" class="st0" width="6.8" height="3"/>
<rect x="185.7" y="126.7" class="st0" width="1.9" height="6"/>
<rect x="160.4" y="128.2" class="st0" width="0.2" height="3"/>
<rect x="161.5" y="128.2" class="st0" width="0.5" height="3"/>
<rect x="161.7" y="126.7" class="st0" width="0.3" height="6"/>
<rect x="178.4" y="128.2" class="st0" width="1.2" height="3"/>
<rect x="178.4" y="126.7" class="st0" width="1.2" height="6"/>
<rect x="183.4" y="128.2" class="st0" width="0.4" height="3"/>
<rect x="183.4" y="126.7" class="st0" width="0.4" height="6"/>
<rect x="185.7" y="128.2" class="st0" width="6.8" height="3"/>
<rect x="185.7" y="126.7" class="st0" width="1.9" height="6"/>
<rect x="160.4" y="128.2" class="st0" width="1.7" height="3"/>
<rect x="161.4" y="126.7" class="st0" width="0.7" height="6"/>
<rect x="178.4" y="128.2" class="st0" width="1.2" height="3"/>
<rect x="178.4" y="126.7" class="st0" width="1.2" height="6"/>
<rect x="183.4" y="128.2" class="st0" width="0.4" height="3"/>
<rect x="183.4" y="126.7" class="st0" width="0.4" height="6"/>
<rect x="185.7" y="128.2" class="st0" width="6.8" height="3"/>
<rect x="185.7" y="126.7" class="st0" width="1.9" height="6"/>
</svg>
