<svg xmlns="http://www.w3.org/2000/svg" xmlns:xlink="http://www.w3.org/1999/xlink" width="700" height="500">
<defs>
<style type="text/css"><![CDATA[
  .borderLine {
	   stroke: none;
	   fill-opacity:  0.4 ;
  }
  .outLine {
	   stroke-width:  1 ;
	   fill: none;
  }
  .circle {
	   stroke: #888888;
	   stroke-width: 0.5;
	   fill: none;
    pointer-events: all;
  }
  .nLabel {
	   font-family: Arial;
    pointer-events: none;
	   font-size: 10px;
	   text-anchor: middle;
	   alignment-baseline: central;
  }
  .belong {
	   font-family: Arial;
    pointer-events: none;
	   font-size: 5px;
	   text-anchor: middle;
	   alignment-baseline: central;
  }
  .legend {
    font-family: Arial;
    font-size: 15px;
  }
  #legendBox {
    display:  inline ;
  }
  .p0{
    stroke: none;
    fill: #e6194b;
  }
  .q0{
    fill: none;
    stroke: #e6194b;
  }
  .p1{
    stroke: none;
    fill: #3cb44b;
  }
  .q1{
    fill: none;
    stroke: #3cb44b;
  }
  .p2{
    stroke: none;
    fill: #ffe119;
  }
  .q2{
    fill: none;
    stroke: #ffe119;
  }
  .p3{
    stroke: none;
    fill: #0082c8;
  }
  .q3{
    fill: none;
    stroke: #0082c8;
  }
]]>
</style>
<symbol id="bl0">
<path d="M 194.68 314.48 L 194.20 316.99 L 193.73 319.50 L 193.25 322.00 L 192.76 324.49 L 192.23 326.96 L 191.63 329.39 L 190.92 331.76 L 190.05 334.05 L 188.99 336.25 L 187.73 338.32 L 186.26 340.26 L 184.61 342.06 L 182.81 343.74 L 180.92 345.33 L 179.00 346.86 L 177.09 348.39 L 175.22 349.94 L 173.42 351.54 L 171.68 353.21 L 170.00 354.93 L 168.36 356.71 L 166.77 358.52 L 165.20 360.36 L 163.66 362.22 L 162.13 364.09 L 160.59 365.96 L 159.05 367.83 L 157.51 369.70 L 155.96 371.57 L 154.42 373.45 L 152.88 375.31 L 151.34 377.18 L 149.81 379.05 L 148.27 380.91 L 146.73 382.77 L 145.16 384.61 L 143.56 386.43 L 141.91 388.21 L 140.22 389.94 L 138.46 391.61 L 136.65 393.21 L 134.78 394.74 L 132.85 396.18 L 130.88 397.53 L 128.86 398.80 L 126.78 399.98 L 124.66 401.06 L 122.49 402.06 L 120.27 402.97 L 118.00 403.79 L 115.70 404.52 L 113.36 405.15 L 111.00 405.68 L 108.62 406.11 L 106.23 406.44 L 103.84 406.66 L 101.44 406.79 L 99.05 406.81 L 96.67 406.73 L 94.29 406.55 L 91.92 406.27 L 89.57 405.89 L 87.23 405.42 L 84.92 404.84 L 82.63 404.17 L 80.37 403.41 L 78.14 402.55 L 75.95 401.59 L 73.79 400.54 L 71.68 399.40 L 69.61 398.17 L 67.59 396.85 L 65.63 395.44 L 63.74 393.96 L 61.91 392.40 L 60.15 390.77 L 58.46 389.06 L 56.85 387.29 L 55.31 385.45 L 53.85 383.54 L 52.47 381.56 L 51.17 379.53 L 49.95 377.44 L 48.83 375.30 L 47.80 373.12 L 46.86 370.92 L 46.02 368.68 L 45.28 366.41 L 44.63 364.12 L 44.09 361.79 L 43.64 359.43 L 43.29 357.04 L 43.04 354.63 L 42.89 352.20 L 42.84 349.76 L 42.90 347.33 L 43.06 344.91 L 43.32 342.52 L 43.68 340.14 L 44.14 337.78 L 44.70 335.45 L 45.36 333.15 L 46.11 330.87 L 46.97 328.63 L 47.92 326.41 L 48.96 324.24 L 50.09 322.12 L 51.31 320.04 L 52.61 318.02 L 53.99 316.05 L 55.44 314.13 L 56.96 312.26 L 58.53 310.43 L 60.14 308.64 L 61.78 306.86 L 63.44 305.09 L 65.11 303.33 L 66.78 301.56 L 68.45 299.79 L 70.11 298.02 L 71.75 296.22 L 73.35 294.40 L 74.90 292.55 L 76.39 290.66 L 77.81 288.71 L 79.16 286.71 L 80.42 284.66 L 81.63 282.57 L 82.80 280.45 L 83.98 278.34 L 85.22 276.26 L 86.56 274.25 L 88.03 272.36 L 89.65 270.60 L 91.41 269.00 L 93.30 267.56 L 95.30 266.25 L 97.37 265.05 L 99.48 263.93 L 101.62 262.85 L 103.79 261.80 L 105.96 260.76 L 108.14 259.71 L 110.33 258.64 L 112.52 257.56 L 114.69 256.46 L 116.85 255.34 L 118.97 254.19 L 121.06 252.99 L 123.11 251.71 L 125.10 250.34 L 127.02 248.87 L 128.88 247.28 L 130.68 245.57 L 132.43 243.78 L 134.15 241.90 L 135.89 239.98 L 137.68 238.06 L 139.55 236.18 L 141.49 234.39 L 143.49 232.71 L 145.55 231.14 L 147.64 229.68 L 149.74 228.28 L 151.85 226.91 L 153.95 225.55 L 156.03 224.16 L 158.07 222.71 L 160.07 221.21 L 162.03 219.64 L 163.95 218.04 L 165.89 216.44 L 167.85 214.88 L 169.88 213.39 L 171.97 212.01 L 174.14 210.75 L 176.38 209.62 L 178.68 208.65 L 181.02 207.83 L 183.40 207.16 L 185.81 206.65 L 188.24 206.30 L 190.68 206.11 L 193.13 206.06 L 195.58 206.18 L 198.03 206.45 L 200.48 206.89 L 202.92 207.48 L 205.33 208.23 L 207.70 209.13 L 210.00 210.17 L 212.21 211.35 L 214.33 212.66 L 216.35 214.10 L 218.26 215.66 L 220.07 217.34 L 221.77 219.15 L 223.35 221.09 L 224.82 223.16 L 226.16 225.35 L 227.36 227.67 L 228.44 230.10 L 229.36 232.61 L 230.14 235.18 L 230.76 237.75 L 231.21 240.31 L 231.49 242.84 L 231.60 245.33 L 231.54 247.80 L 231.31 250.25 L 230.93 252.66 L 230.39 255.04 L 229.70 257.37 L 228.88 259.65 L 227.92 261.86 L 226.85 263.99 L 225.65 266.05 L 224.33 268.02 L 222.89 269.91 L 221.33 271.72 L 219.64 273.44 L 217.85 275.10 L 215.98 276.70 L 214.05 278.27 L 212.10 279.85 L 210.17 281.48 L 208.31 283.18 L 206.53 284.97 L 204.87 286.85 L 203.34 288.84 L 201.97 290.92 L 200.74 293.07 L 199.68 295.29 L 198.76 297.57 L 197.97 299.89 L 197.29 302.25 L 196.70 304.64 L 196.17 307.06 L 195.66 309.51 L 195.17 311.99 Z" />
</symbol>
<symbol id="bl1">
<path d="M 152.66 253.36 L 152.48 255.28 L 152.28 257.20 L 152.07 259.11 L 151.85 261.01 L 151.62 262.91 L 151.38 264.82 L 151.13 266.74 L 150.85 268.67 L 150.53 270.60 L 150.14 272.53 L 149.67 274.43 L 149.08 276.30 L 148.36 278.11 L 147.49 279.85 L 146.47 281.50 L 145.31 283.04 L 144.01 284.46 L 142.57 285.75 L 141.02 286.89 L 139.37 287.88 L 137.63 288.72 L 135.81 289.42 L 133.94 289.98 L 132.01 290.43 L 130.05 290.79 L 128.06 291.07 L 126.04 291.29 L 124.02 291.48 L 121.99 291.65 L 119.95 291.79 L 117.92 291.92 L 115.90 292.05 L 113.88 292.16 L 111.87 292.27 L 109.88 292.37 L 107.90 292.46 L 105.94 292.56 L 104.00 292.64 L 102.09 292.73 L 100.20 292.81 L 98.34 292.91 L 96.47 293.03 L 94.60 293.19 L 92.72 293.39 L 90.83 293.65 L 88.93 293.96 L 87.02 294.34 L 85.12 294.78 L 83.23 295.26 L 81.35 295.78 L 79.48 296.33 L 77.62 296.89 L 75.76 297.47 L 73.90 298.05 L 72.05 298.64 L 70.21 299.23 L 68.37 299.82 L 66.52 300.42 L 64.68 301.01 L 62.84 301.58 L 61.00 302.13 L 59.15 302.64 L 57.31 303.09 L 55.46 303.48 L 53.62 303.80 L 51.77 304.04 L 49.93 304.20 L 48.10 304.27 L 46.26 304.25 L 44.44 304.14 L 42.62 303.94 L 40.82 303.66 L 39.03 303.28 L 37.25 302.82 L 35.49 302.27 L 33.74 301.63 L 32.02 300.90 L 30.34 300.08 L 28.69 299.18 L 27.09 298.20 L 25.55 297.14 L 24.06 296.00 L 22.63 294.79 L 21.26 293.51 L 19.96 292.16 L 18.72 290.74 L 17.54 289.25 L 16.45 287.72 L 15.43 286.13 L 14.49 284.50 L 13.64 282.82 L 12.88 281.10 L 12.20 279.34 L 11.61 277.53 L 11.11 275.69 L 10.70 273.82 L 10.39 271.93 L 10.16 270.03 L 10.03 268.14 L 10.00 266.25 L 10.06 264.38 L 10.21 262.53 L 10.44 260.70 L 10.77 258.89 L 11.20 257.10 L 11.71 255.32 L 12.32 253.55 L 13.02 251.81 L 13.82 250.08 L 14.70 248.39 L 15.67 246.75 L 16.71 245.15 L 17.82 243.62 L 19.00 242.16 L 20.23 240.76 L 21.52 239.43 L 22.86 238.16 L 24.23 236.93 L 25.65 235.74 L 27.08 234.58 L 28.55 233.43 L 30.02 232.29 L 31.52 231.15 L 33.02 230.00 L 34.54 228.84 L 36.07 227.68 L 37.61 226.50 L 39.16 225.32 L 40.71 224.12 L 42.27 222.92 L 43.82 221.72 L 45.37 220.53 L 46.90 219.34 L 48.42 218.17 L 49.93 217.02 L 51.44 215.88 L 52.93 214.74 L 54.43 213.61 L 55.94 212.48 L 57.45 211.34 L 58.98 210.20 L 60.52 209.05 L 62.07 207.89 L 63.63 206.74 L 65.19 205.58 L 66.76 204.43 L 68.32 203.28 L 69.88 202.14 L 71.43 201.00 L 72.98 199.88 L 74.52 198.75 L 76.05 197.63 L 77.58 196.53 L 79.11 195.43 L 80.63 194.36 L 82.17 193.32 L 83.71 192.31 L 85.27 191.36 L 86.85 190.46 L 88.45 189.62 L 90.09 188.86 L 91.76 188.17 L 93.47 187.56 L 95.23 187.03 L 97.01 186.58 L 98.83 186.20 L 100.66 185.88 L 102.50 185.59 L 104.34 185.31 L 106.19 185.03 L 108.03 184.75 L 109.87 184.46 L 111.71 184.17 L 113.57 183.89 L 115.43 183.63 L 117.29 183.37 L 119.15 183.14 L 121.00 182.91 L 122.85 182.69 L 124.68 182.46 L 126.51 182.22 L 128.33 181.97 L 130.14 181.70 L 131.95 181.43 L 133.75 181.19 L 135.58 181.00 L 137.42 180.89 L 139.28 180.87 L 141.15 180.93 L 143.03 181.06 L 144.88 181.27 L 146.70 181.59 L 148.48 182.08 L 150.21 182.79 L 151.84 183.73 L 153.36 184.91 L 154.73 186.29 L 155.93 187.82 L 156.97 189.45 L 157.87 191.15 L 158.66 192.89 L 159.39 194.66 L 160.08 196.45 L 160.74 198.27 L 161.39 200.10 L 162.00 201.96 L 162.55 203.83 L 163.03 205.72 L 163.39 207.64 L 163.61 209.57 L 163.65 211.50 L 163.49 213.42 L 163.13 215.31 L 162.59 217.15 L 161.88 218.94 L 161.06 220.69 L 160.18 222.40 L 159.27 224.10 L 158.38 225.80 L 157.53 227.52 L 156.74 229.26 L 156.03 231.03 L 155.42 232.82 L 154.89 234.63 L 154.46 236.46 L 154.12 238.30 L 153.85 240.14 L 153.65 241.98 L 153.47 243.84 L 153.32 245.71 L 153.17 247.60 L 153.01 249.51 L 152.84 251.43 Z" />
</symbol>
<symbol id="bl2">
<path d="M 462.57 279.15 L 459.63 282.84 L 456.58 286.40 L 453.43 289.84 L 450.17 293.14 L 446.82 296.31 L 443.38 299.35 L 439.84 302.25 L 436.21 305.02 L 432.50 307.66 L 428.71 310.16 L 424.82 312.53 L 420.84 314.77 L 416.75 316.88 L 412.57 318.86 L 408.29 320.71 L 403.92 322.41 L 399.48 323.97 L 394.99 325.37 L 390.48 326.62 L 385.95 327.71 L 381.42 328.65 L 376.90 329.46 L 372.38 330.16 L 367.85 330.77 L 363.31 331.32 L 358.75 331.82 L 354.17 332.30 L 349.57 332.76 L 344.95 333.22 L 340.33 333.67 L 335.70 334.12 L 331.08 334.56 L 326.46 335.01 L 321.85 335.45 L 317.25 335.89 L 312.64 336.34 L 308.02 336.79 L 303.40 337.24 L 298.76 337.69 L 294.12 338.14 L 289.48 338.59 L 284.85 339.03 L 280.22 339.46 L 275.60 339.88 L 270.99 340.30 L 266.37 340.72 L 261.74 341.13 L 257.11 341.54 L 252.45 341.93 L 247.77 342.25 L 243.05 342.45 L 238.27 342.45 L 233.41 342.13 L 228.49 341.40 L 223.54 340.17 L 218.63 338.41 L 213.84 336.15 L 209.25 333.50 L 204.92 330.59 L 200.86 327.55 L 197.02 324.52 L 193.33 321.60 L 189.66 318.84 L 185.93 316.33 L 182.04 314.09 L 177.94 312.12 L 173.62 310.38 L 169.08 308.77 L 164.32 307.16 L 159.36 305.43 L 154.22 303.49 L 148.93 301.31 L 143.56 298.89 L 138.20 296.26 L 132.97 293.48 L 128.02 290.57 L 123.42 287.53 L 119.23 284.37 L 115.40 281.10 L 111.85 277.75 L 108.48 274.36 L 105.18 270.98 L 101.87 267.66 L 98.54 264.43 L 95.18 261.26 L 91.81 258.13 L 88.49 254.96 L 85.25 251.68 L 82.17 248.21 L 79.32 244.45 L 76.79 240.35 L 74.68 235.87 L 73.11 231.00 L 72.21 225.82 L 72.06 220.47 L 72.71 215.13 L 74.14 209.98 L 76.29 205.20 L 79.11 200.92 L 82.52 197.21 L 86.47 194.13 L 90.90 191.72 L 95.74 190.02 L 100.88 189.07 L 106.23 188.86 L 111.66 189.36 L 117.07 190.44 L 122.38 191.94 L 127.54 193.59 L 132.53 195.14 L 137.38 196.37 L 142.10 197.21 L 146.69 197.59 L 151.01 196.44 L 155.18 194.98 L 159.19 193.07 L 163.05 190.73 L 166.77 188.06 L 170.40 185.17 L 173.97 182.14 L 177.48 179.05 L 180.96 175.93 L 184.43 172.78 L 187.89 169.59 L 191.37 166.33 L 194.90 163.00 L 198.51 159.57 L 202.25 156.06 L 206.15 152.47 L 210.23 148.81 L 214.48 145.13 L 218.84 141.45 L 223.24 137.83 L 227.58 134.31 L 231.81 130.88 L 235.93 127.54 L 239.98 124.24 L 243.99 120.94 L 248.01 117.59 L 252.07 114.17 L 256.14 110.69 L 260.21 107.19 L 264.23 103.73 L 268.22 100.36 L 272.20 97.11 L 276.24 93.96 L 280.40 90.93 L 284.69 88.01 L 289.12 85.22 L 293.63 82.59 L 298.15 80.17 L 302.65 77.96 L 307.10 75.98 L 311.51 74.21 L 315.91 72.64 L 320.31 71.24 L 324.73 70.02 L 329.18 68.95 L 333.67 68.05 L 338.20 67.30 L 342.79 66.70 L 347.43 66.27 L 352.12 66.00 L 356.84 65.89 L 361.56 65.94 L 366.25 66.16 L 370.90 66.53 L 375.49 67.06 L 380.03 67.75 L 384.51 68.60 L 388.96 69.61 L 393.38 70.77 L 397.77 72.09 L 402.12 73.57 L 406.43 75.20 L 410.69 76.97 L 414.87 78.89 L 418.97 80.95 L 422.99 83.14 L 426.92 85.47 L 430.79 87.94 L 434.57 90.56 L 438.28 93.33 L 441.91 96.23 L 445.45 99.27 L 448.89 102.43 L 452.20 105.70 L 455.39 109.06 L 458.44 112.51 L 461.34 116.03 L 464.11 119.64 L 466.75 123.34 L 469.25 127.14 L 471.63 131.03 L 473.89 135.03 L 476.02 139.13 L 478.01 143.31 L 479.87 147.57 L 481.58 151.89 L 483.13 156.25 L 484.52 160.64 L 485.76 165.06 L 486.84 169.51 L 487.76 174.00 L 488.52 178.53 L 489.13 183.09 L 489.58 187.70 L 489.87 192.33 L 490.00 196.99 L 489.97 201.67 L 489.77 206.35 L 489.41 211.02 L 488.89 215.66 L 488.21 220.27 L 487.38 224.81 L 486.40 229.28 L 485.28 233.69 L 484.01 238.02 L 482.59 242.31 L 481.01 246.55 L 479.27 250.77 L 477.35 254.98 L 475.27 259.16 L 473.03 263.31 L 470.62 267.40 L 468.07 271.41 L 465.38 275.33 Z" />
</symbol>
<symbol id="bl3">
<path d="M 265.53 321.43 L 265.16 324.13 L 264.76 326.83 L 264.35 329.53 L 263.94 332.22 L 263.52 334.92 L 263.09 337.62 L 262.67 340.32 L 262.24 343.03 L 261.80 345.74 L 261.35 348.47 L 260.89 351.19 L 260.43 353.92 L 259.96 356.66 L 259.49 359.40 L 259.01 362.14 L 258.55 364.88 L 258.08 367.62 L 257.62 370.35 L 257.17 373.07 L 256.72 375.79 L 256.27 378.50 L 255.82 381.20 L 255.37 383.91 L 254.90 386.60 L 254.42 389.30 L 253.90 391.98 L 253.32 394.65 L 252.65 397.30 L 251.89 399.91 L 251.00 402.49 L 249.98 405.02 L 248.83 407.51 L 247.54 409.93 L 246.11 412.28 L 244.54 414.55 L 242.86 416.73 L 241.05 418.81 L 239.13 420.77 L 237.10 422.61 L 234.97 424.34 L 232.74 425.93 L 230.43 427.40 L 228.04 428.73 L 225.57 429.93 L 223.05 430.98 L 220.48 431.88 L 217.87 432.63 L 215.24 433.23 L 212.57 433.68 L 209.89 433.97 L 207.18 434.11 L 204.47 434.09 L 201.75 433.92 L 199.03 433.59 L 196.32 433.10 L 193.64 432.46 L 190.99 431.65 L 188.38 430.70 L 185.82 429.59 L 183.34 428.35 L 180.95 426.96 L 178.64 425.44 L 176.43 423.80 L 174.33 422.04 L 172.34 420.16 L 170.46 418.18 L 168.71 416.10 L 167.07 413.92 L 165.57 411.65 L 164.20 409.30 L 162.97 406.88 L 161.88 404.38 L 160.92 401.81 L 160.11 399.18 L 159.43 396.50 L 158.89 393.77 L 158.47 391.02 L 158.15 388.24 L 157.92 385.45 L 157.76 382.65 L 157.64 379.85 L 157.55 377.04 L 157.48 374.24 L 157.41 371.45 L 157.35 368.66 L 157.28 365.87 L 157.22 363.09 L 157.16 360.32 L 157.09 357.56 L 157.00 354.79 L 156.88 352.03 L 156.71 349.27 L 156.47 346.49 L 156.15 343.70 L 155.75 340.88 L 155.26 338.02 L 154.72 335.09 L 154.14 332.08 L 153.58 328.97 L 153.05 325.76 L 152.57 322.46 L 152.12 319.08 L 151.72 315.66 L 151.34 312.22 L 150.99 308.78 L 150.67 305.34 L 150.40 301.91 L 150.20 298.48 L 150.06 295.03 L 149.99 291.57 L 149.97 288.07 L 149.99 284.56 L 149.98 281.03 L 149.92 277.52 L 149.73 274.04 L 149.33 270.64 L 148.68 267.34 L 147.74 264.16 L 146.50 261.13 L 145.03 258.24 L 143.42 255.46 L 141.81 252.75 L 140.34 250.08 L 139.14 247.37 L 138.31 244.58 L 137.89 241.66 L 137.86 238.59 L 138.10 235.39 L 138.49 232.08 L 138.87 228.73 L 139.13 225.39 L 139.20 222.09 L 139.08 218.85 L 138.79 215.67 L 138.37 212.53 L 137.90 209.42 L 137.43 206.31 L 137.03 203.23 L 136.77 200.19 L 136.73 197.23 L 136.97 194.43 L 137.55 191.84 L 138.53 189.53 L 139.92 187.59 L 141.70 186.08 L 143.77 185.08 L 146.02 184.67 L 148.31 184.88 L 150.55 185.72 L 152.65 187.14 L 154.57 189.05 L 156.30 191.36 L 157.84 193.97 L 159.19 196.79 L 160.34 199.77 L 161.25 202.87 L 161.88 206.03 L 162.18 209.24 L 162.11 212.47 L 161.67 215.69 L 160.92 218.87 L 159.92 222.01 L 158.80 225.10 L 157.66 228.18 L 156.59 231.27 L 155.68 234.39 L 154.96 237.54 L 154.47 240.70 L 154.22 243.84 L 154.21 246.94 L 154.43 249.96 L 154.87 252.89 L 155.54 255.74 L 156.42 258.49 L 157.51 261.15 L 158.80 263.72 L 160.27 266.17 L 161.92 268.51 L 163.73 270.71 L 165.72 272.76 L 167.86 274.67 L 170.14 276.43 L 172.54 278.03 L 175.04 279.45 L 177.60 280.68 L 180.21 281.71 L 182.84 282.54 L 185.49 283.16 L 188.16 283.59 L 190.85 283.82 L 193.55 283.85 L 196.25 283.69 L 198.94 283.35 L 201.60 282.83 L 204.24 282.15 L 206.83 281.31 L 209.40 280.36 L 211.93 279.33 L 214.45 278.29 L 216.98 277.28 L 219.52 276.37 L 222.10 275.59 L 224.72 274.99 L 227.37 274.57 L 230.04 274.35 L 232.73 274.33 L 235.42 274.52 L 238.07 274.92 L 240.69 275.52 L 243.24 276.32 L 245.73 277.32 L 248.13 278.53 L 250.45 279.92 L 252.66 281.51 L 254.75 283.28 L 256.71 285.21 L 258.53 287.30 L 260.17 289.52 L 261.64 291.86 L 262.91 294.32 L 263.99 296.87 L 264.86 299.49 L 265.52 302.18 L 265.98 304.91 L 266.25 307.67 L 266.35 310.44 L 266.30 313.21 L 266.12 315.96 L 265.86 318.70 Z" />
</symbol>
</defs>
<!-- isDone: 0 -->
<rect width="700" height="500" style="fill:#fff;stroke-width:0" />
<use class="p0 borderLine" xlink:href="#bl0"/>
<use class="p1 borderLine" xlink:href="#bl1"/>
<use class="p2 borderLine" xlink:href="#bl2"/>
<use class="p3 borderLine" xlink:href="#bl3"/>
<use class="q0 outLine" xlink:href="#bl0"/>
<use class="q1 outLine" xlink:href="#bl1"/>
<use class="q2 outLine" xlink:href="#bl2"/>
<use class="q3 outLine" xlink:href="#bl3"/>
<circle onclick="fromCircle(8)" class="circle" cx="99.5407" cy="350.1587" r="51.3507" />
<text class="nLabel" x="99.54" y="345.16">273</text>
<text class="belong" x="99.54" y="355.16">(1)</text>
<circle onclick="fromCircle(12)" class="circle" cx="97.8563" cy="279.7101" r="7.6127" />
<text class="nLabel" x="97.86" y="274.71">6</text>
<text class="belong" x="97.86" y="284.71">(1, 2)</text>
<circle onclick="fromCircle(14)" class="circle" cx="130.2826" cy="270.5667" r="14.2421" />
<text class="nLabel" x="130.28" y="265.57">21</text>
<text class="belong" x="130.28" y="275.57">(1, 2, 3)</text>
<circle onclick="fromCircle(15)" class="circle" cx="144.9135" cy="242.3578" r="3.6822" />
<text class="nLabel" x="144.91" y="237.36">1</text>
<text class="belong" x="144.91" y="247.36">(1, 2, 3, 4)</text>
<circle onclick="fromCircle(4)" class="circle" cx="47.2706" cy="266.6297" r="31.9976" />
<text class="nLabel" x="47.27" y="261.63">106</text>
<text class="belong" x="47.27" y="271.63">(2)</text>
<circle onclick="fromCircle(6)" class="circle" cx="104.3581" cy="221.5315" r="30.1321" />
<text class="nLabel" x="104.36" y="216.53">94</text>
<text class="belong" x="104.36" y="226.53">(2, 3)</text>
<circle onclick="fromCircle(7)" class="circle" cx="150.3944" cy="211.5586" r="8.2227" />
<text class="nLabel" x="150.39" y="206.56">7</text>
<text class="belong" x="150.39" y="216.56">(2, 3, 4)</text>
<circle onclick="fromCircle(5)" class="circle" cx="145.9536" cy="192.1168" r="5.3830" />
<text class="nLabel" x="145.95" y="187.12">3</text>
<text class="belong" x="145.95" y="197.12">(2, 4)</text>
<circle onclick="fromCircle(2)" class="circle" cx="358.9454" cy="197.8594" r="127.6127" />
<text class="nLabel" x="358.95" y="192.86">1686</text>
<text class="belong" x="358.95" y="202.86">(3)</text>
<circle onclick="fromCircle(10)" class="circle" cx="192.7810" cy="244.9930" r="33.6169" />
<text class="nLabel" x="192.78" y="239.99">117</text>
<text class="belong" x="192.78" y="249.99">(1, 3)</text>
<circle onclick="fromCircle(11)" class="circle" cx="165.8164" cy="292.9435" r="10.3077" />
<text class="nLabel" x="165.82" y="287.94">11</text>
<text class="belong" x="165.82" y="297.94">(1, 3, 4)</text>
<circle onclick="fromCircle(3)" class="circle" cx="231.8305" cy="308.9908" r="29.4840" />
<text class="nLabel" x="231.83" y="303.99">90</text>
<text class="belong" x="231.83" y="313.99">(3, 4)</text>
<circle onclick="fromCircle(1)" class="circle" cx="206.2250" cy="386.8027" r="42.3859" />
<text class="nLabel" x="206.22" y="381.80">186</text>
<text class="belong" x="206.22" y="391.80">(4)</text>
<circle onclick="fromCircle(9)" class="circle" cx="172.5543" cy="328.2795" r="13.5470" />
<text class="nLabel" x="172.55" y="323.28">19</text>
<text class="belong" x="172.55" y="333.28">(1, 4)</text>
<g id="legendBox">
<rect class="p0 borderLine" x="500.00" y="50.00" width="30.00" height="15.00" />
<rect class="q0" x="500.00" y="50.00" width="30.00" height="15.00" />
<text class="legend" x="540.00" y="65.00">Nr5a2 KD</text>
<rect class="p1 borderLine" x="500.00" y="90.00" width="30.00" height="15.00" />
<rect class="q1" x="500.00" y="90.00" width="30.00" height="15.00" />
<text class="legend" x="540.00" y="105.00">Dux KO</text>
<rect class="p2 borderLine" x="500.00" y="130.00" width="30.00" height="15.00" />
<rect class="q2" x="500.00" y="130.00" width="30.00" height="15.00" />
<text class="legend" x="540.00" y="145.00">Obox KO</text>
<rect class="p3 borderLine" x="500.00" y="170.00" width="30.00" height="15.00" />
<rect class="q3" x="500.00" y="170.00" width="30.00" height="15.00" />
<text class="legend" x="540.00" y="185.00">ZGA genes</text>
</g>
</svg>
