<svg xmlns="http://www.w3.org/2000/svg" xmlns:xlink="http://www.w3.org/1999/xlink" width="700" height="500">
<defs>
<style type="text/css"><![CDATA[
  .borderLine {
	   stroke: none;
	   fill-opacity:  0.4 ;
  }
  .outLine {
	   stroke-width:  1 ;
	   fill: none;
  }
  .circle {
	   stroke: #888888;
	   stroke-width: 0.5;
	   fill: none;
    pointer-events: all;
  }
  .nLabel {
	   font-family: Arial;
    pointer-events: none;
	   font-size: 10px;
	   text-anchor: middle;
	   alignment-baseline: central;
  }
  .belong {
	   font-family: Arial;
    pointer-events: none;
	   font-size: 5px;
	   text-anchor: middle;
	   alignment-baseline: central;
  }
  .legend {
    font-family: Arial;
    font-size: 15px;
  }
  #legendBox {
    display:  inline ;
  }
  .p0{
    stroke: none;
    fill: #e6194b;
  }
  .q0{
    fill: none;
    stroke: #e6194b;
  }
  .p1{
    stroke: none;
    fill: #3cb44b;
  }
  .q1{
    fill: none;
    stroke: #3cb44b;
  }
  .p2{
    stroke: none;
    fill: #ffe119;
  }
  .q2{
    fill: none;
    stroke: #ffe119;
  }
  .p3{
    stroke: none;
    fill: #0082c8;
  }
  .q3{
    fill: none;
    stroke: #0082c8;
  }
  .p4{
    stroke: none;
    fill: #f58231;
  }
  .q4{
    fill: none;
    stroke: #f58231;
  }
]]>
</style>
<symbol id="bl0">
<path d="M 264.53 368.23 L 263.73 368.58 L 262.93 368.90 L 262.11 369.19 L 261.29 369.47 L 260.46 369.75 L 259.62 370.01 L 258.79 370.27 L 257.95 370.52 L 257.11 370.78 L 256.27 371.03 L 255.44 371.29 L 254.60 371.54 L 253.76 371.79 L 252.93 372.05 L 252.10 372.30 L 251.27 372.55 L 250.44 372.81 L 249.62 373.06 L 248.79 373.31 L 247.96 373.55 L 247.13 373.80 L 246.29 374.05 L 245.45 374.29 L 244.61 374.53 L 243.77 374.77 L 242.93 374.99 L 242.09 375.22 L 241.25 375.45 L 240.41 375.68 L 239.57 375.91 L 238.74 376.15 L 237.90 376.39 L 237.07 376.63 L 236.24 376.87 L 235.41 377.10 L 234.59 377.33 L 233.76 377.55 L 232.93 377.77 L 232.10 377.97 L 231.26 378.16 L 230.42 378.33 L 229.57 378.47 L 228.72 378.59 L 227.87 378.69 L 227.02 378.75 L 226.16 378.78 L 225.30 378.78 L 224.44 378.75 L 223.58 378.68 L 222.73 378.58 L 221.88 378.45 L 221.03 378.29 L 220.19 378.10 L 219.35 377.88 L 218.52 377.62 L 217.70 377.33 L 216.89 377.02 L 216.09 376.67 L 215.30 376.29 L 214.52 375.88 L 213.76 375.45 L 213.02 374.99 L 212.29 374.50 L 211.58 373.98 L 210.89 373.44 L 210.22 372.88 L 209.57 372.31 L 208.92 371.71 L 208.28 371.12 L 207.65 370.51 L 207.02 369.90 L 206.38 369.29 L 205.75 368.68 L 205.12 368.07 L 204.48 367.46 L 203.85 366.84 L 203.23 366.22 L 202.60 365.61 L 201.98 365.00 L 201.37 364.40 L 200.75 363.79 L 200.13 363.19 L 199.51 362.59 L 198.89 361.99 L 198.27 361.38 L 197.65 360.77 L 197.03 360.17 L 196.42 359.56 L 195.80 358.96 L 195.18 358.35 L 194.56 357.75 L 193.94 357.14 L 193.33 356.53 L 192.71 355.93 L 192.09 355.33 L 191.47 354.73 L 190.85 354.13 L 190.23 353.52 L 189.61 352.92 L 188.99 352.31 L 188.37 351.70 L 187.75 351.09 L 187.13 350.49 L 186.50 349.90 L 185.88 349.30 L 185.26 348.70 L 184.64 348.11 L 184.02 347.51 L 183.40 346.91 L 182.79 346.30 L 182.17 345.70 L 181.55 345.08 L 180.94 344.47 L 180.32 343.86 L 179.70 343.25 L 179.08 342.64 L 178.46 342.03 L 177.83 341.41 L 177.21 340.79 L 176.58 340.17 L 175.95 339.55 L 175.33 338.94 L 174.71 338.32 L 174.09 337.71 L 173.47 337.10 L 172.86 336.49 L 172.24 335.89 L 171.64 335.27 L 171.03 334.66 L 170.43 334.05 L 169.82 333.44 L 169.21 332.83 L 168.61 332.22 L 168.00 331.62 L 167.39 331.02 L 166.79 330.42 L 166.18 329.82 L 165.58 329.21 L 164.97 328.60 L 164.36 327.99 L 163.76 327.37 L 163.15 326.75 L 162.55 326.13 L 161.95 325.50 L 161.35 324.88 L 160.77 324.24 L 160.19 323.60 L 159.63 322.94 L 159.09 322.27 L 158.57 321.58 L 158.08 320.88 L 157.62 320.15 L 157.18 319.40 L 156.78 318.64 L 156.41 317.86 L 156.07 317.06 L 155.77 316.25 L 155.50 315.44 L 155.26 314.61 L 155.06 313.77 L 154.90 312.92 L 154.77 312.06 L 154.68 311.19 L 154.63 310.33 L 154.61 309.46 L 154.63 308.59 L 154.68 307.73 L 154.78 306.87 L 154.91 306.01 L 155.07 305.17 L 155.27 304.33 L 155.51 303.50 L 155.78 302.68 L 156.08 301.88 L 156.42 301.09 L 156.79 300.32 L 157.19 299.56 L 157.63 298.82 L 158.09 298.10 L 158.59 297.40 L 159.12 296.72 L 159.67 296.06 L 160.25 295.42 L 160.86 294.81 L 161.49 294.23 L 162.15 293.67 L 162.83 293.14 L 163.53 292.64 L 164.25 292.17 L 164.99 291.74 L 165.75 291.33 L 166.52 290.96 L 167.31 290.63 L 168.11 290.32 L 168.92 290.05 L 169.75 289.82 L 170.59 289.61 L 171.43 289.44 L 172.28 289.31 L 173.14 289.21 L 174.00 289.15 L 174.86 289.13 L 175.72 289.14 L 176.57 289.19 L 177.42 289.27 L 178.27 289.39 L 179.11 289.55 L 179.94 289.74 L 180.77 289.97 L 181.59 290.24 L 182.39 290.54 L 183.18 290.87 L 183.96 291.23 L 184.73 291.63 L 185.47 292.06 L 186.20 292.52 L 186.91 293.00 L 187.61 293.52 L 188.28 294.06 L 188.92 294.62 L 189.56 295.21 L 190.18 295.81 L 190.79 296.42 L 191.39 297.05 L 191.99 297.67 L 192.59 298.30 L 193.19 298.93 L 193.79 299.57 L 194.40 300.20 L 195.00 300.83 L 195.60 301.46 L 196.21 302.09 L 196.81 302.72 L 197.41 303.35 L 198.02 303.99 L 198.62 304.62 L 199.23 305.25 L 199.84 305.88 L 200.44 306.50 L 201.05 307.13 L 201.66 307.75 L 202.26 308.38 L 202.87 309.00 L 203.48 309.62 L 204.10 310.23 L 204.72 310.84 L 205.35 311.43 L 205.99 312.01 L 206.64 312.57 L 207.29 313.12 L 207.96 313.66 L 208.63 314.19 L 209.30 314.71 L 209.97 315.22 L 210.64 315.73 L 211.31 316.24 L 211.98 316.75 L 212.65 317.26 L 213.33 317.77 L 214.01 318.26 L 214.71 318.75 L 215.41 319.22 L 216.13 319.68 L 216.85 320.13 L 217.59 320.56 L 218.33 320.99 L 219.07 321.41 L 219.81 321.83 L 220.56 322.25 L 221.31 322.66 L 222.07 323.07 L 222.82 323.48 L 223.57 323.89 L 224.33 324.30 L 225.08 324.71 L 225.84 325.12 L 226.60 325.53 L 227.35 325.93 L 228.12 326.34 L 228.88 326.75 L 229.64 327.15 L 230.41 327.56 L 231.18 327.97 L 231.94 328.37 L 232.71 328.78 L 233.47 329.19 L 234.23 329.60 L 234.99 330.01 L 235.75 330.41 L 236.51 330.82 L 237.27 331.23 L 238.04 331.64 L 238.80 332.05 L 239.56 332.47 L 240.32 332.88 L 241.08 333.29 L 241.84 333.70 L 242.59 334.10 L 243.34 334.51 L 244.09 334.91 L 244.85 335.31 L 245.60 335.72 L 246.36 336.12 L 247.11 336.52 L 247.86 336.91 L 248.62 337.32 L 249.37 337.73 L 250.11 338.14 L 250.86 338.54 L 251.61 338.94 L 252.35 339.34 L 253.10 339.74 L 253.84 340.13 L 254.59 340.53 L 255.33 340.93 L 256.08 341.34 L 256.83 341.75 L 257.58 342.16 L 258.33 342.57 L 259.08 342.98 L 259.83 343.38 L 260.58 343.79 L 261.33 344.19 L 262.08 344.59 L 262.83 345.01 L 263.57 345.42 L 264.31 345.84 L 265.04 346.28 L 265.76 346.73 L 266.46 347.20 L 267.14 347.71 L 267.78 348.25 L 268.38 348.82 L 268.94 349.43 L 269.46 350.07 L 269.93 350.75 L 270.35 351.47 L 270.72 352.20 L 271.04 352.97 L 271.30 353.76 L 271.51 354.57 L 271.65 355.40 L 271.73 356.25 L 271.75 357.12 L 271.71 358.01 L 271.61 358.91 L 271.44 359.81 L 271.22 360.69 L 270.93 361.54 L 270.59 362.36 L 270.19 363.14 L 269.74 363.88 L 269.24 364.58 L 268.68 365.24 L 268.08 365.86 L 267.44 366.43 L 266.76 366.94 L 266.04 367.42 L 265.30 367.84 Z" />
</symbol>
<symbol id="bl1">
<path d="M 307.03 286.53 L 306.06 289.13 L 304.97 291.69 L 303.77 294.20 L 302.46 296.66 L 301.04 299.05 L 299.52 301.38 L 297.89 303.63 L 296.17 305.81 L 294.34 307.91 L 292.43 309.92 L 290.43 311.84 L 288.35 313.67 L 286.18 315.41 L 283.94 317.05 L 281.62 318.59 L 279.24 320.03 L 276.79 321.35 L 274.29 322.57 L 271.73 323.68 L 269.12 324.67 L 266.47 325.55 L 263.78 326.32 L 261.07 326.99 L 258.33 327.56 L 255.58 328.06 L 252.80 328.49 L 250.02 328.89 L 247.23 329.26 L 244.44 329.61 L 241.65 329.95 L 238.85 330.30 L 236.04 330.65 L 233.23 331.01 L 230.43 331.40 L 227.62 331.82 L 224.81 332.29 L 222.01 332.81 L 219.21 333.37 L 216.41 333.94 L 213.60 334.48 L 210.77 334.96 L 207.91 335.32 L 205.04 335.52 L 202.15 335.54 L 199.27 335.38 L 196.42 335.06 L 193.59 334.60 L 190.78 334.04 L 187.99 333.42 L 185.21 332.75 L 182.44 332.06 L 179.68 331.34 L 176.93 330.59 L 174.20 329.78 L 171.52 328.88 L 168.90 327.85 L 166.36 326.66 L 163.92 325.30 L 161.56 323.78 L 159.28 322.13 L 157.06 320.37 L 154.89 318.55 L 152.75 316.68 L 150.63 314.80 L 148.51 312.91 L 146.39 311.01 L 144.28 309.11 L 142.17 307.21 L 140.06 305.31 L 137.95 303.40 L 135.84 301.50 L 133.74 299.60 L 131.63 297.70 L 129.52 295.80 L 127.42 293.89 L 125.32 291.99 L 123.21 290.08 L 121.11 288.17 L 119.01 286.27 L 116.92 284.36 L 114.82 282.45 L 112.72 280.54 L 110.62 278.64 L 108.51 276.73 L 106.41 274.82 L 104.30 272.91 L 102.19 270.99 L 100.08 269.08 L 97.98 267.17 L 95.87 265.25 L 93.76 263.34 L 91.66 261.43 L 89.55 259.53 L 87.44 257.62 L 85.34 255.72 L 83.24 253.82 L 81.14 251.92 L 79.04 250.02 L 76.94 248.13 L 74.84 246.23 L 72.74 244.34 L 70.63 242.44 L 68.53 240.55 L 66.43 238.65 L 64.32 236.76 L 62.22 234.86 L 60.12 232.96 L 58.01 231.07 L 55.91 229.17 L 53.82 227.27 L 51.73 225.36 L 49.66 223.44 L 47.61 221.50 L 45.58 219.53 L 43.59 217.53 L 41.64 215.49 L 39.74 213.40 L 37.88 211.27 L 36.07 209.10 L 34.32 206.89 L 32.62 204.63 L 30.97 202.33 L 29.39 200.00 L 27.85 197.62 L 26.38 195.22 L 24.97 192.77 L 23.61 190.30 L 22.32 187.79 L 21.09 185.25 L 19.91 182.68 L 18.81 180.08 L 17.76 177.46 L 16.78 174.81 L 15.87 172.14 L 15.02 169.46 L 14.23 166.74 L 13.51 164.01 L 12.86 161.27 L 12.27 158.50 L 11.75 155.73 L 11.29 152.94 L 10.91 150.14 L 10.59 147.33 L 10.34 144.51 L 10.16 141.69 L 10.04 138.86 L 10.00 136.04 L 10.03 133.20 L 10.12 130.38 L 10.28 127.55 L 10.51 124.73 L 10.81 121.92 L 11.18 119.11 L 11.61 116.32 L 12.11 113.54 L 12.68 110.77 L 13.31 108.01 L 14.01 105.27 L 14.78 102.55 L 15.61 99.85 L 16.51 97.17 L 17.48 94.51 L 18.50 91.88 L 19.59 89.27 L 20.75 86.68 L 21.97 84.13 L 23.25 81.60 L 24.59 79.11 L 25.99 76.65 L 27.45 74.22 L 28.96 71.83 L 30.54 69.47 L 32.17 67.16 L 33.85 64.89 L 35.59 62.66 L 37.39 60.48 L 39.23 58.33 L 41.13 56.24 L 43.07 54.19 L 45.06 52.19 L 47.10 50.24 L 49.19 48.34 L 51.33 46.49 L 53.51 44.69 L 55.73 42.94 L 57.99 41.25 L 60.30 39.61 L 62.64 38.03 L 65.03 36.50 L 67.45 35.04 L 69.90 33.63 L 72.39 32.28 L 74.91 31.00 L 77.45 29.77 L 80.02 28.61 L 82.62 27.52 L 85.24 26.48 L 87.89 25.51 L 90.56 24.60 L 93.25 23.76 L 95.95 22.98 L 98.68 22.27 L 101.43 21.62 L 104.19 21.05 L 106.96 20.53 L 109.74 20.09 L 112.54 19.71 L 115.34 19.41 L 118.16 19.17 L 120.97 18.99 L 123.79 18.89 L 126.61 18.86 L 129.44 18.89 L 132.26 18.98 L 135.07 19.15 L 137.89 19.39 L 140.70 19.69 L 143.50 20.07 L 146.28 20.50 L 149.06 21.01 L 151.83 21.59 L 154.58 22.23 L 157.31 22.94 L 160.02 23.71 L 162.72 24.55 L 165.39 25.46 L 168.04 26.43 L 170.66 27.46 L 173.26 28.56 L 175.83 29.72 L 178.38 30.94 L 180.89 32.22 L 183.37 33.56 L 185.81 34.96 L 188.23 36.42 L 190.60 37.93 L 192.94 39.51 L 195.23 41.13 L 197.49 42.82 L 199.70 44.55 L 201.87 46.34 L 204.00 48.18 L 206.09 50.07 L 208.13 52.01 L 210.14 53.99 L 212.10 56.01 L 214.04 58.06 L 215.95 60.14 L 217.84 62.23 L 219.71 64.35 L 221.58 66.46 L 223.44 68.58 L 225.31 70.71 L 227.16 72.83 L 229.02 74.96 L 230.88 77.09 L 232.73 79.22 L 234.58 81.35 L 236.43 83.48 L 238.28 85.61 L 240.14 87.74 L 241.99 89.87 L 243.85 92.01 L 245.70 94.15 L 247.56 96.29 L 249.42 98.43 L 251.28 100.57 L 253.13 102.71 L 254.99 104.85 L 256.85 106.98 L 258.71 109.12 L 260.57 111.25 L 262.43 113.39 L 264.29 115.53 L 266.15 117.66 L 268.01 119.80 L 269.87 121.94 L 271.73 124.08 L 273.59 126.22 L 275.45 128.37 L 277.30 130.51 L 279.15 132.67 L 280.99 134.84 L 282.82 137.02 L 284.62 139.24 L 286.40 141.47 L 288.15 143.73 L 289.89 146.01 L 291.62 148.30 L 293.35 150.60 L 295.07 152.90 L 296.78 155.20 L 298.50 157.50 L 300.22 159.80 L 301.93 162.11 L 303.65 164.42 L 305.36 166.73 L 307.07 169.04 L 308.76 171.36 L 310.43 173.70 L 312.05 176.07 L 313.58 178.49 L 315.00 180.97 L 316.26 183.51 L 317.30 186.14 L 318.09 188.83 L 318.59 191.57 L 318.77 194.35 L 318.63 197.14 L 318.15 199.91 L 317.36 202.64 L 316.30 205.32 L 315.05 207.95 L 313.68 210.54 L 312.28 213.11 L 310.96 215.68 L 309.76 218.27 L 308.73 220.89 L 307.88 223.54 L 307.24 226.23 L 306.79 228.96 L 306.55 231.70 L 306.49 234.46 L 306.60 237.22 L 306.87 239.98 L 307.26 242.73 L 307.74 245.47 L 308.27 248.21 L 308.80 250.94 L 309.30 253.68 L 309.73 256.43 L 310.07 259.18 L 310.31 261.94 L 310.43 264.71 L 310.43 267.48 L 310.32 270.25 L 310.07 273.01 L 309.71 275.76 L 309.22 278.49 L 308.61 281.20 L 307.88 283.88 Z" />
</symbol>
<symbol id="bl2">
<path d="M 475.30 142.10 L 474.18 144.84 L 472.98 147.54 L 471.69 150.21 L 470.32 152.83 L 468.87 155.41 L 467.34 157.94 L 465.74 160.42 L 464.06 162.85 L 462.30 165.23 L 460.48 167.55 L 458.58 169.82 L 456.62 172.03 L 454.61 174.19 L 452.54 176.31 L 450.43 178.38 L 448.30 180.42 L 446.15 182.44 L 443.98 184.45 L 441.81 186.44 L 439.63 188.43 L 437.45 190.41 L 435.27 192.39 L 433.08 194.37 L 430.89 196.35 L 428.71 198.33 L 426.52 200.31 L 424.34 202.28 L 422.15 204.26 L 419.96 206.24 L 417.77 208.21 L 415.58 210.19 L 413.39 212.18 L 411.20 214.17 L 409.01 216.16 L 406.84 218.17 L 404.68 220.19 L 402.56 222.23 L 400.48 224.31 L 398.46 226.44 L 396.50 228.62 L 394.60 230.85 L 392.75 233.11 L 390.93 235.40 L 389.13 237.70 L 387.33 240.01 L 385.55 242.33 L 383.77 244.66 L 381.98 246.98 L 380.20 249.30 L 378.40 251.61 L 376.56 253.88 L 374.68 256.10 L 372.72 258.24 L 370.67 260.27 L 368.52 262.18 L 366.25 263.94 L 363.88 265.55 L 361.40 267.00 L 358.83 268.30 L 356.19 269.47 L 353.50 270.53 L 350.78 271.53 L 348.04 272.50 L 345.31 273.47 L 342.58 274.47 L 339.87 275.52 L 337.19 276.63 L 334.53 277.81 L 331.91 279.06 L 329.32 280.37 L 326.76 281.75 L 324.25 283.20 L 321.77 284.72 L 319.33 286.30 L 316.94 287.95 L 314.60 289.65 L 312.30 291.42 L 310.04 293.24 L 307.84 295.12 L 305.68 297.06 L 303.56 299.04 L 301.48 301.06 L 299.43 303.11 L 297.38 305.18 L 295.33 307.24 L 293.26 309.26 L 291.13 311.24 L 288.95 313.15 L 286.71 314.97 L 284.38 316.69 L 281.99 318.31 L 279.52 319.81 L 276.99 321.20 L 274.39 322.47 L 271.73 323.62 L 269.03 324.65 L 266.28 325.56 L 263.49 326.35 L 260.66 327.03 L 257.81 327.62 L 254.94 328.12 L 252.05 328.57 L 249.16 328.98 L 246.26 329.37 L 243.36 329.75 L 240.46 330.12 L 237.55 330.49 L 234.65 330.87 L 231.75 331.26 L 228.85 331.69 L 225.95 332.14 L 223.05 332.64 L 220.16 333.16 L 217.28 333.70 L 214.39 334.21 L 211.50 334.63 L 208.64 334.87 L 205.82 334.83 L 203.13 334.43 L 200.62 333.60 L 198.42 332.29 L 196.59 330.54 L 195.21 328.38 L 194.29 325.92 L 193.80 323.26 L 193.66 320.47 L 193.75 317.63 L 193.94 314.78 L 194.10 311.93 L 194.14 309.09 L 194.01 306.27 L 193.68 303.46 L 193.19 300.67 L 192.57 297.90 L 191.87 295.15 L 191.12 292.41 L 190.35 289.66 L 189.60 286.91 L 188.89 284.16 L 188.24 281.39 L 187.67 278.61 L 187.20 275.81 L 186.85 272.99 L 186.61 270.17 L 186.49 267.34 L 186.51 264.51 L 186.65 261.69 L 186.92 258.87 L 187.32 256.06 L 187.85 253.28 L 188.50 250.53 L 189.28 247.81 L 190.19 245.12 L 191.21 242.48 L 192.36 239.89 L 193.63 237.36 L 195.02 234.88 L 196.53 232.47 L 198.16 230.13 L 199.93 227.84 L 201.83 225.62 L 203.85 223.45 L 205.99 221.34 L 208.24 219.31 L 210.58 217.38 L 212.99 215.57 L 215.48 213.88 L 218.03 212.33 L 220.64 210.91 L 223.30 209.63 L 226.02 208.49 L 228.80 207.48 L 231.61 206.60 L 234.46 205.85 L 237.34 205.22 L 240.24 204.70 L 243.17 204.25 L 246.10 203.85 L 249.03 203.44 L 251.91 202.95 L 254.71 202.30 L 257.39 201.40 L 259.91 200.20 L 262.26 198.67 L 264.43 196.84 L 266.48 194.77 L 268.43 192.55 L 270.33 190.24 L 272.22 187.90 L 274.13 185.57 L 276.09 183.28 L 278.09 181.05 L 280.12 178.86 L 282.15 176.68 L 284.10 174.47 L 285.92 172.18 L 287.53 169.77 L 288.90 167.23 L 290.01 164.57 L 290.86 161.80 L 291.46 158.95 L 291.86 156.04 L 292.09 153.10 L 292.21 150.15 L 292.26 147.19 L 292.25 144.23 L 292.22 141.27 L 292.17 138.31 L 292.12 135.34 L 292.07 132.38 L 292.01 129.42 L 291.96 126.45 L 291.91 123.49 L 291.86 120.52 L 291.81 117.55 L 291.79 114.58 L 291.78 111.61 L 291.82 108.64 L 291.90 105.67 L 292.04 102.71 L 292.26 99.75 L 292.56 96.80 L 292.94 93.86 L 293.41 90.94 L 293.97 88.03 L 294.63 85.13 L 295.37 82.27 L 296.20 79.42 L 297.12 76.61 L 298.13 73.82 L 299.23 71.07 L 300.41 68.36 L 301.67 65.68 L 303.01 63.06 L 304.43 60.47 L 305.94 57.93 L 307.52 55.44 L 309.18 53.00 L 310.91 50.61 L 312.72 48.28 L 314.60 46.00 L 316.55 43.78 L 318.58 41.62 L 320.66 39.53 L 322.82 37.50 L 325.03 35.54 L 327.31 33.65 L 329.65 31.83 L 332.04 30.08 L 334.48 28.41 L 336.97 26.82 L 339.52 25.30 L 342.11 23.86 L 344.74 22.51 L 347.42 21.24 L 350.14 20.05 L 352.89 18.95 L 355.67 17.94 L 358.48 17.01 L 361.32 16.17 L 364.19 15.42 L 367.07 14.76 L 369.98 14.19 L 372.90 13.71 L 375.83 13.33 L 378.77 13.03 L 381.72 12.83 L 384.68 12.72 L 387.65 12.70 L 390.61 12.77 L 393.57 12.94 L 396.52 13.20 L 399.46 13.55 L 402.39 13.99 L 405.30 14.52 L 408.20 15.14 L 411.07 15.86 L 413.92 16.66 L 416.75 17.55 L 419.54 18.53 L 422.31 19.59 L 425.04 20.74 L 427.73 21.98 L 430.38 23.30 L 432.99 24.70 L 435.55 26.18 L 438.07 27.74 L 440.54 29.38 L 442.96 31.10 L 445.32 32.88 L 447.62 34.74 L 449.87 36.68 L 452.05 38.68 L 454.17 40.74 L 456.22 42.87 L 458.20 45.06 L 460.12 47.32 L 461.96 49.63 L 463.74 52.00 L 465.43 54.42 L 467.05 56.90 L 468.60 59.43 L 470.07 62.01 L 471.45 64.63 L 472.75 67.29 L 473.97 69.99 L 475.11 72.72 L 476.15 75.49 L 477.11 78.29 L 477.99 81.11 L 478.77 83.96 L 479.46 86.83 L 480.07 89.72 L 480.58 92.62 L 481.00 95.54 L 481.33 98.47 L 481.57 101.41 L 481.72 104.36 L 481.77 107.32 L 481.73 110.28 L 481.60 113.24 L 481.38 116.20 L 481.07 119.15 L 480.67 122.09 L 480.17 125.01 L 479.59 127.92 L 478.91 130.81 L 478.14 133.67 L 477.28 136.51 L 476.33 139.32 Z" />
</symbol>
<symbol id="bl3">
<path d="M 422.21 263.04 L 420.71 263.43 L 419.18 263.77 L 417.65 264.05 L 416.10 264.31 L 414.55 264.54 L 413.00 264.76 L 411.44 264.97 L 409.89 265.18 L 408.33 265.39 L 406.77 265.60 L 405.21 265.81 L 403.65 266.02 L 402.10 266.23 L 400.55 266.43 L 398.99 266.64 L 397.43 266.84 L 395.87 267.04 L 394.30 267.22 L 392.73 267.38 L 391.14 267.51 L 389.54 267.59 L 387.92 267.63 L 386.30 267.64 L 384.68 267.63 L 383.07 267.61 L 381.47 267.59 L 379.88 267.59 L 378.30 267.61 L 376.71 267.65 L 375.14 267.71 L 373.56 267.79 L 371.98 267.90 L 370.41 268.03 L 368.83 268.19 L 367.25 268.36 L 365.68 268.56 L 364.11 268.78 L 362.55 269.03 L 360.98 269.29 L 359.41 269.58 L 357.85 269.88 L 356.29 270.20 L 354.73 270.51 L 353.18 270.82 L 351.63 271.10 L 350.08 271.34 L 348.54 271.54 L 346.99 271.68 L 345.44 271.76 L 343.89 271.78 L 342.35 271.74 L 340.81 271.64 L 339.27 271.47 L 337.74 271.24 L 336.21 270.95 L 334.70 270.60 L 333.21 270.18 L 331.73 269.71 L 330.28 269.17 L 328.85 268.58 L 327.44 267.94 L 326.06 267.23 L 324.71 266.47 L 323.39 265.66 L 322.11 264.80 L 320.86 263.88 L 319.65 262.91 L 318.48 261.89 L 317.36 260.83 L 316.27 259.72 L 315.23 258.56 L 314.24 257.37 L 313.29 256.13 L 312.39 254.86 L 311.55 253.54 L 310.75 252.20 L 310.00 250.82 L 309.30 249.43 L 308.63 248.01 L 308.00 246.59 L 307.38 245.16 L 306.76 243.72 L 306.13 242.30 L 305.49 240.88 L 304.83 239.47 L 304.13 238.08 L 303.41 236.70 L 302.66 235.34 L 301.87 234.00 L 301.05 232.67 L 300.19 231.37 L 299.31 230.09 L 298.39 228.84 L 297.44 227.60 L 296.46 226.39 L 295.45 225.21 L 294.42 224.05 L 293.35 222.92 L 292.26 221.82 L 291.14 220.74 L 289.99 219.69 L 288.81 218.67 L 287.62 217.68 L 286.39 216.72 L 285.15 215.79 L 283.87 214.89 L 282.58 214.01 L 281.26 213.17 L 279.93 212.37 L 278.57 211.60 L 277.19 210.86 L 275.80 210.16 L 274.39 209.49 L 272.96 208.86 L 271.51 208.26 L 270.05 207.70 L 268.58 207.17 L 267.09 206.69 L 265.60 206.24 L 264.09 205.82 L 262.57 205.44 L 261.04 205.09 L 259.51 204.76 L 257.98 204.42 L 256.46 204.07 L 254.95 203.68 L 253.47 203.21 L 252.05 202.64 L 250.69 201.94 L 249.44 201.10 L 248.32 200.12 L 247.34 199.00 L 246.53 197.75 L 245.90 196.40 L 245.47 194.98 L 245.24 193.51 L 245.23 192.02 L 245.43 190.54 L 245.84 189.11 L 246.44 187.75 L 247.24 186.49 L 248.20 185.36 L 249.32 184.38 L 250.56 183.57 L 251.91 182.95 L 253.33 182.52 L 254.80 182.30 L 256.29 182.29 L 257.76 182.49 L 259.20 182.90 L 260.56 183.51 L 261.85 184.30 L 263.03 185.25 L 264.11 186.34 L 265.11 187.54 L 266.02 188.82 L 266.88 190.15 L 267.69 191.51 L 268.47 192.89 L 269.24 194.28 L 270.00 195.67 L 270.76 197.07 L 271.51 198.47 L 272.28 199.86 L 273.04 201.25 L 273.82 202.64 L 274.62 204.01 L 275.45 205.36 L 276.31 206.68 L 277.22 207.97 L 278.19 209.21 L 279.22 210.40 L 280.31 211.54 L 281.45 212.62 L 282.64 213.65 L 283.85 214.65 L 285.09 215.63 L 286.32 216.60 L 287.54 217.58 L 288.74 218.58 L 289.91 219.60 L 291.06 220.65 L 292.18 221.72 L 293.27 222.83 L 294.33 223.95 L 295.37 225.11 L 296.37 226.29 L 297.35 227.49 L 298.30 228.72 L 299.21 229.97 L 300.10 231.24 L 300.95 232.54 L 301.77 233.85 L 302.56 235.19 L 303.32 236.54 L 304.04 237.91 L 304.74 239.30 L 305.40 240.70 L 306.04 242.11 L 306.67 243.53 L 307.28 244.96 L 307.90 246.38 L 308.53 247.80 L 309.18 249.20 L 309.87 250.58 L 310.60 251.93 L 311.37 253.26 L 312.19 254.56 L 313.06 255.82 L 313.98 257.05 L 314.94 258.24 L 315.96 259.39 L 317.02 260.50 L 318.12 261.56 L 319.26 262.58 L 320.44 263.56 L 321.66 264.48 L 322.92 265.36 L 324.21 266.18 L 325.54 266.95 L 326.90 267.67 L 328.29 268.34 L 329.70 268.95 L 331.14 269.50 L 332.60 270.00 L 334.08 270.44 L 335.58 270.81 L 337.09 271.13 L 338.62 271.38 L 340.16 271.58 L 341.71 271.71 L 343.26 271.77 L 344.81 271.78 L 346.37 271.72 L 347.91 271.60 L 349.45 271.42 L 350.98 271.17 L 352.49 270.87 L 353.98 270.51 L 355.45 270.08 L 356.90 269.60 L 358.33 269.07 L 359.73 268.48 L 361.10 267.83 L 362.45 267.13 L 363.77 266.38 L 365.06 265.58 L 366.31 264.72 L 367.54 263.82 L 368.72 262.86 L 369.87 261.86 L 370.98 260.82 L 372.05 259.72 L 373.07 258.58 L 374.05 257.39 L 375.00 256.15 L 375.92 254.87 L 376.81 253.54 L 377.70 252.18 L 378.59 250.81 L 379.50 249.46 L 380.43 248.13 L 381.38 246.82 L 382.35 245.55 L 383.33 244.30 L 384.32 243.07 L 385.31 241.84 L 386.31 240.61 L 387.30 239.39 L 388.29 238.16 L 389.29 236.94 L 390.28 235.72 L 391.27 234.49 L 392.25 233.27 L 393.25 232.05 L 394.24 230.83 L 395.25 229.62 L 396.26 228.41 L 397.30 227.23 L 398.36 226.06 L 399.46 224.94 L 400.61 223.86 L 401.80 222.84 L 403.05 221.90 L 404.36 221.05 L 405.71 220.28 L 407.12 219.60 L 408.57 219.02 L 410.05 218.53 L 411.55 218.15 L 413.09 217.87 L 414.63 217.70 L 416.19 217.63 L 417.75 217.67 L 419.29 217.81 L 420.83 218.06 L 422.35 218.41 L 423.83 218.86 L 425.29 219.41 L 426.71 220.06 L 428.07 220.80 L 429.39 221.64 L 430.65 222.56 L 431.84 223.56 L 432.96 224.64 L 434.01 225.79 L 434.97 227.01 L 435.85 228.30 L 436.64 229.64 L 437.34 231.02 L 437.94 232.45 L 438.44 233.92 L 438.84 235.42 L 439.14 236.94 L 439.35 238.48 L 439.44 240.03 L 439.43 241.58 L 439.32 243.13 L 439.10 244.67 L 438.77 246.19 L 438.35 247.69 L 437.83 249.15 L 437.21 250.58 L 436.50 251.95 L 435.70 253.28 L 434.81 254.54 L 433.85 255.74 L 432.80 256.87 L 431.68 257.94 L 430.49 258.92 L 429.23 259.82 L 427.92 260.64 L 426.55 261.37 L 425.14 262.01 L 423.69 262.57 Z" />
</symbol>
<symbol id="bl4">
<path d="M 481.70 419.30 L 480.64 421.78 L 479.52 424.22 L 478.35 426.64 L 477.12 429.04 L 475.83 431.40 L 474.48 433.72 L 473.07 436.02 L 471.60 438.28 L 470.08 440.51 L 468.51 442.69 L 466.88 444.84 L 465.20 446.95 L 463.47 449.02 L 461.68 451.04 L 459.85 453.02 L 457.97 454.96 L 456.05 456.84 L 454.08 458.68 L 452.06 460.47 L 449.99 462.22 L 447.89 463.91 L 445.74 465.55 L 443.55 467.14 L 441.31 468.67 L 439.05 470.16 L 436.74 471.58 L 434.40 472.95 L 432.02 474.26 L 429.61 475.51 L 427.18 476.70 L 424.72 477.84 L 422.23 478.91 L 419.72 479.92 L 417.18 480.86 L 414.63 481.74 L 412.05 482.56 L 409.46 483.31 L 406.84 484.00 L 404.22 484.62 L 401.57 485.18 L 398.92 485.67 L 396.25 486.10 L 393.57 486.46 L 390.88 486.76 L 388.19 486.99 L 385.49 487.16 L 382.80 487.26 L 380.10 487.30 L 377.40 487.27 L 374.69 487.17 L 372.00 487.01 L 369.31 486.77 L 366.62 486.47 L 363.94 486.10 L 361.28 485.67 L 358.62 485.17 L 355.98 484.61 L 353.36 483.99 L 350.75 483.30 L 348.16 482.55 L 345.58 481.73 L 343.03 480.85 L 340.50 479.90 L 337.99 478.90 L 335.51 477.83 L 333.05 476.70 L 330.62 475.51 L 328.22 474.26 L 325.86 472.95 L 323.52 471.59 L 321.22 470.17 L 318.96 468.69 L 316.73 467.15 L 314.55 465.57 L 312.40 463.93 L 310.29 462.23 L 308.23 460.48 L 306.21 458.69 L 304.23 456.84 L 302.30 454.94 L 300.41 452.99 L 298.57 451.00 L 296.78 448.96 L 295.04 446.87 L 293.34 444.74 L 291.71 442.56 L 290.12 440.35 L 288.59 438.10 L 287.11 435.81 L 285.69 433.50 L 284.31 431.16 L 282.97 428.79 L 281.67 426.41 L 280.39 424.01 L 279.13 421.61 L 277.88 419.20 L 276.65 416.79 L 275.41 414.37 L 274.18 411.96 L 272.96 409.54 L 271.73 407.13 L 270.50 404.71 L 269.27 402.30 L 268.05 399.89 L 266.82 397.48 L 265.59 395.07 L 264.36 392.65 L 263.13 390.22 L 261.91 387.80 L 260.69 385.37 L 259.47 382.95 L 258.26 380.52 L 257.04 378.09 L 255.84 375.66 L 254.66 373.23 L 253.51 370.78 L 252.44 368.32 L 251.51 365.82 L 250.77 363.28 L 250.32 360.71 L 250.21 358.12 L 250.51 355.57 L 251.22 353.09 L 252.32 350.72 L 253.74 348.47 L 255.42 346.33 L 257.25 344.28 L 259.19 342.27 L 261.19 340.31 L 263.20 338.35 L 265.23 336.41 L 267.27 334.47 L 269.31 332.54 L 271.34 330.60 L 273.39 328.67 L 275.43 326.73 L 277.47 324.79 L 279.52 322.86 L 281.56 320.93 L 283.60 318.99 L 285.63 317.05 L 287.64 315.09 L 289.63 313.11 L 291.58 311.09 L 293.48 309.02 L 295.32 306.91 L 297.07 304.73 L 298.74 302.49 L 300.31 300.19 L 301.78 297.83 L 303.15 295.40 L 304.40 292.92 L 305.54 290.39 L 306.57 287.80 L 307.47 285.17 L 308.27 282.51 L 308.94 279.81 L 309.48 277.08 L 309.91 274.33 L 310.21 271.56 L 310.39 268.77 L 310.44 265.99 L 310.37 263.20 L 310.17 260.42 L 309.85 257.65 L 309.40 254.90 L 308.83 252.17 L 308.14 249.47 L 307.32 246.81 L 306.39 244.18 L 305.34 241.60 L 304.18 239.07 L 302.90 236.59 L 301.52 234.17 L 300.02 231.82 L 298.43 229.54 L 296.74 227.33 L 294.94 225.19 L 293.07 223.13 L 291.11 221.13 L 289.10 219.18 L 287.05 217.26 L 284.99 215.34 L 282.96 213.38 L 281.00 211.36 L 279.14 209.24 L 277.38 207.02 L 275.74 204.71 L 274.17 202.32 L 272.66 199.89 L 271.17 197.44 L 269.64 195.00 L 268.05 192.60 L 266.33 190.28 L 264.47 188.04 L 262.45 185.90 L 260.29 183.86 L 258.03 181.89 L 255.74 179.94 L 253.48 177.97 L 251.33 175.92 L 249.35 173.74 L 247.58 171.42 L 246.08 168.95 L 244.87 166.33 L 243.96 163.60 L 243.39 160.79 L 243.16 157.93 L 243.27 155.07 L 243.71 152.25 L 244.49 149.50 L 245.58 146.87 L 246.98 144.40 L 248.66 142.11 L 250.60 140.04 L 252.78 138.21 L 255.15 136.65 L 257.70 135.38 L 260.38 134.43 L 263.15 133.79 L 265.98 133.49 L 268.83 133.53 L 271.66 133.89 L 274.43 134.57 L 277.12 135.55 L 279.70 136.81 L 282.18 138.30 L 284.54 139.98 L 286.81 141.81 L 289.00 143.76 L 291.14 145.77 L 293.24 147.83 L 295.31 149.92 L 297.37 152.02 L 299.43 154.12 L 301.49 156.23 L 303.54 158.34 L 305.60 160.45 L 307.66 162.56 L 309.72 164.68 L 311.78 166.79 L 313.85 168.89 L 315.93 170.99 L 318.03 173.06 L 320.16 175.11 L 322.33 177.11 L 324.53 179.06 L 326.79 180.95 L 329.10 182.77 L 331.46 184.52 L 333.87 186.20 L 336.34 187.80 L 338.86 189.32 L 341.45 190.77 L 344.09 192.14 L 346.82 193.46 L 349.62 194.75 L 352.49 196.03 L 355.40 197.34 L 358.32 198.73 L 361.20 200.24 L 363.97 201.90 L 366.61 203.74 L 369.09 205.76 L 371.39 207.97 L 373.51 210.35 L 375.46 212.88 L 377.26 215.53 L 378.93 218.28 L 380.52 221.10 L 382.05 223.96 L 383.55 226.84 L 385.04 229.73 L 386.52 232.63 L 388.00 235.53 L 389.50 238.44 L 391.03 241.34 L 392.60 244.22 L 394.22 247.07 L 395.92 249.84 L 397.71 252.47 L 399.59 254.92 L 401.55 257.16 L 403.59 259.20 L 405.69 261.06 L 407.84 262.79 L 410.02 264.43 L 412.22 266.01 L 414.43 267.57 L 416.65 269.11 L 418.87 270.64 L 421.09 272.17 L 423.32 273.71 L 425.55 275.24 L 427.79 276.77 L 430.01 278.30 L 432.24 279.82 L 434.47 281.35 L 436.69 282.89 L 438.91 284.43 L 441.10 285.98 L 443.29 287.55 L 445.44 289.15 L 447.57 290.79 L 449.66 292.47 L 451.72 294.19 L 453.73 295.97 L 455.70 297.79 L 457.63 299.66 L 459.51 301.58 L 461.35 303.54 L 463.14 305.55 L 464.89 307.61 L 466.58 309.70 L 468.22 311.84 L 469.80 314.02 L 471.33 316.24 L 472.80 318.50 L 474.23 320.79 L 475.59 323.12 L 476.90 325.48 L 478.15 327.86 L 479.34 330.28 L 480.47 332.73 L 481.54 335.21 L 482.54 337.71 L 483.49 340.24 L 484.37 342.79 L 485.19 345.36 L 485.95 347.94 L 486.65 350.55 L 487.28 353.16 L 487.84 355.79 L 488.33 358.44 L 488.76 361.09 L 489.13 363.76 L 489.44 366.44 L 489.68 369.12 L 489.85 371.81 L 489.96 374.50 L 490.00 377.19 L 489.98 379.88 L 489.89 382.57 L 489.73 385.27 L 489.50 387.95 L 489.21 390.64 L 488.85 393.31 L 488.43 395.98 L 487.93 398.64 L 487.38 401.28 L 486.76 403.91 L 486.07 406.53 L 485.32 409.13 L 484.51 411.71 L 483.64 414.26 L 482.70 416.79 Z" />
</symbol>
</defs>
<!-- isDone: 0 -->
<rect width="700" height="500" style="fill:#fff;stroke-width:0" />
<use class="p0 borderLine" xlink:href="#bl0"/>
<use class="p1 borderLine" xlink:href="#bl1"/>
<use class="p2 borderLine" xlink:href="#bl2"/>
<use class="p3 borderLine" xlink:href="#bl3"/>
<use class="p4 borderLine" xlink:href="#bl4"/>
<use class="q0 outLine" xlink:href="#bl0"/>
<use class="q1 outLine" xlink:href="#bl1"/>
<use class="q2 outLine" xlink:href="#bl2"/>
<use class="q3 outLine" xlink:href="#bl3"/>
<use class="q4 outLine" xlink:href="#bl4"/>
<circle onclick="fromCircle(16)" class="circle" cx="225.6672" cy="355.5939" r="16.9135" />
<text class="nLabel" x="225.67" y="350.59">28</text>
<text class="belong" x="225.67" y="360.59">(1)</text>
<circle onclick="fromCircle(24)" class="circle" cx="174.7874" cy="309.6041" r="13.9325" />
<text class="nLabel" x="174.79" y="304.60">19</text>
<text class="belong" x="174.79" y="314.60">(1, 2)</text>
<circle onclick="fromCircle(28)" class="circle" cx="203.4246" cy="325.1534" r="5.5362" />
<text class="nLabel" x="203.42" y="320.15">3</text>
<text class="belong" x="203.42" y="330.15">(1, 2, 3)</text>
<circle onclick="fromCircle(8)" class="circle" cx="126.1313" cy="135.1425" r="110.6323" />
<text class="nLabel" x="126.13" y="130.14">1198</text>
<text class="belong" x="126.13" y="140.14">(2)</text>
<circle onclick="fromCircle(12)" class="circle" cx="248.3966" cy="266.2362" r="56.0044" />
<text class="nLabel" x="248.40" y="261.24">307</text>
<text class="belong" x="248.40" y="271.24">(2, 3)</text>
<circle onclick="fromCircle(10)" class="circle" cx="255.5656" cy="192.5773" r="4.7460" />
<text class="nLabel" x="255.57" y="187.58">1</text>
<text class="belong" x="255.57" y="197.58">(2, 4)</text>
<circle onclick="fromCircle(9)" class="circle" cx="267.0602" cy="157.2690" r="18.9098" />
<text class="nLabel" x="267.06" y="152.27">35</text>
<text class="belong" x="267.06" y="162.27">(2, 5)</text>
<circle onclick="fromCircle(13)" class="circle" cx="296.5603" cy="194.6184" r="17.2128" />
<text class="nLabel" x="296.56" y="189.62">29</text>
<text class="belong" x="296.56" y="199.62">(2, 3, 5)</text>
<circle onclick="fromCircle(4)" class="circle" cx="387.1349" cy="107.1913" r="88.9250" />
<text class="nLabel" x="387.13" y="102.19">774</text>
<text class="belong" x="387.13" y="112.19">(3)</text>
<circle onclick="fromCircle(5)" class="circle" cx="344.2428" cy="233.4836" r="31.9634" />
<text class="nLabel" x="344.24" y="228.48">100</text>
<text class="belong" x="344.24" y="238.48">(3, 5)</text>
<circle onclick="fromCircle(2)" class="circle" cx="416.6627" cy="240.6470" r="16.9135" />
<text class="nLabel" x="416.66" y="235.65">28</text>
<text class="belong" x="416.66" y="245.65">(4)</text>
<circle onclick="fromCircle(3)" class="circle" cx="387.9812" cy="256.7163" r="4.7460" />
<text class="nLabel" x="387.98" y="251.72">1</text>
<text class="belong" x="387.98" y="261.72">(4, 5)</text>
<circle onclick="fromCircle(1)" class="circle" cx="380.4583" cy="377.8641" r="103.7212" />
<text class="nLabel" x="380.46" y="372.86">1053</text>
<text class="belong" x="380.46" y="382.86">(5)</text>
<circle onclick="fromCircle(17)" class="circle" cx="259.8967" cy="357.3639" r="5.5362" />
<text class="nLabel" x="259.90" y="352.36">3</text>
<text class="belong" x="259.90" y="362.36">(1, 5)</text>
<g id="legendBox">
<rect class="p0 borderLine" x="500.00" y="50.00" width="30.00" height="15.00" />
<rect class="q0" x="500.00" y="50.00" width="30.00" height="15.00" />
<text class="legend" x="540.00" y="65.00">ZGA_FISH_surge</text>
<rect class="p1 borderLine" x="500.00" y="90.00" width="30.00" height="15.00" />
<rect class="q1" x="500.00" y="90.00" width="30.00" height="15.00" />
<text class="legend" x="540.00" y="105.00">Hu_surge</text>
<rect class="p2 borderLine" x="500.00" y="130.00" width="30.00" height="15.00" />
<rect class="q2" x="500.00" y="130.00" width="30.00" height="15.00" />
<text class="legend" x="540.00" y="145.00">DBTMEE_surge</text>
<rect class="p3 borderLine" x="500.00" y="170.00" width="30.00" height="15.00" />
<rect class="q3" x="500.00" y="170.00" width="30.00" height="15.00" />
<text class="legend" x="540.00" y="185.00">UCSC_surge</text>
<rect class="p4 borderLine" x="500.00" y="210.00" width="30.00" height="15.00" />
<rect class="q4" x="500.00" y="210.00" width="30.00" height="15.00" />
<text class="legend" x="540.00" y="225.00">Abe_surge</text>
</g>
</svg>
