<svg xmlns="http://www.w3.org/2000/svg" xmlns:xlink="http://www.w3.org/1999/xlink" width="700" height="500">
<defs>
<style type="text/css"><![CDATA[
  .borderLine {
	   stroke: none;
	   fill-opacity:  0.4 ;
  }
  .outLine {
	   stroke-width:  1 ;
	   fill: none;
  }
  .circle {
	   stroke: #888888;
	   stroke-width: 0.5;
	   fill: none;
    pointer-events: all;
  }
  .nLabel {
	   font-family: Arial;
    pointer-events: none;
	   font-size: 10px;
	   text-anchor: middle;
	   alignment-baseline: central;
  }
  .belong {
	   font-family: Arial;
    pointer-events: none;
	   font-size: 5px;
	   text-anchor: middle;
	   alignment-baseline: central;
  }
  .legend {
    font-family: Arial;
    font-size: 15px;
  }
  #legendBox {
    display:  inline ;
  }
  .p0{
    stroke: none;
    fill: #e6194b;
  }
  .q0{
    fill: none;
    stroke: #e6194b;
  }
  .p1{
    stroke: none;
    fill: #3cb44b;
  }
  .q1{
    fill: none;
    stroke: #3cb44b;
  }
  .p2{
    stroke: none;
    fill: #ffe119;
  }
  .q2{
    fill: none;
    stroke: #ffe119;
  }
  .p3{
    stroke: none;
    fill: #0082c8;
  }
  .q3{
    fill: none;
    stroke: #0082c8;
  }
  .p4{
    stroke: none;
    fill: #f58231;
  }
  .q4{
    fill: none;
    stroke: #f58231;
  }
]]>
</style>
<symbol id="bl0">
<path d="M 298.30 327.72 L 296.27 328.40 L 294.27 329.15 L 292.30 329.98 L 290.35 330.87 L 288.43 331.81 L 286.53 332.75 L 284.64 333.67 L 282.75 334.55 L 280.86 335.34 L 278.96 336.05 L 277.07 336.64 L 275.16 337.13 L 273.24 337.51 L 271.30 337.79 L 269.34 337.98 L 267.34 338.09 L 265.30 338.14 L 263.20 338.14 L 261.04 338.11 L 258.82 338.06 L 256.53 338.00 L 254.18 337.96 L 251.77 337.92 L 249.33 337.90 L 246.86 337.90 L 244.39 337.91 L 241.92 337.94 L 239.45 337.97 L 237.00 338.01 L 234.57 338.06 L 232.16 338.14 L 229.76 338.25 L 227.37 338.40 L 225.00 338.61 L 222.65 338.89 L 220.30 339.24 L 217.97 339.68 L 215.65 340.19 L 213.34 340.76 L 211.04 341.40 L 208.74 342.08 L 206.44 342.80 L 204.15 343.54 L 201.86 344.31 L 199.57 345.09 L 197.29 345.89 L 195.02 346.71 L 192.76 347.56 L 190.50 348.43 L 188.26 349.33 L 186.02 350.27 L 183.79 351.23 L 181.57 352.22 L 179.35 353.24 L 177.14 354.27 L 174.93 355.32 L 172.73 356.37 L 170.53 357.43 L 168.34 358.48 L 166.15 359.52 L 163.97 360.55 L 161.80 361.55 L 159.63 362.52 L 157.48 363.46 L 155.34 364.35 L 153.22 365.19 L 151.11 365.99 L 149.02 366.72 L 146.95 367.39 L 144.89 367.97 L 142.83 368.44 L 140.77 368.78 L 138.69 368.95 L 136.58 368.92 L 134.44 368.66 L 132.26 368.14 L 130.05 367.35 L 127.84 366.30 L 125.66 364.99 L 123.56 363.45 L 121.59 361.71 L 119.81 359.79 L 118.26 357.72 L 116.97 355.50 L 115.99 353.17 L 115.31 350.71 L 114.96 348.16 L 114.90 345.54 L 115.14 342.87 L 115.62 340.22 L 116.33 337.62 L 117.21 335.12 L 118.24 332.75 L 119.37 330.55 L 120.58 328.51 L 121.87 326.62 L 123.22 324.86 L 124.63 323.19 L 126.09 321.58 L 127.62 320.01 L 129.20 318.44 L 130.83 316.87 L 132.50 315.30 L 134.19 313.70 L 135.88 312.10 L 137.56 310.48 L 139.21 308.86 L 140.83 307.24 L 142.40 305.60 L 143.94 303.97 L 145.44 302.32 L 146.93 300.66 L 148.39 298.99 L 149.86 297.32 L 151.34 295.65 L 152.83 294.00 L 154.35 292.37 L 155.90 290.78 L 157.48 289.23 L 159.11 287.74 L 160.77 286.29 L 162.46 284.90 L 164.17 283.56 L 165.89 282.27 L 167.61 281.04 L 169.35 279.86 L 171.09 278.75 L 172.85 277.71 L 174.63 276.75 L 176.45 275.90 L 178.32 275.15 L 180.23 274.54 L 182.18 274.04 L 184.18 273.66 L 186.20 273.38 L 188.24 273.16 L 190.29 272.98 L 192.32 272.79 L 194.33 272.56 L 196.29 272.26 L 198.20 271.87 L 200.04 271.35 L 201.81 270.72 L 203.51 269.96 L 205.16 269.10 L 206.75 268.16 L 208.30 267.15 L 209.83 266.09 L 211.35 265.01 L 212.85 263.91 L 214.35 262.80 L 215.84 261.69 L 217.34 260.59 L 218.83 259.49 L 220.32 258.39 L 221.81 257.29 L 223.29 256.18 L 224.76 255.06 L 226.22 253.92 L 227.66 252.75 L 229.07 251.53 L 230.44 250.26 L 231.78 248.93 L 233.05 247.54 L 234.27 246.07 L 235.42 244.54 L 236.48 242.95 L 237.45 241.31 L 238.32 239.62 L 239.08 237.90 L 239.73 236.14 L 240.26 234.35 L 240.67 232.54 L 240.97 230.71 L 241.16 228.87 L 241.25 227.02 L 241.24 225.16 L 241.16 223.29 L 241.03 221.41 L 240.85 219.52 L 240.64 217.62 L 240.42 215.72 L 240.20 213.82 L 239.98 211.93 L 239.77 210.05 L 239.58 208.22 L 239.54 206.42 L 239.74 204.71 L 240.15 203.14 L 240.70 201.71 L 241.41 200.44 L 242.33 199.36 L 243.43 198.50 L 244.69 197.85 L 246.08 197.44 L 247.55 197.29 L 249.05 197.39 L 250.54 197.75 L 252.01 198.37 L 253.43 199.23 L 254.80 200.29 L 256.13 201.51 L 257.41 202.86 L 258.66 204.29 L 259.87 205.77 L 261.05 207.29 L 262.19 208.81 L 263.31 210.34 L 264.38 211.87 L 265.42 213.41 L 266.42 214.95 L 267.24 216.56 L 267.99 218.20 L 268.63 219.87 L 269.14 221.59 L 269.52 223.36 L 269.79 225.17 L 269.96 227.01 L 270.07 228.87 L 270.17 230.74 L 270.28 232.60 L 270.46 234.44 L 270.73 236.26 L 271.14 238.03 L 271.68 239.76 L 272.39 241.42 L 273.25 243.01 L 274.25 244.54 L 275.39 246.00 L 276.64 247.40 L 277.96 248.75 L 279.31 250.09 L 280.65 251.44 L 281.95 252.82 L 283.17 254.26 L 284.28 255.77 L 285.29 257.36 L 286.20 259.03 L 287.03 260.75 L 287.78 262.55 L 288.45 264.38 L 289.12 266.23 L 289.84 268.08 L 290.61 269.91 L 291.45 271.71 L 292.38 273.47 L 293.40 275.19 L 294.51 276.86 L 295.71 278.47 L 296.99 280.00 L 298.35 281.46 L 299.77 282.83 L 301.24 284.12 L 302.77 285.31 L 304.34 286.42 L 305.97 287.43 L 307.65 288.35 L 309.39 289.19 L 311.19 289.93 L 313.06 290.59 L 315.00 291.17 L 317.00 291.66 L 319.05 292.07 L 321.15 292.41 L 323.28 292.70 L 325.43 292.94 L 327.59 293.16 L 329.76 293.39 L 331.93 293.64 L 334.11 293.95 L 336.26 294.33 L 338.40 294.82 L 340.49 295.42 L 342.54 296.16 L 344.51 297.04 L 346.41 298.06 L 348.21 299.22 L 349.91 300.51 L 351.48 301.93 L 352.90 303.47 L 354.14 305.10 L 355.16 306.82 L 355.93 308.58 L 356.42 310.35 L 356.61 312.11 L 356.47 313.78 L 356.02 315.35 L 355.27 316.76 L 354.23 317.99 L 352.95 319.04 L 351.45 319.89 L 349.76 320.56 L 347.93 321.06 L 345.98 321.43 L 343.93 321.69 L 341.81 321.86 L 339.65 321.98 L 337.45 322.05 L 335.24 322.10 L 333.01 322.14 L 330.79 322.19 L 328.56 322.25 L 326.32 322.35 L 324.09 322.49 L 321.85 322.68 L 319.62 322.93 L 317.40 323.25 L 315.20 323.63 L 313.02 324.06 L 310.86 324.52 L 308.72 325.01 L 306.61 325.50 L 304.50 326.01 L 302.42 326.54 L 300.35 327.11 Z" />
</symbol>
<symbol id="bl1">
<path d="M 271.43 318.77 L 268.81 318.43 L 266.14 318.24 L 263.45 318.16 L 260.74 318.16 L 258.02 318.19 L 255.31 318.25 L 252.60 318.33 L 249.89 318.41 L 247.16 318.51 L 244.42 318.62 L 241.64 318.75 L 238.84 318.89 L 236.01 319.04 L 233.16 319.21 L 230.29 319.39 L 227.42 319.58 L 224.54 319.78 L 221.67 320.00 L 218.81 320.23 L 215.95 320.47 L 213.09 320.75 L 210.22 321.04 L 207.35 321.36 L 204.46 321.71 L 201.56 322.08 L 198.65 322.48 L 195.74 322.90 L 192.85 323.35 L 189.98 323.82 L 187.13 324.33 L 184.30 324.88 L 181.50 325.48 L 178.71 326.12 L 175.92 326.83 L 173.14 327.59 L 170.35 328.41 L 167.55 329.29 L 164.75 330.21 L 161.96 331.16 L 159.19 332.13 L 156.46 333.09 L 153.78 334.00 L 151.16 334.84 L 148.59 335.59 L 146.07 336.22 L 143.59 336.75 L 141.14 337.18 L 138.72 337.55 L 136.31 337.88 L 133.91 338.21 L 131.52 338.56 L 129.13 338.95 L 126.74 339.38 L 124.35 339.85 L 121.95 340.36 L 119.54 340.90 L 117.13 341.46 L 114.72 342.04 L 112.30 342.65 L 109.88 343.28 L 107.46 343.93 L 105.04 344.60 L 102.62 345.28 L 100.19 345.96 L 97.75 346.65 L 95.31 347.34 L 92.85 348.02 L 90.37 348.70 L 87.88 349.38 L 85.37 350.07 L 82.85 350.76 L 80.33 351.47 L 77.80 352.19 L 75.28 352.92 L 72.77 353.66 L 70.27 354.41 L 67.80 355.16 L 65.34 355.89 L 62.90 356.59 L 60.47 357.24 L 58.05 357.83 L 55.65 358.33 L 53.24 358.73 L 50.84 359.02 L 48.43 359.18 L 46.03 359.21 L 43.65 359.08 L 41.28 358.80 L 38.95 358.37 L 36.66 357.77 L 34.43 357.00 L 32.26 356.06 L 30.15 354.95 L 28.12 353.68 L 26.18 352.24 L 24.34 350.64 L 22.63 348.90 L 21.05 347.02 L 19.61 345.02 L 18.34 342.90 L 17.24 340.69 L 16.32 338.40 L 15.57 336.06 L 15.00 333.69 L 14.60 331.30 L 14.39 328.93 L 14.34 326.58 L 14.47 324.26 L 14.75 321.97 L 15.20 319.71 L 15.79 317.47 L 16.52 315.24 L 17.38 313.00 L 18.36 310.74 L 19.44 308.48 L 20.60 306.19 L 21.84 303.88 L 23.14 301.55 L 24.48 299.21 L 25.86 296.86 L 27.26 294.50 L 28.69 292.13 L 30.15 289.77 L 31.62 287.40 L 33.12 285.04 L 34.63 282.68 L 36.17 280.34 L 37.73 278.01 L 39.32 275.71 L 40.91 273.42 L 42.52 271.15 L 44.14 268.90 L 45.77 266.67 L 47.39 264.46 L 49.02 262.27 L 50.64 260.08 L 52.26 257.92 L 53.87 255.76 L 55.47 253.63 L 57.06 251.53 L 58.63 249.46 L 60.18 247.44 L 61.72 245.47 L 63.25 243.56 L 64.79 241.72 L 66.35 239.94 L 67.94 238.22 L 69.60 236.55 L 71.33 234.94 L 73.15 233.37 L 75.07 231.85 L 77.08 230.38 L 79.19 228.97 L 81.36 227.61 L 83.57 226.33 L 85.81 225.12 L 88.05 223.98 L 90.29 222.91 L 92.50 221.89 L 94.70 220.93 L 96.89 220.00 L 99.08 219.10 L 101.28 218.21 L 103.50 217.32 L 105.74 216.43 L 108.00 215.54 L 110.26 214.64 L 112.52 213.75 L 114.77 212.85 L 116.99 211.97 L 119.19 211.10 L 121.37 210.25 L 123.53 209.41 L 125.68 208.59 L 127.83 207.78 L 129.97 206.98 L 132.11 206.18 L 134.26 205.37 L 136.41 204.57 L 138.57 203.75 L 140.74 202.93 L 142.92 202.11 L 145.12 201.28 L 147.34 200.44 L 149.58 199.61 L 151.86 198.79 L 154.17 197.97 L 156.51 197.17 L 158.88 196.40 L 161.27 195.66 L 163.66 194.99 L 166.05 194.38 L 168.43 193.87 L 170.79 193.45 L 173.15 193.14 L 175.50 192.93 L 177.85 192.82 L 180.20 192.80 L 182.55 192.86 L 184.90 192.98 L 187.25 193.17 L 189.60 193.40 L 191.94 193.67 L 194.27 193.97 L 196.60 194.28 L 198.91 194.61 L 201.21 194.93 L 203.50 195.25 L 205.79 195.57 L 208.08 195.89 L 210.35 196.24 L 212.61 196.63 L 214.85 197.08 L 217.05 197.61 L 219.21 198.25 L 221.32 199.02 L 223.38 199.92 L 225.37 200.98 L 227.29 202.19 L 229.14 203.56 L 230.91 205.07 L 232.61 206.73 L 234.23 208.51 L 235.78 210.39 L 237.26 212.36 L 238.67 214.40 L 240.03 216.49 L 241.35 218.60 L 242.64 220.73 L 243.91 222.85 L 245.16 224.95 L 246.40 227.04 L 247.64 229.11 L 248.89 231.15 L 250.14 233.17 L 251.42 235.18 L 252.72 237.18 L 254.05 239.19 L 255.41 241.20 L 256.80 243.21 L 258.22 245.24 L 259.66 247.27 L 261.12 249.32 L 262.60 251.37 L 264.10 253.43 L 265.61 255.50 L 267.14 257.57 L 268.70 259.62 L 270.29 261.65 L 271.93 263.65 L 273.62 265.59 L 275.39 267.46 L 277.23 269.25 L 279.15 270.94 L 281.15 272.55 L 283.21 274.07 L 285.33 275.51 L 287.49 276.88 L 289.67 278.20 L 291.87 279.48 L 294.07 280.73 L 296.26 281.95 L 298.43 283.15 L 300.58 284.33 L 302.73 285.46 L 304.88 286.55 L 307.03 287.57 L 309.21 288.51 L 311.42 289.36 L 313.67 290.12 L 315.96 290.79 L 318.28 291.37 L 320.65 291.89 L 323.02 292.36 L 325.40 292.80 L 327.75 293.25 L 330.06 293.75 L 332.28 294.33 L 334.39 295.03 L 336.34 295.86 L 338.10 296.83 L 339.62 297.95 L 340.89 299.20 L 341.91 300.53 L 342.60 302.03 L 342.82 303.66 L 342.51 305.31 L 341.74 306.84 L 340.69 308.23 L 339.47 309.57 L 338.06 310.80 L 336.46 311.92 L 334.68 312.91 L 332.75 313.80 L 330.69 314.63 L 328.49 315.43 L 326.17 316.24 L 323.73 317.09 L 321.19 318.00 L 318.53 318.96 L 315.77 319.96 L 312.91 320.99 L 309.97 322.00 L 306.96 322.94 L 303.90 323.76 L 300.83 324.40 L 297.79 324.81 L 294.81 324.95 L 291.92 324.79 L 289.15 324.34 L 286.49 323.65 L 283.93 322.77 L 281.44 321.80 L 278.98 320.85 L 276.50 319.99 L 273.99 319.29 Z" />
</symbol>
<symbol id="bl2">
<path d="M 339.77 174.08 L 340.88 177.43 L 341.98 180.80 L 343.10 184.17 L 344.22 187.55 L 345.34 190.94 L 346.47 194.33 L 347.59 197.72 L 348.71 201.11 L 349.82 204.47 L 350.91 207.81 L 351.99 211.13 L 353.04 214.41 L 354.06 217.67 L 355.07 220.90 L 356.04 224.11 L 356.98 227.30 L 357.89 230.48 L 358.75 233.67 L 359.54 236.85 L 360.25 240.04 L 360.84 243.25 L 361.30 246.45 L 361.59 249.67 L 361.68 252.87 L 361.55 256.06 L 361.20 259.22 L 360.59 262.33 L 359.74 265.37 L 358.65 268.33 L 357.30 271.18 L 355.72 273.90 L 353.92 276.48 L 351.90 278.91 L 349.67 281.18 L 347.27 283.26 L 344.70 285.17 L 342.00 286.89 L 339.17 288.43 L 336.24 289.79 L 333.24 290.99 L 330.19 292.02 L 327.09 292.92 L 323.96 293.71 L 320.81 294.40 L 317.66 295.02 L 314.49 295.60 L 311.32 296.17 L 308.14 296.74 L 304.96 297.35 L 301.78 298.00 L 298.59 298.69 L 295.40 299.42 L 292.22 300.19 L 289.04 300.98 L 285.87 301.78 L 282.71 302.56 L 279.55 303.31 L 276.40 304.03 L 273.25 304.72 L 270.10 305.38 L 266.95 306.02 L 263.81 306.66 L 260.66 307.30 L 257.51 307.97 L 254.35 308.67 L 251.20 309.38 L 248.04 310.11 L 244.89 310.83 L 241.73 311.52 L 238.58 312.16 L 235.44 312.72 L 232.30 313.20 L 229.18 313.58 L 226.06 313.87 L 222.95 314.10 L 219.84 314.27 L 216.74 314.41 L 213.64 314.55 L 210.55 314.69 L 207.46 314.85 L 204.37 315.03 L 201.29 315.23 L 198.22 315.44 L 195.14 315.66 L 192.08 315.87 L 189.01 316.07 L 185.94 316.25 L 182.88 316.41 L 179.81 316.53 L 176.74 316.61 L 173.67 316.65 L 170.59 316.62 L 167.51 316.53 L 164.40 316.38 L 161.27 316.18 L 158.11 315.95 L 154.92 315.72 L 151.69 315.54 L 148.45 315.44 L 145.19 315.47 L 141.94 315.63 L 138.71 315.95 L 135.51 316.41 L 132.34 316.98 L 129.18 317.63 L 126.03 318.31 L 122.86 318.98 L 119.65 319.59 L 116.42 320.13 L 113.16 320.54 L 109.88 320.82 L 106.60 320.94 L 103.35 320.89 L 100.15 320.65 L 97.00 320.21 L 93.90 319.57 L 90.86 318.72 L 87.87 317.64 L 84.92 316.33 L 82.01 314.78 L 79.15 313.00 L 76.35 310.99 L 73.65 308.77 L 71.07 306.37 L 68.64 303.80 L 66.40 301.11 L 64.36 298.32 L 62.55 295.44 L 60.96 292.49 L 59.60 289.47 L 58.48 286.40 L 57.58 283.29 L 56.89 280.14 L 56.43 276.96 L 56.17 273.77 L 56.12 270.59 L 56.28 267.42 L 56.65 264.27 L 57.23 261.16 L 58.02 258.08 L 59.05 255.02 L 60.32 252.00 L 61.85 249.00 L 63.66 246.04 L 65.74 243.13 L 68.10 240.28 L 70.74 237.54 L 73.64 234.94 L 76.78 232.53 L 80.11 230.33 L 83.62 228.38 L 87.25 226.71 L 90.96 225.34 L 94.70 224.27 L 98.44 223.49 L 102.15 223.02 L 105.78 222.83 L 109.34 222.91 L 112.81 223.24 L 116.17 223.81 L 119.44 224.58 L 122.62 225.54 L 125.71 226.66 L 128.75 227.91 L 131.75 229.24 L 134.76 230.59 L 137.79 231.92 L 140.88 233.14 L 144.05 234.18 L 147.30 234.97 L 150.64 235.45 L 154.05 235.59 L 157.48 235.34 L 160.91 234.71 L 164.26 233.69 L 167.48 232.30 L 170.51 230.57 L 173.31 228.54 L 175.81 226.21 L 178.05 223.69 L 180.01 221.02 L 181.69 218.27 L 183.11 215.48 L 184.25 212.70 L 185.13 209.95 L 185.60 207.18 L 185.56 204.44 L 185.10 201.76 L 184.34 199.09 L 183.25 196.44 L 181.86 193.80 L 180.22 191.15 L 178.37 188.51 L 176.36 185.85 L 174.22 183.19 L 171.98 180.51 L 169.65 177.82 L 167.28 175.11 L 164.87 172.38 L 162.44 169.62 L 160.01 166.81 L 157.60 163.96 L 155.22 161.06 L 152.89 158.10 L 150.62 155.08 L 148.42 152.00 L 146.32 148.85 L 144.31 145.65 L 142.43 142.39 L 140.68 139.08 L 139.06 135.71 L 137.59 132.29 L 136.26 128.83 L 135.08 125.31 L 134.05 121.75 L 133.17 118.14 L 132.44 114.49 L 131.86 110.81 L 131.44 107.09 L 131.18 103.34 L 131.07 99.58 L 131.12 95.81 L 131.32 92.05 L 131.68 88.29 L 132.18 84.57 L 132.84 80.88 L 133.65 77.23 L 134.61 73.64 L 135.71 70.11 L 136.96 66.64 L 138.34 63.25 L 139.86 59.93 L 141.53 56.70 L 143.32 53.54 L 145.24 50.48 L 147.30 47.49 L 149.47 44.59 L 151.76 41.78 L 154.17 39.06 L 156.69 36.43 L 159.32 33.90 L 162.05 31.46 L 164.88 29.13 L 167.80 26.91 L 170.80 24.81 L 173.90 22.84 L 177.06 20.99 L 180.31 19.28 L 183.62 17.71 L 186.99 16.28 L 190.43 14.99 L 193.93 13.84 L 197.47 12.85 L 201.06 12.00 L 204.70 11.30 L 208.36 10.74 L 212.06 10.34 L 215.77 10.10 L 219.50 10.00 L 223.23 10.06 L 226.95 10.27 L 230.66 10.63 L 234.34 11.14 L 237.99 11.81 L 241.60 12.62 L 245.16 13.57 L 248.67 14.66 L 252.11 15.88 L 255.48 17.23 L 258.78 18.70 L 261.99 20.30 L 265.12 22.00 L 268.16 23.83 L 271.11 25.76 L 273.96 27.81 L 276.72 29.98 L 279.39 32.26 L 281.97 34.65 L 284.46 37.16 L 286.85 39.77 L 289.14 42.48 L 291.34 45.28 L 293.42 48.16 L 295.40 51.13 L 297.27 54.16 L 299.03 57.25 L 300.67 60.40 L 302.21 63.59 L 303.65 66.82 L 305.00 70.08 L 306.27 73.37 L 307.48 76.69 L 308.65 80.03 L 309.78 83.39 L 310.90 86.77 L 312.01 90.17 L 313.12 93.57 L 314.24 96.98 L 315.38 100.39 L 316.52 103.79 L 317.68 107.18 L 318.83 110.57 L 319.99 113.94 L 321.14 117.29 L 322.28 120.64 L 323.41 123.98 L 324.53 127.31 L 325.64 130.63 L 326.75 133.96 L 327.85 137.29 L 328.94 140.62 L 330.02 143.96 L 331.10 147.30 L 332.18 150.64 L 333.26 153.98 L 334.34 157.33 L 335.41 160.68 L 336.50 164.03 L 337.58 167.38 L 338.67 170.73 Z" />
</symbol>
<symbol id="bl3">
<path d="M 484.42 288.31 L 484.56 292.40 L 484.44 296.49 L 484.09 300.55 L 483.51 304.54 L 482.72 308.43 L 481.73 312.18 L 480.57 315.76 L 479.27 319.15 L 477.83 322.34 L 476.27 325.33 L 474.59 328.14 L 472.80 330.78 L 470.88 333.28 L 468.84 335.66 L 466.66 337.94 L 464.35 340.12 L 461.92 342.21 L 459.39 344.19 L 456.77 346.05 L 454.08 347.77 L 451.33 349.35 L 448.55 350.77 L 445.74 352.03 L 442.90 353.14 L 440.02 354.10 L 437.11 354.92 L 434.15 355.60 L 431.16 356.14 L 428.12 356.55 L 425.04 356.83 L 421.90 356.99 L 418.72 357.04 L 415.50 356.97 L 412.24 356.81 L 408.96 356.56 L 405.68 356.24 L 402.43 355.86 L 399.21 355.44 L 396.03 355.00 L 392.90 354.54 L 389.81 354.10 L 386.75 353.68 L 383.71 353.29 L 380.68 352.94 L 377.66 352.62 L 374.64 352.32 L 371.62 352.05 L 368.61 351.77 L 365.61 351.47 L 362.62 351.12 L 359.66 350.71 L 356.71 350.19 L 353.80 349.54 L 350.92 348.73 L 348.07 347.74 L 345.25 346.55 L 342.44 345.16 L 339.63 343.56 L 336.79 341.77 L 333.89 339.81 L 330.93 337.71 L 327.88 335.49 L 324.74 333.17 L 321.52 330.79 L 318.24 328.36 L 314.90 325.91 L 311.52 323.46 L 308.10 321.05 L 304.65 318.69 L 301.16 316.45 L 297.63 314.33 L 294.05 312.38 L 290.43 310.60 L 286.77 308.99 L 283.09 307.52 L 279.38 306.18 L 275.67 304.93 L 271.97 303.74 L 268.28 302.58 L 264.61 301.45 L 260.95 300.33 L 257.31 299.23 L 253.67 298.15 L 250.02 297.12 L 246.35 296.14 L 242.64 295.24 L 238.89 294.43 L 235.10 293.74 L 231.25 293.15 L 227.37 292.68 L 223.45 292.32 L 219.53 292.03 L 215.60 291.80 L 211.68 291.60 L 207.80 291.40 L 203.96 291.16 L 200.18 290.86 L 196.46 290.45 L 192.83 289.90 L 189.29 289.16 L 185.86 288.21 L 182.56 287.03 L 179.38 285.62 L 176.34 283.98 L 173.43 282.15 L 170.67 280.15 L 168.06 278.02 L 165.61 275.78 L 163.32 273.44 L 161.20 270.99 L 159.26 268.44 L 157.48 265.77 L 155.85 262.98 L 154.33 260.09 L 152.87 257.11 L 151.44 254.04 L 149.98 250.93 L 148.49 247.77 L 146.99 244.59 L 145.50 241.41 L 144.10 238.22 L 142.87 235.04 L 141.90 231.88 L 141.22 228.76 L 140.75 225.70 L 140.80 222.64 L 141.64 219.83 L 143.28 217.42 L 145.57 215.59 L 148.36 214.49 L 151.46 214.30 L 154.56 214.49 L 157.69 214.94 L 160.81 215.72 L 163.86 216.81 L 166.80 218.17 L 169.61 219.71 L 172.33 221.34 L 174.48 223.54 L 176.41 225.88 L 178.22 228.27 L 179.89 230.75 L 181.46 233.29 L 183.00 235.86 L 184.57 238.42 L 186.23 240.91 L 188.02 243.31 L 189.97 245.56 L 192.12 247.63 L 194.45 249.50 L 196.98 251.13 L 199.69 252.50 L 202.56 253.58 L 205.58 254.34 L 208.70 254.77 L 211.91 254.85 L 215.14 254.57 L 218.36 253.93 L 221.52 252.93 L 224.57 251.59 L 227.49 249.93 L 230.24 248.01 L 232.82 245.84 L 235.21 243.48 L 237.44 240.97 L 239.52 238.36 L 241.47 235.68 L 243.32 232.97 L 245.07 230.25 L 246.75 227.53 L 248.36 224.81 L 249.90 222.08 L 251.36 219.35 L 252.74 216.60 L 254.04 213.82 L 255.23 211.01 L 256.29 208.14 L 257.24 205.22 L 258.09 202.26 L 258.87 199.26 L 259.63 196.22 L 260.41 193.17 L 261.30 190.14 L 262.34 187.16 L 263.59 184.27 L 265.08 181.50 L 266.81 178.87 L 268.77 176.43 L 270.95 174.18 L 273.33 172.14 L 275.87 170.35 L 278.55 168.81 L 281.34 167.56 L 284.22 166.61 L 287.16 165.97 L 290.15 165.66 L 293.14 165.67 L 296.11 166.01 L 299.02 166.66 L 301.83 167.61 L 304.53 168.85 L 307.08 170.37 L 309.45 172.13 L 311.62 174.11 L 313.57 176.29 L 315.29 178.64 L 316.75 181.14 L 317.94 183.77 L 318.85 186.50 L 319.48 189.31 L 319.82 192.18 L 319.87 195.07 L 319.61 197.97 L 319.07 200.84 L 318.23 203.66 L 317.12 206.41 L 315.75 209.07 L 314.13 211.62 L 312.31 214.06 L 310.31 216.41 L 308.17 218.68 L 305.96 220.91 L 303.72 223.13 L 301.50 225.38 L 299.33 227.69 L 297.23 230.08 L 295.21 232.56 L 293.27 235.13 L 291.40 237.79 L 289.58 240.50 L 287.80 243.23 L 286.06 245.96 L 284.37 248.66 L 282.78 251.32 L 281.35 253.95 L 280.11 256.54 L 279.08 259.09 L 278.24 261.61 L 278.01 264.19 L 278.81 266.66 L 280.10 268.90 L 281.58 271.09 L 283.32 273.19 L 285.30 275.17 L 287.49 277.04 L 289.86 278.79 L 292.35 280.43 L 294.95 281.98 L 297.63 283.44 L 300.38 284.82 L 303.20 286.10 L 306.08 287.28 L 309.03 288.34 L 312.05 289.25 L 315.12 289.98 L 318.24 290.53 L 321.40 290.85 L 324.57 290.94 L 327.75 290.79 L 330.91 290.38 L 334.02 289.71 L 337.07 288.78 L 340.02 287.61 L 342.85 286.19 L 345.56 284.55 L 348.12 282.69 L 350.52 280.63 L 352.77 278.41 L 354.86 276.05 L 356.82 273.57 L 358.67 271.01 L 360.44 268.40 L 362.16 265.77 L 363.86 263.14 L 365.57 260.53 L 367.33 257.98 L 369.15 255.48 L 371.05 253.06 L 373.03 250.72 L 375.11 248.47 L 377.27 246.33 L 379.51 244.28 L 381.84 242.35 L 384.24 240.54 L 386.71 238.84 L 389.25 237.27 L 391.86 235.82 L 394.53 234.49 L 397.27 233.30 L 400.07 232.23 L 402.96 231.30 L 405.94 230.52 L 409.03 229.88 L 412.25 229.40 L 415.60 229.09 L 419.10 228.97 L 422.74 229.04 L 426.50 229.33 L 430.35 229.84 L 434.27 230.59 L 438.20 231.58 L 442.12 232.82 L 445.99 234.29 L 449.78 236.02 L 453.46 237.98 L 457.01 240.17 L 460.39 242.60 L 463.61 245.24 L 466.63 248.09 L 469.43 251.13 L 472.02 254.34 L 474.37 257.70 L 476.49 261.20 L 478.36 264.82 L 479.99 268.54 L 481.38 272.36 L 482.51 276.25 L 483.40 280.22 L 484.04 284.24 Z" />
</symbol>
<symbol id="bl4">
<path d="M 473.04 449.80 L 470.17 452.57 L 467.25 455.10 L 464.32 457.40 L 461.39 459.49 L 458.48 461.40 L 455.57 463.18 L 452.65 464.85 L 449.70 466.43 L 446.71 467.95 L 443.66 469.42 L 440.57 470.85 L 437.42 472.24 L 434.22 473.59 L 430.97 474.89 L 427.67 476.15 L 424.33 477.36 L 420.95 478.52 L 417.53 479.64 L 414.07 480.70 L 410.59 481.70 L 407.07 482.65 L 403.53 483.55 L 399.97 484.40 L 396.39 485.18 L 392.79 485.92 L 389.17 486.59 L 385.53 487.20 L 381.88 487.76 L 378.22 488.26 L 374.55 488.69 L 370.87 489.07 L 367.18 489.38 L 363.48 489.63 L 359.78 489.82 L 356.07 489.94 L 352.36 490.00 L 348.65 489.99 L 344.93 489.91 L 341.21 489.77 L 337.49 489.56 L 333.77 489.28 L 330.05 488.94 L 326.32 488.53 L 322.60 488.05 L 318.88 487.52 L 315.17 486.91 L 311.45 486.25 L 307.74 485.52 L 304.03 484.72 L 300.33 483.87 L 296.63 482.95 L 292.94 481.97 L 289.26 480.93 L 285.58 479.82 L 281.92 478.65 L 278.26 477.42 L 274.62 476.12 L 270.99 474.76 L 267.38 473.35 L 263.79 471.87 L 260.21 470.34 L 256.66 468.75 L 253.13 467.10 L 249.62 465.40 L 246.14 463.63 L 242.70 461.81 L 239.29 459.93 L 235.92 457.99 L 232.59 456.01 L 229.30 453.98 L 226.06 451.89 L 222.87 449.76 L 219.73 447.58 L 216.66 445.35 L 213.64 443.07 L 210.70 440.75 L 207.82 438.38 L 205.02 435.98 L 202.30 433.55 L 199.66 431.08 L 197.11 428.59 L 194.65 426.06 L 192.29 423.51 L 190.02 420.92 L 187.86 418.30 L 185.80 415.63 L 183.86 412.93 L 182.02 410.19 L 180.30 407.40 L 178.70 404.58 L 177.22 401.72 L 175.86 398.83 L 174.62 395.91 L 173.52 392.96 L 172.54 389.97 L 171.69 386.95 L 170.96 383.90 L 170.37 380.81 L 169.91 377.70 L 169.58 374.57 L 169.37 371.42 L 169.29 368.24 L 169.33 365.06 L 169.49 361.86 L 169.77 358.63 L 170.16 355.39 L 170.65 352.12 L 171.25 348.83 L 171.94 345.51 L 172.71 342.17 L 173.58 338.81 L 174.51 335.42 L 175.52 332.00 L 176.60 328.56 L 177.73 325.09 L 178.92 321.58 L 180.15 318.04 L 181.41 314.48 L 182.70 310.90 L 183.98 307.31 L 185.25 303.75 L 186.47 300.21 L 187.60 296.70 L 188.60 293.22 L 189.46 289.77 L 190.14 286.32 L 190.62 282.88 L 190.91 279.42 L 191.01 275.95 L 190.95 272.48 L 190.73 269.03 L 190.36 265.62 L 189.86 262.28 L 189.19 259.05 L 188.35 255.94 L 187.30 253.00 L 186.05 250.23 L 184.58 247.64 L 182.90 245.24 L 181.03 243.02 L 179.03 240.95 L 176.94 239.00 L 174.82 237.12 L 172.74 235.27 L 170.72 233.41 L 168.78 231.50 L 166.87 229.55 L 165.23 227.30 L 164.48 224.65 L 164.39 221.88 L 164.35 219.09 L 164.39 216.29 L 164.54 213.52 L 164.83 210.79 L 165.24 208.13 L 165.73 205.53 L 166.48 202.98 L 167.72 200.69 L 169.53 198.81 L 171.80 197.43 L 174.47 196.67 L 177.27 196.33 L 180.15 196.00 L 183.09 195.72 L 186.10 195.53 L 189.16 195.43 L 192.23 195.42 L 195.31 195.49 L 198.37 195.65 L 201.41 195.90 L 204.42 196.25 L 207.40 196.72 L 210.34 197.30 L 213.24 198.00 L 216.10 198.82 L 218.92 199.76 L 221.69 200.83 L 224.42 202.01 L 227.11 203.32 L 229.75 204.75 L 232.35 206.29 L 234.90 207.94 L 237.42 209.67 L 239.91 211.45 L 242.40 213.24 L 244.95 214.92 L 247.53 216.52 L 250.15 218.00 L 252.83 219.33 L 255.56 220.51 L 258.37 221.55 L 261.24 222.46 L 264.19 223.16 L 267.20 223.75 L 270.27 224.22 L 273.39 224.59 L 276.54 224.86 L 279.71 225.01 L 282.89 225.06 L 286.05 224.99 L 289.20 224.79 L 292.32 224.45 L 295.42 223.97 L 298.50 223.34 L 301.58 222.59 L 304.65 221.75 L 307.73 220.87 L 310.81 220.02 L 313.90 219.25 L 316.99 218.63 L 320.07 218.18 L 323.12 217.94 L 326.14 217.92 L 329.11 218.14 L 332.02 218.60 L 334.84 219.28 L 337.58 220.18 L 340.23 221.30 L 342.77 222.63 L 345.20 224.17 L 347.50 225.90 L 349.67 227.84 L 351.69 229.96 L 353.56 232.26 L 355.25 234.74 L 356.74 237.38 L 358.02 240.17 L 359.08 243.10 L 359.89 246.13 L 360.44 249.25 L 360.72 252.43 L 360.74 255.63 L 360.48 258.83 L 359.96 262.00 L 359.19 265.12 L 358.16 268.18 L 356.91 271.16 L 355.45 274.05 L 353.80 276.85 L 351.99 279.56 L 350.04 282.19 L 348.00 284.74 L 345.90 287.21 L 343.77 289.61 L 341.68 291.93 L 339.66 294.17 L 337.74 296.33 L 335.94 298.41 L 334.28 300.42 L 333.33 302.56 L 333.32 304.70 L 334.26 306.68 L 335.55 308.51 L 337.06 310.36 L 338.85 312.20 L 340.89 314.05 L 343.15 315.88 L 345.58 317.69 L 348.14 319.49 L 350.78 321.27 L 353.47 323.03 L 356.16 324.79 L 358.85 326.56 L 361.50 328.36 L 364.11 330.18 L 366.68 332.05 L 369.21 333.95 L 371.72 335.88 L 374.25 337.83 L 376.81 339.79 L 379.43 341.73 L 382.12 343.65 L 384.90 345.53 L 387.76 347.35 L 390.69 349.11 L 393.67 350.79 L 396.69 352.41 L 399.72 353.97 L 402.74 355.46 L 405.75 356.92 L 408.73 358.35 L 411.68 359.75 L 414.61 361.15 L 417.52 362.54 L 420.41 363.94 L 423.31 365.36 L 426.23 366.81 L 429.19 368.31 L 432.20 369.85 L 435.27 371.45 L 438.40 373.12 L 441.56 374.84 L 444.75 376.61 L 447.94 378.43 L 451.10 380.28 L 454.20 382.17 L 457.24 384.10 L 460.21 386.07 L 463.09 388.11 L 465.91 390.25 L 468.66 392.50 L 471.34 394.92 L 473.94 397.52 L 476.42 400.35 L 478.75 403.40 L 480.85 406.66 L 482.66 410.13 L 484.11 413.77 L 485.12 417.53 L 485.65 421.37 L 485.66 425.24 L 485.14 429.09 L 484.11 432.88 L 482.59 436.59 L 480.65 440.16 L 478.36 443.58 L 475.79 446.80 Z" />
</symbol>
</defs>
<!-- isDone: 0 -->
<rect width="700" height="500" style="fill:#fff;stroke-width:0" />
<use class="p0 borderLine" xlink:href="#bl0"/>
<use class="p1 borderLine" xlink:href="#bl1"/>
<use class="p2 borderLine" xlink:href="#bl2"/>
<use class="p3 borderLine" xlink:href="#bl3"/>
<use class="p4 borderLine" xlink:href="#bl4"/>
<use class="q0 outLine" xlink:href="#bl0"/>
<use class="q1 outLine" xlink:href="#bl1"/>
<use class="q2 outLine" xlink:href="#bl2"/>
<use class="q3 outLine" xlink:href="#bl3"/>
<use class="q4 outLine" xlink:href="#bl4"/>
<circle onclick="fromCircle(16)" class="circle" cx="135.5868" cy="354.2040" r="11.7341" />
<text class="nLabel" x="135.59" y="349.20">66</text>
<text class="belong" x="135.59" y="359.20">(1)</text>
<circle onclick="fromCircle(24)" class="circle" cx="142.3195" cy="325.7443" r="7.7782" />
<text class="nLabel" x="142.32" y="320.74">29</text>
<text class="belong" x="142.32" y="330.74">(1, 2)</text>
<circle onclick="fromCircle(28)" class="circle" cx="167.9653" cy="301.0536" r="11.6449" />
<text class="nLabel" x="167.97" y="296.05">65</text>
<text class="belong" x="167.97" y="306.05">(1, 2, 3)</text>
<circle onclick="fromCircle(30)" class="circle" cx="184.1331" cy="281.4124" r="4.7132" />
<text class="nLabel" x="184.13" y="276.41">4</text>
<text class="belong" x="184.13" y="286.41">(1, 2, 3, 4)</text>
<circle onclick="fromCircle(8)" class="circle" cx="44.3746" cy="328.1128" r="27.7454" />
<text class="nLabel" x="44.37" y="323.11">369</text>
<text class="belong" x="44.37" y="333.11">(2)</text>
<circle onclick="fromCircle(12)" class="circle" cx="104.5917" cy="271.6174" r="45.9028" />
<text class="nLabel" x="104.59" y="266.62">1010</text>
<text class="belong" x="104.59" y="276.62">(2, 3)</text>
<circle onclick="fromCircle(14)" class="circle" cx="170.1324" cy="255.2226" r="14.3713" />
<text class="nLabel" x="170.13" y="250.22">99</text>
<text class="belong" x="170.13" y="260.22">(2, 3, 4)</text>
<circle onclick="fromCircle(15)" class="circle" cx="198.9646" cy="263.0517" r="4.7132" />
<text class="nLabel" x="198.96" y="258.05">9</text>
<text class="belong" x="198.96" y="268.05">(2, 3, 4, 5)</text>
<circle onclick="fromCircle(10)" class="circle" cx="150.4569" cy="224.0947" r="9.6891" />
<text class="nLabel" x="150.46" y="219.09">45</text>
<text class="belong" x="150.46" y="229.09">(2, 4)</text>
<circle onclick="fromCircle(11)" class="circle" cx="169.5157" cy="225.1997" r="4.7132" />
<text class="nLabel" x="169.52" y="220.20">1</text>
<text class="belong" x="169.52" y="230.20">(2, 4, 5)</text>
<circle onclick="fromCircle(9)" class="circle" cx="175.7045" cy="206.5179" r="9.7962" />
<text class="nLabel" x="175.70" y="201.52">46</text>
<text class="belong" x="175.70" y="211.52">(2, 5)</text>
<circle onclick="fromCircle(13)" class="circle" cx="211.2094" cy="226.7972" r="26.0387" />
<text class="nLabel" x="211.21" y="221.80">325</text>
<text class="belong" x="211.21" y="231.80">(2, 3, 5)</text>
<circle onclick="fromCircle(4)" class="circle" cx="220.0107" cy="97.7630" r="85.6573" />
<text class="nLabel" x="220.01" y="92.76">3517</text>
<text class="belong" x="220.01" y="102.76">(3)</text>
<circle onclick="fromCircle(20)" class="circle" cx="247.8579" cy="206.7834" r="8.0419" />
<text class="nLabel" x="247.86" y="201.78">31</text>
<text class="belong" x="247.86" y="211.78">(1, 3)</text>
<circle onclick="fromCircle(22)" class="circle" cx="262.0128" cy="217.4263" r="4.7132" />
<text class="nLabel" x="262.01" y="212.43">3</text>
<text class="belong" x="262.01" y="222.43">(1, 3, 4)</text>
<circle onclick="fromCircle(6)" class="circle" cx="291.0763" cy="194.0890" r="27.3288" />
<text class="nLabel" x="291.08" y="189.09">358</text>
<text class="belong" x="291.08" y="199.09">(3, 4)</text>
<circle onclick="fromCircle(7)" class="circle" cx="281.0544" cy="236.9390" r="6.7747" />
<text class="nLabel" x="281.05" y="231.94">22</text>
<text class="belong" x="281.05" y="241.94">(3, 4, 5)</text>
<circle onclick="fromCircle(5)" class="circle" cx="325.2750" cy="254.2119" r="33.7501" />
<text class="nLabel" x="325.28" y="249.21">546</text>
<text class="belong" x="325.28" y="259.21">(3, 5)</text>
<circle onclick="fromCircle(21)" class="circle" cx="282.7718" cy="263.6342" r="4.7132" />
<text class="nLabel" x="282.77" y="258.63">6</text>
<text class="belong" x="282.77" y="268.63">(1, 3, 5)</text>
<circle onclick="fromCircle(2)" class="circle" cx="422.5860" cy="292.8176" r="60.4913" />
<text class="nLabel" x="422.59" y="287.82">1754</text>
<text class="belong" x="422.59" y="297.82">(4)</text>
<circle onclick="fromCircle(18)" class="circle" cx="350.0342" cy="312.1934" r="4.7132" />
<text class="nLabel" x="350.03" y="307.19">4</text>
<text class="belong" x="350.03" y="317.19">(1, 4)</text>
<circle onclick="fromCircle(26)" class="circle" cx="338.0422" cy="303.5462" r="4.7132" />
<text class="nLabel" x="338.04" y="298.55">2</text>
<text class="belong" x="338.04" y="308.55">(1, 2, 4)</text>
<circle onclick="fromCircle(3)" class="circle" cx="352.0729" cy="336.6185" r="9.1350" />
<text class="nLabel" x="352.07" y="331.62">40</text>
<text class="belong" x="352.07" y="341.62">(4, 5)</text>
<circle onclick="fromCircle(1)" class="circle" cx="245.0440" cy="389.5847" r="23.6012" />
<text class="nLabel" x="245.04" y="384.58">267</text>
<text class="belong" x="245.04" y="394.58">(5)</text>
<circle onclick="fromCircle(17)" class="circle" cx="273.6793" cy="327.2562" r="4.7132" />
<text class="nLabel" x="273.68" y="322.26">5</text>
<text class="belong" x="273.68" y="332.26">(1, 5)</text>
<circle onclick="fromCircle(25)" class="circle" cx="290.8707" cy="318.3392" r="4.7132" />
<text class="nLabel" x="290.87" y="313.34">4</text>
<text class="belong" x="290.87" y="323.34">(1, 2, 5)</text>
<circle onclick="fromCircle(29)" class="circle" cx="230.6236" cy="303.2122" r="6.2959" />
<text class="nLabel" x="230.62" y="298.21">19</text>
<text class="belong" x="230.62" y="308.21">(1, 2, 3, 5)</text>
<g id="legendBox">
<rect class="p0 borderLine" x="500.00" y="50.00" width="30.00" height="15.00" />
<rect class="q0" x="500.00" y="50.00" width="30.00" height="15.00" />
<text class="legend" x="540.00" y="65.00">Dux regulated</text>
<rect class="p1 borderLine" x="500.00" y="90.00" width="30.00" height="15.00" />
<rect class="q1" x="500.00" y="90.00" width="30.00" height="15.00" />
<text class="legend" x="540.00" y="105.00">Obox regulated</text>
<rect class="p2 borderLine" x="500.00" y="130.00" width="30.00" height="15.00" />
<rect class="q2" x="500.00" y="130.00" width="30.00" height="15.00" />
<text class="legend" x="540.00" y="145.00">NRs regulated</text>
<rect class="p3 borderLine" x="500.00" y="170.00" width="30.00" height="15.00" />
<rect class="q3" x="500.00" y="170.00" width="30.00" height="15.00" />
<text class="legend" x="540.00" y="185.00">Mathernal</text>
<rect class="p4 borderLine" x="500.00" y="210.00" width="30.00" height="15.00" />
<rect class="q4" x="500.00" y="210.00" width="30.00" height="15.00" />
<text class="legend" x="540.00" y="225.00">ZGA genes</text>
</g>
</svg>
