<svg xmlns="http://www.w3.org/2000/svg" xmlns:xlink="http://www.w3.org/1999/xlink" width="700" height="500">
<defs>
<style type="text/css"><![CDATA[
  .borderLine {
	   stroke: none;
	   fill-opacity:  0.4 ;
  }
  .outLine {
	   stroke-width:  1 ;
	   fill: none;
  }
  .circle {
	   stroke: #888888;
	   stroke-width: 0.5;
	   fill: none;
    pointer-events: all;
  }
  .nLabel {
	   font-family: Arial;
    pointer-events: none;
	   font-size: 10px;
	   text-anchor: middle;
	   alignment-baseline: central;
  }
  .belong {
	   font-family: Arial;
    pointer-events: none;
	   font-size: 5px;
	   text-anchor: middle;
	   alignment-baseline: central;
  }
  .legend {
    font-family: Arial;
    font-size: 15px;
  }
  #legendBox {
    display:  inline ;
  }
  .p0{
    stroke: none;
    fill: #e6194b;
  }
  .q0{
    fill: none;
    stroke: #e6194b;
  }
  .p1{
    stroke: none;
    fill: #3cb44b;
  }
  .q1{
    fill: none;
    stroke: #3cb44b;
  }
  .p2{
    stroke: none;
    fill: #ffe119;
  }
  .q2{
    fill: none;
    stroke: #ffe119;
  }
  .p3{
    stroke: none;
    fill: #0082c8;
  }
  .q3{
    fill: none;
    stroke: #0082c8;
  }
  .p4{
    stroke: none;
    fill: #f58231;
  }
  .q4{
    fill: none;
    stroke: #f58231;
  }
]]>
</style>
<symbol id="bl0">
<path d="M 304.81 326.19 L 302.07 327.74 L 299.36 329.31 L 296.68 330.92 L 294.05 332.59 L 291.50 334.33 L 289.03 336.18 L 286.66 338.14 L 284.38 340.22 L 282.20 342.43 L 280.10 344.76 L 278.04 347.18 L 276.00 349.67 L 273.95 352.22 L 271.89 354.80 L 269.83 357.43 L 267.44 359.81 L 264.72 361.81 L 261.98 363.83 L 259.19 365.80 L 256.32 367.70 L 253.38 369.54 L 250.39 371.33 L 247.37 373.07 L 244.31 374.80 L 241.25 376.51 L 238.18 378.22 L 235.10 379.94 L 232.04 381.67 L 229.00 383.42 L 225.97 385.19 L 222.97 386.98 L 220.00 388.79 L 217.05 390.62 L 214.13 392.47 L 211.24 394.34 L 208.35 396.22 L 205.49 398.11 L 202.63 400.00 L 199.77 401.90 L 196.91 403.79 L 194.05 405.68 L 191.18 407.56 L 188.30 409.41 L 185.40 411.23 L 182.48 413.00 L 179.53 414.69 L 176.53 416.29 L 173.49 417.76 L 170.40 419.10 L 167.28 420.30 L 164.11 421.34 L 160.87 422.21 L 157.59 422.84 L 154.28 423.19 L 150.96 423.29 L 147.64 423.09 L 144.35 422.62 L 141.11 421.92 L 137.94 420.92 L 134.86 419.67 L 131.88 418.18 L 129.04 416.45 L 126.34 414.50 L 123.80 412.34 L 121.47 409.95 L 119.32 407.40 L 117.38 404.68 L 115.69 401.79 L 114.24 398.78 L 112.98 395.69 L 111.90 392.54 L 110.95 389.33 L 110.13 386.09 L 109.45 382.79 L 108.88 379.46 L 108.40 376.11 L 107.98 372.74 L 107.62 369.36 L 107.28 365.97 L 106.97 362.57 L 106.67 359.17 L 106.38 355.77 L 106.10 352.37 L 105.84 348.97 L 105.62 345.57 L 105.46 342.19 L 105.37 338.83 L 105.38 335.49 L 105.51 332.20 L 105.74 328.96 L 106.03 325.78 L 106.48 322.65 L 107.43 319.66 L 108.94 316.92 L 110.93 314.50 L 113.39 312.49 L 116.18 310.88 L 119.02 309.42 L 121.92 308.02 L 124.86 306.68 L 127.83 305.35 L 130.79 303.97 L 133.68 302.51 L 136.47 300.94 L 139.12 299.18 L 141.50 297.10 L 143.54 294.70 L 145.24 292.05 L 146.65 289.23 L 147.84 286.28 L 148.79 283.21 L 149.52 280.04 L 150.08 276.80 L 150.51 273.52 L 150.87 270.25 L 151.22 266.99 L 151.61 263.79 L 152.09 260.66 L 152.68 257.62 L 153.41 254.69 L 154.31 251.87 L 155.38 249.17 L 156.62 246.60 L 158.03 244.14 L 159.60 241.79 L 161.31 239.54 L 163.14 237.37 L 165.06 235.28 L 167.04 233.24 L 169.03 231.23 L 171.00 229.23 L 172.91 227.21 L 174.72 225.16 L 176.39 223.05 L 177.89 220.87 L 179.20 218.59 L 180.30 216.20 L 181.18 213.71 L 181.83 211.11 L 182.27 208.41 L 182.50 205.63 L 182.56 202.79 L 182.46 199.89 L 182.22 196.96 L 181.86 194.01 L 181.39 191.04 L 180.84 188.08 L 180.18 185.14 L 179.43 182.21 L 178.58 179.32 L 177.61 176.49 L 176.50 173.71 L 175.25 171.01 L 173.85 168.37 L 172.30 165.81 L 170.59 163.33 L 168.80 160.89 L 166.96 158.47 L 165.10 156.05 L 163.29 153.61 L 161.58 151.12 L 160.01 148.57 L 158.63 145.95 L 157.46 143.25 L 156.49 140.50 L 155.79 137.68 L 155.34 134.80 L 155.17 131.87 L 155.32 128.95 L 155.77 126.04 L 156.55 123.19 L 157.64 120.43 L 159.05 117.81 L 160.72 115.34 L 162.68 113.07 L 164.86 111.02 L 167.27 109.23 L 169.85 107.71 L 172.60 106.51 L 175.43 105.60 L 178.33 105.03 L 181.24 104.76 L 184.14 104.82 L 186.98 105.18 L 189.74 105.85 L 192.38 106.78 L 194.91 107.96 L 197.29 109.41 L 199.52 111.07 L 201.58 112.97 L 203.51 115.01 L 205.34 117.18 L 207.10 119.46 L 208.76 121.87 L 210.33 124.39 L 211.83 126.99 L 213.26 129.67 L 214.64 132.39 L 215.99 135.15 L 217.32 137.93 L 218.64 140.72 L 219.95 143.51 L 221.28 146.30 L 222.63 149.07 L 223.99 151.82 L 225.38 154.55 L 226.77 157.26 L 228.17 159.94 L 229.56 162.60 L 230.91 165.25 L 232.21 167.89 L 233.44 170.52 L 234.57 173.17 L 235.60 175.82 L 236.53 178.49 L 237.37 181.17 L 238.14 183.86 L 238.85 186.55 L 239.53 189.24 L 240.21 191.92 L 240.92 194.60 L 241.68 197.26 L 242.52 199.89 L 243.47 202.48 L 244.56 205.01 L 245.80 207.45 L 247.21 209.76 L 248.78 211.92 L 250.53 213.89 L 252.43 215.64 L 254.48 217.13 L 256.66 218.36 L 258.94 219.31 L 261.31 219.98 L 263.75 220.37 L 266.23 220.50 L 268.73 220.39 L 271.25 220.07 L 273.77 219.56 L 276.29 218.92 L 278.81 218.19 L 281.32 217.42 L 283.84 216.65 L 286.37 215.94 L 288.91 215.32 L 291.47 214.83 L 294.05 214.51 L 296.65 214.37 L 299.27 214.41 L 301.93 214.65 L 304.62 215.10 L 307.36 215.70 L 310.17 216.43 L 313.04 217.28 L 315.97 218.23 L 318.98 219.24 L 322.05 220.31 L 325.18 221.41 L 328.35 222.54 L 331.55 223.70 L 334.76 224.88 L 337.98 226.09 L 341.19 227.33 L 344.38 228.63 L 347.52 230.01 L 350.59 231.48 L 353.57 233.06 L 356.46 234.77 L 359.26 236.57 L 362.00 238.51 L 364.52 240.68 L 366.72 243.12 L 368.64 245.79 L 370.23 248.65 L 371.47 251.66 L 372.32 254.79 L 372.83 258.00 L 372.95 261.25 L 372.70 264.49 L 372.08 267.68 L 371.08 270.78 L 369.72 273.76 L 368.01 276.59 L 365.95 279.23 L 363.62 281.64 L 361.23 283.97 L 358.80 286.26 L 356.32 288.49 L 353.80 290.66 L 351.26 292.79 L 348.72 294.88 L 346.20 296.95 L 343.69 299.00 L 341.21 301.05 L 338.74 303.09 L 336.27 305.12 L 333.80 307.12 L 331.31 309.09 L 328.80 311.03 L 326.27 312.91 L 323.69 314.75 L 321.08 316.52 L 318.43 318.23 L 315.75 319.90 L 313.04 321.51 L 310.31 323.09 L 307.56 324.65 Z" />
</symbol>
<symbol id="bl1">
<path d="M 260.64 331.11 L 258.19 331.02 L 255.71 331.12 L 253.22 331.43 L 250.72 331.92 L 248.23 332.56 L 245.75 333.30 L 243.29 334.08 L 240.84 334.84 L 238.41 335.52 L 235.99 336.10 L 233.60 336.56 L 231.20 336.76 L 228.83 336.82 L 226.47 336.78 L 224.11 336.66 L 221.75 336.50 L 219.36 336.31 L 216.97 336.15 L 214.56 336.01 L 212.15 335.92 L 209.75 335.86 L 207.38 335.84 L 205.05 335.85 L 202.78 335.89 L 200.56 335.94 L 198.38 336.00 L 196.25 336.07 L 194.12 336.14 L 192.00 336.22 L 189.86 336.30 L 187.67 336.39 L 185.43 336.48 L 183.12 336.57 L 180.73 336.68 L 178.27 336.78 L 175.75 336.89 L 173.19 337.01 L 170.59 337.13 L 167.99 337.25 L 165.38 337.38 L 162.77 337.52 L 160.16 337.68 L 157.56 337.87 L 154.96 338.09 L 152.37 338.35 L 149.79 338.67 L 147.25 339.04 L 144.75 339.48 L 142.30 339.97 L 139.91 340.51 L 137.57 341.07 L 135.29 341.64 L 133.04 342.19 L 130.82 342.67 L 128.62 343.05 L 126.44 343.30 L 124.27 343.38 L 122.14 343.27 L 120.05 342.97 L 118.01 342.45 L 116.04 341.73 L 114.17 340.80 L 112.39 339.68 L 110.70 338.40 L 109.10 336.97 L 107.59 335.42 L 106.16 333.77 L 104.79 332.04 L 103.48 330.26 L 102.19 328.42 L 100.94 326.56 L 99.70 324.67 L 98.48 322.77 L 97.26 320.87 L 96.05 318.96 L 94.84 317.05 L 93.63 315.14 L 92.42 313.23 L 91.20 311.32 L 89.99 309.41 L 88.77 307.50 L 87.55 305.60 L 86.33 303.69 L 85.10 301.78 L 83.88 299.87 L 82.66 297.97 L 81.44 296.06 L 80.22 294.16 L 79.00 292.26 L 77.80 290.36 L 76.59 288.46 L 75.39 286.55 L 74.20 284.64 L 73.02 282.73 L 71.85 280.81 L 70.69 278.88 L 69.55 276.94 L 68.44 274.98 L 67.36 273.00 L 66.33 271.00 L 65.36 268.98 L 64.47 266.92 L 63.68 264.84 L 63.01 262.72 L 62.48 260.57 L 62.10 258.39 L 61.87 256.19 L 61.82 253.98 L 61.93 251.77 L 62.20 249.56 L 62.62 247.36 L 63.17 245.17 L 63.83 243.00 L 64.60 240.84 L 65.44 238.71 L 66.35 236.58 L 67.31 234.47 L 68.30 232.36 L 69.33 230.26 L 70.37 228.16 L 71.43 226.07 L 72.50 223.97 L 73.58 221.87 L 74.66 219.77 L 75.76 217.67 L 76.86 215.56 L 77.97 213.47 L 79.08 211.38 L 80.21 209.30 L 81.36 207.24 L 82.52 205.20 L 83.71 203.18 L 84.92 201.18 L 86.16 199.21 L 87.42 197.26 L 88.70 195.33 L 90.00 193.41 L 91.31 191.49 L 92.63 189.58 L 93.95 187.67 L 95.26 185.76 L 96.58 183.85 L 97.90 181.94 L 99.22 180.04 L 100.55 178.15 L 101.89 176.26 L 103.24 174.40 L 104.62 172.56 L 106.03 170.74 L 107.47 168.96 L 108.96 167.23 L 110.50 165.54 L 112.10 163.92 L 113.77 162.38 L 115.51 160.93 L 117.32 159.60 L 119.20 158.39 L 121.17 157.34 L 123.23 156.48 L 125.34 155.78 L 127.50 155.25 L 129.71 154.88 L 131.95 154.66 L 134.21 154.57 L 136.48 154.60 L 138.76 154.71 L 141.03 154.89 L 143.30 155.11 L 145.56 155.37 L 147.81 155.65 L 150.05 155.95 L 152.28 156.28 L 154.50 156.65 L 156.71 157.07 L 158.90 157.56 L 161.05 158.15 L 163.17 158.84 L 165.22 159.67 L 167.18 160.65 L 169.05 161.78 L 170.78 163.08 L 172.38 164.54 L 173.83 166.15 L 175.13 167.90 L 176.29 169.77 L 177.33 171.74 L 178.27 173.79 L 179.13 175.89 L 179.96 178.02 L 180.76 180.19 L 181.58 182.36 L 182.42 184.52 L 183.31 186.68 L 184.25 188.82 L 185.25 190.92 L 186.30 193.00 L 187.41 195.03 L 188.57 197.02 L 189.76 198.98 L 190.99 200.91 L 192.24 202.81 L 193.51 204.70 L 194.80 206.58 L 196.09 208.45 L 197.41 210.33 L 198.73 212.21 L 200.06 214.09 L 201.40 215.97 L 202.76 217.86 L 204.12 219.74 L 205.50 221.61 L 206.90 223.47 L 208.33 225.29 L 209.80 227.07 L 211.33 228.80 L 212.92 230.44 L 214.58 231.98 L 216.34 233.39 L 218.18 234.65 L 220.11 235.73 L 222.13 236.63 L 224.24 237.32 L 226.41 237.80 L 228.63 238.07 L 230.90 238.16 L 233.19 238.08 L 235.50 237.88 L 237.81 237.58 L 240.11 237.24 L 242.41 236.90 L 244.70 236.59 L 246.97 236.34 L 249.24 236.19 L 251.49 236.14 L 253.72 236.22 L 255.95 236.42 L 258.15 236.76 L 260.32 237.23 L 262.47 237.84 L 264.58 238.57 L 266.64 239.43 L 268.65 240.40 L 270.61 241.49 L 272.51 242.69 L 274.36 243.97 L 276.17 245.33 L 277.93 246.75 L 279.67 248.22 L 281.39 249.71 L 283.11 251.21 L 284.84 252.71 L 286.57 254.20 L 288.32 255.67 L 290.09 257.13 L 291.86 258.57 L 293.65 259.99 L 295.45 261.41 L 297.25 262.81 L 299.06 264.21 L 300.87 265.61 L 302.67 267.00 L 304.48 268.39 L 306.29 269.78 L 308.10 271.17 L 309.91 272.56 L 311.71 273.96 L 313.51 275.37 L 315.29 276.80 L 317.05 278.26 L 318.77 279.76 L 320.45 281.32 L 322.07 282.96 L 323.60 284.69 L 325.02 286.52 L 326.30 288.48 L 327.45 290.54 L 328.44 292.72 L 329.22 295.02 L 329.70 297.43 L 329.84 299.92 L 329.63 302.42 L 329.08 304.89 L 328.14 307.26 L 326.87 309.51 L 325.27 311.58 L 323.42 313.46 L 321.46 315.25 L 319.40 316.97 L 317.22 318.60 L 314.94 320.15 L 312.59 321.62 L 310.18 323.03 L 307.73 324.39 L 305.26 325.72 L 302.76 327.01 L 300.25 328.26 L 297.73 329.45 L 295.20 330.57 L 292.66 331.59 L 290.11 332.48 L 287.56 333.21 L 285.01 333.77 L 282.48 334.14 L 279.96 334.25 L 277.48 334.11 L 275.04 333.82 L 272.62 333.40 L 270.23 332.88 L 267.86 332.33 L 265.47 331.82 L 263.07 331.39 Z" />
</symbol>
<symbol id="bl2">
<path d="M 346.03 161.50 L 347.20 164.25 L 348.27 167.02 L 349.23 169.83 L 350.05 172.65 L 350.68 175.52 L 351.09 178.41 L 351.26 181.32 L 351.18 184.23 L 350.87 187.13 L 350.33 189.99 L 349.59 192.82 L 348.68 195.61 L 347.60 198.36 L 346.36 201.06 L 345.00 203.72 L 343.53 206.34 L 341.98 208.92 L 340.38 211.48 L 338.73 214.02 L 337.05 216.54 L 335.36 219.05 L 333.66 221.55 L 331.96 224.04 L 330.27 226.53 L 328.59 228.99 L 326.93 231.44 L 325.29 233.87 L 323.68 236.28 L 322.09 238.66 L 320.52 241.02 L 318.97 243.37 L 317.41 245.70 L 315.85 248.04 L 314.26 250.37 L 312.64 252.73 L 310.97 255.10 L 309.27 257.49 L 307.53 259.89 L 305.75 262.32 L 303.95 264.75 L 302.14 267.19 L 300.31 269.64 L 298.47 272.08 L 296.63 274.53 L 294.78 276.97 L 292.93 279.40 L 291.06 281.82 L 289.19 284.22 L 287.30 286.58 L 285.38 288.89 L 283.43 291.14 L 281.44 293.31 L 279.40 295.38 L 277.29 297.34 L 275.11 299.17 L 272.86 300.87 L 270.51 302.43 L 268.05 303.85 L 265.50 305.15 L 262.84 306.32 L 260.07 307.39 L 257.22 308.36 L 254.29 309.26 L 251.31 310.11 L 248.29 310.93 L 245.26 311.75 L 242.25 312.60 L 239.28 313.50 L 236.37 314.48 L 233.54 315.57 L 230.81 316.78 L 228.18 318.11 L 225.62 319.54 L 223.13 321.06 L 220.67 322.62 L 218.18 324.18 L 215.65 325.69 L 213.05 327.13 L 210.32 328.39 L 207.49 329.51 L 204.56 330.49 L 201.56 331.34 L 198.48 332.06 L 195.36 332.68 L 192.20 333.22 L 189.02 333.69 L 185.83 334.11 L 182.64 334.47 L 179.45 334.77 L 176.27 334.99 L 173.11 335.10 L 169.98 335.08 L 166.89 334.90 L 163.86 334.56 L 160.86 334.09 L 157.92 333.39 L 155.12 332.33 L 152.51 330.86 L 150.13 329.03 L 147.95 326.93 L 145.83 324.76 L 143.72 322.54 L 141.61 320.29 L 139.48 318.04 L 137.29 315.85 L 135.01 313.76 L 132.61 311.80 L 130.10 309.95 L 127.50 308.21 L 124.84 306.53 L 122.16 304.88 L 119.51 303.20 L 116.91 301.49 L 114.35 299.74 L 111.93 297.80 L 109.84 295.59 L 108.11 293.12 L 106.74 290.46 L 105.78 287.63 L 105.21 284.71 L 105.06 281.74 L 105.32 278.79 L 105.82 275.89 L 106.39 273.02 L 107.02 270.15 L 107.73 267.29 L 108.48 264.41 L 109.24 261.50 L 109.98 258.55 L 110.68 255.55 L 111.35 252.51 L 112.00 249.43 L 112.65 246.35 L 113.34 243.29 L 114.10 240.27 L 114.96 237.33 L 115.95 234.49 L 117.02 231.74 L 118.24 229.08 L 119.75 226.63 L 121.58 224.43 L 123.78 222.55 L 126.17 220.91 L 128.63 219.39 L 131.11 217.91 L 133.59 216.47 L 136.01 215.04 L 138.30 213.59 L 140.41 212.06 L 142.28 210.43 L 143.90 208.67 L 145.25 206.80 L 146.29 204.78 L 147.00 202.64 L 147.39 200.39 L 147.52 198.07 L 147.44 195.69 L 147.19 193.25 L 146.79 190.76 L 146.32 188.20 L 145.82 185.59 L 145.33 182.93 L 144.85 180.21 L 144.40 177.44 L 144.24 174.60 L 144.51 171.75 L 144.86 168.88 L 145.23 165.98 L 145.65 163.06 L 146.14 160.12 L 146.68 157.17 L 147.26 154.21 L 147.87 151.26 L 148.51 148.30 L 149.16 145.34 L 149.83 142.38 L 150.52 139.42 L 151.22 136.46 L 151.94 133.50 L 152.69 130.53 L 153.45 127.58 L 154.24 124.62 L 155.06 121.67 L 155.90 118.73 L 156.77 115.81 L 157.66 112.89 L 158.56 109.97 L 159.48 107.07 L 160.40 104.17 L 161.33 101.28 L 162.26 98.39 L 163.19 95.51 L 164.11 92.63 L 165.03 89.75 L 165.94 86.88 L 166.85 84.01 L 167.76 81.15 L 168.66 78.30 L 169.56 75.46 L 170.46 72.62 L 171.37 69.78 L 172.27 66.95 L 173.18 64.13 L 174.11 61.30 L 175.05 58.49 L 176.02 55.68 L 177.03 52.89 L 178.08 50.12 L 179.20 47.38 L 180.41 44.67 L 181.70 42.02 L 183.10 39.42 L 184.60 36.88 L 186.20 34.41 L 187.91 32.00 L 189.74 29.67 L 191.69 27.40 L 193.76 25.22 L 195.96 23.17 L 198.27 21.24 L 200.68 19.43 L 203.22 17.78 L 205.85 16.26 L 208.57 14.90 L 211.37 13.69 L 214.23 12.64 L 217.15 11.78 L 220.10 11.06 L 223.10 10.55 L 226.11 10.19 L 229.13 10.00 L 232.15 10.00 L 235.17 10.13 L 238.16 10.50 L 241.13 11.00 L 244.06 11.68 L 246.96 12.50 L 249.79 13.53 L 252.57 14.69 L 255.27 16.02 L 257.88 17.49 L 260.42 19.11 L 262.86 20.87 L 265.18 22.78 L 267.40 24.80 L 269.50 26.95 L 271.48 29.22 L 273.36 31.54 L 275.17 33.91 L 276.95 36.32 L 278.67 38.78 L 280.33 41.29 L 281.94 43.84 L 283.51 46.43 L 285.05 49.04 L 286.57 51.68 L 288.07 54.32 L 289.57 56.98 L 291.05 59.64 L 292.53 62.31 L 294.01 64.98 L 295.48 67.66 L 296.95 70.34 L 298.42 73.02 L 299.89 75.71 L 301.36 78.39 L 302.83 81.08 L 304.29 83.76 L 305.75 86.44 L 307.21 89.12 L 308.66 91.79 L 310.11 94.47 L 311.56 97.14 L 313.00 99.81 L 314.45 102.49 L 315.90 105.16 L 317.34 107.85 L 318.79 110.53 L 320.25 113.22 L 321.71 115.91 L 323.17 118.60 L 324.63 121.28 L 326.10 123.96 L 327.56 126.64 L 329.03 129.32 L 330.49 131.99 L 331.96 134.66 L 333.42 137.33 L 334.88 140.00 L 336.34 142.67 L 337.79 145.34 L 339.23 148.01 L 340.66 150.69 L 342.06 153.37 L 343.44 156.06 L 344.76 158.77 Z" />
</symbol>
<symbol id="bl3">
<path d="M 438.18 336.20 L 438.02 339.26 L 437.66 342.31 L 437.11 345.32 L 436.40 348.30 L 435.51 351.23 L 434.43 354.09 L 433.22 356.90 L 431.80 359.62 L 430.25 362.26 L 428.52 364.79 L 426.66 367.23 L 424.64 369.54 L 422.49 371.73 L 420.24 373.81 L 417.82 375.72 L 415.32 377.50 L 412.70 379.12 L 410.01 380.61 L 407.21 381.88 L 404.35 383.02 L 401.42 383.98 L 398.47 384.81 L 395.50 385.53 L 392.51 386.16 L 389.50 386.72 L 386.47 387.20 L 383.43 387.60 L 380.37 387.95 L 377.31 388.25 L 374.24 388.52 L 371.17 388.78 L 368.09 389.02 L 365.02 389.25 L 361.94 389.48 L 358.86 389.71 L 355.78 389.93 L 352.70 390.15 L 349.62 390.37 L 346.54 390.58 L 343.46 390.80 L 340.37 391.01 L 337.29 391.22 L 334.21 391.42 L 331.13 391.62 L 328.04 391.82 L 324.96 392.00 L 321.88 392.15 L 318.80 392.27 L 315.72 392.33 L 312.65 392.32 L 309.58 392.22 L 306.53 391.99 L 303.48 391.63 L 300.43 391.13 L 297.39 390.39 L 294.38 389.41 L 291.36 388.23 L 288.31 386.89 L 285.23 385.36 L 282.12 383.67 L 278.95 381.85 L 275.75 379.90 L 272.51 377.87 L 269.25 375.75 L 265.99 373.56 L 262.77 371.31 L 259.61 368.99 L 256.56 366.62 L 253.64 364.19 L 250.85 361.73 L 248.16 359.29 L 245.75 356.67 L 243.96 353.69 L 242.98 350.31 L 242.54 346.79 L 242.22 343.26 L 241.96 339.71 L 241.79 336.12 L 241.68 332.50 L 241.63 328.88 L 241.32 325.18 L 239.92 321.76 L 237.43 318.81 L 234.90 315.92 L 232.28 313.13 L 229.54 310.48 L 226.67 307.98 L 223.67 305.66 L 220.55 303.53 L 217.31 301.62 L 213.97 299.94 L 210.53 298.47 L 207.00 297.31 L 203.40 296.34 L 199.75 295.54 L 196.09 294.88 L 192.42 294.29 L 188.78 293.72 L 185.20 293.11 L 181.70 292.41 L 178.32 291.58 L 175.05 290.57 L 171.91 289.36 L 168.90 287.93 L 166.02 286.28 L 163.23 284.41 L 160.52 282.35 L 157.88 280.12 L 155.27 277.78 L 152.68 275.38 L 150.08 272.96 L 147.45 270.60 L 144.76 268.31 L 142.02 266.13 L 139.21 264.08 L 136.36 262.14 L 133.49 260.30 L 130.63 258.52 L 127.82 256.77 L 125.08 255.02 L 122.44 253.23 L 119.90 251.39 L 117.45 249.48 L 115.08 247.53 L 112.78 245.53 L 110.50 243.50 L 108.24 241.45 L 105.99 239.41 L 103.73 237.38 L 101.47 235.36 L 99.23 233.34 L 97.02 231.31 L 94.88 229.25 L 92.83 227.14 L 90.88 224.97 L 88.99 222.76 L 87.21 220.42 L 85.82 217.89 L 84.84 215.20 L 84.32 212.39 L 84.23 209.52 L 84.60 206.66 L 85.42 203.89 L 86.69 201.28 L 88.36 198.89 L 90.37 196.76 L 92.77 195.02 L 95.43 193.66 L 98.31 192.71 L 101.21 191.94 L 104.12 191.21 L 107.07 190.57 L 110.06 190.02 L 113.09 189.56 L 116.15 189.16 L 119.24 188.79 L 122.33 188.44 L 125.43 188.09 L 128.52 187.70 L 131.58 187.27 L 134.71 187.05 L 137.81 187.34 L 140.81 188.00 L 143.76 188.60 L 146.67 189.15 L 149.56 189.64 L 152.43 190.06 L 155.30 190.40 L 158.16 190.65 L 161.03 190.65 L 163.92 190.15 L 166.71 189.05 L 169.30 187.43 L 171.65 185.40 L 173.91 183.21 L 176.10 180.88 L 178.21 178.43 L 180.25 175.89 L 182.26 173.31 L 184.25 170.74 L 186.26 168.23 L 188.30 165.82 L 190.36 163.50 L 192.51 161.31 L 194.78 159.29 L 197.11 157.38 L 199.45 155.48 L 201.80 153.59 L 204.14 151.69 L 206.48 149.76 L 208.80 147.79 L 211.11 145.78 L 213.40 143.73 L 215.68 141.65 L 217.95 139.56 L 220.21 137.45 L 222.48 135.35 L 224.76 133.26 L 227.05 131.21 L 229.37 129.19 L 231.73 127.24 L 234.12 125.38 L 236.57 123.61 L 239.07 121.96 L 241.60 120.39 L 244.20 118.96 L 246.89 117.71 L 249.66 116.71 L 252.50 115.99 L 255.38 115.53 L 258.28 115.36 L 261.18 115.45 L 264.04 115.82 L 266.86 116.44 L 269.61 117.33 L 272.26 118.47 L 274.80 119.85 L 277.20 121.44 L 279.45 123.27 L 281.52 125.28 L 283.38 127.50 L 285.03 129.87 L 286.45 132.40 L 287.65 135.03 L 288.58 137.77 L 289.30 140.56 L 289.77 143.41 L 290.02 146.29 L 290.06 149.18 L 289.92 152.09 L 289.60 155.00 L 289.14 157.91 L 288.56 160.81 L 287.92 163.72 L 287.26 166.62 L 286.62 169.53 L 286.05 172.44 L 285.58 175.37 L 285.23 178.30 L 285.00 181.25 L 284.90 184.21 L 284.90 187.17 L 284.95 190.13 L 285.02 193.10 L 285.05 196.06 L 285.01 199.02 L 284.84 201.98 L 284.45 204.92 L 283.90 207.85 L 283.23 210.77 L 282.44 213.68 L 281.59 216.58 L 280.73 219.48 L 279.92 222.38 L 279.22 225.29 L 278.70 228.20 L 278.41 231.09 L 278.38 233.95 L 278.64 236.76 L 279.20 239.47 L 280.08 242.07 L 281.28 244.50 L 282.78 246.73 L 284.54 248.72 L 286.55 250.45 L 288.76 251.89 L 291.13 253.02 L 293.64 253.82 L 296.24 254.28 L 298.89 254.39 L 301.57 254.18 L 304.23 253.60 L 306.81 252.64 L 309.29 251.32 L 311.67 249.76 L 313.99 248.03 L 316.28 246.20 L 318.56 244.30 L 320.85 242.38 L 323.17 240.51 L 325.55 238.74 L 328.02 237.13 L 330.57 235.71 L 333.21 234.52 L 335.94 233.59 L 338.73 232.91 L 341.57 232.52 L 344.43 232.41 L 347.29 232.58 L 350.13 233.03 L 352.93 233.74 L 355.68 234.71 L 358.35 235.92 L 360.94 237.34 L 363.47 238.94 L 365.93 240.69 L 368.33 242.56 L 370.68 244.53 L 372.99 246.57 L 375.27 248.65 L 377.53 250.78 L 379.78 252.92 L 382.01 255.07 L 384.23 257.23 L 386.45 259.40 L 388.66 261.57 L 390.88 263.74 L 393.09 265.91 L 395.29 268.09 L 397.50 270.26 L 399.70 272.44 L 401.90 274.62 L 404.09 276.80 L 406.28 278.98 L 408.47 281.17 L 410.65 283.36 L 412.81 285.57 L 414.96 287.79 L 417.08 290.03 L 419.16 292.31 L 421.19 294.62 L 423.16 296.98 L 425.06 299.39 L 426.86 301.87 L 428.56 304.40 L 430.18 306.99 L 431.68 309.65 L 433.08 312.39 L 434.32 315.20 L 435.43 318.07 L 436.33 321.02 L 437.08 324.00 L 437.63 327.03 L 438.01 330.06 L 438.18 333.12 Z" />
</symbol>
<symbol id="bl4">
<path d="M 323.13 407.20 L 322.09 410.40 L 321.03 413.60 L 319.98 416.80 L 318.92 420.00 L 317.86 423.19 L 316.80 426.39 L 315.73 429.58 L 314.64 432.76 L 313.55 435.94 L 312.43 439.11 L 311.28 442.26 L 310.09 445.39 L 308.83 448.50 L 307.51 451.56 L 306.11 454.58 L 304.64 457.56 L 303.09 460.50 L 301.44 463.42 L 299.64 466.24 L 297.67 468.94 L 295.56 471.52 L 293.28 473.93 L 290.86 476.22 L 288.32 478.36 L 285.64 480.33 L 282.85 482.14 L 279.96 483.77 L 276.96 485.22 L 273.90 486.51 L 270.75 487.57 L 267.54 488.46 L 264.28 489.16 L 260.98 489.63 L 257.66 489.92 L 254.33 490.00 L 250.99 489.90 L 247.67 489.55 L 244.38 489.03 L 241.13 488.30 L 237.92 487.38 L 234.77 486.26 L 231.72 484.94 L 228.74 483.43 L 225.86 481.78 L 223.10 479.93 L 220.46 477.94 L 217.95 475.78 L 215.56 473.53 L 213.30 471.16 L 211.18 468.67 L 209.20 466.07 L 207.36 463.37 L 205.68 460.58 L 204.17 457.69 L 202.82 454.72 L 201.64 451.67 L 200.62 448.56 L 199.76 445.40 L 199.04 442.20 L 198.45 438.96 L 197.98 435.69 L 197.60 432.40 L 197.31 429.08 L 197.08 425.76 L 196.90 422.42 L 196.75 419.08 L 196.63 415.73 L 196.52 412.38 L 196.42 409.02 L 196.32 405.65 L 196.22 402.28 L 196.11 398.91 L 195.97 395.52 L 195.81 392.13 L 195.61 388.71 L 195.36 385.28 L 195.05 381.81 L 194.69 378.31 L 194.27 374.75 L 193.80 371.15 L 193.29 367.50 L 192.77 363.79 L 192.25 360.04 L 191.74 356.25 L 191.25 352.42 L 190.79 348.57 L 190.37 344.70 L 189.99 340.82 L 189.66 336.93 L 189.40 333.03 L 189.24 329.15 L 189.18 325.27 L 189.26 321.42 L 189.47 317.60 L 189.78 313.81 L 190.24 310.05 L 191.36 306.44 L 193.24 303.13 L 195.15 299.85 L 197.13 296.62 L 199.18 293.43 L 201.27 290.27 L 203.36 287.12 L 205.36 283.96 L 207.23 280.77 L 208.91 277.54 L 210.36 274.27 L 211.56 270.97 L 212.43 267.64 L 212.95 264.29 L 213.10 260.96 L 212.91 257.69 L 212.37 254.50 L 211.50 251.42 L 210.31 248.47 L 208.81 245.68 L 207.03 243.06 L 204.98 240.65 L 202.67 238.46 L 200.15 236.50 L 197.44 234.79 L 194.56 233.31 L 191.56 232.05 L 188.46 231.01 L 185.27 230.15 L 182.02 229.45 L 178.74 228.84 L 175.44 228.30 L 172.15 227.76 L 168.87 227.18 L 165.62 226.52 L 162.40 225.75 L 159.23 224.85 L 156.09 223.83 L 152.98 222.68 L 149.90 221.44 L 146.84 220.13 L 143.79 218.76 L 140.77 217.35 L 137.77 215.88 L 134.79 214.37 L 131.82 212.81 L 128.84 211.21 L 126.15 209.28 L 123.98 206.91 L 122.54 204.09 L 121.23 201.18 L 119.94 198.23 L 118.71 195.25 L 117.57 192.22 L 116.54 189.15 L 115.63 186.04 L 114.85 182.89 L 114.17 179.71 L 113.55 176.48 L 112.91 173.20 L 112.73 169.90 L 113.25 166.75 L 114.41 163.87 L 116.06 161.36 L 118.16 159.29 L 120.66 157.72 L 123.44 156.64 L 126.46 156.15 L 129.55 156.19 L 132.60 156.26 L 135.63 156.33 L 138.66 156.42 L 141.69 156.58 L 144.72 156.82 L 147.74 157.14 L 150.75 157.56 L 153.73 158.06 L 156.69 158.64 L 159.61 159.28 L 162.52 159.92 L 165.38 160.76 L 168.11 162.10 L 170.58 164.12 L 172.71 166.66 L 174.45 169.58 L 176.15 172.51 L 177.82 175.43 L 179.47 178.35 L 181.11 181.24 L 182.75 184.08 L 184.42 186.85 L 186.14 189.51 L 187.94 192.04 L 189.82 194.44 L 191.84 196.65 L 194.04 198.63 L 196.44 200.35 L 199.02 201.76 L 201.75 202.87 L 204.61 203.64 L 207.56 204.08 L 210.55 204.13 L 213.55 203.87 L 216.52 203.23 L 219.43 202.35 L 222.31 201.29 L 225.15 200.07 L 227.94 198.72 L 230.68 197.23 L 233.38 195.64 L 236.04 193.98 L 238.68 192.28 L 241.31 190.58 L 243.96 188.90 L 246.65 187.28 L 249.39 185.73 L 252.20 184.26 L 255.08 182.87 L 258.04 181.52 L 261.08 180.26 L 264.17 178.95 L 267.29 177.58 L 270.41 176.08 L 273.50 174.43 L 276.55 172.61 L 279.54 170.62 L 282.48 168.48 L 285.39 166.23 L 288.27 163.93 L 291.16 161.63 L 294.08 159.40 L 297.06 157.28 L 300.07 155.27 L 303.20 153.38 L 306.46 151.82 L 309.83 150.61 L 313.32 149.81 L 316.85 149.38 L 320.42 149.34 L 323.97 149.72 L 327.48 150.46 L 330.88 151.60 L 334.15 153.10 L 337.22 154.99 L 340.08 157.19 L 342.69 159.69 L 344.99 162.49 L 346.96 165.53 L 348.60 168.75 L 349.87 172.15 L 350.72 175.67 L 351.20 179.26 L 351.27 182.88 L 350.91 186.51 L 350.15 190.09 L 349.00 193.59 L 347.59 196.98 L 346.09 200.32 L 344.50 203.63 L 342.77 206.89 L 340.94 210.12 L 339.01 213.30 L 337.01 216.46 L 334.96 219.60 L 332.89 222.73 L 330.80 225.86 L 328.71 229.00 L 326.62 232.15 L 324.55 235.33 L 322.50 238.53 L 320.48 241.75 L 318.48 245.01 L 316.51 248.29 L 314.57 251.60 L 312.65 254.93 L 310.76 258.27 L 308.88 261.63 L 307.04 265.01 L 305.23 268.39 L 303.47 271.78 L 301.77 275.18 L 300.18 278.60 L 298.72 282.03 L 297.44 285.46 L 296.35 288.90 L 295.47 292.32 L 294.76 295.73 L 294.38 299.15 L 294.58 302.45 L 295.38 305.56 L 296.67 308.45 L 298.36 311.14 L 300.19 313.75 L 302.17 316.31 L 304.31 318.79 L 306.59 321.20 L 308.98 323.55 L 311.43 325.88 L 313.92 328.21 L 316.41 330.55 L 318.86 332.93 L 321.24 335.37 L 323.51 337.90 L 325.64 340.53 L 327.60 343.27 L 329.41 346.10 L 331.08 349.05 L 332.49 352.13 L 333.53 355.33 L 334.18 358.61 L 334.47 361.91 L 334.37 365.20 L 333.94 368.46 L 333.39 371.73 L 332.76 374.99 L 332.02 378.25 L 331.19 381.49 L 330.27 384.72 L 329.31 387.95 L 328.31 391.16 L 327.29 394.38 L 326.26 397.59 L 325.22 400.79 L 324.18 404.00 Z" />
</symbol>
</defs>
<!-- isDone: 0 -->
<rect width="700" height="500" style="fill:#fff;stroke-width:0" />
<use class="p0 borderLine" xlink:href="#bl0"/>
<use class="p1 borderLine" xlink:href="#bl1"/>
<use class="p2 borderLine" xlink:href="#bl2"/>
<use class="p3 borderLine" xlink:href="#bl3"/>
<use class="p4 borderLine" xlink:href="#bl4"/>
<use class="q0 outLine" xlink:href="#bl0"/>
<use class="q1 outLine" xlink:href="#bl1"/>
<use class="q2 outLine" xlink:href="#bl2"/>
<use class="q3 outLine" xlink:href="#bl3"/>
<use class="q4 outLine" xlink:href="#bl4"/>
<circle onclick="fromCircle(16)" class="circle" cx="151.6240" cy="382.4908" r="40.7547" />
<text class="nLabel" x="151.62" y="377.49">446</text>
<text class="belong" x="151.62" y="387.49">(1)</text>
<circle onclick="fromCircle(24)" class="circle" cx="122.7231" cy="326.3077" r="16.6007" />
<text class="nLabel" x="122.72" y="321.31">74</text>
<text class="belong" x="122.72" y="331.31">(1, 2)</text>
<circle onclick="fromCircle(28)" class="circle" cx="163.8884" cy="313.7222" r="20.5140" />
<text class="nLabel" x="163.89" y="308.72">113</text>
<text class="belong" x="163.89" y="318.72">(1, 2, 3)</text>
<circle onclick="fromCircle(30)" class="circle" cx="183.1312" cy="261.3235" r="29.8962" />
<text class="nLabel" x="183.13" y="256.32">240</text>
<text class="belong" x="183.13" y="266.32">(1, 2, 3, 4)</text>
<circle onclick="fromCircle(31)" class="circle" cx="251.8317" cy="272.4290" r="34.3590" />
<text class="nLabel" x="251.83" y="267.43">317</text>
<text class="belong" x="251.83" y="277.43">(1, 2, 3, 4, 5)</text>
<circle onclick="fromCircle(8)" class="circle" cx="84.8062" cy="254.5438" r="22.7519" />
<text class="nLabel" x="84.81" y="249.54">139</text>
<text class="belong" x="84.81" y="259.54">(2)</text>
<circle onclick="fromCircle(12)" class="circle" cx="126.3415" cy="282.1497" r="21.2277" />
<text class="nLabel" x="126.34" y="277.15">121</text>
<text class="belong" x="126.34" y="287.15">(2, 3)</text>
<circle onclick="fromCircle(14)" class="circle" cx="135.2623" cy="237.8747" r="19.1040" />
<text class="nLabel" x="135.26" y="232.87">98</text>
<text class="belong" x="135.26" y="242.87">(2, 3, 4)</text>
<circle onclick="fromCircle(15)" class="circle" cx="165.5589" cy="209.4499" r="15.9135" />
<text class="nLabel" x="165.56" y="204.45">68</text>
<text class="belong" x="165.56" y="214.45">(2, 3, 4, 5)</text>
<circle onclick="fromCircle(10)" class="circle" cx="102.3703" cy="210.4266" r="18.1031" />
<text class="nLabel" x="102.37" y="205.43">88</text>
<text class="belong" x="102.37" y="215.43">(2, 4)</text>
<circle onclick="fromCircle(11)" class="circle" cx="134.5522" cy="199.7455" r="12.6545" />
<text class="nLabel" x="134.55" y="194.75">43</text>
<text class="belong" x="134.55" y="204.75">(2, 4, 5)</text>
<circle onclick="fromCircle(9)" class="circle" cx="127.2420" cy="170.6433" r="14.4412" />
<text class="nLabel" x="127.24" y="165.64">56</text>
<text class="belong" x="127.24" y="175.64">(2, 5)</text>
<circle onclick="fromCircle(13)" class="circle" cx="159.7450" cy="175.2030" r="15.4383" />
<text class="nLabel" x="159.74" y="170.20">64</text>
<text class="belong" x="159.74" y="180.20">(2, 3, 5)</text>
<circle onclick="fromCircle(4)" class="circle" cx="230.7906" cy="62.5649" r="52.5669" />
<text class="nLabel" x="230.79" y="57.56">742</text>
<text class="belong" x="230.79" y="67.56">(3)</text>
<circle onclick="fromCircle(20)" class="circle" cx="182.1572" cy="131.7415" r="26.9481" />
<text class="nLabel" x="182.16" y="126.74">195</text>
<text class="belong" x="182.16" y="136.74">(1, 3)</text>
<circle onclick="fromCircle(22)" class="circle" cx="209.6434" cy="179.3193" r="24.7886" />
<text class="nLabel" x="209.64" y="174.32">165</text>
<text class="belong" x="209.64" y="184.32">(1, 3, 4)</text>
<circle onclick="fromCircle(23)" class="circle" cx="229.0821" cy="219.8807" r="17.0435" />
<text class="nLabel" x="229.08" y="214.88">78</text>
<text class="belong" x="229.08" y="224.88">(1, 3, 4, 5)</text>
<circle onclick="fromCircle(6)" class="circle" cx="258.7285" cy="146.4518" r="31.0571" />
<text class="nLabel" x="258.73" y="141.45">259</text>
<text class="belong" x="258.73" y="151.45">(3, 4)</text>
<circle onclick="fromCircle(7)" class="circle" cx="265.1245" cy="200.1019" r="19.6801" />
<text class="nLabel" x="265.12" y="195.10">104</text>
<text class="belong" x="265.12" y="205.10">(3, 4, 5)</text>
<circle onclick="fromCircle(5)" class="circle" cx="318.9379" cy="181.6535" r="32.2916" />
<text class="nLabel" x="318.94" y="176.65">280</text>
<text class="belong" x="318.94" y="186.65">(3, 5)</text>
<circle onclick="fromCircle(21)" class="circle" cx="298.6396" cy="234.4821" r="19.8684" />
<text class="nLabel" x="298.64" y="229.48">106</text>
<text class="belong" x="298.64" y="239.48">(1, 3, 5)</text>
<circle onclick="fromCircle(2)" class="circle" cx="386.9147" cy="334.7769" r="51.2759" />
<text class="nLabel" x="386.91" y="329.78">706</text>
<text class="belong" x="386.91" y="339.78">(4)</text>
<circle onclick="fromCircle(18)" class="circle" cx="345.0121" cy="260.7087" r="27.8987" />
<text class="nLabel" x="345.01" y="255.71">209</text>
<text class="belong" x="345.01" y="265.71">(1, 4)</text>
<circle onclick="fromCircle(26)" class="circle" cx="312.1174" cy="299.6540" r="17.6868" />
<text class="nLabel" x="312.12" y="294.65">84</text>
<text class="belong" x="312.12" y="304.65">(1, 2, 4)</text>
<circle onclick="fromCircle(27)" class="circle" cx="280.6728" cy="318.9349" r="15.1952" />
<text class="nLabel" x="280.67" y="313.93">62</text>
<text class="belong" x="280.67" y="323.93">(1, 2, 4, 5)</text>
<circle onclick="fromCircle(3)" class="circle" cx="305.6097" cy="362.6740" r="28.8179" />
<text class="nLabel" x="305.61" y="357.67">223</text>
<text class="belong" x="305.61" y="367.67">(4, 5)</text>
<circle onclick="fromCircle(19)" class="circle" cx="258.1082" cy="347.4848" r="15.3172" />
<text class="nLabel" x="258.11" y="342.48">63</text>
<text class="belong" x="258.11" y="352.48">(1, 4, 5)</text>
<circle onclick="fromCircle(1)" class="circle" cx="254.6611" cy="435.5696" r="54.4119" />
<text class="nLabel" x="254.66" y="430.57">795</text>
<text class="belong" x="254.66" y="440.57">(5)</text>
<circle onclick="fromCircle(17)" class="circle" cx="217.3944" cy="361.5993" r="22.4222" />
<text class="nLabel" x="217.39" y="356.60">135</text>
<text class="belong" x="217.39" y="366.60">(1, 5)</text>
<circle onclick="fromCircle(25)" class="circle" cx="232.2189" cy="327.3442" r="9.2550" />
<text class="nLabel" x="232.22" y="322.34">23</text>
<text class="belong" x="232.22" y="332.34">(1, 2, 5)</text>
<circle onclick="fromCircle(29)" class="circle" cx="205.5163" cy="313.3413" r="15.5585" />
<text class="nLabel" x="205.52" y="308.34">65</text>
<text class="belong" x="205.52" y="318.34">(1, 2, 3, 5)</text>
<g id="legendBox">
<rect class="p0 borderLine" x="500.00" y="50.00" width="30.00" height="15.00" />
<rect class="q0" x="500.00" y="50.00" width="30.00" height="15.00" />
<text class="legend" x="540.00" y="65.00">C57BL/6 clean (N=3)</text>
<rect class="p1 borderLine" x="500.00" y="90.00" width="30.00" height="15.00" />
<rect class="q1" x="500.00" y="90.00" width="30.00" height="15.00" />
<text class="legend" x="540.00" y="105.00">C57BL/6 x mix (N=3)</text>
<rect class="p2 borderLine" x="500.00" y="130.00" width="30.00" height="15.00" />
<rect class="q2" x="500.00" y="130.00" width="30.00" height="15.00" />
<text class="legend" x="540.00" y="145.00">CAST/EiJxC57BL/6J (N=1)</text>
<rect class="p3 borderLine" x="500.00" y="170.00" width="30.00" height="15.00" />
<rect class="q3" x="500.00" y="170.00" width="30.00" height="15.00" />
<text class="legend" x="540.00" y="185.00">B6D2F1 clean (N=1)</text>
<rect class="p4 borderLine" x="500.00" y="210.00" width="30.00" height="15.00" />
<rect class="q4" x="500.00" y="210.00" width="30.00" height="15.00" />
<text class="legend" x="540.00" y="225.00">ICR clean (N=1)</text>
</g>
</svg>
