<svg xmlns="http://www.w3.org/2000/svg" xmlns:xlink="http://www.w3.org/1999/xlink" width="700" height="500">
<defs>
<style type="text/css"><![CDATA[
  .borderLine {
	   stroke: none;
	   fill-opacity:  0.4 ;
  }
  .outLine {
	   stroke-width:  1 ;
	   fill: none;
  }
  .circle {
	   stroke: #888888;
	   stroke-width: 0.5;
	   fill: none;
    pointer-events: all;
  }
  .nLabel {
	   font-family: Arial;
    pointer-events: none;
	   font-size: 10px;
	   text-anchor: middle;
	   alignment-baseline: central;
  }
  .belong {
	   font-family: Arial;
    pointer-events: none;
	   font-size: 5px;
	   text-anchor: middle;
	   alignment-baseline: central;
  }
  .legend {
    font-family: Arial;
    font-size: 15px;
  }
  #legendBox {
    display:  inline ;
  }
  .p0{
    stroke: none;
    fill: #e6194b;
  }
  .q0{
    fill: none;
    stroke: #e6194b;
  }
  .p1{
    stroke: none;
    fill: #3cb44b;
  }
  .q1{
    fill: none;
    stroke: #3cb44b;
  }
  .p2{
    stroke: none;
    fill: #ffe119;
  }
  .q2{
    fill: none;
    stroke: #ffe119;
  }
  .p3{
    stroke: none;
    fill: #0082c8;
  }
  .q3{
    fill: none;
    stroke: #0082c8;
  }
]]>
</style>
<symbol id="bl0">
<path d="M 281.13 303.66 L 276.13 306.55 L 271.27 309.57 L 266.62 312.75 L 262.23 316.06 L 258.12 319.47 L 254.30 322.89 L 250.74 326.25 L 247.36 329.46 L 244.09 332.47 L 240.84 335.25 L 237.54 337.77 L 234.15 340.05 L 230.66 342.10 L 227.08 343.95 L 223.41 345.64 L 219.69 347.21 L 215.94 348.70 L 212.16 350.14 L 208.36 351.54 L 204.56 352.93 L 200.76 354.30 L 196.96 355.67 L 193.16 357.04 L 189.35 358.41 L 185.55 359.77 L 181.75 361.14 L 177.95 362.50 L 174.14 363.87 L 170.34 365.23 L 166.54 366.60 L 162.74 367.96 L 158.94 369.33 L 155.14 370.69 L 151.34 372.05 L 147.54 373.41 L 143.75 374.77 L 139.95 376.13 L 136.15 377.49 L 132.36 378.85 L 128.56 380.19 L 124.75 381.53 L 120.95 382.84 L 117.13 384.10 L 113.29 385.30 L 109.43 386.41 L 105.54 387.40 L 101.62 388.24 L 97.68 388.91 L 93.71 389.40 L 89.72 389.70 L 85.72 389.79 L 81.73 389.67 L 77.75 389.34 L 73.79 388.81 L 69.86 388.06 L 65.98 387.11 L 62.15 385.96 L 58.39 384.61 L 54.71 383.06 L 51.11 381.32 L 47.60 379.39 L 44.21 377.28 L 40.93 374.99 L 37.77 372.54 L 34.75 369.92 L 31.86 367.14 L 29.13 364.22 L 26.56 361.16 L 24.15 357.97 L 21.91 354.65 L 19.85 351.23 L 17.97 347.70 L 16.28 344.07 L 14.79 340.36 L 13.49 336.58 L 12.39 332.74 L 11.50 328.84 L 10.81 324.90 L 10.33 320.93 L 10.06 316.95 L 10.00 312.95 L 10.15 308.96 L 10.51 304.98 L 11.08 301.03 L 11.86 297.11 L 12.84 293.23 L 14.02 289.42 L 15.40 285.66 L 16.95 281.97 L 18.67 278.36 L 20.53 274.80 L 22.51 271.30 L 24.58 267.85 L 26.71 264.43 L 28.88 261.03 L 31.07 257.64 L 33.28 254.26 L 35.49 250.88 L 37.70 247.50 L 39.92 244.13 L 42.14 240.75 L 44.36 237.38 L 46.58 234.00 L 48.81 230.63 L 51.03 227.25 L 53.25 223.87 L 55.48 220.50 L 57.70 217.12 L 59.93 213.74 L 62.16 210.37 L 64.39 207.00 L 66.64 203.64 L 68.92 200.31 L 71.25 197.02 L 73.67 193.81 L 76.20 190.70 L 78.86 187.73 L 81.68 184.90 L 84.63 182.19 L 87.66 179.58 L 90.71 177.00 L 93.71 174.38 L 96.59 171.67 L 99.29 168.79 L 101.78 165.75 L 104.05 162.53 L 106.15 159.17 L 108.12 155.72 L 110.07 152.24 L 112.10 148.81 L 114.28 145.50 L 116.72 142.38 L 119.47 139.53 L 122.56 136.98 L 125.97 134.75 L 129.70 132.90 L 133.65 131.39 L 137.75 130.19 L 141.93 129.29 L 146.12 128.64 L 150.30 128.19 L 154.45 127.90 L 158.57 127.70 L 162.68 127.57 L 166.78 127.46 L 170.86 127.34 L 174.94 127.16 L 179.00 126.88 L 183.04 126.44 L 187.05 125.77 L 191.03 124.82 L 194.98 123.60 L 198.93 122.14 L 202.89 120.54 L 206.90 118.93 L 210.99 117.40 L 215.16 116.07 L 219.42 115.00 L 223.77 114.23 L 228.20 113.75 L 232.71 113.55 L 237.30 113.57 L 242.02 113.72 L 246.89 113.91 L 251.96 114.04 L 257.24 114.05 L 262.72 113.90 L 268.36 113.62 L 274.11 113.24 L 279.94 112.79 L 285.80 112.29 L 291.69 111.79 L 297.58 111.29 L 303.47 110.80 L 309.35 110.38 L 315.22 110.05 L 321.07 109.91 L 326.87 110.04 L 332.58 110.54 L 338.18 111.48 L 343.65 112.87 L 348.89 114.91 L 353.79 117.63 L 358.24 121.01 L 362.18 124.96 L 365.51 129.44 L 368.21 134.31 L 370.16 139.49 L 371.37 144.85 L 371.86 150.26 L 371.60 155.60 L 370.81 160.80 L 369.68 165.85 L 368.23 170.75 L 366.50 175.52 L 364.57 180.17 L 362.50 184.74 L 360.34 189.26 L 358.12 193.74 L 355.89 198.21 L 353.64 202.67 L 351.38 207.13 L 349.12 211.59 L 346.86 216.05 L 344.61 220.51 L 342.36 224.96 L 340.14 229.41 L 337.95 233.87 L 335.84 238.31 L 333.84 242.74 L 331.98 247.17 L 330.27 251.59 L 328.67 256.01 L 327.08 260.44 L 325.36 264.89 L 323.35 269.34 L 320.98 273.77 L 318.05 278.06 L 314.52 282.08 L 310.45 285.75 L 306.03 289.18 L 301.31 292.35 L 296.38 295.30 L 291.32 298.11 L 286.21 300.87 Z" />
</symbol>
<symbol id="bl1">
<path d="M 245.01 231.66 L 241.26 233.24 L 237.46 234.78 L 233.65 236.30 L 229.82 237.81 L 225.99 239.31 L 222.16 240.81 L 218.33 242.31 L 214.50 243.81 L 210.68 245.31 L 206.86 246.83 L 203.07 248.37 L 199.31 249.94 L 195.63 251.56 L 192.03 253.23 L 188.56 254.95 L 185.24 256.69 L 182.05 258.40 L 178.97 260.03 L 175.97 261.52 L 173.01 262.81 L 170.05 263.87 L 167.07 264.67 L 164.08 265.20 L 161.06 265.45 L 158.05 265.42 L 155.05 265.12 L 152.08 264.53 L 149.16 263.68 L 146.30 262.56 L 143.50 261.20 L 140.76 259.63 L 138.06 257.89 L 135.37 256.04 L 132.69 254.15 L 129.98 252.27 L 127.23 250.45 L 124.42 248.72 L 121.56 247.11 L 118.64 245.61 L 115.66 244.24 L 112.63 242.98 L 109.55 241.83 L 106.44 240.78 L 103.30 239.78 L 100.15 238.81 L 97.02 237.80 L 93.93 236.70 L 90.91 235.46 L 88.00 234.03 L 85.22 232.39 L 82.59 230.51 L 80.14 228.41 L 77.87 226.10 L 75.76 223.62 L 73.80 221.01 L 71.96 218.29 L 70.21 215.50 L 68.52 212.67 L 66.88 209.81 L 65.25 206.94 L 63.64 204.06 L 62.04 201.18 L 60.44 198.29 L 58.84 195.41 L 57.24 192.53 L 55.64 189.64 L 54.05 186.76 L 52.45 183.87 L 50.86 180.99 L 49.27 178.10 L 47.69 175.21 L 46.13 172.31 L 44.60 169.40 L 43.14 166.47 L 41.77 163.49 L 40.53 160.48 L 39.46 157.41 L 38.59 154.28 L 37.96 151.12 L 37.58 147.92 L 37.48 144.70 L 37.65 141.49 L 38.11 138.31 L 38.84 135.18 L 39.86 132.13 L 41.13 129.18 L 42.67 126.36 L 44.45 123.68 L 46.45 121.16 L 48.66 118.81 L 51.05 116.63 L 53.60 114.60 L 56.26 112.72 L 59.02 110.95 L 61.84 109.26 L 64.71 107.64 L 67.60 106.06 L 70.50 104.49 L 73.41 102.94 L 76.32 101.40 L 79.24 99.86 L 82.15 98.32 L 85.07 96.78 L 87.99 95.25 L 90.91 93.71 L 93.82 92.18 L 96.75 90.64 L 99.67 89.12 L 102.61 87.61 L 105.56 86.12 L 108.52 84.66 L 111.51 83.24 L 114.53 81.86 L 117.57 80.53 L 120.63 79.23 L 123.71 77.97 L 126.80 76.73 L 129.89 75.51 L 132.99 74.30 L 136.09 73.09 L 139.19 71.89 L 142.29 70.69 L 145.39 69.49 L 148.49 68.29 L 151.60 67.09 L 154.70 65.90 L 157.81 64.71 L 160.92 63.53 L 164.03 62.37 L 167.16 61.25 L 170.30 60.17 L 173.45 59.16 L 176.62 58.21 L 179.81 57.35 L 183.02 56.55 L 186.24 55.81 L 189.47 55.11 L 192.70 54.44 L 195.94 53.77 L 199.17 53.12 L 202.41 52.47 L 205.65 51.81 L 208.88 51.16 L 212.12 50.51 L 215.36 49.86 L 218.60 49.22 L 221.84 48.57 L 225.08 47.92 L 228.32 47.29 L 231.56 46.66 L 234.80 46.06 L 238.05 45.50 L 241.31 45.02 L 244.58 44.63 L 247.85 44.39 L 251.11 44.33 L 254.36 44.48 L 257.58 44.87 L 260.75 45.52 L 263.84 46.45 L 266.84 47.64 L 269.71 49.10 L 272.43 50.82 L 274.98 52.78 L 277.34 54.97 L 279.50 57.36 L 281.42 59.94 L 283.10 62.69 L 284.53 65.58 L 285.69 68.59 L 286.61 71.70 L 287.29 74.88 L 287.77 78.12 L 288.07 81.40 L 288.25 84.70 L 288.35 88.01 L 288.40 91.34 L 288.42 94.67 L 288.43 98.00 L 288.43 101.33 L 288.43 104.67 L 288.43 108.00 L 288.43 111.34 L 288.42 114.67 L 288.42 118.01 L 288.42 121.35 L 288.41 124.68 L 288.41 128.02 L 288.41 131.36 L 288.42 134.69 L 288.43 138.02 L 288.46 141.34 L 288.51 144.65 L 288.62 147.92 L 288.78 151.17 L 289.01 154.38 L 289.29 157.57 L 289.61 160.78 L 289.91 164.02 L 290.14 167.34 L 290.25 170.75 L 290.20 174.25 L 289.96 177.81 L 289.52 181.40 L 288.85 184.99 L 287.97 188.56 L 286.87 192.07 L 285.55 195.50 L 284.01 198.85 L 282.28 202.10 L 280.34 205.22 L 278.22 208.19 L 275.93 211.02 L 273.48 213.67 L 270.89 216.16 L 268.16 218.48 L 265.30 220.66 L 262.28 222.72 L 259.11 224.68 L 255.78 226.54 L 252.31 228.32 L 248.71 230.02 Z" />
</symbol>
<symbol id="bl2">
<path d="M 425.42 275.05 L 421.96 278.73 L 418.42 282.48 L 414.86 286.22 L 411.34 289.84 L 407.91 293.24 L 404.55 296.39 L 401.22 299.25 L 397.86 301.82 L 394.43 304.10 L 390.90 306.06 L 387.24 307.71 L 383.48 309.03 L 379.61 309.99 L 375.68 310.60 L 371.69 310.85 L 367.67 310.73 L 363.63 310.24 L 359.59 309.42 L 355.53 308.31 L 351.45 306.97 L 347.35 305.50 L 343.23 304.00 L 339.06 302.56 L 334.86 301.25 L 330.61 300.10 L 326.33 299.13 L 322.01 298.33 L 317.66 297.70 L 313.29 297.19 L 308.91 296.77 L 304.52 296.41 L 300.13 296.06 L 295.75 295.69 L 291.38 295.23 L 287.06 294.64 L 282.79 293.85 L 278.60 292.79 L 274.55 291.41 L 270.65 289.68 L 266.94 287.59 L 263.44 285.14 L 260.16 282.38 L 257.09 279.36 L 254.17 276.16 L 251.34 272.86 L 248.53 269.54 L 245.69 266.27 L 242.76 263.08 L 239.75 260.00 L 236.66 257.02 L 233.50 254.11 L 230.30 251.26 L 227.06 248.44 L 223.81 245.63 L 220.56 242.84 L 217.30 240.06 L 214.03 237.27 L 210.77 234.48 L 207.51 231.68 L 204.26 228.86 L 201.02 226.02 L 197.79 223.12 L 194.58 220.17 L 191.38 217.17 L 188.15 214.15 L 184.86 211.17 L 181.46 208.33 L 177.89 205.70 L 174.14 203.35 L 170.19 201.31 L 166.08 199.59 L 161.84 198.13 L 157.52 196.88 L 153.14 195.76 L 148.73 194.68 L 144.33 193.56 L 139.97 192.31 L 135.68 190.85 L 131.51 189.08 L 127.53 186.96 L 123.82 184.44 L 120.45 181.54 L 117.52 178.28 L 115.10 174.71 L 113.18 170.92 L 111.74 166.95 L 110.74 162.85 L 110.09 158.67 L 109.67 154.45 L 109.36 150.20 L 109.03 145.97 L 108.58 141.76 L 107.94 137.59 L 107.09 133.46 L 106.07 129.37 L 104.95 125.31 L 103.84 121.25 L 102.85 117.18 L 102.11 113.10 L 101.72 109.01 L 101.68 104.95 L 102.13 100.91 L 103.18 97.01 L 104.90 93.36 L 107.21 90.05 L 110.06 87.14 L 113.26 84.60 L 116.67 82.27 L 120.30 80.18 L 124.09 78.29 L 127.98 76.54 L 131.93 74.87 L 135.92 73.25 L 139.92 71.65 L 143.92 70.06 L 147.94 68.49 L 151.95 66.93 L 155.98 65.40 L 160.02 63.93 L 164.09 62.55 L 168.19 61.32 L 172.32 60.30 L 176.49 59.57 L 180.68 59.18 L 184.86 59.19 L 188.99 59.64 L 193.03 60.55 L 196.91 61.93 L 200.59 63.77 L 204.00 66.05 L 207.11 68.71 L 209.88 71.73 L 212.29 75.04 L 214.38 78.57 L 216.21 82.26 L 217.90 86.03 L 219.58 89.80 L 221.41 93.50 L 223.48 97.05 L 225.87 100.38 L 228.62 103.43 L 231.71 106.15 L 235.10 108.49 L 238.75 110.42 L 242.60 111.93 L 246.59 113.02 L 250.65 113.73 L 254.75 114.10 L 258.86 114.20 L 262.97 114.10 L 267.07 113.87 L 271.15 113.56 L 275.24 113.21 L 279.32 112.84 L 283.40 112.46 L 287.48 112.07 L 291.55 111.69 L 295.63 111.30 L 299.71 110.92 L 303.79 110.55 L 307.87 110.18 L 311.97 109.83 L 316.10 109.52 L 320.29 109.27 L 324.59 109.09 L 329.04 109.01 L 333.72 109.06 L 338.67 109.24 L 343.91 109.56 L 349.42 109.99 L 355.15 110.52 L 361.03 111.10 L 367.01 111.73 L 373.04 112.38 L 379.10 113.04 L 385.16 113.71 L 391.22 114.38 L 397.27 115.04 L 403.29 115.71 L 409.25 116.39 L 415.11 117.06 L 420.81 117.75 L 426.27 118.47 L 431.44 119.23 L 436.29 120.06 L 440.82 121.00 L 445.09 122.08 L 449.12 123.35 L 452.97 124.83 L 456.66 126.53 L 460.20 128.45 L 463.60 130.61 L 466.84 132.98 L 469.92 135.56 L 472.82 138.34 L 475.52 141.31 L 478.02 144.46 L 480.32 147.76 L 482.39 151.20 L 484.24 154.78 L 485.84 158.47 L 487.19 162.26 L 488.29 166.14 L 489.12 170.08 L 489.69 174.07 L 489.98 178.09 L 490.00 182.12 L 489.75 186.14 L 489.22 190.14 L 488.44 194.08 L 487.38 197.97 L 486.08 201.78 L 484.53 205.50 L 482.76 209.12 L 480.78 212.63 L 478.60 216.03 L 476.26 219.32 L 473.77 222.52 L 471.17 225.65 L 468.50 228.71 L 465.77 231.74 L 463.02 234.75 L 460.25 237.74 L 457.47 240.73 L 454.69 243.71 L 451.91 246.70 L 449.12 249.69 L 446.33 252.68 L 443.53 255.67 L 440.71 258.69 L 437.85 261.75 L 434.92 264.88 L 431.90 268.12 L 428.73 271.50 Z" />
</symbol>
<symbol id="bl3">
<path d="M 412.36 284.52 L 411.39 291.01 L 410.25 297.51 L 408.99 304.00 L 407.67 310.50 L 406.32 316.99 L 404.96 323.48 L 403.60 329.97 L 402.23 336.45 L 400.86 342.94 L 399.48 349.42 L 398.11 355.90 L 396.71 362.37 L 395.30 368.84 L 393.84 375.29 L 392.29 381.71 L 390.61 388.08 L 388.75 394.39 L 386.73 400.62 L 384.50 406.82 L 381.85 412.83 L 378.67 418.55 L 375.04 423.99 L 370.96 429.08 L 366.48 433.83 L 361.60 438.18 L 356.38 442.11 L 350.84 445.57 L 345.03 448.54 L 338.99 451.02 L 332.77 452.99 L 326.40 454.43 L 319.94 455.33 L 313.42 455.67 L 306.90 455.48 L 300.43 454.70 L 294.04 453.42 L 287.80 451.59 L 281.73 449.25 L 275.89 446.40 L 270.28 443.16 L 264.93 439.53 L 259.80 435.55 L 254.92 431.24 L 250.26 426.66 L 245.79 421.87 L 241.45 416.92 L 237.22 411.88 L 233.05 406.76 L 228.92 401.62 L 224.80 396.45 L 220.70 391.28 L 216.59 386.09 L 212.49 380.91 L 208.38 375.72 L 204.28 370.53 L 200.17 365.34 L 196.07 360.14 L 191.98 354.94 L 187.92 349.73 L 183.92 344.49 L 180.02 339.23 L 176.29 333.94 L 172.84 328.62 L 169.73 323.29 L 167.05 318.01 L 164.80 312.83 L 162.93 307.79 L 161.34 302.93 L 159.89 298.24 L 158.46 293.72 L 156.94 289.34 L 155.26 285.09 L 153.38 280.97 L 151.28 276.97 L 148.98 273.09 L 146.50 269.32 L 143.88 265.65 L 141.18 262.04 L 138.49 258.44 L 135.91 254.81 L 133.55 251.08 L 131.52 247.21 L 129.91 243.19 L 128.80 239.03 L 128.21 234.76 L 128.20 230.43 L 128.76 226.09 L 129.90 221.83 L 131.56 217.70 L 133.68 213.76 L 136.20 210.04 L 139.04 206.54 L 142.11 203.22 L 145.32 200.03 L 148.62 196.93 L 151.93 193.84 L 155.18 190.72 L 158.31 187.49 L 161.24 184.10 L 163.87 180.51 L 166.14 176.69 L 167.96 172.63 L 169.28 168.36 L 170.06 163.88 L 170.26 159.25 L 169.90 154.49 L 169.02 149.66 L 167.70 144.76 L 166.02 139.83 L 164.12 134.89 L 162.09 129.94 L 160.03 125.00 L 158.04 120.05 L 156.19 115.10 L 154.56 110.14 L 153.23 105.19 L 152.23 100.24 L 151.53 95.28 L 151.43 90.31 L 152.02 85.43 L 153.41 80.72 L 155.45 76.25 L 158.18 72.14 L 161.50 68.46 L 165.38 65.34 L 169.72 62.80 L 174.30 60.69 L 179.01 58.79 L 183.86 57.18 L 188.81 55.81 L 193.82 54.60 L 198.86 53.50 L 203.92 52.46 L 208.99 51.45 L 214.06 50.47 L 219.13 49.51 L 224.21 48.57 L 229.29 47.69 L 234.37 46.90 L 239.45 46.27 L 244.51 45.87 L 249.55 45.74 L 254.54 45.86 L 259.47 46.53 L 264.20 47.90 L 268.65 49.96 L 272.73 52.65 L 276.38 55.91 L 279.50 59.67 L 282.03 63.87 L 283.94 68.41 L 285.36 73.14 L 286.44 78.01 L 287.15 83.00 L 287.58 88.09 L 287.82 93.23 L 287.94 98.40 L 288.00 103.58 L 288.03 108.77 L 288.05 113.97 L 288.07 119.17 L 288.10 124.36 L 288.16 129.56 L 288.27 134.76 L 288.48 139.94 L 288.83 145.10 L 289.39 150.20 L 290.23 155.23 L 291.39 160.12 L 292.93 164.82 L 294.87 169.29 L 297.24 173.48 L 300.00 177.37 L 303.15 180.93 L 306.63 184.17 L 310.39 187.11 L 314.38 189.78 L 318.53 192.24 L 322.79 194.54 L 327.13 196.74 L 331.51 198.87 L 335.90 200.97 L 340.31 203.05 L 344.72 205.12 L 349.14 207.19 L 353.55 209.26 L 357.96 211.33 L 362.37 213.41 L 366.79 215.51 L 371.20 217.64 L 375.61 219.83 L 380.03 222.14 L 384.43 224.64 L 388.80 227.39 L 393.11 230.49 L 397.32 233.98 L 401.49 237.82 L 405.39 242.23 L 408.72 247.28 L 411.33 252.90 L 413.11 258.93 L 413.99 265.22 L 413.87 271.63 L 413.14 278.05 Z" />
</symbol>
</defs>
<!-- isDone: 0 -->
<rect width="700" height="500" style="fill:#fff;stroke-width:0" />
<use class="p0 borderLine" xlink:href="#bl0"/>
<use class="p1 borderLine" xlink:href="#bl1"/>
<use class="p2 borderLine" xlink:href="#bl2"/>
<use class="p3 borderLine" xlink:href="#bl3"/>
<use class="q0 outLine" xlink:href="#bl0"/>
<use class="q1 outLine" xlink:href="#bl1"/>
<use class="q2 outLine" xlink:href="#bl2"/>
<use class="q3 outLine" xlink:href="#bl3"/>
<circle onclick="fromCircle(8)" class="circle" cx="84.6586" cy="314.8401" r="73.6538" />
<text class="nLabel" x="84.66" y="309.84">929</text>
<text class="belong" x="84.66" y="319.84">(1)</text>
<circle onclick="fromCircle(12)" class="circle" cx="100.3061" cy="207.3200" r="27.6582" />
<text class="nLabel" x="100.31" y="202.32">131</text>
<text class="belong" x="100.31" y="212.32">(1, 2)</text>
<circle onclick="fromCircle(14)" class="circle" cx="140.7710" cy="160.2151" r="29.1987" />
<text class="nLabel" x="140.77" y="155.22">146</text>
<text class="belong" x="140.77" y="165.22">(1, 2, 3)</text>
<circle onclick="fromCircle(15)" class="circle" cx="230.8707" cy="172.4211" r="57.0315" />
<text class="nLabel" x="230.87" y="167.42">557</text>
<text class="belong" x="230.87" y="177.42">(1, 2, 3, 4)</text>
<circle onclick="fromCircle(4)" class="circle" cx="72.2789" cy="144.5290" r="33.7446" />
<text class="nLabel" x="72.28" y="139.53">195</text>
<text class="belong" x="72.28" y="149.53">(2)</text>
<circle onclick="fromCircle(6)" class="circle" cx="125.6063" cy="105.2847" r="23.7998" />
<text class="nLabel" x="125.61" y="100.28">97</text>
<text class="belong" x="125.61" y="110.28">(2, 3)</text>
<circle onclick="fromCircle(7)" class="circle" cx="183.7119" cy="91.9741" r="32.2402" />
<text class="nLabel" x="183.71" y="86.97">178</text>
<text class="belong" x="183.71" y="96.97">(2, 3, 4)</text>
<circle onclick="fromCircle(5)" class="circle" cx="252.6212" cy="78.7601" r="32.8680" />
<text class="nLabel" x="252.62" y="73.76">185</text>
<text class="belong" x="252.62" y="83.76">(2, 4)</text>
<circle onclick="fromCircle(2)" class="circle" cx="431.6811" cy="180.3163" r="58.2473" />
<text class="nLabel" x="431.68" y="175.32">581</text>
<text class="belong" x="431.68" y="185.32">(3)</text>
<circle onclick="fromCircle(10)" class="circle" cx="331.9248" cy="151.0647" r="39.8540" />
<text class="nLabel" x="331.92" y="146.06">272</text>
<text class="belong" x="331.92" y="156.06">(1, 3)</text>
<circle onclick="fromCircle(11)" class="circle" cx="288.2192" cy="254.9423" r="37.6696" />
<text class="nLabel" x="288.22" y="249.94">243</text>
<text class="belong" x="288.22" y="259.94">(1, 3, 4)</text>
<circle onclick="fromCircle(3)" class="circle" cx="372.0073" cy="267.7662" r="41.9248" />
<text class="nLabel" x="372.01" y="262.77">301</text>
<text class="belong" x="372.01" y="272.77">(3, 4)</text>
<circle onclick="fromCircle(1)" class="circle" cx="312.6116" cy="378.3533" r="77.2526" />
<text class="nLabel" x="312.61" y="373.35">1022</text>
<text class="belong" x="312.61" y="383.35">(4)</text>
<circle onclick="fromCircle(9)" class="circle" cx="209.8426" cy="299.1423" r="46.0406" />
<text class="nLabel" x="209.84" y="294.14">363</text>
<text class="belong" x="209.84" y="304.14">(1, 4)</text>
<circle onclick="fromCircle(13)" class="circle" cx="159.5550" cy="232.2416" r="31.1345" />
<text class="nLabel" x="159.56" y="227.24">166</text>
<text class="belong" x="159.56" y="237.24">(1, 2, 4)</text>
<g id="legendBox">
<rect class="p0 borderLine" x="500.00" y="50.00" width="30.00" height="15.00" />
<rect class="q0" x="500.00" y="50.00" width="30.00" height="15.00" />
<text class="legend" x="540.00" y="65.00">B6D2F1 pure (N=1)</text>
<rect class="p1 borderLine" x="500.00" y="90.00" width="30.00" height="15.00" />
<rect class="q1" x="500.00" y="90.00" width="30.00" height="15.00" />
<text class="legend" x="540.00" y="105.00">C57BL/6 x mix (N=3)</text>
<rect class="p2 borderLine" x="500.00" y="130.00" width="30.00" height="15.00" />
<rect class="q2" x="500.00" y="130.00" width="30.00" height="15.00" />
<text class="legend" x="540.00" y="145.00">C57BL/6 pure (N=3)</text>
<rect class="p3 borderLine" x="500.00" y="170.00" width="30.00" height="15.00" />
<rect class="q3" x="500.00" y="170.00" width="30.00" height="15.00" />
<text class="legend" x="540.00" y="185.00">CAST/EiJxC57BL/6J (N=1)</text>
</g>
</svg>
