<svg xmlns="http://www.w3.org/2000/svg" xmlns:xlink="http://www.w3.org/1999/xlink" width="700" height="500">
<defs>
<style type="text/css"><![CDATA[
  .borderLine {
	   stroke: none;
	   fill-opacity:  0.4 ;
  }
  .outLine {
	   stroke-width:  1 ;
	   fill: none;
  }
  .circle {
	   stroke: #888888;
	   stroke-width: 0.5;
	   fill: none;
    pointer-events: all;
  }
  .nLabel {
	   font-family: Arial;
    pointer-events: none;
	   font-size: 10px;
	   text-anchor: middle;
	   alignment-baseline: central;
  }
  .belong {
	   font-family: Arial;
    pointer-events: none;
	   font-size: 5px;
	   text-anchor: middle;
	   alignment-baseline: central;
  }
  .legend {
    font-family: Arial;
    font-size: 15px;
  }
  #legendBox {
    display:  inline ;
  }
  .p0{
    stroke: none;
    fill: #e6194b;
  }
  .q0{
    fill: none;
    stroke: #e6194b;
  }
  .p1{
    stroke: none;
    fill: #3cb44b;
  }
  .q1{
    fill: none;
    stroke: #3cb44b;
  }
  .p2{
    stroke: none;
    fill: #ffe119;
  }
  .q2{
    fill: none;
    stroke: #ffe119;
  }
  .p3{
    stroke: none;
    fill: #0082c8;
  }
  .q3{
    fill: none;
    stroke: #0082c8;
  }
  .p4{
    stroke: none;
    fill: #f58231;
  }
  .q4{
    fill: none;
    stroke: #f58231;
  }
]]>
</style>
<symbol id="bl0">
<path d="M 334.30 310.21 L 332.60 313.50 L 331.04 316.90 L 329.59 320.38 L 328.22 323.94 L 326.90 327.56 L 325.62 331.21 L 324.36 334.90 L 323.11 338.60 L 321.85 342.30 L 320.57 346.00 L 319.26 349.69 L 317.91 353.35 L 316.48 356.99 L 314.97 360.59 L 313.34 364.14 L 311.60 367.64 L 309.72 371.07 L 307.70 374.44 L 305.55 377.74 L 303.30 380.98 L 300.95 384.15 L 298.52 387.26 L 296.05 390.33 L 293.54 393.36 L 291.01 396.36 L 288.48 399.34 L 285.93 402.30 L 283.39 405.25 L 280.84 408.19 L 278.30 411.13 L 275.76 414.07 L 273.22 417.00 L 270.68 419.94 L 268.14 422.87 L 265.60 425.79 L 263.06 428.72 L 260.51 431.64 L 257.95 434.55 L 255.38 437.45 L 252.80 440.33 L 250.19 443.18 L 247.55 446.00 L 244.87 448.76 L 242.13 451.45 L 239.33 454.05 L 236.44 456.54 L 233.47 458.91 L 230.42 461.17 L 227.28 463.29 L 224.04 465.27 L 220.69 467.09 L 217.24 468.74 L 213.68 470.11 L 210.05 471.29 L 206.36 472.21 L 202.62 472.91 L 198.83 473.37 L 195.02 473.57 L 191.22 473.54 L 187.42 473.25 L 183.65 472.73 L 179.92 471.98 L 176.23 470.99 L 172.62 469.75 L 169.09 468.32 L 165.68 466.60 L 162.37 464.71 L 159.19 462.61 L 156.16 460.33 L 153.28 457.85 L 150.57 455.18 L 148.02 452.36 L 145.67 449.36 L 143.50 446.23 L 141.54 442.97 L 139.78 439.58 L 138.24 436.06 L 136.91 432.48 L 135.70 428.87 L 134.61 425.22 L 133.62 421.53 L 132.74 417.79 L 131.96 414.02 L 131.27 410.22 L 130.63 406.39 L 130.04 402.55 L 129.48 398.70 L 128.94 394.83 L 128.42 390.96 L 127.90 387.08 L 127.38 383.20 L 126.87 379.32 L 126.36 375.43 L 125.84 371.54 L 125.33 367.65 L 124.81 363.75 L 124.30 359.85 L 123.80 355.94 L 123.31 352.03 L 122.84 348.13 L 122.40 344.22 L 122.01 340.31 L 121.69 336.41 L 121.47 332.53 L 121.38 328.66 L 121.46 324.82 L 121.69 321.02 L 122.11 317.28 L 122.81 313.61 L 123.85 310.04 L 125.31 306.65 L 127.03 303.42 L 129.02 300.39 L 131.21 297.51 L 133.60 294.81 L 136.19 292.28 L 138.93 289.91 L 141.80 287.68 L 144.77 285.57 L 147.80 283.54 L 150.88 281.56 L 153.98 279.59 L 157.06 277.61 L 160.10 275.56 L 163.07 273.41 L 165.93 271.12 L 168.66 268.66 L 171.24 266.04 L 173.65 263.23 L 175.72 260.11 L 177.50 256.80 L 179.16 253.41 L 180.69 249.97 L 182.11 246.53 L 183.47 243.11 L 184.77 239.75 L 186.02 236.43 L 187.60 233.38 L 189.67 230.70 L 192.00 228.32 L 194.35 225.97 L 196.74 223.65 L 199.20 221.37 L 201.72 219.12 L 204.31 216.88 L 206.95 214.64 L 209.61 212.38 L 212.29 210.10 L 214.97 207.78 L 217.65 205.44 L 220.33 203.09 L 223.01 200.74 L 225.69 198.41 L 228.37 196.12 L 231.07 193.89 L 233.77 191.73 L 236.46 189.64 L 239.13 187.61 L 241.76 185.64 L 244.33 183.69 L 246.85 181.76 L 249.28 179.76 L 251.42 177.53 L 253.16 175.00 L 254.41 172.18 L 255.25 169.16 L 255.70 166.02 L 256.03 162.81 L 256.26 159.53 L 256.37 156.19 L 256.33 152.80 L 256.16 149.37 L 255.87 145.92 L 255.45 142.47 L 254.91 139.04 L 254.24 135.64 L 253.44 132.28 L 252.51 128.98 L 251.44 125.74 L 250.25 122.55 L 248.98 119.39 L 247.53 116.31 L 246.08 113.22 L 244.66 110.12 L 243.31 106.99 L 242.05 103.83 L 240.89 100.62 L 239.81 97.37 L 238.98 94.01 L 238.65 90.63 L 238.91 87.30 L 239.65 84.10 L 240.85 81.11 L 242.47 78.38 L 244.43 75.96 L 246.67 73.88 L 249.17 72.20 L 251.84 70.90 L 254.63 69.97 L 257.51 69.47 L 260.44 69.34 L 263.38 69.63 L 266.29 70.36 L 269.12 71.51 L 271.83 73.08 L 274.33 75.02 L 276.76 77.01 L 279.21 78.99 L 281.65 80.99 L 284.08 83.03 L 286.49 85.10 L 288.89 87.18 L 291.29 89.27 L 293.69 91.35 L 296.10 93.42 L 298.49 95.47 L 300.87 97.54 L 303.21 99.63 L 305.51 101.77 L 307.78 103.95 L 309.94 106.28 L 311.91 108.82 L 313.72 111.49 L 315.55 114.21 L 317.37 116.96 L 319.22 119.72 L 321.13 122.43 L 323.12 125.06 L 325.22 127.55 L 327.46 129.85 L 329.83 131.96 L 332.36 133.81 L 335.04 135.36 L 337.88 136.58 L 340.82 137.44 L 343.83 137.94 L 346.89 138.10 L 349.96 137.96 L 353.03 137.52 L 356.08 136.82 L 359.13 135.88 L 362.16 134.78 L 365.19 133.59 L 368.23 132.38 L 371.31 131.23 L 374.44 130.17 L 377.63 129.18 L 380.92 128.32 L 384.33 127.91 L 387.81 127.98 L 391.30 128.66 L 394.72 129.89 L 397.97 131.69 L 400.90 134.11 L 403.45 137.03 L 405.53 140.41 L 407.46 143.90 L 409.40 147.43 L 411.29 151.04 L 413.11 154.73 L 414.85 158.49 L 416.53 162.30 L 418.17 166.15 L 419.76 170.03 L 421.32 173.92 L 422.85 177.82 L 424.32 181.73 L 425.71 185.66 L 427.01 189.60 L 428.19 193.55 L 429.24 197.52 L 430.24 201.47 L 431.09 205.46 L 431.50 209.47 L 431.42 213.46 L 430.87 217.39 L 429.81 221.18 L 428.33 224.79 L 426.47 228.19 L 424.21 231.30 L 421.73 234.20 L 419.16 236.98 L 416.50 239.68 L 413.72 242.29 L 410.83 244.84 L 407.85 247.35 L 404.78 249.85 L 401.66 252.37 L 398.48 254.91 L 395.26 257.47 L 392.01 260.03 L 388.73 262.61 L 385.41 265.17 L 382.07 267.72 L 378.69 270.25 L 375.29 272.75 L 371.87 275.23 L 368.43 277.69 L 364.99 280.15 L 361.57 282.60 L 358.19 285.07 L 354.88 287.57 L 351.67 290.12 L 348.61 292.72 L 345.71 295.40 L 343.00 298.15 L 340.51 301.01 L 338.23 303.97 L 336.17 307.03 Z" />
</symbol>
<symbol id="bl1">
<path d="M 277.26 278.03 L 275.01 281.11 L 272.84 284.28 L 270.73 287.51 L 268.66 290.78 L 266.61 294.07 L 264.57 297.39 L 262.54 300.72 L 260.51 304.05 L 258.48 307.39 L 256.46 310.72 L 254.44 314.04 L 252.43 317.34 L 250.42 320.60 L 248.42 323.80 L 246.41 326.92 L 244.38 329.93 L 242.32 332.79 L 240.20 335.48 L 238.01 337.96 L 235.71 340.22 L 233.33 342.26 L 230.81 344.03 L 228.14 345.50 L 225.33 346.67 L 222.42 347.55 L 219.44 348.25 L 216.39 348.78 L 213.29 349.15 L 210.15 349.41 L 206.98 349.60 L 203.80 349.74 L 200.61 349.89 L 197.42 350.05 L 194.22 350.27 L 191.04 350.55 L 187.86 350.90 L 184.70 351.34 L 181.54 351.86 L 178.40 352.43 L 175.27 353.05 L 172.15 353.66 L 169.04 354.25 L 165.95 354.76 L 162.86 355.16 L 159.79 355.41 L 156.73 355.50 L 153.68 355.41 L 150.65 355.14 L 147.64 354.70 L 144.64 354.10 L 141.66 353.36 L 138.69 352.51 L 135.74 351.58 L 132.81 350.58 L 129.88 349.53 L 126.96 348.45 L 124.04 347.36 L 121.12 346.25 L 118.21 345.14 L 115.30 344.02 L 112.39 342.89 L 109.48 341.77 L 106.57 340.64 L 103.67 339.51 L 100.76 338.38 L 97.86 337.25 L 94.96 336.11 L 92.06 334.98 L 89.16 333.85 L 86.27 332.72 L 83.38 331.60 L 80.49 330.48 L 77.61 329.36 L 74.72 328.24 L 71.84 327.12 L 68.96 325.99 L 66.08 324.85 L 63.21 323.70 L 60.34 322.53 L 57.49 321.32 L 54.66 320.08 L 51.85 318.78 L 49.08 317.41 L 46.36 315.97 L 43.68 314.44 L 41.07 312.82 L 38.53 311.10 L 36.05 309.29 L 33.65 307.38 L 31.34 305.37 L 29.12 303.26 L 27.00 301.04 L 24.98 298.73 L 23.07 296.32 L 21.27 293.82 L 19.56 291.25 L 18.00 288.58 L 16.53 285.85 L 15.25 283.03 L 14.07 280.17 L 13.06 277.24 L 12.18 274.26 L 11.44 271.25 L 10.87 268.21 L 10.42 265.15 L 10.15 262.07 L 10.00 258.99 L 10.02 255.91 L 10.20 252.84 L 10.49 249.79 L 10.99 246.76 L 11.58 243.77 L 12.30 240.80 L 13.16 237.88 L 14.15 235.01 L 15.28 232.18 L 16.53 229.41 L 17.90 226.69 L 19.39 224.03 L 20.98 221.43 L 22.68 218.89 L 24.48 216.41 L 26.37 213.99 L 28.34 211.62 L 30.38 209.31 L 32.48 207.03 L 34.62 204.79 L 36.80 202.58 L 39.01 200.38 L 41.23 198.21 L 43.47 196.04 L 45.72 193.88 L 47.97 191.72 L 50.23 189.56 L 52.49 187.41 L 54.75 185.26 L 57.01 183.11 L 59.28 180.96 L 61.54 178.81 L 63.81 176.67 L 66.07 174.52 L 68.33 172.38 L 70.60 170.24 L 72.86 168.11 L 75.13 165.97 L 77.40 163.83 L 79.67 161.69 L 81.95 159.54 L 84.23 157.40 L 86.51 155.26 L 88.78 153.11 L 91.06 150.97 L 93.34 148.83 L 95.62 146.68 L 97.89 144.54 L 100.17 142.40 L 102.44 140.25 L 104.72 138.10 L 106.99 135.96 L 109.27 133.81 L 111.55 131.66 L 113.84 129.51 L 116.12 127.36 L 118.41 125.21 L 120.71 123.06 L 123.00 120.91 L 125.30 118.77 L 127.61 116.63 L 129.92 114.49 L 132.24 112.37 L 134.57 110.26 L 136.91 108.18 L 139.28 106.13 L 141.68 104.13 L 144.12 102.19 L 146.61 100.34 L 149.15 98.59 L 151.76 96.96 L 154.44 95.48 L 157.19 94.16 L 160.01 93.03 L 162.89 92.09 L 165.83 91.36 L 168.81 90.83 L 171.83 90.51 L 174.87 90.39 L 177.92 90.46 L 180.98 90.70 L 184.03 91.10 L 187.07 91.64 L 190.11 92.29 L 193.14 93.03 L 196.15 93.83 L 199.17 94.68 L 202.17 95.57 L 205.18 96.48 L 208.18 97.40 L 211.18 98.33 L 214.18 99.27 L 217.18 100.22 L 220.17 101.18 L 223.15 102.16 L 226.11 103.19 L 229.03 104.26 L 231.90 105.42 L 234.71 106.67 L 237.42 108.05 L 240.03 109.56 L 242.51 111.23 L 244.86 113.05 L 247.05 115.03 L 249.10 117.15 L 251.01 119.39 L 252.79 121.74 L 254.48 124.17 L 256.08 126.66 L 257.62 129.20 L 259.12 131.77 L 260.59 134.35 L 262.03 136.95 L 263.47 139.56 L 264.91 142.17 L 266.34 144.79 L 267.77 147.40 L 269.21 150.02 L 270.65 152.63 L 272.10 155.25 L 273.55 157.86 L 275.01 160.47 L 276.47 163.08 L 277.93 165.69 L 279.39 168.30 L 280.85 170.92 L 282.33 173.53 L 283.82 176.15 L 285.34 178.77 L 286.91 181.39 L 288.53 184.02 L 290.25 186.63 L 292.07 189.23 L 294.03 191.80 L 296.14 194.32 L 298.42 196.76 L 300.89 199.09 L 303.53 201.30 L 306.36 203.36 L 309.35 205.27 L 312.48 207.01 L 315.73 208.61 L 319.08 210.09 L 322.49 211.49 L 325.93 212.84 L 329.39 214.18 L 332.84 215.55 L 336.28 216.97 L 339.69 218.45 L 343.06 220.02 L 346.40 221.65 L 349.70 223.36 L 352.96 225.12 L 356.17 226.93 L 359.32 228.78 L 362.40 230.67 L 365.38 232.61 L 368.22 234.60 L 370.90 236.64 L 373.38 238.74 L 375.62 240.91 L 377.63 243.12 L 379.37 245.40 L 380.78 247.78 L 381.80 250.24 L 382.40 252.75 L 382.64 255.27 L 382.53 257.76 L 382.07 260.19 L 381.32 262.54 L 380.20 264.73 L 378.83 266.77 L 377.20 268.61 L 375.34 270.21 L 373.28 271.55 L 371.06 272.62 L 368.72 273.41 L 366.28 273.93 L 363.77 274.19 L 361.21 274.20 L 358.63 273.96 L 356.04 273.50 L 353.45 272.87 L 350.87 272.09 L 348.29 271.19 L 345.73 270.20 L 343.17 269.15 L 340.62 268.06 L 338.06 266.94 L 335.49 265.82 L 332.90 264.71 L 330.28 263.63 L 327.61 262.60 L 324.88 261.63 L 322.07 260.77 L 319.16 260.04 L 316.15 259.48 L 313.03 259.13 L 309.83 259.03 L 306.55 259.22 L 303.23 259.72 L 299.91 260.55 L 296.65 261.72 L 293.46 263.23 L 290.40 265.07 L 287.48 267.20 L 284.71 269.60 L 282.09 272.24 L 279.61 275.06 Z" />
</symbol>
<symbol id="bl2">
<path d="M 411.79 146.41 L 411.02 149.00 L 410.20 151.55 L 409.29 154.06 L 408.29 156.52 L 407.16 158.90 L 405.90 161.20 L 404.49 163.38 L 402.93 165.44 L 401.20 167.37 L 399.32 169.16 L 397.31 170.81 L 395.17 172.34 L 392.93 173.77 L 390.62 175.13 L 388.27 176.44 L 385.88 177.74 L 383.50 179.05 L 381.12 180.39 L 378.76 181.78 L 376.43 183.23 L 374.13 184.73 L 371.87 186.28 L 369.62 187.88 L 367.40 189.51 L 365.18 191.16 L 362.98 192.83 L 360.78 194.50 L 358.58 196.17 L 356.37 197.81 L 354.14 199.43 L 351.88 200.99 L 349.59 202.50 L 347.26 203.94 L 344.88 205.30 L 342.46 206.57 L 340.00 207.76 L 337.49 208.87 L 334.95 209.92 L 332.39 210.91 L 329.83 211.89 L 327.28 212.87 L 324.76 213.88 L 322.29 214.97 L 319.90 216.16 L 317.60 217.48 L 315.43 218.95 L 313.39 220.58 L 311.50 222.38 L 309.76 224.34 L 308.17 226.46 L 306.71 228.70 L 305.36 231.03 L 304.07 233.44 L 302.83 235.87 L 301.58 238.31 L 300.29 240.73 L 298.95 243.10 L 297.52 245.41 L 296.00 247.66 L 294.39 249.83 L 292.68 251.94 L 290.89 253.98 L 289.03 255.97 L 287.10 257.90 L 285.12 259.80 L 283.11 261.67 L 281.07 263.51 L 279.00 265.34 L 276.93 267.15 L 274.84 268.95 L 272.75 270.75 L 270.66 272.55 L 268.56 274.34 L 266.46 276.13 L 264.36 277.92 L 262.25 279.71 L 260.14 281.49 L 258.02 283.27 L 255.88 285.02 L 253.74 286.74 L 251.57 288.43 L 249.37 290.05 L 247.14 291.59 L 244.86 293.02 L 242.53 294.31 L 240.14 295.44 L 237.69 296.39 L 235.18 297.14 L 232.61 297.69 L 229.98 298.06 L 227.29 298.24 L 224.54 298.28 L 221.72 298.21 L 218.85 298.06 L 215.92 297.85 L 212.93 297.60 L 209.90 297.33 L 206.84 297.04 L 203.76 296.71 L 200.67 296.34 L 197.60 295.91 L 194.57 295.39 L 191.59 294.76 L 188.67 294.01 L 185.82 293.11 L 183.05 292.05 L 180.35 290.84 L 177.70 289.47 L 175.08 287.96 L 172.49 286.32 L 169.90 284.57 L 167.32 282.73 L 164.74 280.81 L 162.17 278.82 L 159.63 276.77 L 157.15 274.65 L 154.76 272.46 L 152.51 270.21 L 150.42 267.88 L 148.50 265.50 L 146.70 263.10 L 145.18 260.58 L 144.12 257.94 L 143.51 255.22 L 143.40 252.45 L 143.75 249.67 L 144.52 246.93 L 145.56 244.24 L 146.76 241.56 L 148.17 238.90 L 149.78 236.28 L 151.55 233.71 L 153.43 231.20 L 155.40 228.76 L 157.42 226.41 L 159.48 224.16 L 161.56 222.04 L 163.66 220.07 L 165.78 218.28 L 167.93 216.69 L 170.10 215.30 L 172.35 214.15 L 174.72 213.38 L 177.17 213.00 L 179.65 212.78 L 182.19 212.75 L 184.78 212.86 L 187.40 213.08 L 190.05 213.31 L 192.71 213.51 L 195.38 213.61 L 198.03 213.55 L 200.65 213.31 L 203.22 212.85 L 205.72 212.16 L 208.12 211.24 L 210.41 210.07 L 212.57 208.68 L 214.56 207.08 L 216.36 205.27 L 217.96 203.29 L 219.34 201.15 L 220.48 198.87 L 221.36 196.50 L 221.99 194.04 L 222.35 191.54 L 222.46 189.00 L 222.34 186.45 L 221.99 183.91 L 221.48 181.38 L 220.82 178.87 L 220.09 176.37 L 219.32 173.87 L 218.55 171.37 L 217.84 168.85 L 217.19 166.31 L 216.63 163.75 L 216.14 161.17 L 215.74 158.56 L 215.40 155.94 L 215.11 153.31 L 214.86 150.66 L 214.65 148.01 L 214.46 145.36 L 214.29 142.71 L 214.14 140.06 L 214.02 137.41 L 213.95 134.77 L 213.92 132.13 L 213.95 129.50 L 214.06 126.89 L 214.26 124.29 L 214.61 121.72 L 215.07 119.17 L 215.64 116.65 L 216.34 114.14 L 217.14 111.66 L 218.04 109.20 L 219.01 106.76 L 220.03 104.32 L 221.10 101.89 L 222.19 99.46 L 223.30 97.03 L 224.42 94.60 L 225.54 92.18 L 226.67 89.75 L 227.79 87.31 L 228.92 84.88 L 230.04 82.45 L 231.16 80.01 L 232.28 77.58 L 233.40 75.14 L 234.52 72.71 L 235.63 70.27 L 236.75 67.84 L 237.86 65.40 L 238.98 62.97 L 240.10 60.54 L 241.23 58.11 L 242.36 55.68 L 243.50 53.25 L 244.64 50.83 L 245.80 48.42 L 246.96 46.01 L 248.15 43.62 L 249.37 41.25 L 250.62 38.90 L 251.93 36.59 L 253.30 34.34 L 254.75 32.15 L 256.30 30.05 L 257.95 28.05 L 259.73 26.17 L 261.62 24.43 L 263.62 22.85 L 265.73 21.41 L 267.96 20.16 L 270.28 19.10 L 272.69 18.26 L 275.18 17.62 L 277.71 17.20 L 280.29 17.06 L 282.88 17.15 L 285.46 17.45 L 288.03 17.93 L 290.58 18.57 L 293.12 19.31 L 295.64 20.16 L 298.14 21.11 L 300.62 22.13 L 303.08 23.22 L 305.53 24.34 L 307.97 25.49 L 310.40 26.66 L 312.82 27.84 L 315.24 29.02 L 317.66 30.21 L 320.08 31.40 L 322.50 32.59 L 324.92 33.78 L 327.34 34.96 L 329.76 36.15 L 332.18 37.33 L 334.60 38.52 L 337.03 39.71 L 339.45 40.89 L 341.87 42.08 L 344.29 43.26 L 346.72 44.45 L 349.14 45.63 L 351.57 46.82 L 353.99 48.00 L 356.42 49.19 L 358.84 50.38 L 361.27 51.57 L 363.70 52.76 L 366.13 53.96 L 368.56 55.16 L 370.99 56.37 L 373.42 57.58 L 375.84 58.79 L 378.27 60.01 L 380.70 61.23 L 383.12 62.45 L 385.55 63.67 L 387.97 64.89 L 390.39 66.12 L 392.81 67.36 L 395.21 68.61 L 397.59 69.88 L 399.95 71.19 L 402.26 72.55 L 404.52 73.96 L 406.71 75.46 L 408.82 77.04 L 410.86 78.69 L 412.77 80.46 L 414.54 82.35 L 416.12 84.40 L 417.46 86.61 L 418.57 88.94 L 419.44 91.37 L 420.11 93.85 L 420.56 96.40 L 420.84 98.97 L 420.96 101.58 L 420.92 104.21 L 420.73 106.86 L 420.42 109.51 L 420.01 112.16 L 419.52 114.81 L 418.97 117.46 L 418.39 120.10 L 417.77 122.75 L 417.14 125.39 L 416.50 128.03 L 415.86 130.67 L 415.21 133.31 L 414.55 135.94 L 413.89 138.57 L 413.21 141.19 L 412.52 143.81 Z" />
</symbol>
<symbol id="bl3">
<path d="M 484.85 307.27 L 482.98 310.59 L 480.86 313.75 L 478.50 316.74 L 475.88 319.51 L 473.06 322.09 L 470.03 324.43 L 466.81 326.53 L 463.42 328.36 L 459.97 330.04 L 456.48 331.61 L 452.92 333.09 L 449.30 334.45 L 445.63 335.71 L 441.92 336.89 L 438.19 338.02 L 434.43 339.11 L 430.65 340.17 L 426.87 341.21 L 423.08 342.25 L 419.29 343.28 L 415.50 344.32 L 411.71 345.35 L 407.92 346.37 L 404.13 347.39 L 400.34 348.39 L 396.56 349.38 L 392.78 350.34 L 389.02 351.24 L 385.27 352.09 L 381.55 352.84 L 377.86 353.48 L 374.21 353.96 L 370.62 354.27 L 367.09 354.39 L 363.60 354.27 L 360.16 353.88 L 356.76 353.20 L 353.40 352.28 L 350.05 351.13 L 346.73 349.75 L 343.42 348.19 L 340.12 346.45 L 336.83 344.59 L 333.55 342.63 L 330.29 340.60 L 327.03 338.53 L 323.78 336.43 L 320.55 334.32 L 317.32 332.22 L 314.13 330.13 L 310.96 328.07 L 307.85 326.04 L 304.79 324.05 L 301.81 322.11 L 298.92 320.21 L 296.14 318.33 L 293.47 316.47 L 290.93 314.61 L 288.51 312.72 L 286.20 310.80 L 284.00 308.83 L 281.90 306.82 L 279.87 304.75 L 277.91 302.64 L 276.00 300.49 L 274.12 298.31 L 272.27 296.12 L 270.44 293.91 L 268.62 291.69 L 266.80 289.47 L 264.99 287.24 L 263.18 285.02 L 261.37 282.79 L 259.55 280.57 L 257.71 278.36 L 255.84 276.16 L 253.93 273.99 L 251.97 271.86 L 249.92 269.80 L 247.78 267.82 L 245.54 265.97 L 243.17 264.28 L 240.70 262.78 L 238.12 261.52 L 235.45 260.52 L 232.72 259.80 L 229.95 259.35 L 227.15 259.17 L 224.34 259.21 L 221.53 259.44 L 218.72 259.79 L 215.92 260.18 L 213.10 260.56 L 210.29 260.85 L 207.48 261.00 L 204.68 260.96 L 201.89 260.76 L 199.10 260.33 L 196.39 259.55 L 193.81 258.37 L 191.46 256.79 L 189.24 255.00 L 187.10 253.11 L 185.01 251.14 L 182.97 249.10 L 180.96 247.01 L 178.93 244.94 L 176.84 242.91 L 174.68 240.96 L 172.40 239.10 L 170.00 237.35 L 167.46 235.71 L 164.81 234.18 L 162.03 232.75 L 159.16 231.39 L 156.22 230.10 L 153.22 228.83 L 150.19 227.57 L 147.16 226.29 L 144.16 224.96 L 141.21 223.56 L 138.34 222.07 L 135.58 220.45 L 132.96 218.71 L 130.51 216.82 L 128.23 214.82 L 126.15 212.68 L 124.32 210.38 L 122.75 207.95 L 121.44 205.39 L 120.45 202.74 L 119.73 200.02 L 119.32 197.25 L 119.21 194.46 L 119.41 191.69 L 119.89 188.97 L 120.66 186.31 L 121.68 183.75 L 122.99 181.32 L 124.51 179.03 L 126.27 176.92 L 128.22 175.00 L 130.36 173.29 L 132.66 171.80 L 135.09 170.53 L 137.63 169.49 L 140.26 168.68 L 142.97 168.10 L 145.75 167.73 L 148.56 167.55 L 151.40 167.53 L 154.27 167.64 L 157.14 167.84 L 160.03 168.07 L 162.92 168.30 L 165.81 168.48 L 168.71 168.58 L 171.61 168.56 L 174.50 168.40 L 177.40 168.09 L 180.30 167.62 L 183.20 166.98 L 186.12 166.19 L 189.05 165.26 L 192.00 164.19 L 194.99 163.01 L 198.01 161.74 L 201.07 160.39 L 204.17 158.99 L 207.31 157.55 L 210.49 156.09 L 213.69 154.66 L 216.90 153.25 L 220.13 151.90 L 223.35 150.60 L 226.57 149.34 L 229.76 148.10 L 232.92 146.85 L 236.02 145.55 L 239.04 144.14 L 241.99 142.57 L 244.83 140.83 L 247.58 138.90 L 250.22 136.77 L 252.76 134.48 L 255.22 132.03 L 257.61 129.48 L 259.93 126.86 L 262.20 124.19 L 264.42 121.50 L 266.60 118.82 L 268.74 116.15 L 270.82 113.50 L 272.85 110.86 L 274.81 108.22 L 276.71 105.57 L 278.52 102.88 L 280.25 100.15 L 281.90 97.36 L 283.47 94.50 L 284.99 91.59 L 286.46 88.64 L 287.93 85.68 L 289.42 82.76 L 290.95 79.89 L 292.55 77.11 L 294.23 74.43 L 295.96 71.83 L 297.76 69.26 L 299.77 66.92 L 302.00 64.94 L 304.46 63.40 L 307.04 62.24 L 309.75 61.51 L 312.49 61.16 L 315.24 61.20 L 317.96 61.65 L 320.61 62.47 L 323.14 63.69 L 325.54 65.20 L 327.86 66.81 L 330.21 68.43 L 332.56 70.09 L 334.88 71.83 L 337.19 73.61 L 339.48 75.44 L 341.76 77.29 L 344.02 79.17 L 346.28 81.06 L 348.52 82.96 L 350.74 84.88 L 352.92 86.82 L 355.07 88.80 L 357.16 90.83 L 359.17 92.91 L 361.13 95.04 L 363.05 97.19 L 364.87 99.43 L 366.50 101.83 L 367.83 104.44 L 368.86 107.22 L 369.52 110.15 L 369.82 113.18 L 369.72 116.30 L 369.28 119.44 L 368.64 122.60 L 367.90 125.84 L 367.03 129.16 L 366.08 132.56 L 365.12 136.02 L 364.25 139.53 L 363.56 143.06 L 363.13 146.57 L 363.02 150.04 L 363.31 153.42 L 364.05 156.67 L 365.24 159.74 L 366.87 162.59 L 368.91 165.19 L 371.34 167.49 L 374.13 169.47 L 377.22 171.11 L 380.54 172.48 L 384.04 173.61 L 387.67 174.54 L 391.38 175.34 L 395.14 176.10 L 398.89 176.89 L 402.61 177.80 L 406.27 178.85 L 409.85 180.09 L 413.33 181.61 L 416.66 183.45 L 419.80 185.59 L 422.83 187.93 L 425.77 190.41 L 428.61 193.05 L 431.37 195.81 L 434.06 198.66 L 436.70 201.57 L 439.30 204.54 L 441.87 207.53 L 444.43 210.53 L 446.97 213.55 L 449.51 216.57 L 452.04 219.60 L 454.56 222.62 L 457.07 225.64 L 459.58 228.65 L 462.09 231.67 L 464.58 234.69 L 467.05 237.72 L 469.50 240.77 L 471.91 243.84 L 474.25 246.94 L 476.52 250.09 L 478.68 253.30 L 480.71 256.57 L 482.62 259.89 L 484.41 263.27 L 486.07 266.75 L 487.46 270.32 L 488.55 273.97 L 489.33 277.71 L 489.86 281.48 L 490.00 285.27 L 489.91 289.07 L 489.48 292.85 L 488.75 296.58 L 487.75 300.24 L 486.45 303.82 Z" />
</symbol>
<symbol id="bl4">
<path d="M 413.12 383.88 L 413.92 387.90 L 414.68 391.91 L 415.39 395.92 L 416.03 399.93 L 416.58 403.94 L 417.02 407.95 L 417.31 411.96 L 417.45 415.96 L 417.41 419.96 L 417.23 423.94 L 416.86 427.92 L 416.30 431.91 L 415.52 435.88 L 414.45 439.77 L 413.13 443.58 L 411.58 447.30 L 409.80 450.92 L 407.73 454.39 L 405.48 457.74 L 402.99 460.94 L 400.31 463.97 L 397.41 466.80 L 394.35 469.44 L 391.13 471.89 L 387.73 474.08 L 384.22 476.07 L 380.58 477.80 L 376.84 479.31 L 373.02 480.56 L 369.11 481.54 L 365.16 482.29 L 361.16 482.75 L 357.14 482.94 L 353.12 482.89 L 349.12 482.58 L 345.14 482.00 L 341.22 481.17 L 337.37 480.05 L 333.60 478.72 L 329.93 477.15 L 326.38 475.31 L 322.95 473.26 L 319.66 471.01 L 316.51 468.60 L 313.48 466.06 L 310.55 463.39 L 307.72 460.60 L 304.99 457.69 L 302.37 454.67 L 299.82 451.57 L 297.34 448.40 L 294.91 445.19 L 292.52 441.94 L 290.14 438.66 L 287.78 435.38 L 285.43 432.08 L 283.07 428.77 L 280.71 425.46 L 278.35 422.15 L 275.99 418.83 L 273.62 415.51 L 271.26 412.19 L 268.89 408.87 L 266.51 405.55 L 264.13 402.22 L 261.74 398.90 L 259.34 395.58 L 256.92 392.27 L 254.46 388.96 L 251.96 385.68 L 249.40 382.42 L 246.77 379.21 L 244.04 376.06 L 241.22 372.98 L 238.28 370.00 L 235.23 367.13 L 232.07 364.36 L 228.82 361.69 L 225.49 359.11 L 222.12 356.58 L 218.73 354.09 L 215.36 351.59 L 212.05 349.06 L 208.80 346.50 L 205.58 343.93 L 202.44 341.30 L 199.73 338.27 L 197.68 334.77 L 196.21 330.99 L 195.49 326.97 L 195.47 322.86 L 196.02 318.78 L 196.71 314.76 L 197.51 310.78 L 198.44 306.82 L 199.51 302.90 L 200.69 299.01 L 201.96 295.14 L 203.28 291.29 L 204.65 287.46 L 206.05 283.65 L 207.48 279.87 L 208.95 276.11 L 210.45 272.40 L 211.98 268.72 L 213.51 265.08 L 214.99 261.48 L 216.38 257.90 L 217.64 254.35 L 218.76 250.82 L 219.77 247.32 L 220.28 243.77 L 220.10 240.22 L 219.20 236.78 L 217.61 233.52 L 215.31 230.58 L 212.40 228.03 L 209.31 225.61 L 206.10 223.21 L 202.78 220.84 L 199.38 218.50 L 195.96 216.15 L 192.56 213.77 L 189.21 211.35 L 185.92 208.88 L 182.69 206.33 L 179.92 203.44 L 177.74 200.20 L 176.01 196.76 L 174.39 193.29 L 172.70 189.88 L 170.92 186.53 L 169.05 183.25 L 167.05 180.06 L 164.84 177.03 L 162.50 174.08 L 160.05 171.22 L 157.50 168.42 L 154.92 165.66 L 152.34 162.91 L 149.82 160.13 L 147.41 157.29 L 145.12 154.38 L 142.97 151.40 L 141.00 148.31 L 139.25 145.06 L 137.82 141.69 L 136.72 138.20 L 135.98 134.62 L 135.58 130.98 L 135.53 127.31 L 135.85 123.67 L 136.54 120.07 L 137.55 116.54 L 138.90 113.13 L 140.57 109.86 L 142.58 106.79 L 144.86 103.91 L 147.41 101.27 L 150.21 98.90 L 153.24 96.82 L 156.45 95.02 L 159.82 93.56 L 163.31 92.40 L 166.92 91.64 L 170.60 91.22 L 174.31 91.13 L 178.03 91.42 L 181.71 91.89 L 185.39 92.45 L 189.07 93.12 L 192.75 93.92 L 196.42 94.83 L 200.08 95.82 L 203.74 96.87 L 207.40 97.98 L 211.06 99.14 L 214.71 100.34 L 218.36 101.59 L 222.00 102.91 L 225.64 104.30 L 229.28 105.76 L 232.92 107.28 L 236.57 108.84 L 240.22 110.41 L 243.72 112.42 L 247.05 114.74 L 250.38 117.02 L 253.69 119.29 L 256.97 121.58 L 260.22 123.86 L 263.44 126.12 L 266.65 128.33 L 269.87 130.45 L 273.09 132.44 L 276.34 134.27 L 279.62 135.91 L 282.92 137.38 L 286.24 138.68 L 289.62 139.70 L 293.05 140.20 L 296.47 140.09 L 299.78 139.45 L 302.93 138.28 L 305.87 136.64 L 308.49 134.50 L 310.75 131.93 L 312.62 129.00 L 314.13 125.82 L 315.60 122.58 L 317.08 119.28 L 318.58 115.93 L 320.10 112.56 L 321.66 109.15 L 323.28 105.72 L 325.05 102.27 L 327.22 99.04 L 329.91 96.19 L 333.05 93.78 L 336.59 91.86 L 340.27 90.02 L 344.03 88.20 L 347.91 86.44 L 351.88 84.77 L 355.95 83.19 L 360.09 81.71 L 364.29 80.33 L 368.52 79.06 L 372.79 77.90 L 377.08 76.86 L 381.41 75.93 L 385.77 75.07 L 390.18 74.19 L 394.66 73.64 L 399.07 73.81 L 403.30 74.80 L 407.27 76.46 L 410.88 78.78 L 414.01 81.70 L 416.63 85.09 L 418.61 88.91 L 419.93 93.05 L 420.46 97.44 L 420.24 101.93 L 419.65 106.37 L 419.09 110.78 L 418.47 115.16 L 417.77 119.53 L 416.95 123.89 L 416.04 128.22 L 415.03 132.51 L 413.93 136.75 L 412.75 140.90 L 411.47 144.95 L 410.09 148.88 L 408.60 152.68 L 407.06 156.37 L 405.48 159.97 L 403.42 163.34 L 400.79 166.39 L 397.60 169.07 L 394.37 171.69 L 391.10 174.32 L 387.79 176.96 L 384.47 179.65 L 381.19 182.44 L 378.03 185.35 L 375.02 188.43 L 372.20 191.68 L 369.59 195.13 L 367.20 198.74 L 365.00 202.51 L 362.98 206.39 L 361.11 210.37 L 359.35 214.41 L 357.68 218.47 L 356.09 222.54 L 354.56 226.59 L 353.10 230.60 L 351.73 234.57 L 350.47 238.47 L 349.36 242.32 L 348.42 246.12 L 347.63 249.87 L 347.00 253.61 L 346.97 257.29 L 347.62 260.87 L 349.02 264.22 L 351.07 267.27 L 353.51 270.07 L 356.11 272.82 L 358.89 275.49 L 361.84 278.06 L 364.93 280.55 L 368.11 282.99 L 371.32 285.41 L 374.53 287.86 L 377.69 290.37 L 380.74 293.00 L 383.66 295.76 L 386.42 298.68 L 389.00 301.76 L 391.37 305.02 L 393.45 308.49 L 395.24 312.13 L 396.84 315.89 L 398.28 319.73 L 399.56 323.65 L 400.70 327.61 L 401.75 331.61 L 402.73 335.63 L 403.66 339.65 L 404.56 343.67 L 405.44 347.70 L 406.31 351.73 L 407.18 355.75 L 408.04 359.77 L 408.90 363.79 L 409.76 367.81 L 410.62 371.83 L 411.47 375.85 L 412.30 379.87 Z" />
</symbol>
</defs>
<!-- isDone: 0 -->
<rect width="700" height="500" style="fill:#fff;stroke-width:0" />
<use class="p0 borderLine" xlink:href="#bl0"/>
<use class="p1 borderLine" xlink:href="#bl1"/>
<use class="p2 borderLine" xlink:href="#bl2"/>
<use class="p3 borderLine" xlink:href="#bl3"/>
<use class="p4 borderLine" xlink:href="#bl4"/>
<use class="q0 outLine" xlink:href="#bl0"/>
<use class="q1 outLine" xlink:href="#bl1"/>
<use class="q2 outLine" xlink:href="#bl2"/>
<use class="q3 outLine" xlink:href="#bl3"/>
<use class="q4 outLine" xlink:href="#bl4"/>
<circle onclick="fromCircle(16)" class="circle" cx="193.6478" cy="413.9289" r="59.6235" />
<text class="nLabel" x="193.65" y="408.93">706</text>
<text class="belong" x="193.65" y="418.93">(1)</text>
<circle onclick="fromCircle(24)" class="circle" cx="155.4200" cy="321.4565" r="33.5095" />
<text class="nLabel" x="155.42" y="316.46">223</text>
<text class="belong" x="155.42" y="326.46">(1, 2)</text>
<circle onclick="fromCircle(28)" class="circle" cx="189.0132" cy="277.7717" r="14.7146" />
<text class="nLabel" x="189.01" y="272.77">43</text>
<text class="belong" x="189.01" y="282.77">(1, 2, 3)</text>
<circle onclick="fromCircle(30)" class="circle" cx="202.5531" cy="242.9415" r="17.6690" />
<text class="nLabel" x="202.55" y="237.94">62</text>
<text class="belong" x="202.55" y="247.94">(1, 2, 3, 4)</text>
<circle onclick="fromCircle(31)" class="circle" cx="261.9700" cy="222.7330" r="39.9526" />
<text class="nLabel" x="261.97" y="217.73">317</text>
<text class="belong" x="261.97" y="227.73">(1, 2, 3, 4, 5)</text>
<circle onclick="fromCircle(8)" class="circle" cx="73.2922" cy="257.7973" r="63.2701" />
<text class="nLabel" x="73.29" y="252.80">795</text>
<text class="belong" x="73.29" y="262.80">(2)</text>
<circle onclick="fromCircle(12)" class="circle" cx="160.2443" cy="253.0552" r="16.7923" />
<text class="nLabel" x="160.24" y="248.06">56</text>
<text class="belong" x="160.24" y="258.06">(2, 3)</text>
<circle onclick="fromCircle(14)" class="circle" cx="176.6218" cy="224.0744" r="10.7617" />
<text class="nLabel" x="176.62" y="219.07">23</text>
<text class="belong" x="176.62" y="229.07">(2, 3, 4)</text>
<circle onclick="fromCircle(15)" class="circle" cx="237.3295" cy="166.0651" r="18.0914" />
<text class="nLabel" x="237.33" y="161.07">65</text>
<text class="belong" x="237.33" y="171.07">(2, 3, 4, 5)</text>
<circle onclick="fromCircle(10)" class="circle" cx="145.3284" cy="194.8467" r="26.0725" />
<text class="nLabel" x="145.33" y="189.85">135</text>
<text class="belong" x="145.33" y="199.85">(2, 4)</text>
<circle onclick="fromCircle(11)" class="circle" cx="197.9438" cy="188.8708" r="23.1030" />
<text class="nLabel" x="197.94" y="183.87">106</text>
<text class="belong" x="197.94" y="193.87">(2, 4, 5)</text>
<circle onclick="fromCircle(9)" class="circle" cx="173.1071" cy="128.7263" r="37.5486" />
<text class="nLabel" x="173.11" y="123.73">280</text>
<text class="belong" x="173.11" y="133.73">(2, 5)</text>
<circle onclick="fromCircle(13)" class="circle" cx="232.3375" cy="126.5941" r="17.9517" />
<text class="nLabel" x="232.34" y="121.59">64</text>
<text class="belong" x="232.34" y="131.59">(2, 3, 5)</text>
<circle onclick="fromCircle(4)" class="circle" cx="280.5999" cy="43.5520" r="26.4559" />
<text class="nLabel" x="280.60" y="38.55">139</text>
<text class="belong" x="280.60" y="48.55">(3)</text>
<circle onclick="fromCircle(20)" class="circle" cx="259.7872" cy="90.4383" r="21.0502" />
<text class="nLabel" x="259.79" y="85.44">88</text>
<text class="belong" x="259.79" y="95.44">(1, 3)</text>
<circle onclick="fromCircle(22)" class="circle" cx="294.2251" cy="119.5774" r="20.5662" />
<text class="nLabel" x="294.23" y="114.58">84</text>
<text class="belong" x="294.23" y="124.58">(1, 3, 4)</text>
<circle onclick="fromCircle(23)" class="circle" cx="326.1987" cy="173.1229" r="34.7633" />
<text class="nLabel" x="326.20" y="168.12">240</text>
<text class="belong" x="326.20" y="178.12">(1, 3, 4, 5)</text>
<circle onclick="fromCircle(6)" class="circle" cx="313.5541" cy="80.4892" r="19.3033" />
<text class="nLabel" x="313.55" y="75.49">74</text>
<text class="belong" x="313.55" y="85.49">(3, 4)</text>
<circle onclick="fromCircle(7)" class="circle" cx="345.9168" cy="113.9748" r="23.8536" />
<text class="nLabel" x="345.92" y="108.97">113</text>
<text class="belong" x="345.92" y="118.97">(3, 4, 5)</text>
<circle onclick="fromCircle(5)" class="circle" cx="395.7135" cy="98.3629" r="24.6836" />
<text class="nLabel" x="395.71" y="93.36">121</text>
<text class="belong" x="395.71" y="103.36">(3, 5)</text>
<circle onclick="fromCircle(21)" class="circle" cx="385.4417" cy="150.1559" r="22.2141" />
<text class="nLabel" x="385.44" y="145.16">98</text>
<text class="belong" x="385.44" y="155.16">(1, 3, 5)</text>
<circle onclick="fromCircle(2)" class="circle" cx="442.5936" cy="285.7311" r="47.3895" />
<text class="nLabel" x="442.59" y="280.73">446</text>
<text class="belong" x="442.59" y="290.73">(4)</text>
<circle onclick="fromCircle(18)" class="circle" cx="399.0289" cy="210.7718" r="32.4406" />
<text class="nLabel" x="399.03" y="205.77">209</text>
<text class="belong" x="399.03" y="215.77">(1, 4)</text>
<circle onclick="fromCircle(26)" class="circle" cx="364.7871" cy="255.7410" r="17.8109" />
<text class="nLabel" x="364.79" y="250.74">63</text>
<text class="belong" x="364.79" y="260.74">(1, 2, 4)</text>
<circle onclick="fromCircle(27)" class="circle" cx="327.0370" cy="236.8233" r="19.8181" />
<text class="nLabel" x="327.04" y="231.82">78</text>
<text class="belong" x="327.04" y="241.82">(1, 2, 4, 5)</text>
<circle onclick="fromCircle(3)" class="circle" cx="365.5021" cy="322.8232" r="31.3352" />
<text class="nLabel" x="365.50" y="317.82">195</text>
<text class="belong" x="365.50" y="327.82">(4, 5)</text>
<circle onclick="fromCircle(19)" class="circle" cx="307.8661" cy="288.9104" r="28.8242" />
<text class="nLabel" x="307.87" y="283.91">165</text>
<text class="belong" x="307.87" y="293.91">(1, 4, 5)</text>
<circle onclick="fromCircle(1)" class="circle" cx="355.9926" cy="421.8061" r="61.1247" />
<text class="nLabel" x="355.99" y="416.81">742</text>
<text class="belong" x="355.99" y="426.81">(5)</text>
<circle onclick="fromCircle(17)" class="circle" cx="277.0346" cy="353.7623" r="36.1131" />
<text class="nLabel" x="277.03" y="348.76">259</text>
<text class="belong" x="277.03" y="358.76">(1, 5)</text>
<circle onclick="fromCircle(25)" class="circle" cx="218.3421" cy="324.7403" r="22.8840" />
<text class="nLabel" x="218.34" y="319.74">104</text>
<text class="belong" x="218.34" y="329.74">(1, 2, 5)</text>
<circle onclick="fromCircle(29)" class="circle" cx="229.5188" cy="278.7081" r="18.5042" />
<text class="nLabel" x="229.52" y="273.71">68</text>
<text class="belong" x="229.52" y="283.71">(1, 2, 3, 5)</text>
<g id="legendBox">
<rect class="p0 borderLine" x="500.00" y="50.00" width="30.00" height="15.00" />
<rect class="q0" x="500.00" y="50.00" width="30.00" height="15.00" />
<text class="legend" x="540.00" y="65.00">B6D2F1 clean (N=1)</text>
<rect class="p1 borderLine" x="500.00" y="90.00" width="30.00" height="15.00" />
<rect class="q1" x="500.00" y="90.00" width="30.00" height="15.00" />
<text class="legend" x="540.00" y="105.00">ICR clean (1)</text>
<rect class="p2 borderLine" x="500.00" y="130.00" width="30.00" height="15.00" />
<rect class="q2" x="500.00" y="130.00" width="30.00" height="15.00" />
<text class="legend" x="540.00" y="145.00">C57BL/6J x mix (N=3)</text>
<rect class="p3 borderLine" x="500.00" y="170.00" width="30.00" height="15.00" />
<rect class="q3" x="500.00" y="170.00" width="30.00" height="15.00" />
<text class="legend" x="540.00" y="185.00">C57BL/6J clean (3)</text>
<rect class="p4 borderLine" x="500.00" y="210.00" width="30.00" height="15.00" />
<rect class="q4" x="500.00" y="210.00" width="30.00" height="15.00" />
<text class="legend" x="540.00" y="225.00">CAST/EiJxC57BL/6J (N=1)</text>
</g>
</svg>
